<?xml version="1.0" encoding="UTF-8"?>
<svg id="Livello_2" data-name="Livello 2" xmlns="http://www.w3.org/2000/svg" viewBox="0 0 60 60">
  <defs>
    <style>
      .cls-1 {
        fill: #e5b76e;
        fill-rule: evenodd;
      }
    </style>
  </defs>
  <g id="Livello_1-2" data-name="Livello 1">
    <path class="cls-1" d="M57.5,30c0,15.19-12.31,27.5-27.5,27.5S2.5,45.19,2.5,30,14.81,2.5,30,2.5s27.5,12.31,27.5,27.5Zm2.5,0c0,16.57-13.43,30-30,30S0,46.57,0,30,13.43,0,30,0s30,13.43,30,30Zm-30,14.5c8.01,0,14.5-6.49,14.5-14.5s-6.49-14.5-14.5-14.5-14.5,6.49-14.5,14.5,6.49,14.5,14.5,14.5Zm12-14.5c0,6.63-5.37,12-12,12s-12-5.37-12-12,5.37-12,12-12,12,5.37,12,12Z"/>
  </g>
</svg>