<svg width="357" height="357" viewBox="0 0 357 357" fill="none" xmlns="http://www.w3.org/2000/svg">
<path d="M357 178.036C357 79.7096 277.29 0 178.964 0L178.963 178.037L348.833 231.5C354.139 214.624 357 196.664 357 178.036Z" fill="#E5B76E"/>
<circle cx="178.964" cy="178.036" r="178.036" fill="#E5B76E" fill-opacity="0.5"/>
<circle cx="179" cy="178" r="112" fill="#FFFBF3"/>
<path d="M144.38 169.786C142.052 169.786 140.096 169.426 138.512 168.706C136.952 167.986 135.788 167.098 135.02 166.042C134.276 164.962 133.88 163.882 133.832 162.802C133.832 162.586 133.904 162.406 134.048 162.262C134.216 162.118 134.408 162.046 134.624 162.046H139.34C139.604 162.046 139.82 162.094 139.988 162.19C140.156 162.286 140.312 162.466 140.456 162.73C140.936 163.978 142.244 164.602 144.38 164.602C145.604 164.602 146.552 164.326 147.224 163.774C147.92 163.198 148.268 162.418 148.268 161.434C148.268 159.514 147.02 158.554 144.524 158.554H140.528C140.288 158.554 140.072 158.47 139.88 158.302C139.712 158.11 139.628 157.894 139.628 157.654V155.638C139.628 155.11 139.82 154.702 140.204 154.414L146.108 149.41H136.1C135.86 149.41 135.644 149.326 135.452 149.158C135.284 148.966 135.2 148.75 135.2 148.51V145.126C135.2 144.862 135.284 144.646 135.452 144.478C135.644 144.31 135.86 144.226 136.1 144.226H152.66C152.924 144.226 153.14 144.31 153.308 144.478C153.5 144.646 153.596 144.862 153.596 145.126V148.186C153.596 148.642 153.404 149.038 153.02 149.374L147.548 154.45L147.8 154.522C150.008 154.81 151.748 155.554 153.02 156.754C154.316 157.93 154.964 159.622 154.964 161.83C154.964 163.438 154.508 164.842 153.596 166.042C152.684 167.242 151.424 168.166 149.816 168.814C148.208 169.462 146.396 169.786 144.38 169.786ZM168.615 169.786C165.303 169.762 162.795 168.886 161.091 167.158C159.387 165.406 158.463 163.114 158.319 160.282C158.271 158.986 158.247 157.834 158.247 156.826C158.247 155.794 158.271 154.606 158.319 153.262C158.415 151.462 158.847 149.866 159.615 148.474C160.407 147.058 161.559 145.942 163.071 145.126C164.583 144.286 166.431 143.866 168.615 143.866C171.855 143.89 174.351 144.766 176.103 146.494C177.855 148.222 178.803 150.478 178.947 153.262C178.995 154.606 179.019 155.794 179.019 156.826C179.019 157.834 178.995 158.986 178.947 160.282C178.779 163.114 177.843 165.406 176.139 167.158C174.435 168.886 171.927 169.762 168.615 169.786ZM168.615 164.566C169.791 164.566 170.667 164.182 171.243 163.414C171.843 162.622 172.167 161.518 172.215 160.102C172.263 159.406 172.287 158.29 172.287 156.754C172.287 155.218 172.263 154.126 172.215 153.478C172.167 152.11 171.855 151.03 171.279 150.238C170.703 149.446 169.815 149.038 168.615 149.014C167.439 149.038 166.551 149.446 165.951 150.238C165.375 151.03 165.063 152.11 165.015 153.478C164.991 154.126 164.979 155.218 164.979 156.754C164.979 158.29 164.991 159.406 165.015 160.102C165.135 163.078 166.335 164.566 168.615 164.566ZM195.456 156.934C193.824 156.934 192.516 156.514 191.532 155.674C190.548 154.81 190.008 153.658 189.912 152.218C189.864 151.498 189.84 150.994 189.84 150.706C189.84 150.418 189.864 149.794 189.912 148.834C189.984 147.37 190.5 146.206 191.46 145.342C192.42 144.478 193.752 144.046 195.456 144.046C197.136 144.046 198.456 144.478 199.416 145.342C200.376 146.206 200.892 147.37 200.964 148.834C201.012 149.794 201.036 150.418 201.036 150.706C201.036 150.994 201.012 151.498 200.964 152.218C200.868 153.658 200.328 154.81 199.344 155.674C198.36 156.514 197.064 156.934 195.456 156.934ZM192.576 169.426C192.336 169.426 192.132 169.366 191.964 169.246C191.82 169.102 191.748 168.922 191.748 168.706C191.748 168.562 191.796 168.43 191.892 168.31L209.676 144.91C209.868 144.67 210.048 144.502 210.216 144.406C210.384 144.286 210.624 144.226 210.936 144.226H213.492C213.732 144.226 213.924 144.298 214.068 144.442C214.236 144.562 214.32 144.73 214.32 144.946C214.32 145.09 214.272 145.222 214.176 145.342L196.392 168.742C196.2 168.982 196.02 169.162 195.852 169.282C195.684 169.378 195.444 169.426 195.132 169.426H192.576ZM195.456 153.802C196.464 153.802 197.016 153.214 197.112 152.038C197.16 151.27 197.184 150.766 197.184 150.526C197.184 150.214 197.16 149.722 197.112 149.05C197.088 148.522 196.932 148.09 196.644 147.754C196.38 147.418 195.984 147.25 195.456 147.25C194.904 147.25 194.496 147.418 194.232 147.754C193.968 148.09 193.812 148.522 193.764 149.05C193.74 149.386 193.728 149.878 193.728 150.526C193.728 151.15 193.74 151.654 193.764 152.038C193.86 153.214 194.424 153.802 195.456 153.802ZM210.684 169.606C209.052 169.606 207.744 169.186 206.76 168.346C205.8 167.482 205.26 166.318 205.14 164.854C205.116 164.446 205.104 163.894 205.104 163.198C205.104 162.478 205.116 161.902 205.14 161.47C205.236 159.982 205.752 158.806 206.688 157.942C207.648 157.078 208.98 156.646 210.684 156.646C212.388 156.646 213.708 157.078 214.644 157.942C215.604 158.806 216.132 159.982 216.228 161.47C216.276 162.43 216.3 163.054 216.3 163.342C216.3 163.63 216.276 164.134 216.228 164.854C216.132 166.294 215.592 167.446 214.608 168.31C213.624 169.174 212.316 169.606 210.684 169.606ZM210.684 166.438C211.236 166.438 211.644 166.27 211.908 165.934C212.172 165.574 212.328 165.142 212.376 164.638C212.424 163.918 212.448 163.414 212.448 163.126C212.448 162.814 212.424 162.322 212.376 161.65C212.328 161.146 212.172 160.726 211.908 160.39C211.644 160.03 211.236 159.85 210.684 159.85C210.132 159.85 209.724 160.03 209.46 160.39C209.196 160.726 209.052 161.146 209.028 161.65C209.004 161.986 208.992 162.478 208.992 163.126C208.992 163.774 209.004 164.278 209.028 164.638C209.076 165.166 209.22 165.598 209.46 165.934C209.724 166.27 210.132 166.438 210.684 166.438ZM144.44 212.786C142.328 212.786 140.624 212.078 139.328 210.662C138.032 209.222 137.384 207.218 137.384 204.65V194.606C137.384 194.342 137.468 194.126 137.636 193.958C137.804 193.79 138.02 193.706 138.284 193.706H142.784C143.048 193.706 143.264 193.79 143.432 193.958C143.624 194.126 143.72 194.342 143.72 194.606V204.434C143.72 206.786 144.764 207.962 146.852 207.962C147.86 207.962 148.652 207.65 149.228 207.026C149.804 206.402 150.092 205.538 150.092 204.434V194.606C150.092 194.342 150.176 194.126 150.344 193.958C150.536 193.79 150.752 193.706 150.992 193.706H155.492C155.756 193.706 155.972 193.79 156.14 193.958C156.308 194.126 156.392 194.342 156.392 194.606V211.526C156.392 211.766 156.308 211.982 156.14 212.174C155.972 212.342 155.756 212.426 155.492 212.426H151.316C151.076 212.426 150.86 212.342 150.668 212.174C150.5 211.982 150.416 211.766 150.416 211.526V210.158C149.168 211.91 147.176 212.786 144.44 212.786ZM168.331 212.786C166.387 212.786 164.755 212.51 163.435 211.958C162.139 211.406 161.179 210.746 160.555 209.978C159.931 209.21 159.619 208.526 159.619 207.926C159.619 207.686 159.703 207.494 159.871 207.35C160.063 207.182 160.267 207.098 160.483 207.098H164.587C164.731 207.098 164.863 207.158 164.983 207.278C165.271 207.47 165.487 207.626 165.631 207.746C166.159 208.13 166.615 208.418 166.999 208.61C167.407 208.778 167.899 208.862 168.475 208.862C169.171 208.862 169.735 208.73 170.167 208.466C170.623 208.178 170.851 207.782 170.851 207.278C170.851 206.87 170.731 206.546 170.491 206.306C170.275 206.066 169.843 205.838 169.195 205.622C168.547 205.382 167.563 205.13 166.243 204.866C164.251 204.458 162.715 203.798 161.635 202.886C160.579 201.95 160.051 200.702 160.051 199.142C160.051 198.158 160.363 197.222 160.987 196.334C161.611 195.446 162.535 194.726 163.759 194.174C165.007 193.622 166.483 193.346 168.187 193.346C169.891 193.346 171.379 193.61 172.651 194.138C173.923 194.666 174.883 195.314 175.531 196.082C176.203 196.826 176.539 197.51 176.539 198.134C176.539 198.35 176.455 198.542 176.287 198.71C176.143 198.878 175.963 198.962 175.747 198.962H172.003C171.811 198.962 171.631 198.902 171.463 198.782C171.151 198.614 170.875 198.434 170.635 198.242C170.227 197.93 169.843 197.69 169.483 197.522C169.123 197.354 168.679 197.27 168.151 197.27C167.527 197.27 167.023 197.414 166.639 197.702C166.279 197.99 166.099 198.362 166.099 198.818C166.099 199.178 166.195 199.478 166.387 199.718C166.603 199.958 167.035 200.198 167.683 200.438C168.355 200.654 169.339 200.882 170.635 201.122C172.963 201.53 174.655 202.25 175.711 203.282C176.791 204.314 177.331 205.526 177.331 206.918C177.331 208.694 176.539 210.122 174.955 211.202C173.371 212.258 171.163 212.786 168.331 212.786ZM189.165 212.786C186.285 212.786 184.017 212.006 182.361 210.446C180.705 208.886 179.841 206.618 179.769 203.642V202.382C179.865 199.55 180.741 197.342 182.397 195.758C184.077 194.15 186.321 193.346 189.129 193.346C191.169 193.346 192.885 193.766 194.277 194.606C195.693 195.422 196.749 196.55 197.445 197.99C198.165 199.43 198.525 201.086 198.525 202.958V203.822C198.525 204.062 198.441 204.278 198.273 204.47C198.105 204.638 197.889 204.722 197.625 204.722H186.105V204.974C186.153 206.102 186.429 207.014 186.933 207.71C187.437 208.406 188.169 208.754 189.129 208.754C189.729 208.754 190.221 208.634 190.605 208.394C190.989 208.13 191.337 207.818 191.649 207.458C191.865 207.194 192.033 207.038 192.153 206.99C192.297 206.918 192.513 206.882 192.801 206.882H197.265C197.481 206.882 197.661 206.954 197.805 207.098C197.973 207.218 198.057 207.386 198.057 207.602C198.057 208.226 197.697 208.946 196.977 209.762C196.281 210.578 195.261 211.286 193.917 211.886C192.573 212.486 190.989 212.786 189.165 212.786ZM192.189 201.158V201.086C192.189 199.91 191.913 198.986 191.361 198.314C190.833 197.618 190.089 197.27 189.129 197.27C188.193 197.27 187.449 197.618 186.897 198.314C186.369 198.986 186.105 199.91 186.105 201.086V201.158H192.189ZM208.884 212.786C206.532 212.786 204.696 212.054 203.376 210.59C202.08 209.102 201.372 207.014 201.252 204.326L201.216 203.066L201.252 201.77C201.348 199.178 202.056 197.126 203.376 195.614C204.72 194.102 206.556 193.346 208.884 193.346C211.068 193.346 212.832 194.054 214.176 195.47V187.766C214.176 187.502 214.26 187.286 214.428 187.118C214.596 186.95 214.812 186.866 215.076 186.866H219.468C219.732 186.866 219.948 186.95 220.116 187.118C220.284 187.286 220.368 187.502 220.368 187.766V211.526C220.368 211.766 220.284 211.982 220.116 212.174C219.948 212.342 219.732 212.426 219.468 212.426H215.4C215.16 212.426 214.944 212.342 214.752 212.174C214.584 211.982 214.5 211.766 214.5 211.526V210.374C213.18 211.982 211.308 212.786 208.884 212.786ZM210.864 207.962C211.944 207.962 212.748 207.626 213.276 206.954C213.804 206.258 214.104 205.37 214.176 204.29C214.2 203.978 214.212 203.522 214.212 202.922C214.212 202.346 214.2 201.902 214.176 201.59C214.128 200.606 213.828 199.79 213.276 199.142C212.724 198.494 211.92 198.17 210.864 198.17C209.736 198.17 208.92 198.506 208.416 199.178C207.936 199.85 207.66 200.774 207.588 201.95C207.564 202.19 207.552 202.562 207.552 203.066C207.552 203.57 207.564 203.942 207.588 204.182C207.66 205.358 207.936 206.282 208.416 206.954C208.92 207.626 209.736 207.962 210.864 207.962Z" fill="#023A2F"/>
</svg>
