<svg width="250" height="380" viewBox="0 0 250 380" fill="none" xmlns="http://www.w3.org/2000/svg">
<g clip-path="url(#clip0_361_400)">
<path d="M40.45 186.23C40.45 193.33 50.98 199.5 66.45 202.66C82.3094 205.704 98.6073 205.66 114.45 202.53C129.62 199.33 139.86 193.23 139.86 186.23C139.86 175.91 117.6 167.55 90.14 167.55C62.68 167.55 40.45 175.91 40.45 186.23ZM104.6 186.23C104.6 189.89 98.14 192.85 90.18 192.85C82.22 192.85 75.75 189.85 75.75 186.23C75.75 182.61 82.21 179.61 90.18 179.61C98.15 179.61 104.6 182.57 104.6 186.23Z" fill="#FFFBF3" stroke="#023A2F" stroke-width="3.5" stroke-linecap="round" stroke-linejoin="round"/>
<path d="M90.18 179.61C98.18 179.61 104.6 182.61 104.6 186.23C104.6 189.85 98.14 192.85 90.18 192.85C82.22 192.85 75.75 189.85 75.75 186.23C75.75 182.61 82.21 179.61 90.18 179.61Z" stroke="#023A2F" stroke-width="3.5" stroke-linecap="round" stroke-linejoin="round"/>
<path d="M40.45 186.23C40.45 193.33 50.98 199.5 66.45 202.66C74.2488 204.196 82.1815 204.949 90.13 204.91H154.71C155.689 204.91 156.627 205.299 157.319 205.991C158.011 206.683 158.4 207.621 158.4 208.6V285.69C158.397 286.667 158.007 287.603 157.316 288.293C156.624 288.983 155.687 289.37 154.71 289.37H90.18C89.18 289.37 88.18 289.37 87.18 289.37C61.1 288.79 40.43 280.66 40.43 270.72L40.45 186.23Z" fill="#FFFBF3" stroke="#023A2F" stroke-width="3.5" stroke-linecap="round" stroke-linejoin="round"/>
<path d="M139.9 186.23V204.91H114.52V202.53C129.66 199.33 139.9 193.23 139.9 186.23Z" fill="#FFFBF3" stroke="#023A2F" stroke-width="3.5" stroke-linecap="round" stroke-linejoin="round"/>
<path d="M92.52 214.81V220.81C92.3798 221.196 92.1242 221.53 91.7879 221.765C91.4515 222.001 91.0507 222.128 90.64 222.128C90.2292 222.128 89.8284 222.001 89.4921 221.765C89.1557 221.53 88.9001 221.196 88.76 220.81V214.81C88.9001 214.424 89.1557 214.09 89.4921 213.854C89.8284 213.619 90.2292 213.492 90.64 213.492C91.0507 213.492 91.4515 213.619 91.7879 213.854C92.1242 214.09 92.3798 214.424 92.52 214.81V214.81ZM92.52 230.35V236.35C92.4066 236.761 92.1613 237.125 91.8217 237.383C91.4821 237.642 91.0669 237.782 90.64 237.782C90.213 237.782 89.7979 237.642 89.4583 237.383C89.1187 237.125 88.8733 236.761 88.76 236.35V230.35C88.9001 229.964 89.1557 229.63 89.4921 229.394C89.8284 229.159 90.2292 229.032 90.64 229.032C91.0507 229.032 91.4515 229.159 91.7879 229.394C92.1242 229.63 92.3798 229.964 92.52 230.35V230.35ZM92.52 245.89V251.89C92.4066 252.301 92.1613 252.664 91.8217 252.923C91.4821 253.182 91.0669 253.322 90.64 253.322C90.213 253.322 89.7979 253.182 89.4583 252.923C89.1187 252.664 88.8733 252.301 88.76 251.89V245.89C88.9001 245.504 89.1557 245.17 89.4921 244.934C89.8284 244.699 90.2292 244.572 90.64 244.572C91.0507 244.572 91.4515 244.699 91.7879 244.934C92.1242 245.17 92.3798 245.504 92.52 245.89V245.89ZM92.52 261.41V267.41C92.3798 267.796 92.1242 268.13 91.7879 268.365C91.4515 268.601 91.0507 268.728 90.64 268.728C90.2292 268.728 89.8284 268.601 89.4921 268.365C89.1557 268.13 88.9001 267.796 88.76 267.41V261.41C88.9001 261.024 89.1557 260.69 89.4921 260.454C89.8284 260.219 90.2292 260.092 90.64 260.092C91.0507 260.092 91.4515 260.219 91.7879 260.454C92.1242 260.69 92.3798 261.024 92.52 261.41V261.41ZM92.52 276.95V282.95C92.3798 283.336 92.1242 283.67 91.7879 283.905C91.4515 284.141 91.0507 284.268 90.64 284.268C90.2292 284.268 89.8284 284.141 89.4921 283.905C89.1557 283.67 88.9001 283.336 88.76 282.95V276.95C88.9001 276.564 89.1557 276.23 89.4921 275.994C89.8284 275.759 90.2292 275.632 90.64 275.632C91.0507 275.632 91.4515 275.759 91.7879 275.994C92.1242 276.23 92.3798 276.564 92.52 276.95V276.95Z" fill="#023A2F"/>
<path d="M114.52 203.14C114.52 210.24 125.06 216.41 140.52 219.57C156.379 222.614 172.677 222.57 188.52 219.44C203.69 216.24 213.94 210.14 213.94 203.14C213.94 192.82 191.67 184.46 164.21 184.46C136.75 184.46 114.52 192.82 114.52 203.14ZM178.67 203.14C178.67 206.8 172.21 209.76 164.25 209.76C156.29 209.76 149.82 206.76 149.82 203.14C149.82 199.52 156.28 196.52 164.25 196.52C172.22 196.52 178.64 199.49 178.64 203.14H178.67Z" fill="#FFFBF3" stroke="#023A2F" stroke-width="3.5" stroke-linecap="round" stroke-linejoin="round"/>
<path d="M164.22 196.52C172.22 196.52 178.64 199.52 178.64 203.14C178.64 206.76 172.18 209.76 164.22 209.76C156.26 209.76 149.79 206.76 149.79 203.14C149.79 199.52 156.25 196.52 164.22 196.52Z" fill="#FFFBF3" stroke="#023A2F" stroke-width="3.5" stroke-linecap="round" stroke-linejoin="round"/>
<path d="M114.52 203.14C114.52 210.24 125.06 216.41 140.52 219.57C148.319 221.105 156.251 221.859 164.2 221.82H228.78C229.269 221.814 229.754 221.904 230.207 222.087C230.661 222.269 231.074 222.54 231.422 222.883C231.77 223.226 232.046 223.635 232.234 224.086C232.423 224.537 232.52 225.021 232.52 225.51V302.6C232.52 303.579 232.131 304.517 231.439 305.209C230.747 305.901 229.809 306.29 228.83 306.29H164.22C163.22 306.29 162.22 306.29 161.22 306.29C135.14 305.71 114.47 297.59 114.47 287.64L114.52 203.14Z" fill="#FFFBF3" stroke="#023A2F" stroke-width="3.5" stroke-linecap="round" stroke-linejoin="round"/>
<path d="M213.95 203.14V221.82H188.52V219.41C203.7 216.24 213.95 210.14 213.95 203.14Z" fill="#FFFBF3" stroke="#023A2F" stroke-width="3.5" stroke-linecap="round" stroke-linejoin="round"/>
<path d="M166.52 231.72V237.72C166.38 238.106 166.124 238.44 165.788 238.675C165.452 238.911 165.051 239.038 164.64 239.038C164.229 239.038 163.828 238.911 163.492 238.675C163.156 238.44 162.9 238.106 162.76 237.72V231.72C162.9 231.334 163.156 231 163.492 230.765C163.828 230.529 164.229 230.402 164.64 230.402C165.051 230.402 165.452 230.529 165.788 230.765C166.124 231 166.38 231.334 166.52 231.72ZM166.52 247.26V253.26C166.407 253.672 166.161 254.035 165.822 254.293C165.482 254.552 165.067 254.692 164.64 254.692C164.213 254.692 163.798 254.552 163.458 254.293C163.119 254.035 162.873 253.672 162.76 253.26V247.26C162.9 246.874 163.156 246.54 163.492 246.305C163.828 246.069 164.229 245.942 164.64 245.942C165.051 245.942 165.452 246.069 165.788 246.305C166.124 246.54 166.38 246.874 166.52 247.26ZM166.52 262.81V268.81C166.38 269.196 166.124 269.53 165.788 269.765C165.452 270.001 165.051 270.128 164.64 270.128C164.229 270.128 163.828 270.001 163.492 269.765C163.156 269.53 162.9 269.196 162.76 268.81V262.81C162.873 262.398 163.119 262.035 163.458 261.777C163.798 261.518 164.213 261.378 164.64 261.378C165.067 261.378 165.482 261.518 165.822 261.777C166.161 262.035 166.407 262.398 166.52 262.81V262.81ZM166.52 278.35V284.35C166.38 284.736 166.124 285.07 165.788 285.305C165.452 285.541 165.051 285.668 164.64 285.668C164.229 285.668 163.828 285.541 163.492 285.305C163.156 285.07 162.9 284.736 162.76 284.35V278.35C162.9 277.964 163.156 277.63 163.492 277.395C163.828 277.159 164.229 277.032 164.64 277.032C165.051 277.032 165.452 277.159 165.788 277.395C166.124 277.63 166.38 277.964 166.52 278.35ZM166.52 293.9V299.9C166.407 300.312 166.161 300.675 165.822 300.933C165.482 301.192 165.067 301.332 164.64 301.332C164.213 301.332 163.798 301.192 163.458 300.933C163.119 300.675 162.873 300.312 162.76 299.9V293.9C162.873 293.488 163.119 293.125 163.458 292.867C163.798 292.608 164.213 292.468 164.64 292.468C165.067 292.468 165.482 292.608 165.822 292.867C166.161 293.125 166.407 293.488 166.52 293.9V293.9Z" fill="#023A2F"/>
<path d="M85.02 73.75C57.56 73.75 35.3 82.12 35.3 92.43C35.3 99.43 45.54 105.54 60.71 108.74C76.5527 111.87 92.8506 111.914 108.71 108.87C124.23 105.71 134.76 99.53 134.76 92.43C134.75 82.12 112.52 73.75 85.02 73.75ZM85.02 85.82C93.02 85.82 99.45 88.82 99.45 92.43C99.45 96.04 92.99 99.06 85.02 99.06C77.05 99.06 70.6 96.06 70.6 92.43C70.6 88.8 77.06 85.82 85.02 85.82Z" fill="#FFFBF3" stroke="#023A2F" stroke-width="3.5" stroke-linecap="round" stroke-linejoin="round"/>
<path d="M85.02 85.8198C77.02 85.8198 70.6 88.8198 70.6 92.4298C70.6 96.0398 77.06 99.0598 85.02 99.0598C92.98 99.0598 99.45 96.0598 99.45 92.4298C99.45 88.7998 92.99 85.8198 85.02 85.8198Z" stroke="#023A2F" stroke-width="3.5" stroke-linecap="round" stroke-linejoin="round"/>
<path d="M134.75 92.4102C134.75 99.5102 124.22 105.69 108.7 108.85C100.9 110.38 92.9683 111.134 85.02 111.1H20.44C19.4631 111.1 18.526 111.488 17.8343 112.177C17.1426 112.867 16.7526 113.803 16.75 114.78V191.87C16.75 192.849 17.1388 193.787 17.8308 194.479C18.5228 195.171 19.4614 195.56 20.44 195.56H85.02C86.02 195.56 87.02 195.56 88.02 195.56C114.1 194.99 134.77 186.86 134.77 176.92L134.75 92.4102Z" fill="#FFFBF3" stroke="#023A2F" stroke-width="3.5" stroke-linecap="round" stroke-linejoin="round"/>
<path d="M35.3 92.4102V111.1H60.71V108.72C45.52 105.54 35.3 99.4102 35.3 92.4102Z" fill="#FFFBF3" stroke="#023A2F" stroke-width="3.5" stroke-linecap="round" stroke-linejoin="round"/>
<path d="M84.58 119.58C85.0187 119.531 85.4592 119.653 85.8096 119.922C86.16 120.19 86.3931 120.584 86.46 121.02V127.02C86.3467 127.432 86.1013 127.795 85.7617 128.053C85.4221 128.312 85.007 128.452 84.58 128.452C84.1531 128.452 83.7379 128.312 83.3983 128.053C83.0587 127.795 82.8134 127.432 82.7 127.02V121.02C82.7646 120.583 82.9971 120.188 83.348 119.919C83.699 119.65 84.1409 119.528 84.58 119.58V119.58ZM84.58 135.12C85.0187 135.071 85.4592 135.193 85.8096 135.462C86.16 135.73 86.3931 136.124 86.46 136.56V142.56C86.3199 142.946 86.0643 143.28 85.7279 143.515C85.3915 143.751 84.9908 143.878 84.58 143.878C84.1693 143.878 83.7685 143.751 83.4321 143.515C83.0958 143.28 82.8401 142.946 82.7 142.56V136.56C82.767 136.124 83 135.73 83.3504 135.462C83.7008 135.193 84.1414 135.071 84.58 135.12V135.12ZM84.58 150.67C85.0172 150.621 85.4565 150.742 85.8066 151.008C86.1567 151.275 86.3908 151.666 86.46 152.1V158.1C86.3467 158.512 86.1013 158.875 85.7617 159.133C85.4221 159.392 85.007 159.532 84.58 159.532C84.1531 159.532 83.7379 159.392 83.3983 159.133C83.0587 158.875 82.8134 158.512 82.7 158.1V152.1C82.7669 151.664 83.0004 151.272 83.3511 151.005C83.7018 150.738 84.1424 150.618 84.58 150.67ZM84.58 166.21C85.0187 166.161 85.4592 166.283 85.8096 166.552C86.16 166.82 86.3931 167.214 86.46 167.65V173.65C86.3467 174.062 86.1013 174.425 85.7617 174.683C85.4221 174.942 85.007 175.082 84.58 175.082C84.1531 175.082 83.7379 174.942 83.3983 174.683C83.0587 174.425 82.8134 174.062 82.7 173.65V167.65C82.7646 167.213 82.9971 166.818 83.348 166.549C83.699 166.28 84.1409 166.158 84.58 166.21V166.21ZM84.58 181.75C85.0187 181.701 85.4592 181.823 85.8096 182.092C86.16 182.36 86.3931 182.754 86.46 183.19V189.19C86.3467 189.602 86.1013 189.965 85.7617 190.223C85.4221 190.482 85.007 190.622 84.58 190.622C84.1531 190.622 83.7379 190.482 83.3983 190.223C83.0587 189.965 82.8134 189.602 82.7 189.19V183.19C82.767 182.754 83 182.36 83.3504 182.092C83.7008 181.823 84.1414 181.701 84.58 181.75V181.75Z" fill="#023A2F"/>
<path d="M208.45 193.89C207.56 200.48 197.58 208.13 183.11 211.18C167.269 214.32 150.969 214.368 135.11 211.32C119.59 208.15 108.44 202.67 108.44 195.58V111.12C108.44 118.21 118.97 124.39 134.49 127.55C142.29 129.08 150.222 129.834 158.17 129.8L208.44 111.12L208.45 193.89Z" fill="#FFFBF3" stroke="#023A2F" stroke-width="3.5" stroke-linecap="round" stroke-linejoin="round"/>
<path d="M172.6 111.12C172.6 114.77 166.14 117.74 158.18 117.74C150.22 117.74 143.75 114.74 143.75 111.12C143.75 107.5 150.21 104.5 158.18 104.5C166.15 104.5 172.6 107.46 172.6 111.12ZM108.45 111.12C108.45 118.21 118.98 124.39 134.5 127.55C150.359 130.595 166.657 130.55 182.5 127.42C197.67 124.22 207.91 118.11 207.91 111.12C207.91 100.8 185.65 92.4302 158.19 92.4302C130.73 92.4302 108.45 100.8 108.45 111.12V111.12Z" fill="#FFFBF3" stroke="#023A2F" stroke-width="3.5" stroke-linecap="round" stroke-linejoin="round"/>
</g>
<defs>
<clipPath id="clip0_361_400">
<rect width="219.24" height="236.03" fill="white" transform="translate(15 72)"/>
</clipPath>
</defs>
</svg>
