<svg width="250" height="380" viewBox="0 0 250 380" fill="none" xmlns="http://www.w3.org/2000/svg">
<g clip-path="url(#clip0_361_373)">
<path d="M65.75 147.43C65.75 154.53 76.28 160.7 91.75 163.86C107.609 166.904 123.907 166.86 139.75 163.73C154.92 160.53 165.16 154.43 165.16 147.43C165.16 137.11 142.9 128.75 115.44 128.75C87.98 128.75 65.75 137.11 65.75 147.43ZM129.9 147.43C129.9 151.09 123.44 154.05 115.48 154.05C107.52 154.05 101.05 151.05 101.05 147.43C101.05 143.81 107.51 140.81 115.48 140.81C123.45 140.81 129.9 143.74 129.9 147.43V147.43Z" fill="#FFFBF3" stroke="#023A2F" stroke-width="3.5" stroke-linecap="round" stroke-linejoin="round"/>
<path d="M115.51 140.81C123.51 140.81 129.93 143.81 129.93 147.43C129.93 151.05 123.47 154.05 115.51 154.05C107.55 154.05 101.08 151.05 101.08 147.43C101.08 143.81 107.51 140.81 115.51 140.81Z" stroke="#023A2F" stroke-width="3.5" stroke-linecap="round" stroke-linejoin="round"/>
<path d="M65.75 147.43C65.75 154.53 76.28 160.7 91.75 163.86C99.5751 165.401 107.535 166.155 115.51 166.11H180.09C181.069 166.11 182.007 166.499 182.699 167.191C183.391 167.883 183.78 168.822 183.78 169.8V246.89C183.777 247.867 183.387 248.803 182.696 249.493C182.004 250.183 181.067 250.57 180.09 250.57H115.51C114.51 250.57 113.51 250.57 112.51 250.57C86.43 249.99 65.76 241.86 65.76 231.92L65.75 147.43Z" fill="#FFFBF3" stroke="#023A2F" stroke-width="3.5" stroke-linecap="round" stroke-linejoin="round"/>
<path d="M165.2 147.43V166.11H139.79V163.74C154.96 160.53 165.2 154.43 165.2 147.43Z" fill="#FFFBF3" stroke="#023A2F" stroke-width="3.5" stroke-linecap="round" stroke-linejoin="round"/>
<path d="M117.8 176.01V182.01C117.66 182.396 117.404 182.73 117.068 182.965C116.732 183.201 116.331 183.327 115.92 183.327C115.509 183.327 115.108 183.201 114.772 182.965C114.436 182.73 114.18 182.396 114.04 182.01V176.01C114.153 175.598 114.399 175.235 114.738 174.976C115.078 174.718 115.493 174.578 115.92 174.578C116.347 174.578 116.762 174.718 117.102 174.976C117.441 175.235 117.687 175.598 117.8 176.01V176.01ZM117.8 191.55V197.55C117.687 197.961 117.441 198.325 117.102 198.583C116.762 198.842 116.347 198.982 115.92 198.982C115.493 198.982 115.078 198.842 114.738 198.583C114.399 198.325 114.153 197.961 114.04 197.55V191.55C114.18 191.164 114.436 190.83 114.772 190.594C115.108 190.359 115.509 190.232 115.92 190.232C116.331 190.232 116.732 190.359 117.068 190.594C117.404 190.83 117.66 191.164 117.8 191.55ZM117.8 207.09V213.09C117.687 213.501 117.441 213.864 117.102 214.123C116.762 214.382 116.347 214.522 115.92 214.522C115.493 214.522 115.078 214.382 114.738 214.123C114.399 213.864 114.153 213.501 114.04 213.09V207.09C114.18 206.704 114.436 206.37 114.772 206.134C115.108 205.899 115.509 205.772 115.92 205.772C116.331 205.772 116.732 205.899 117.068 206.134C117.404 206.37 117.66 206.704 117.8 207.09V207.09ZM117.8 222.64V228.64C117.66 229.026 117.404 229.36 117.068 229.595C116.732 229.831 116.331 229.958 115.92 229.958C115.509 229.958 115.108 229.831 114.772 229.595C114.436 229.36 114.18 229.026 114.04 228.64V222.64C114.18 222.254 114.436 221.92 114.772 221.684C115.108 221.449 115.509 221.322 115.92 221.322C116.331 221.322 116.732 221.449 117.068 221.684C117.404 221.92 117.66 222.254 117.8 222.64V222.64ZM117.8 238.18V244.18C117.66 244.566 117.404 244.9 117.068 245.135C116.732 245.371 116.331 245.498 115.92 245.498C115.509 245.498 115.108 245.371 114.772 245.135C114.436 244.9 114.18 244.566 114.04 244.18V238.18C114.18 237.794 114.436 237.46 114.772 237.224C115.108 236.989 115.509 236.862 115.92 236.862C116.331 236.862 116.732 236.989 117.068 237.224C117.404 237.46 117.66 237.794 117.8 238.18V238.18Z" fill="#023A2F"/>
</g>
<defs>
<clipPath id="clip0_361_373">
<rect width="121.5" height="125.32" fill="white" transform="translate(64 127)"/>
</clipPath>
</defs>
</svg>
