<svg width="450" height="720" viewBox="0 0 450 720" fill="none" xmlns="http://www.w3.org/2000/svg">
<g clip-path="url(#clip0_412_386)">
<mask id="mask0_412_386" style="mask-type:alpha" maskUnits="userSpaceOnUse" x="-328" y="-217" width="616" height="1230">
<path d="M256.353 62.8353C254.826 57.3754 250.358 54.9075 248.674 47.5037C246.99 40.1 247.697 28.6306 246.98 26.0304C246.262 23.4302 244.466 23.303 243.738 19.5375C243.011 15.772 246.008 11.3502 245.83 7.83402C245.652 4.31789 246.252 -11.5022 248.236 -16.9468C250.318 -22.6612 247.382 -24.4828 245.458 -26.4317C243.535 -28.3806 241.942 -19.0178 240.324 -24.0249C239.077 -31.1487 237.596 -39.7991 237.067 -45.8748C236.36 -53.8993 235.576 -53.4261 229.999 -54.5252C227.191 -55.0849 227.257 -39.5091 221.858 -37.377C219.085 -36.283 214.734 -23.3786 213.833 -13.9701C210.709 -36.9852 218.769 -49.5588 219.807 -56.0619C220.845 -62.565 219.329 -66.5034 218.739 -69.2919C218.148 -72.0804 210.185 -67.7908 207.819 -67.5466C205.152 -60.5957 207.585 -49.7369 205.814 -45.5949C204.043 -41.4529 200.491 -46.1037 201.158 -37.7892C201.824 -29.4746 202.323 -24.6202 201.077 -15.5933C199.83 -6.56634 197.886 -1.44733 201.077 8.55151C204.267 18.5504 203.555 24.1629 203.575 28.7985C203.575 32.3961 207.61 46.6743 210.444 54.9431C211.854 58.79 212.027 63.7054 212.388 68.1222C212.749 72.539 215.874 72.2795 219.599 75.1341C223.323 77.9888 223.802 83.1892 225.608 85.3976C227.414 87.606 233.108 84.7514 235.938 80.7213C238.767 76.6912 238.584 73.5109 241.586 70.5443C244.588 67.5778 245.433 69.084 248.313 70.5443C251.193 72.0047 257.899 68.3003 256.353 62.8353Z" fill="#ED824C"/>
<path d="M30.959 131.973C31.0392 125.098 30.667 118.226 29.8446 111.4C29.4833 107.975 30.5722 104.006 30.4501 98.5515C30.328 93.0967 31.9207 85.1383 30.6028 75.2259C29.0762 63.843 30.0278 55.8134 30.0278 49.5801C30.0278 43.3467 30.618 26.2443 30.618 26.2443C26.8119 27.5317 18.0749 28.122 14.0398 28.468C5.6947 26.7278 9.46015 21.7003 7.31791 17.0698C4.97721 12.078 0.560431 17.3853 -6.98068 18.2045C-16.6895 18.9525 -21.0656 24.672 -26.322 24.672C-31.5784 24.672 -33.171 31.1852 -33.7359 36.8843C-34.3007 42.5834 -36.2801 65.9242 -38.3613 70.5547C-40.4425 75.1852 -48.0294 93.9617 -48.0294 98.9891C-48.0294 104.017 -51.1486 124.976 -51.1486 124.976C-51.1486 124.976 -54.0134 138.338 -54.0134 139.682C-54.0134 141.025 -51.749 140.389 -49.8358 139.682C-47.9225 138.974 -41.3279 138.155 -38.7073 137.137C-36.0867 136.12 -30.2299 105.334 -23.4419 82.6908C-16.9897 105.319 -27.9147 141.865 -27.9147 141.865C-26.3881 142.765 -26.3881 143.096 -23.6963 144.47C-23.6963 144.47 -9.50967 151.12 -1.94312 148.871C-0.218124 148.988 1.17612 147.94 2.32103 147.101C2.84005 146.822 3.3489 146.522 3.84757 146.2C5.40464 145.732 12.5896 141.681 12.5896 144.017C12.5896 146.353 13.6632 147.604 17.0165 148.693C20.3698 149.782 28.5572 151.706 29.9921 152.642C31.4271 153.578 30.8419 142.261 30.959 131.973Z" fill="#ED824C"/>
<path d="M150.563 136.786C147.668 131.25 142.177 120.335 140.651 110.769C139.124 101.203 136.534 92.8881 133.334 91.1224C130.133 89.3567 130.937 84.0749 128.591 73.496C126.245 62.917 122.816 43.1127 120.959 36.228C119.101 29.3433 119.89 23.1354 115.926 22.7995C111.962 22.4637 103.464 22.0872 101.169 21.5987C104.604 33.699 105.24 80.5995 100.752 92.5523C100.752 72.0254 91.8372 25.0385 90.6923 22.3976C89.8731 20.4945 86.4282 19.7057 84.2096 21.3493C84.2096 21.3493 71.4325 26.6057 66.1303 26.2699C63.0772 25.5422 60.4668 24.9469 60.4668 24.9469C59.3219 18.3318 60.0089 13.798 58.467 11.9814C56.396 9.54916 50.0405 9.39142 49.0432 10.6483C48.0458 11.9051 51.5467 22.479 50.3713 36.5435C49.4808 47.1275 48.4427 63.7668 50.3713 71.1909C52.2998 78.615 53.9027 88.4917 52.6204 93.8142C51.3381 99.1368 50.3458 110.148 51.216 113.608C53.0173 120.763 52.6865 134.929 52.8646 140.577C53.0427 146.225 48.5089 164.152 53.6482 163.801C58.7876 163.45 70.9949 156.372 73.8851 153.548C76.7754 150.724 76.7804 143.295 76.7804 143.295C80.3295 142.922 83.8983 142.769 87.4662 142.837C101.673 145.498 108.66 150.52 114.944 151.996L115.02 152.042C115.742 152.257 116.491 152.37 117.244 152.377C120.062 152.429 122.881 152.317 125.686 152.042C125.075 143.142 124.312 133.067 124.312 133.067C128.276 141.966 132.24 149.691 134.682 155.059C137.125 160.427 143.221 160.097 146.894 164.295C154.059 154.057 155.128 151.706 156.349 148.851C157.57 145.996 153.459 142.328 150.563 136.786Z" fill="#ED824C"/>
<path d="M219.273 111.333C216.072 105.054 207.701 87.5544 205.183 83.102C202.664 78.6496 199.336 70.6556 198.303 63.9591C197.27 57.2627 192.914 53.6499 189.709 48.2409C186.503 42.8318 185.923 31.8814 185.923 25.9534C185.923 20.0253 177.501 2.29197 176.86 -3.55977C176.219 -9.41151 170.881 -9.73208 168.261 -10.5869C165.64 -11.4418 167.65 -4.06353 167.803 -0.282793C167.955 3.49794 168.724 15.6899 167.955 15.8629C167.187 16.036 165.818 9.81274 163.376 7.76717C160.933 5.72161 138.061 8.32182 138.473 13.9395C138.834 18.9058 142.569 47.4267 144.706 53.9552C146.843 60.4837 153.199 53.2632 153.357 70.106C153.433 77.7387 157.28 88.8621 158.552 93.971C159.824 99.0798 166.693 111.328 169.116 115.622C176.3 113.735 178.916 110.463 184.076 112.91C189.235 115.358 191.2 117.668 194.41 121.276C197.621 124.883 199.316 125.886 202.939 128.613C206.322 131.157 211.436 130.893 212.922 126.731C213.574 124.914 213.635 123.937 214.22 121.21C208.719 116.187 207.233 112.269 206.663 110.722C206.093 109.175 213.655 116.004 216.637 118.192C219.619 120.38 222.473 117.617 219.273 111.333ZM186.106 77.7489C185.144 74.5228 177.964 64.5799 175.308 59.4711C172.652 54.3623 171.09 45.2234 170.988 38.2369C171.209 35.2178 171.664 32.2202 172.347 29.2711C172.856 27.7445 173.151 23.9841 174.347 26.4062C175.542 28.8284 176.83 36.5272 178.417 40.654C180.005 44.7807 180.565 48.1798 181.928 53.2428C183.292 58.3059 187.063 80.9801 186.106 77.7642V77.7489Z" fill="#ED824C"/>
<path d="M31.0911 347.627C31.0911 333.029 29.2185 325.147 27.4223 318.771C25.6261 312.395 26.0739 316.735 28.323 306.05C30.5721 295.364 27.1119 271.524 27.1119 268.054C27.1119 264.584 25.3462 264.584 22.0591 264.66C19.4205 264.753 16.8217 263.997 14.6452 262.502C12.9609 261.347 11.531 260.167 11.531 260.167C8.58481 262.655 5.72 264.197 0.845249 264.121C-4.02951 264.044 -7.58126 260.243 -9.17904 258.208C-10.4155 256.773 -11.1839 256.132 -14.6949 254.88C-15.3463 255.964 -15.9264 273.025 -18.1347 282.358C-20.3431 291.69 -21.254 285.864 -21.1878 282.358C-21.1217 278.852 -21.6458 273.651 -21.9715 269.234C-22.2971 264.818 -24.3732 263.886 -29.5533 264.579C-35.9495 265.199 -47.5817 267.632 -54.0848 268.985C-60.9542 270.435 -65.7018 273.056 -70.9836 276.358C-71.5688 283.828 -72.4542 292.942 -73.5278 302.386C-74.4539 310.415 -77.8632 309.082 -78.428 321.055C-78.6977 326.653 -78.9979 335.349 -78.5909 341.165C-78.0362 349.032 -74.688 352.024 -75.4258 361.585C-75.9805 368.78 -79.176 379.039 -79.405 382.829C-80.1683 395.393 -72.5916 392.859 -67.5031 392.279C-65.829 392.091 -63.3814 385.577 -59.9314 385.664C-52.8992 385.872 -45.9483 392.966 -44.5846 392.839C-42.6408 392.655 -36.9061 395.434 -35.517 389.088C-34.1482 386.188 -31.3749 382.88 -28.0827 381.669C-24.7905 380.458 -18.8166 381.237 -14.0894 382.178C-5.79521 384.595 -0.85941 383.155 5.43503 381.303C11.7295 379.451 22.0133 383.338 29.4272 384.916C28.6792 368.953 31.0911 362.231 31.0911 347.627ZM-43.6229 344.895C-45.241 346.813 -44.2386 360.827 -46.5335 371.518C-48.06 378.565 -51.5456 377.766 -55.072 373.044C-53.762 365.936 -53.0471 358.732 -52.9348 351.505C-52.9348 345.521 -53.8863 341.45 -54.0034 334.749C-54.1204 328.047 -51.7492 310.324 -49.8563 305.79C-47.9634 301.256 -49.6426 298.402 -49.8563 295.496C-50.5076 286.408 -44.3811 293.649 -43.6229 296.285C-42.8647 298.921 -46.3707 313.362 -46.6098 318.628C-46.849 323.895 -44.6151 333.146 -43.6229 336.494C-42.6306 339.842 -41.9997 342.982 -43.6229 344.895Z" fill="#ED824C"/>
<path d="M155.219 -179.6C152.675 -181.635 147.322 -182.505 145.729 -179.6C144.137 -176.694 139.496 -170.441 137.695 -168.965C135.893 -167.489 133.471 -167.438 132.754 -170.033C131.69 -173.865 127.014 -178.948 124.068 -171.326C122.872 -168.227 115.489 -156.982 114.283 -155.246C113.077 -153.511 105.469 -143.884 98.8035 -144.744C95.3331 -145.955 91.7559 -147.1 91.8272 -150.127C91.9493 -155.511 85.5073 -156.279 77.9458 -168.955C74.852 -165.902 59.724 -153.577 53.1904 -152.041C50.5546 -143.711 53.9944 -121.413 55.8262 -109.883C57.6581 -98.3522 55.8262 -87.8394 52.3864 -92.4547C48.9466 -97.0699 48.4886 -94.7597 48.3156 -86.3027C48.1426 -77.8457 49.6183 -60.6772 49.8422 -49.4316C50.0661 -38.1861 48.0053 -38.6339 46.9011 -27.6123C45.7969 -16.5906 42.5046 -20.697 48.3105 -15.8274C54.1165 -10.9577 54.6559 -14.5451 61.0724 -14.3008C67.489 -14.0566 68.868 -8.66282 70.6998 -0.719719C72.5317 7.22338 74.3686 4.6639 85.1409 1.99754C88.3772 0.699978 90.0869 -1.48806 93.715 -2.03252C94.3463 -1.99195 94.9728 -1.89661 95.5875 -1.74757C97.2362 -1.23872 97.684 3.29002 107.291 4.61811C116.898 5.9462 116.135 5.77319 116.354 -0.89271C116.572 -7.55861 116.73 -14.5603 118.674 -20.5393C120.618 -26.5183 120.77 -40.018 119.722 -46.4905C118.674 -52.963 118.374 -55.029 119.422 -58.2754C120.47 -61.5219 124.037 -66.1371 125.248 -73.1439C126.459 -80.1507 129.319 -92.1086 133.049 -99.2834C136.779 -106.458 139.939 -127.133 140.911 -131.575C141.882 -136.017 145.78 -140.973 147.276 -144.047C148.772 -147.12 154.314 -164.808 155.214 -168.95C156.115 -173.092 157.764 -177.549 155.219 -179.6ZM67.8503 -24.4625C63.7235 -29.0778 59.1999 -42.9184 60.7671 -53.8484C61.1437 -56.4588 61.9426 -60.4634 60.4517 -63.4198C58.9607 -66.3762 58.3705 -75.2048 58.4163 -79.82C58.4519 -84.308 62.9043 -88.216 63.9372 -90.5058C64.9702 -92.7956 64.8328 -96.4237 66.0948 -93.6454C69.9009 -85.2748 67.9012 -68.0147 69.275 -64.9413C70.6489 -61.8679 67.9419 -51.4416 68.1709 -47.3454C68.3998 -43.2491 64.5224 -37.2804 67.8503 -24.4625Z" fill="#ED824C"/>
<path d="M141.659 547.035C139.115 545 133.762 544.129 132.169 547.035C130.577 549.94 125.936 556.194 124.135 557.67C122.333 559.146 119.911 559.196 119.194 556.601C118.13 552.77 113.454 547.686 110.508 555.309C109.312 558.408 101.928 569.653 100.723 571.388C99.5166 573.124 91.9093 582.751 85.2434 581.891C81.7731 580.68 78.1959 579.535 78.2671 576.507C78.3892 571.124 71.9472 570.355 64.3857 557.68C61.2919 560.733 46.1639 573.057 39.6303 574.594C36.9945 582.924 40.4343 605.222 42.2662 616.752C44.098 628.283 42.2662 638.795 38.8264 634.18C35.3865 629.565 34.9286 631.875 34.7556 640.332C34.5826 648.789 36.0582 665.958 36.2821 677.203C36.506 688.449 34.4452 688.001 33.341 699.022C32.2368 710.044 28.9445 705.938 34.7505 710.807C40.5564 715.677 41.0958 712.09 47.5124 712.334C53.9289 712.578 55.3079 717.972 57.1398 725.915C58.9716 733.858 60.8085 731.299 71.5808 728.632C74.8171 727.335 76.5269 725.147 80.1549 724.602C80.7862 724.643 81.4127 724.738 82.0275 724.887C83.6761 725.396 84.1239 729.925 93.731 731.253C103.338 732.581 102.575 732.408 102.794 725.742C103.012 719.076 103.17 712.074 105.114 706.095C107.058 700.117 107.21 686.617 106.162 680.144C105.114 673.672 104.814 671.606 105.862 668.359C106.91 665.113 110.477 660.498 111.688 653.491C112.899 646.484 115.759 634.526 119.489 627.351C123.219 620.177 126.379 599.502 127.35 595.06C128.322 590.618 132.22 585.662 133.716 582.588C135.212 579.515 140.754 561.827 141.654 557.685C142.555 553.543 144.204 549.086 141.659 547.035ZM54.2902 702.172C50.1635 697.557 45.6398 683.716 47.2071 672.786C47.5836 670.176 48.3825 666.171 46.8916 663.215C45.4007 660.259 44.8104 651.43 44.8562 646.815C44.8918 642.327 49.3442 638.419 50.3772 636.129C51.4101 633.839 51.2728 630.211 52.5347 632.989C56.3409 641.36 54.3411 658.62 55.715 661.693C57.0889 664.767 54.3818 675.193 54.6108 679.289C54.8398 683.386 50.9624 689.354 54.2902 702.172Z" fill="#ED824C"/>
<path d="M30.4652 202.865L29.1423 198.911C29.1423 198.911 31.1268 183.091 31.1268 178.618C31.1268 174.145 22.5171 173.804 17.8968 172.598C13.2764 171.392 7.79103 167.612 7.79103 167.612C6.18307 168.349 4.50897 169.169 2.93664 169.988C-2.06024 171.718 -13.7383 170.074 -21.8697 166.859C-27.1718 164.08 -34.4484 159.954 -38.7328 156.682C-47.3171 159.501 -58.6949 158.498 -59.2801 162.9C-59.8653 167.301 -67.7117 189.166 -67.7117 197.654C-67.7117 206.142 -67.1163 211.189 -66.8568 225.982C-66.5973 240.774 -72.963 256.004 -67.8084 254.813C-62.6537 253.622 -58.2777 252.045 -55.0872 249.836C-51.6728 247.49 -53.8354 232.383 -54.0695 227.055C-54.3392 221.015 -54.6496 199.801 -45.0985 184.409C-47.2255 196.25 -48.8029 211.688 -48.5434 219.204C-48.2839 226.719 -45.358 232.342 -43.6788 245.257C-38.7685 243.801 -29.0495 243.17 -23.3657 242.687C-21.0148 242.489 -19.7274 241.496 -19.0201 239.741C-17.229 237.532 -15.4175 232.505 -12.1303 232.169C-8.84316 231.833 -4.58411 233.96 -2.61996 238.489C-2.15691 240.321 -1.71932 241.878 0.000578895 242.102C3.97467 242.611 6.45785 236.082 6.45785 236.082C8.94102 236.082 11.0935 236.423 13.2459 237.609C15.3983 238.794 19.0417 242.107 19.0417 242.107C23.5144 241.735 25.6566 241.221 26.3283 239.156C27 237.09 25.9976 233.136 26.3283 229.869C26.6591 226.602 30.4652 202.865 30.4652 202.865Z" fill="#ED824C"/>
<path d="M176.276 245.623C173.604 236.113 171.879 224.058 171.095 218.288C170.312 212.517 164.033 187.207 161.834 184.165C150.065 182.068 151.149 181.111 145.826 177.692C140.504 174.273 137.98 171.219 133.899 171.413C129.818 171.606 125.248 173.886 123.854 173.886C122.928 173.886 119.941 170.461 117.992 169.031C117.906 168.965 117.799 168.894 117.677 168.818C117.465 168.675 117.236 168.56 116.995 168.477C112.329 166.441 95.7251 163.571 89.7919 163.714C87.7565 163.648 86.2656 163.714 86.2656 163.714C85.7262 172.232 81.3858 178.979 79.1417 180.715C76.8977 182.45 70.7 179.997 68.3135 186.821C66.965 190.657 56.6914 191.741 51.2366 184.989C51.0737 192.179 46.7943 207.643 46.5297 210.864C46.2651 214.085 46.3058 230.546 46.5297 235.288C46.7536 240.031 44.2298 246.122 48.8348 245.816C53.4399 245.511 62.5737 244.697 66.3137 242.926C70.0537 241.155 70.3845 238.128 70.3845 238.128C74.4869 238.032 78.5733 238.673 82.4493 240.021C85.3802 241.161 84.8205 245.323 86.2452 251.215C87.67 257.108 94.6718 255.948 94.6718 255.948C95.4859 261.036 99.1496 259.733 103.673 262.196C108.004 264.547 112.456 271.355 112.222 264.913C112.224 264.908 112.225 264.902 112.225 264.896C112.225 264.89 112.224 264.884 112.222 264.878C112.268 263.458 110.212 242.88 109.271 238.55C108.329 234.22 109.271 226.338 108.584 211.698C110.298 212.207 119.57 252.742 121.198 260.278C122.826 267.814 125.9 267.651 130.525 267.402C130.608 267.396 130.691 267.379 130.769 267.351C133.558 267.096 136.652 265.865 138.59 264.898C142.595 262.898 141.104 255.576 140.315 252.177C146.93 252.935 150.36 257.311 154.914 258.075C159.468 258.838 166.058 258.833 170.922 257.505C175.787 256.177 178.942 255.139 176.276 245.623Z" fill="#ED824C"/>
<path d="M265.18 239.505C261.959 232.702 262.208 234.559 262.208 228.514C262.208 222.469 261.913 221.222 258.55 213.248C255.186 205.275 246.399 187.714 243.615 179.97C240.832 172.225 229.876 136.789 227.917 132.82C225.958 128.851 225.739 136.728 223.694 139.745C221.648 142.763 218.142 144.086 218.875 147.297C219.157 148.668 219.173 150.082 218.921 151.459V151.459C216.234 160.812 200.231 151.541 195.977 147.963C193.743 145.928 191.652 143.893 190.517 141.435C187.82 135.568 172.366 133.293 175.496 138.382C178.351 143.033 180.818 149.912 180.818 151.245C180.818 152.579 177.893 165.671 175.989 169.671C174.086 173.67 177.969 182.092 182.895 193.658C187.82 205.224 187.423 219.777 188.375 225.903C189.326 232.03 192.446 232.035 195.758 232.035C193.616 243.738 193.377 249.066 193.377 256.673C193.377 264.281 199.798 261.97 207.67 261.884C216.29 261.792 216.458 260.866 217.176 257.655C217.893 254.445 216.885 239.876 214.382 231.48C211.878 223.084 212.133 203.59 212.133 203.59C219.989 226.784 223.562 235.236 225.465 241.632C226.884 246.4 228.36 242.141 228.36 242.141C229.846 239.861 237.402 233.241 244.419 236.004C245.545 236.457 246.58 237.11 247.472 237.933C250.683 240.894 253.248 248.954 253.538 255.157C253.828 261.36 256.219 263.522 259.369 259.197C262.519 254.872 261.868 254.134 265.089 251.112C268.31 248.089 268.396 246.303 265.18 239.505Z" fill="#ED824C"/>
<path d="M187.175 378.672C183.46 367.828 184.498 362.292 183.063 351.072C181.629 339.852 181.649 337.618 180.977 332.112C180.306 326.607 180.799 325.63 176.576 322.739C172.352 319.849 172.164 317.849 175.339 314.969C178.514 312.089 175.085 314.969 175.278 302.248C175.471 289.527 171.747 283.853 170.968 281.665C170.19 279.477 154.792 275.61 154.792 275.61C153.382 281.716 146.488 283.456 144.417 284.215C142.346 284.973 145.037 285.894 142.92 287.812C140.804 289.731 134.219 287.675 131.502 287.242C121.35 284.291 116.237 292.59 104.411 288.204C100.559 286.677 101.292 281.08 94.3561 277.116C91.1504 275.269 84.0317 275.641 81.5332 273.341C79.0348 271.041 74.5366 262.685 74.5366 262.685C67.8758 262.029 66.0439 262.685 66.0439 262.685C66.5528 271.046 67.5705 286.789 68.751 293.343C69.9315 299.897 73.8089 313.636 73.9972 322.734C68.9392 307.24 64.6955 297.475 63.0468 290.066C61.5202 283.105 59.1337 266.537 57.882 264.487C56.6302 262.436 44.9064 264.588 44.9929 265.799C45.6849 275.391 48.392 300.233 47.644 304.66C46.896 309.087 51.1398 316.465 53.3889 319.417C55.638 322.368 55.6329 343.027 55.3836 349.439C55.1342 355.85 56.6353 373.787 57.6327 380.672C58.63 387.556 59.2762 390.777 65.876 390.187C73.2034 389.526 74.1193 390.263 72.374 371.329C91.6084 370.82 86.3622 372.067 95.8521 374.525C105.342 376.983 116.089 372.311 124.083 368.378C128.993 366.073 130.22 365.742 130.459 363.147C130.698 360.552 129.009 355.005 128.205 343.811C127.401 332.616 129.528 331.09 131.502 339.043C133.476 346.996 144.9 381.913 146.661 394.507C146.747 402.287 146.93 407.697 147.678 409.874C148.564 412.419 155.235 412.139 158.323 411.747C161.412 411.355 162.089 406.658 165.722 405.285C169.355 403.911 173.187 402.557 178.443 402.99C183.7 403.422 188.895 394.395 188.279 390.136C187.663 385.877 190.89 389.515 187.175 378.672Z" fill="#ED824C"/>
<path d="M282.628 367.166C281.757 363.9 281.61 358.333 280.027 353.132C278.445 347.932 282.063 328.927 280.46 324.128C278.857 319.33 275.438 311.224 273.336 306.827C271.234 302.431 269.627 278.53 268.756 276.999C267.886 275.467 263.983 277.803 261.785 279.879C259.587 281.955 258.763 286.117 256.921 287.944C255.079 289.771 252.178 291.196 250.957 292.101C249.736 293.007 250.102 295.612 251.69 303.535C253.277 311.458 251.812 319.258 247.044 300.94C242.276 282.621 243.624 281.985 242.597 275.615C241.36 267.982 241.752 265.265 240.775 262.97C239.798 260.675 235.3 262.507 232.007 264.466C229.926 265.697 229.021 269.727 229.021 274.078C229.021 276.251 228.4 281.98 226.746 283.833C225.092 285.685 221.805 281.751 217.953 283.324C217.5 283.507 215.821 284.245 215.037 284.586C212.056 285.893 209.852 285.252 209.852 285.252C209.852 285.252 205.161 284.296 204.331 285.649C204.967 292.707 210.371 303.672 210.722 305.825C211.073 307.977 209.455 330.886 209.16 333.369C208.595 326.571 204.189 306.507 202.749 303.128C201.309 299.749 198.047 290.504 197.151 287.201C192.928 286.138 187.992 281.879 188.71 284.693C190.501 291.506 191.763 302.024 193.798 304.644C195.834 307.265 193.874 313.661 193.544 315.976C193.213 318.292 195.655 326.662 198.123 333.135C200.591 339.607 196.475 342.665 202.779 360.205C205.324 367.197 207.552 375.079 207.868 383.506C207.99 387.123 208.58 387.469 215.068 386.243C221.556 385.017 223.683 382.829 226.008 378.61C228.334 374.392 227.433 369.192 227.306 367.136C226.858 360.012 233.02 355.315 234.002 361.813C234.328 363.623 234.863 365.388 235.595 367.075C236.256 368.78 237.966 371.263 241.961 370.418C245.411 369.69 246.27 376.478 250.331 377.786H250.407L250.55 377.827C250.642 377.856 250.735 377.88 250.83 377.898C250.998 377.944 251.155 377.99 251.339 378.025C251.484 378.058 251.635 378.058 251.781 378.025C252.871 378.044 253.96 377.957 255.033 377.766C261.882 376.748 263.22 369.624 267.952 367.721C272.685 365.818 272.476 373.176 277.112 374.479C281.747 375.781 284.444 374.01 282.628 367.166Z" fill="#ED824C"/>
<path d="M41.6265 -108.061C39.6521 -111.5 37.2758 -127.778 35.9834 -136.953C34.6909 -146.127 40.0847 -150.02 39.0772 -154.763C38.0696 -159.505 37.2046 -170.201 37.2046 -172.801C28.427 -174.48 22.9569 -175.396 23.1044 -172.801C23.252 -170.206 20.9011 -169.59 17.2527 -169.59C13.9706 -169.59 7.17754 -167.932 2.65898 -165.092C-3.6609 -161.123 -3.38614 -155.887 -6.43922 -150.916C-9.49231 -145.944 -17.0741 -142.006 -19.71 -146.845C-22.3458 -151.684 -24.2896 -153.836 -24.2896 -153.836C-27.8515 -154.574 -26.6099 -152.468 -25.8161 -145.339C-25.0223 -138.21 -24.3405 -119.291 -24.3405 -114.106C-24.3405 -108.921 -10.9832 -71.103 -18.3208 -65.1241C-23.5772 -80.8423 -30.1973 -101.135 -32.5176 -109.724C-34.838 -118.314 -33.0265 -127.224 -34.7006 -132.404C-36.3747 -137.584 -39.9417 -138.887 -39.0105 -145.044C-38.0793 -151.201 -39.0105 -155.465 -39.4787 -156.574C-48.2919 -158.655 -50.9226 -159.301 -52.7799 -164.003C-54.6372 -168.705 -56.8558 -179.884 -59.7817 -180.393C-65.3484 -181.284 -66.763 -176.083 -66.2898 -172.679C-65.8166 -169.275 -75.3269 -165.168 -74.3957 -160.904C-73.4645 -156.64 -68.5847 -156.152 -66.9666 -151.292C-65.3484 -146.433 -65.8827 -143.98 -66.2898 -138.169C-66.6969 -132.358 -54.912 -117.026 -51.8945 -111.918C-48.8771 -106.809 -43.6817 -98.3518 -44.1448 -94.2199C-44.6078 -90.0881 -45.1625 -84.216 -40.7304 -80.1249C-36.2984 -76.0337 -37.7537 -64.2845 -38.3287 -56.9927C-38.9037 -49.7009 -38.1302 -31.9625 -38.1302 -31.9625C-31.7137 -30.0136 -30.1718 -29.2859 -31.0572 -20.2946C-31.9426 -11.3033 -27.7701 -7.12058 -26.3758 -3.13631C-24.9816 0.84796 -27.9329 4.25216 -20.7785 4.25216C-13.6241 4.25216 -11.0646 2.60348 -10.6016 -3.13631C-10.3319 -6.48961 -7.33987 -6.60155 -4.13923 -6.18938C-0.434819 -5.50244 2.17048 -2.28142 4.30764 -2.22036C6.4448 -2.1593 10.6631 -4.70355 16.2808 -4.49493C16.68 -4.46945 17.0775 -4.42187 17.4715 -4.35243C20.8706 -3.75199 23.4606 -5.81794 23.0281 -1.22814C22.5956 3.36166 24.9719 6.56741 29.7195 4.73047C34.467 2.89354 31.017 -6.16902 32.0958 -14.8194C33.1745 -23.4698 36.4108 -38.6029 34.2533 -45.0246C32.0958 -51.4462 31.017 -53.0491 30.3708 -59.2418C29.7245 -65.4345 33.607 -69.1032 34.0396 -75.0618C34.4721 -81.0204 33.3933 -100.285 33.3933 -100.285C40.5121 -101.41 43.6059 -104.621 41.6265 -108.061Z" fill="#ED824C"/>
<path d="M23.9983 618.573C22.024 615.133 19.6477 598.855 18.3552 589.681C17.0627 580.506 22.4565 576.614 21.449 571.871C20.4415 567.129 19.5764 556.433 19.5764 553.833C10.7988 552.153 5.32871 551.237 5.47627 553.833C5.62384 556.428 3.27297 557.043 -0.375467 557.043C-3.65753 557.043 -10.4506 558.702 -14.9692 561.542C-21.2891 565.511 -21.0143 570.747 -24.0674 575.718C-27.1205 580.69 -34.7023 584.628 -37.3381 579.789C-39.974 574.95 -41.9177 572.797 -41.9177 572.797C-45.4797 572.06 -44.2381 574.166 -43.4443 581.295C-42.6505 588.424 -41.9686 607.343 -41.9686 612.528C-41.9686 617.713 -28.6114 655.531 -35.949 661.51C-41.2054 645.791 -47.8255 625.499 -50.1458 616.909C-52.4662 608.32 -50.6546 599.41 -52.3288 594.23C-54.0029 589.05 -57.5699 587.747 -56.6387 581.59C-55.7075 575.433 -56.6387 571.169 -57.1068 570.06C-65.9201 567.979 -68.5508 567.332 -70.4081 562.631C-72.2654 557.929 -74.484 546.749 -77.4098 546.241C-82.9766 545.35 -84.3912 550.551 -83.918 553.955C-83.4448 557.359 -92.9551 561.465 -92.0239 565.729C-91.0927 569.994 -86.2129 570.482 -84.5947 575.342C-82.9766 580.201 -83.5109 582.654 -83.918 588.465C-84.3251 594.276 -72.5402 609.607 -69.5227 614.716C-66.5052 619.825 -61.3099 628.282 -61.7729 632.414C-62.236 636.546 -62.7906 642.418 -58.3586 646.509C-53.9265 650.6 -55.3818 662.349 -55.9568 669.641C-56.5318 676.933 -55.7584 694.671 -55.7584 694.671C-49.3418 696.62 -47.8 697.348 -48.6854 706.339C-49.5708 715.33 -45.3983 719.513 -44.004 723.497C-42.6098 727.482 -45.5611 730.886 -38.4067 730.886C-31.2523 730.886 -28.6928 729.237 -28.2298 723.497C-27.9601 720.144 -24.968 720.032 -21.7674 720.444C-18.063 721.131 -15.4577 724.352 -13.3205 724.413C-11.1834 724.474 -6.96505 721.93 -1.34738 722.139C-0.948155 722.164 -0.550632 722.212 -0.156666 722.281C3.24243 722.882 5.83245 720.816 5.39993 725.406C4.96741 729.995 7.34374 733.201 12.0913 731.364C16.8388 729.527 13.3888 720.465 14.4676 711.814C15.5463 703.164 18.7826 688.031 16.6251 681.609C14.4676 675.188 13.3888 673.585 12.7426 667.392C12.0964 661.199 15.9789 657.531 16.4114 651.572C16.8439 645.613 15.7651 626.348 15.7651 626.348C22.8839 625.224 25.9777 622.013 23.9983 618.573Z" fill="#ED824C"/>
<path d="M229.525 556.968C228.095 554.022 227.622 548.073 222.768 550.618C220.605 551.752 214.356 556.576 210.845 560.087C207.334 563.598 205.574 566.194 204.627 569.15C203.681 572.106 198.567 582.487 193.585 584.68C181.76 589.875 173.776 614.529 168.143 622.335C168.438 617.913 181.302 578.268 179.948 577.475C178.595 576.681 168.799 571.369 168.667 575.129C168.535 578.889 162.561 594.358 160.673 597.671C158.785 600.983 156.948 602.347 157.895 613.267C158.403 619.053 149.514 636.236 146.812 640.205C144.476 644.062 138.36 656.336 144.079 659.419C145.316 666.894 138.686 673.586 138.126 677.952C137.566 682.318 138.706 692.494 138.126 695.832C137.546 699.171 133.099 709.505 132.406 714.751C131.865 719.135 131.865 723.568 132.406 727.951C132.778 730.495 137.897 731.131 143.55 731.289C149.204 731.447 151.132 733.039 150.883 729.203C150.633 725.366 149.356 716.802 150.089 713.78C150.822 710.757 157.269 714.258 162.596 714.731C166.132 715.016 169.683 715.071 173.226 714.894C173.404 707.897 176.549 704.58 177.48 701.058C178.411 697.537 177.363 697.084 175.913 688.815C174.463 680.547 183.77 669.103 180.355 664.172C179.287 661.19 180.325 648.184 180.493 646.871C180.784 644.953 181.175 643.05 181.663 641.172C182.793 636.328 187.555 623.82 190.593 622.289C194.664 620.253 197.89 619.795 199.244 614.122C200.597 608.448 196.806 603.945 200.322 601.65C203.838 599.355 221.694 586.227 222.757 581.011C223.821 575.795 222.33 570.061 231.51 564.799C231.53 564.799 230.955 559.919 229.525 556.968Z" fill="#ED824C"/>
<path d="M50.1199 406.816C49.377 413.762 44.1562 427.679 48.3797 434.599C52.6031 441.519 50.3692 463.873 50.1199 467.099C49.8706 470.325 44.4056 489.422 44.6549 497.121C44.9042 504.82 44.0188 515.317 44.6549 524.248C45.291 533.178 40.5841 542.48 44.4259 542.48C48.2677 542.48 53.86 540.994 56.8418 537.274C59.5878 533.672 61.6379 529.589 62.8869 525.235C63.3245 523.474 65.4311 512.788 67.0544 501.197C68.184 493.188 67.324 473.414 70.1837 465.878C69.5324 479.652 75.1399 492.44 74.6005 500.825C73.6897 514.987 72.7992 529.626 73.5828 533.046C74.8244 538.643 82.1366 539.152 82.9151 535.04C89.4538 539.62 88.6854 544.586 91.5095 549.548C104.74 551.781 103.147 542.2 105.019 536.246C106.948 530.14 113.919 526.812 112.555 517.46C111.863 512.692 122.335 508.672 123.333 502.082C125.745 486.206 115.614 475.083 118.896 465.12C121.842 456.189 116.27 452.465 117.018 444.257C117.766 436.049 121.898 429.373 122.89 425.155C123.882 420.936 123.139 419.761 121.399 414.891C119.659 410.022 118.916 392.161 117.674 392.161C105.248 394.889 102.974 402.587 96.7609 399.87C90.5478 397.153 78.5085 389.81 79.0072 393.255C80.2488 402.185 72.7687 410.739 72.0207 415.207C71.2727 419.675 71.0284 430.34 66.5557 426.615C62.0829 422.89 62.5053 402.353 50.1199 406.816Z" fill="#ED824C"/>
<path d="M143.15 432.874C143.15 440.634 139.919 447.91 139.919 450.821C139.919 453.732 140.051 464.397 137.466 469.969C134.881 475.541 140.519 485 140.331 490.094C140.143 495.187 139.064 506.972 135.782 512.305C133.747 515.791 132.482 519.672 132.072 523.688C138.881 526.598 143.684 524.935 148.31 522.456C150.94 521.042 152.029 515.668 155.433 511.801C159.107 507.654 155.703 523.316 160.522 523.561C165.341 523.805 167.34 521.016 172.475 518.101C174.826 505.619 174.322 506.906 181.049 504.978C181.558 495.121 184.565 486.939 185.237 482.899C185.908 478.858 194.152 459.548 190.284 450.658C188.524 446.618 194.152 430.94 194.152 426.091C194.152 421.242 193.475 419.476 192.625 416.23C191.775 412.983 182.311 418.702 180.296 419.832C178.281 420.962 175.843 424.554 173.202 426.412C171.228 427.806 167.066 424.961 164.211 425.608C161.356 426.254 150.884 435.382 143.15 432.874Z" fill="#ED824C"/>
<path d="M273.46 389.154C273.46 389.154 278.264 393.652 282.289 396.619C285.886 399.27 286.278 407.452 284.833 414.826C283.388 422.199 288.517 435.403 287.652 447.707C287.326 452.343 284.599 454.77 283.459 460.108C283.082 461.863 283.968 472.493 283.576 474.188C281.943 481.001 280.691 481.174 279.775 484.151C277.938 490.12 278.284 494.837 275.877 502.169C273.47 509.502 266.006 511.328 259.508 526.665C254.058 539.529 244.807 534.15 247.036 529.779C249.264 525.408 254.424 517.933 251.554 511.181C248.12 503.105 239.026 498.124 234.355 500.719C232.437 501.783 230.753 503.309 230.213 505.355C229.14 509.425 232.488 515.089 225.344 519.246C222.168 521.093 222.092 519.638 214.815 526.523C210.618 530.497 202.603 531.367 200.268 537.112C197.932 542.857 197.133 548.047 191.434 549.874C185.974 551.619 174.281 550.973 175.583 543.956C176.499 539.01 189.236 537.575 192.884 525.23C195.739 515.506 198.349 516.732 200.98 513.384C203.611 510.036 205.661 504.429 204.226 499.137C202.791 493.844 209.488 477.114 210.048 472.33C210.607 467.547 212.592 455.172 210.684 450.384C208.775 445.596 211.64 438.579 213.228 434.269C214.815 429.959 214.826 419.268 213.228 409.844C215.615 408.948 217.934 407.882 220.169 406.654C222.932 405.066 223.308 409.849 227.043 407.346C230.681 404.908 234.376 402.766 234.376 397.22C234.376 391.673 238.238 391.882 244.629 392.045C251.814 392.162 254.872 396.741 261.161 394.477C263.319 393.724 272.437 389.276 273.46 389.154Z" fill="#ED824C"/>
<path d="M31.8599 518.692C29.7482 512.835 28.5931 503.665 29.0561 495.514C29.5192 487.362 31.3612 490.674 27.4431 481.775C23.525 472.875 27.2192 459.614 26.4254 450.191C25.6316 440.767 23.3113 418.601 23.3113 412.745C23.3679 408.776 23.7526 404.819 24.4613 400.914C16.396 401.031 8.43765 397.993 5.84762 400.914C3.25759 403.835 -4.46671 403.514 -7.06692 400.527C-11.5092 395.439 -16.9538 399.708 -15.7733 404.038C-15.3001 409.635 -8.23726 432.747 -8.36447 441.973C-8.49168 451.198 -9.27532 457.431 -4.46672 465.888C-2.16673 469.929 -1.73928 487.194 -6.93461 498.236C-6.02886 486.415 -10.6085 473.201 -15.8598 467.156C-22.139 459.925 -16.5162 452.399 -18.5007 443.036C-22.2662 425.227 -26.7033 419.527 -30.484 412.892C-32.7789 413.859 -37.1601 414.927 -43.8311 413.803C-49.9729 412.785 -58.4503 409.656 -60.1447 409.544C-63.6812 409.3 -64.1545 412.21 -66.9887 413.177C-69.823 414.144 -77.1352 411.722 -82.0913 409.783C-80.1221 416.245 -82.4831 426.748 -82.7986 431.918C-83.1141 437.088 -76.6619 443.713 -76.3464 449.046C-76.031 454.378 -72.8863 468.112 -71.7668 474.412C-70.6474 480.711 -68.3016 482.172 -67.9912 485.723C-67.6808 489.275 -70.5049 498.49 -70.0266 503.172C-69.5483 507.853 -71.1969 501.182 -67.8945 514.025C-64.5921 526.869 -66.2407 529.052 -63.1724 530.263C-60.104 531.474 -60.5773 529.754 -59.3967 520.732C-58.4554 524.04 -56.8016 535.84 -53.9724 536.323C-51.1432 536.807 -48.0698 534.629 -41.465 534.629C-39.8112 538.506 -39.2668 543.946 -36.8854 545.884C-34.504 547.823 -25.5584 547.579 -25.5584 541.035C-25.5584 538.216 -28.8557 528.451 -29.8836 524.106C-31.6391 516.661 -20.2155 530.548 -14.2467 533.85C-3.18441 540.725 1.34942 531.026 2.38238 528.477C3.41534 525.927 8.25447 525.932 12.4016 526.187C16.5487 526.441 25.2703 528.731 28.3081 527.713C31.346 526.696 33.9818 524.548 31.8599 518.692Z" fill="#ED824C"/>
</mask>
<g mask="url(#mask0_412_386)">
<rect x="1" width="450" height="720" fill="#ED824C"/>
</g>
</g>
<defs>
<clipPath id="clip0_412_386">
<rect width="450" height="720" fill="white"/>
</clipPath>
</defs>
</svg>
