<svg width="450" height="720" viewBox="0 0 450 720" fill="none" xmlns="http://www.w3.org/2000/svg">
<g clip-path="url(#clip0_412_386)">
<path d="M244.565 401.961C240.864 402.933 242.582 410.027 243.507 411.375C244.433 412.723 244.036 416.08 245.844 418.601C247.652 421.123 255.359 417.592 261.322 418.601C267.284 419.611 280.753 424.31 283.993 423.808C287.234 423.306 287.054 420.954 289.031 420.446C291.008 419.939 292.631 422.465 294.793 422.968C296.955 423.47 301.808 418.601 307.749 420.113C313.691 421.625 323.946 423.549 328.804 423.845C333.661 424.141 335.305 422.465 339.524 421.287C343.742 420.108 350.038 417.925 342.479 416.08C334.92 414.235 330.781 414.975 327.725 412.908C324.67 410.841 321.784 405.476 317.645 406.316C313.506 407.157 312.966 410.017 309.187 409.678C305.407 409.34 301.628 404.636 297.489 403.795C293.35 402.955 292.271 403.626 287.234 404.466C282.196 405.307 277.719 400.1 274.278 399.931C270.836 399.762 269.599 406.147 269.599 406.147C267.258 405.307 266.898 398.419 260.613 398.583C254.328 398.747 249.063 400.787 244.565 401.961Z" fill="#ED824C"/>
<path d="M240.272 660.381C236.571 661.353 238.289 668.447 239.214 669.795C240.14 671.143 239.743 674.5 241.551 677.021C243.359 679.543 251.066 676.012 257.029 677.021C262.991 678.031 276.46 682.73 279.701 682.228C282.941 681.726 282.761 679.374 284.738 678.866C286.715 678.359 288.338 680.885 290.5 681.388C292.662 681.89 297.515 677.021 303.456 678.533C309.398 680.045 319.653 681.969 324.511 682.265C329.368 682.561 331.012 680.885 335.231 679.707C339.449 678.528 345.745 676.345 338.186 674.5C330.627 672.655 326.488 673.395 323.432 671.328C320.377 669.261 317.491 663.896 313.352 664.736C309.213 665.577 308.673 668.437 304.894 668.098C301.114 667.76 297.335 663.055 293.196 662.215C289.057 661.374 287.979 662.046 282.941 662.886C277.903 663.727 273.426 658.52 269.985 658.351C266.543 658.182 265.307 664.567 265.307 664.567C262.965 663.727 262.605 656.839 256.32 657.003C250.035 657.167 244.77 659.207 240.272 660.381Z" fill="#ED824C"/>
<path d="M196 252.307C196.058 257.831 199.854 265.411 204.717 265.607C209.58 265.802 214.665 262.472 220.258 263.534C222.261 263.915 223.911 267.166 227.352 267.176C234.097 267.176 229.773 262.794 234.451 261.89C239.129 260.986 249.939 265.591 255.162 265.004C260.385 264.417 263.799 261.055 266.495 260.664C269.191 260.273 281.973 264.021 283.051 263.524C284.13 263.027 285.932 262.435 287.729 257.709C289.527 252.983 291.868 247.454 296.187 246.08C300.506 244.705 301.769 236.808 296.187 237.004C290.605 237.199 288.089 239.176 284.854 239.964C281.619 240.751 274.81 237.5 271.221 237.199C267.632 236.898 262.235 237.305 257.186 237.199C252.138 237.093 251.065 246.762 248.2 246.566C245.335 246.37 247.116 239.858 242.798 240.059C238.479 240.26 238.12 245.778 232.543 248.141C226.966 250.504 227.452 251.223 219.893 251.815C212.334 252.407 195.947 245.757 196 252.307Z" fill="#ED824C"/>
<path d="M281.606 127.128C279.303 124.676 273.964 121.415 270.015 121.182C266.067 120.95 259.687 128.443 257 127.962C254.314 127.481 257.514 123.494 253.75 122.982C249.985 122.47 237.722 123.029 232.4 120.709C227.077 118.389 228.759 116.493 225.886 116.202C223.013 115.91 222.106 121.534 219.245 121.047C216.384 120.56 216.267 113.157 212.541 111.472C208.816 109.787 203.097 109.21 199.413 111.033C195.729 112.857 188.957 117.502 183.913 117.138C178.869 116.773 170.275 115.318 169.294 115.089C168.312 114.861 169.824 118.227 167.79 119.72C165.757 121.212 162.948 119.167 157.747 118.607C152.545 118.047 142.157 127.077 150.765 128.121C159.372 129.165 164.297 127.404 168.03 128.698C171.763 129.991 176.679 134.054 179.18 134.529C181.682 135.003 182.338 132.296 183.432 131.55C184.525 130.804 193.161 136.36 198.881 137.72C204.601 139.08 209.834 134.579 213.34 134.109C216.847 133.639 215.392 136.013 225.581 138.802C235.77 141.591 241.623 143.686 245.161 142.926C248.698 142.166 249.506 138.099 249.506 138.099C256.904 139.076 258.8 138.843 265.169 138.183C271.538 137.523 278.006 139.278 279.323 138.947C283.772 137.826 285.1 130.841 281.606 127.128Z" fill="#ED824C"/>
<path d="M251.269 47.5461C251.88 43.9091 252.666 37.0727 253.744 27.4377L240.948 18.1173C236.033 20.8782 233.413 19.2207 226.666 19.1761C219.918 19.1316 212.91 19.3382 207.272 21.5965C201.633 23.8548 200.544 29.6454 197.816 30.8295C195.088 32.0136 188.132 29.429 182.892 31.1286C177.652 32.8281 167.988 33.2239 163.419 40.1635C158.85 47.1031 157.838 53.7434 162.154 55.5226C166.469 57.3019 169.585 49.6245 173.638 49.6985C177.691 49.7725 174.518 59.1924 178.447 56.9325C182.377 54.6726 190.35 48.8295 194.705 47.9928C199.059 47.1562 203.828 51.5166 209.958 49.904C216.087 48.2914 219.782 46.6394 225.122 50.5321C229.382 53.6276 230.425 58.1511 237.009 57.6983C243.593 57.2456 250.659 51.183 251.269 47.5461Z" fill="#ED824C"/>
<path d="M371.943 196.304C370.107 200.977 372.676 207.125 377.245 208.177C381.813 209.23 390.909 211.367 393.105 211.9C395.301 212.432 400.385 216.776 400.468 219.131C400.551 221.486 404.767 225.738 406.901 225.253C409.035 224.768 411.632 218.558 413.975 219.351C416.317 220.144 422.235 225.454 425.935 226.138C429.635 226.822 436.447 223.019 438.606 224.6C442.646 227.572 448.506 227.588 452.978 226.497C456.017 225.772 459.009 223.787 459.723 220.867C468.305 219.798 469.162 219.128 469.026 216.863C468.891 214.598 471.337 207.84 459.659 207.483C447.981 207.126 442.192 209.953 439.749 209.542C437.306 209.131 438.406 206.419 434.208 206.764C430.01 207.11 432.024 210.036 426.735 209.579C421.446 209.122 412.868 206.68 409.338 205.611C408.36 205.284 407.322 205.177 406.298 205.296C405.273 205.415 404.288 205.758 403.411 206.3C399.311 202.194 398.002 202.335 393.787 201.503C389.571 200.671 377.307 194.424 371.943 196.304Z" fill="#ED824C"/>
<path d="M371.125 536.513C375.676 534.155 382.971 534.927 389.177 534.155C395.383 533.383 403.212 530.27 406.722 528.684C410.232 527.098 425.72 518.207 433.004 518.73C440.288 519.254 434.986 532.522 438.29 532.326C441.594 532.13 452.488 536.148 449.75 541.74C444.776 551.911 429.325 551.16 422.506 549.331C415.687 547.502 407.514 544.706 398.338 547.798C389.161 550.891 385.921 552.202 377.553 549.585C369.185 546.968 362.71 546.186 359.739 545.663C356.768 545.139 348.11 547.497 346.381 543.443C344.652 539.388 356.097 538.209 358.661 538.209C361.224 538.209 368.746 537.744 371.125 536.513Z" fill="#ED824C"/>
<path d="M409.972 493.416C409.073 498.422 412.668 503.164 413.752 504.718C414.835 506.272 409.428 509.782 404.564 510.109C399.701 510.437 391.429 513.873 389.092 514.037C386.756 514.201 380.814 510.929 378.293 511.093C375.771 511.257 379.916 515.02 377.574 516.659C375.232 518.298 361.557 519.302 357.777 519.931C353.998 520.56 346.952 525.132 342.559 525.132C338.166 525.132 337.986 526.116 332.949 524.313C327.911 522.511 322.688 522.838 321.79 519.894C320.891 516.95 321.61 517.928 322.847 513.508C324.084 509.089 323.207 508.603 324.65 504.342C326.093 500.082 332.928 499.273 336.702 499.765C340.476 500.256 349.843 496.651 353.617 495.668C357.392 494.685 359.918 494.526 364.417 496.487C368.915 498.448 377.013 495.996 381.512 496.815C386.01 497.634 403.312 497.322 409.972 493.416Z" fill="#ED824C"/>
<path d="M419.831 455.809C418.245 461.386 415.121 467.925 411.78 468.696C408.439 469.468 399.025 469.082 396.863 468.696C394.701 468.311 392.349 471.773 389.795 471.773C387.242 471.773 387.047 470.044 383.515 470.044C379.984 470.044 376.644 470.811 372.917 471.773C369.19 472.735 359.765 469.849 352.893 469.659C346.021 469.468 336.993 473.887 332.674 475.04C328.355 476.192 325.802 472.349 321.483 472.159C317.165 471.969 314.13 477.926 308.268 478.698C302.406 479.47 296.343 479.274 292.024 476.197C287.705 473.121 284.169 471.969 282.599 467.444C281.89 465.394 281.958 463.156 282.79 461.153C283.622 459.151 285.161 457.524 287.113 456.581C290.845 454.852 299.181 448.842 305.086 447.885C310.991 446.928 320.003 451.728 323.339 452.69C326.674 453.652 328.017 450.38 331.268 450.19C334.519 450 337.86 454.805 342.369 455.767C346.878 456.729 353.469 448.895 362.895 449.852C372.32 450.808 378.224 454.081 381.924 454.081C385.625 454.081 394.685 450.042 398.607 450.428C402.53 450.814 419.831 453.113 419.831 455.809Z" fill="#ED824C"/>
<path d="M267.828 81.0789C271.651 82.9156 272.028 78.471 276.133 84.5388C280.238 90.6066 274.915 98.3761 265.684 98.3254C256.453 98.2746 256.64 101.742 254.492 101.935C252.344 102.129 252.488 91.7186 250.82 92.7607C249.152 93.8028 251.521 102.06 248.347 104.421C245.174 106.783 239.039 108.079 234.3 107.912C229.561 107.745 214.191 95.0979 206.702 96.1554C201.701 97.4292 193.043 98.8309 191.887 97.7834C190.504 96.5175 182.265 97.2606 179.144 98.7309C176.023 100.201 165.7 103.908 163.569 104.35C161.438 104.791 150.48 101.518 148.045 102.528C145.61 103.538 139.635 107.437 134.511 106.715C129.388 105.994 124.748 104.624 121.665 104.509C118.581 104.394 113.45 105.526 109.837 103.537C104.307 100.485 101.83 96.3884 101.703 92.5041C101.487 86.0432 106.694 88.3494 108.814 85.7805C110.933 83.2115 112.731 80.0188 115.905 79.1381C119.08 78.2574 122.176 80.1065 127.782 82.1751C133.387 84.2438 135.334 83.8772 136.546 81.1884C137.757 78.4997 139.378 78.2846 143.716 78.3073C148.055 78.3301 149.643 87.8784 153.079 87.9612C156.515 88.0441 150.416 78.4993 150.435 76.7142C150.455 74.9291 160.9 74.6347 165.38 74.2306C169.861 73.8266 182.864 79.7766 187.129 80.979C191.358 82.1717 198.584 81.1412 202.357 80.603L202.448 80.5899C206.195 80.0557 205.429 75.5656 209.802 75.9674C211.894 76.1556 215.065 77.4194 218.054 79.1985C224.606 82.8165 235.281 83.4832 239.951 83.5929C244.791 83.7031 250.748 79.5461 253.68 78.9845C256.612 78.4228 264.005 79.2422 267.828 81.0789Z" fill="#ED824C"/>
<path d="M404.025 326.225C402.899 321.499 413.54 320.305 417.7 320.305C421.861 320.305 425.629 318.333 429.938 317.741C434.246 317.149 447.382 321.489 452.525 321.092C457.668 320.696 459.809 315.769 461.612 314.585C463.414 313.401 464.847 316.557 468.447 316.557C472.046 316.557 474.113 301.37 474.261 299.203C474.409 297.035 485.732 299.007 490.955 299.203C496.177 299.398 499.592 295.254 505.169 295.058C510.746 294.863 532.16 300.778 535.76 300.979C539.359 301.18 537.018 312.418 539.18 311.826C541.342 311.234 540.797 302.75 547.458 302.951C554.118 303.151 554.224 306.122 558.902 304.959C563.58 303.796 571.758 302.729 573.016 304.024C574.274 305.319 576.795 313.01 583.456 313.602C590.116 314.194 594.974 313.206 595.873 319.121C596.771 325.036 591.913 331.945 582.198 330.364C573.375 338.822 572.477 340.408 566.72 337.664C560.964 334.921 558.426 329.772 552.125 330.163C545.824 330.554 543.847 330.359 537.731 331.939C531.615 333.52 524.231 334.503 520.287 330.951C516.344 327.399 513.447 328.784 509.488 331.146C505.528 333.509 501.929 338.251 500.131 334.894C498.334 331.538 489.871 330.554 480.515 332.727C471.158 334.9 464.318 333.123 463.42 332.923C454.962 337.067 447.403 337.855 442.185 334.699C432.29 340.418 432.829 341.602 422.749 336.285C412.668 330.967 406.187 335.296 404.025 326.225Z" fill="#ED824C"/>
<path d="M446.14 456.454C439.892 457.585 437.233 466.196 435.346 470.087C433.458 473.977 430.757 480.31 431.296 483.228C431.836 486.146 437.909 484.66 441.15 487.092C444.39 489.524 448.989 494.672 450.881 498.563C452.774 502.453 453.038 504.647 463.039 507.549C473.041 510.451 473.839 502.686 478.157 501.951C482.476 501.216 490.035 507.306 493.815 509.494C497.594 511.683 500.56 508.279 505.973 508.035C511.386 507.792 528.914 504.631 533.503 504.864C539.169 509.484 548.89 514.595 556.989 513.623C565.087 512.65 566.704 508.997 568.861 510.705C571.018 512.412 572.641 512.888 575.612 513.744C578.582 514.601 590.703 501.745 599.341 504.917C607.978 508.088 620.126 507.385 626.871 506.148C633.616 504.911 640.614 508.791 646.577 510.271C652.54 511.751 665.739 510.515 668.171 508.564C670.602 506.613 664.391 504.43 658.724 503.458C653.058 502.485 651.165 496.845 654.406 496.866C657.646 496.887 665.469 498.103 674.784 495.185C684.098 492.267 682.744 489.83 684.367 487.399C685.99 484.967 681.127 484.962 688.955 483.503C696.784 482.044 695.431 477.159 686.524 475.959C677.617 474.76 671.141 474.501 663.582 472.555C656.023 470.61 639.557 464.499 636.031 465.472C632.506 466.445 631.173 468.644 624.698 469.362C618.223 470.081 617.678 470.578 613.359 468.147C609.041 465.715 606.879 464.013 598.511 463.04C590.143 462.068 593.922 461.819 587.447 462.797C580.972 463.775 582.589 463.283 578.27 462.062C573.952 460.841 563.422 459.874 555.324 462.549C547.225 465.223 547.167 473.279 543.927 473.279C540.686 473.279 549.34 462.755 533.481 461.09C528.238 460.561 526.462 459.874 520.266 459.874C514.071 459.874 495.702 463.283 491.114 461.333C486.525 459.382 479.236 455.254 479.236 455.254C475.995 460.117 476.54 463.283 468.442 461.597C460.343 459.911 459.64 454.017 446.14 456.454Z" fill="#ED824C"/>
<path d="M358.566 418.052C358.201 421.335 362.636 424.559 366.674 423.973C370.713 423.386 376.38 417.46 380.159 418.052C383.939 418.644 379.35 421.753 382.046 424.041C384.742 426.33 395.002 424.406 402.022 424.041C409.042 423.677 416.596 425.448 420.106 427.52C423.616 429.592 427.665 420.42 429.827 420.119C431.989 419.818 439.004 434.455 441.7 435.274C444.395 436.094 453.133 434.312 457.679 432.848C462.225 431.384 464.916 427.52 470.313 428.408C475.71 429.296 483.528 434.46 487.858 435.28C492.187 436.099 505.947 432.848 508.103 432.848C510.26 432.848 516.968 431.067 518.586 428.878C520.203 426.69 520.478 429.819 521.017 433.726C521.556 437.632 532.086 438.483 535.591 437.616C539.095 436.749 547.976 432.98 555.266 434.228C562.555 435.475 553.452 426.928 551.565 421.901C549.678 416.874 553.458 414.5 548.6 412.729C543.742 410.958 532.134 407.972 525.923 410.086C519.711 412.201 509.187 415.113 504.329 412.454C499.471 409.795 476.53 407.422 474.637 407.422C472.745 407.422 461.242 397.378 457.685 398.547C454.127 399.715 442.519 404.763 438.2 405.059C433.881 405.355 422.812 403.875 419.572 403.579C416.332 403.283 414.445 404.171 407.694 405.059C400.944 405.947 389.071 405.059 384.214 403.875C379.356 402.691 359.913 405.921 358.566 418.052Z" fill="#ED824C"/>
<path d="M450.088 267.586C454.297 268.228 459.918 253.805 459.918 253.805C452.574 253.866 440.077 248.06 436.207 248.637C432.338 249.214 436.53 252.967 431.235 254.154C425.94 255.341 423.522 250.3 417.088 249.571C410.654 248.841 394.082 251.191 390.206 252.06C386.33 252.93 370.548 245.783 366.498 245.323C362.448 244.864 352.047 248.154 346.752 249.341C341.457 250.528 323.074 248.119 318.867 250.025C314.661 251.931 313.325 257.339 317.978 257.867C322.632 258.394 331.855 256.86 332.28 259.489C332.706 262.117 332.24 266.23 336.553 266.522C340.866 266.814 347.773 263.427 347.773 263.427C352.892 267.779 356.87 269.432 362.3 269.447C367.73 269.461 378.53 265.329 381.298 265.643C384.066 265.957 383.53 267.492 386.706 268.24C389.882 268.989 403.849 270.381 405.633 267.407C407.417 264.434 406.889 264.358 410.013 267.111C413.137 269.865 422.821 270.745 427.223 268.664C431.624 266.583 444.999 266.482 450.088 267.586Z" fill="#ED824C"/>
<path d="M308.215 109.887C303.959 109.723 300 124.688 300 124.688C307.289 123.8 320.362 128.161 324.141 127.151C327.921 126.141 323.333 122.885 328.46 121.109C333.588 119.333 336.558 124.069 343.034 124.069C349.509 124.069 365.711 119.867 369.464 118.566C373.217 117.266 389.705 122.589 393.78 122.589C397.856 122.589 407.82 118.149 412.948 116.373C418.075 114.597 436.613 114.919 440.578 112.551C444.542 110.183 445.261 104.659 440.578 104.659C435.894 104.659 426.903 107.223 426.184 104.659C425.465 102.095 425.465 97.956 421.146 98.1516C416.828 98.3472 410.347 102.491 410.347 102.491C404.77 98.7436 400.631 97.549 395.234 98.1463C389.837 98.7436 379.571 104.067 376.785 104.067C374 104.067 374.359 102.481 371.119 102.095C367.878 101.709 353.844 101.899 352.406 105.055C350.968 108.211 351.502 108.227 348.087 105.843C344.673 103.459 334.951 103.676 330.812 106.239C326.673 108.803 313.395 110.41 308.215 109.887Z" fill="#ED824C"/>
<path d="M241.373 360.086C241.373 362.529 240.728 368.919 244.201 369.073C247.674 369.226 247.663 368.745 250.016 369.073C252.368 369.4 253.505 371.848 255.434 374.644C257.363 377.441 262.306 379.359 267.798 379.671C273.29 379.983 288.768 380.623 291.326 380.623C293.885 380.623 300.196 373.809 300.196 373.809C301.856 375.294 305.239 384.587 307.978 384.741C310.716 384.894 315.256 382.024 318.18 382.367C321.103 382.711 327.351 382.896 330.042 382.288C335.111 381.199 339.916 375.247 342.358 379.285C351.408 394.208 361.388 383.488 361.716 379.914C361.964 377.229 369.233 382.626 372.15 382.589C375.068 382.552 386.74 381.098 391.122 381.236C395.504 381.373 400.579 377.536 405.696 377.684C410.813 377.832 422.157 380.855 423.605 379.719C425.053 378.582 423.378 375.215 426.84 374.433C430.303 373.65 439.284 377.293 440.922 376.896C442.561 376.5 445.542 368.967 442.244 365.61C438.945 362.254 432.729 360.853 429.806 360.853C426.882 360.853 419.81 364.918 416.871 363.454C413.932 361.989 413.699 358.791 409.153 358.099C404.607 357.406 406.256 360.573 403.714 361.921C401.171 363.269 390.694 356.439 387.781 357.036C384.869 357.634 376.406 359.801 369.238 359.891C362.07 359.981 352.354 356.333 348.516 355.815C344.679 355.297 343.088 360.573 339.821 362.307C336.554 364.04 339.763 356.492 335.899 353.711C332.034 350.931 312.481 348.066 305.905 347.77C299.329 347.474 293.658 357.998 288.911 357.893C284.164 357.787 285.919 350.836 278.439 351.29C270.959 351.745 269.49 352.432 260.361 353.151C255.074 353.569 251.179 354.89 248.076 354.737C244.973 354.584 241.378 356.138 241.373 360.086Z" fill="#ED824C"/>
<path d="M444.21 288.203C443.513 283.081 442.217 281.659 436.043 282.917C429.869 284.175 423.885 287.024 417.912 288.203C411.939 289.382 403.175 289.392 397.994 288.203C392.814 287.014 389.177 288.303 380.413 289.974C371.648 291.644 365.992 290.957 368.255 294.414C370.322 297.586 372.626 299.79 377.521 300.134C384.832 300.662 385.804 300.953 390.388 301.191C394.971 301.429 398.576 297.739 399.971 296.544C401.367 295.35 402.16 304.415 409.729 304.177C417.299 303.94 422.284 299.166 423.473 299.166C424.662 299.166 426.856 300.123 431.043 301.075C435.229 302.026 462.537 302.274 444.21 288.203Z" fill="#ED824C"/>
<path d="M240.184 208.141C240.93 210.741 242.373 215.98 245.92 215.684C249.467 215.388 253.32 211.555 255.905 211.915C258.49 212.274 258.775 215.266 261.514 215.694C264.252 216.123 266.435 211.243 268.491 210.651C270.547 210.059 268.629 212.28 271.663 213.294C274.697 214.309 284.793 212.597 288.351 211.91C291.909 211.222 296.28 211.381 298.062 212.998C299.843 214.616 305.177 220.151 307.502 219.87C309.828 219.59 313.518 219.955 313.518 221.139C313.518 222.323 306.313 227.35 311.879 229.998C315.743 231.833 325.417 229.01 329.524 226.399C333.631 223.787 336.132 222.122 342.702 223.01C349.273 223.898 359.206 224.11 360.025 222.63C360.844 221.15 361.806 219.109 359.068 215.694C356.33 212.28 354.237 209.235 354.099 207.765C353.962 206.296 356.187 201.11 352.201 199.926C348.216 198.742 344.568 202.802 341.423 203.473C338.278 204.144 336.227 199.863 332.395 198.975C328.562 198.086 315.981 199.567 314.75 199.863C313.518 200.159 310.373 201.929 308.184 201.781C305.996 201.633 297.38 199.006 292.728 198.694C288.076 198.382 286.147 201.755 284.64 201.755C283.134 201.755 281.358 199.53 275.749 198.647C270.14 197.764 266.905 200.92 262.618 201.607C258.331 202.294 249.123 201.607 245.93 201.607C242.737 201.607 239.154 204.567 240.184 208.141Z" fill="#ED824C"/>
<path d="M375.552 573.931C372.98 575.147 371.876 579.316 373.985 582.742C376.095 586.169 375.885 593.049 375.306 596.619C374.727 600.189 372.441 604.193 374.904 609.392C377.368 614.591 384.948 612.584 392.665 612.953C402.83 613.449 406.059 603.041 406.059 603.041C405.835 611.732 409.178 617.447 414.054 618.096C418.931 618.744 422.523 616.53 425.266 613.844C428.009 611.159 431.344 605.99 433.713 605.238C436.082 604.486 447.264 611.344 455.378 611.163C463.492 610.982 471.367 608.115 473.247 607.948C475.127 607.781 476.596 612.065 479.892 612.547C483.188 613.028 491.854 609.81 494.141 608.253C497.451 606.118 501.283 604.934 505.22 604.83C510.083 604.668 515.645 609.321 520.762 605.882C525.88 602.444 528.94 597.3 531.894 597.037C534.848 596.774 542.377 599.08 545.95 596.597C549.524 594.114 552.317 584.243 548.666 580.434C543.188 574.692 534.55 580.2 525.024 578.703C515.497 577.205 499.828 573.718 497.223 574.857C494.618 575.997 497.407 580.981 493.658 581.495C489.91 582.01 492.244 577.827 487.978 576.583C483.712 575.339 471.277 576.711 465.598 578.305C459.918 579.899 453.162 578.351 451.681 574.71C450.005 570.613 449.781 567.56 443.382 568.767C436.983 569.974 435.074 576.777 430.239 577.367C425.403 577.957 421.983 569.887 411.563 570.274C401.143 570.66 395.64 574.069 390.615 574.431C385.59 574.794 380.752 571.483 375.552 573.931Z" fill="#ED824C"/>
<path d="M269 570.414C272.103 567.713 280.746 567.802 285.736 568.749C290.726 569.695 297.476 568.881 299.776 567.401C302.075 565.921 307.916 559.968 316.871 560C321.142 560 331.397 562.189 335.404 563.235C341.25 564.768 341.218 569.986 341.07 572.005C340.922 574.024 339.453 578.618 342.693 580.912C345.934 583.206 353.218 583.745 357.135 585.363C361.052 586.98 365.904 591.838 361.453 593.461C357.003 595.084 344.179 592.108 339.453 591.706C334.727 591.304 331.762 589.005 328.791 591.569C325.82 594.132 326.227 596.294 321.39 595.755C316.554 595.216 313.562 586.579 306.679 586.039C299.797 585.5 303.301 593.324 303.301 593.324C293.855 594.27 281.708 595.618 275.634 592.515C269.56 589.412 269.566 581.234 269 570.414Z" fill="#ED824C"/>
<path d="M190.398 622.448C190.789 616.522 197.412 613.541 201.731 613.002C206.05 612.462 218.081 609 218.081 609C215.438 613.319 218.081 619.149 223.209 617.04C228.336 614.931 230.498 612.505 235.895 610.618C241.292 608.73 257.489 611.426 262.077 612.505C266.665 613.583 272.068 612.505 274.494 611.157C276.92 609.809 290.151 613.858 297.171 614.127C304.191 614.397 304.963 613.319 307.157 615.46C311.206 619.419 307.426 620.154 307.426 623.917C307.426 626.946 315.567 632.771 321.482 631.424C327.397 630.076 334.417 634.659 336.849 634.659C339.28 634.659 342.785 633.041 348.478 632.771C354.171 632.502 360.107 640.325 355.762 642.487C351.417 644.649 345.777 644.105 335.791 642.487C325.806 640.87 324.162 641.287 316.624 643.909C309.086 646.531 312.221 649.232 301.469 647.081C290.717 644.929 293.143 642.767 286.932 640.605C280.721 638.443 281.398 643.037 271.211 643.576C261.025 644.115 259.651 632.581 258.435 632.29C257.219 632 258.842 640.706 257.087 641.647C255.332 642.588 249.93 645.157 244.533 644.48C239.135 643.804 236.033 638.137 231.317 636.926C226.602 635.716 220.391 640.838 215.459 640.706C210.527 640.574 207.186 637.534 204.506 635.531C201.826 633.527 198.908 632.835 193.781 632.296C188.653 631.757 190.139 626.492 190.398 622.448Z" fill="#ED824C"/>
<path d="M498.933 697.912C497.58 703.002 492.035 706.2 479.935 703.198C467.835 700.195 455.228 699.334 450.941 701.141C446.654 702.949 443.969 706.015 439.946 704.355C435.923 702.696 437.266 697.172 433.243 697.922C429.221 698.673 420.641 703.536 411.523 703.911C402.404 704.287 396.421 698.678 389.448 697.674C382.476 696.669 371.269 694.407 363.546 694.407C355.824 694.407 346.811 685.949 355.66 683.692C364.509 681.435 377.227 684.221 379.976 683.692C382.724 683.163 386.451 675.7 391.045 673.976C407.13 667.95 410.704 679.839 414.726 680.848C418.749 681.858 416.603 677.333 426.255 675.324C435.908 673.316 455.255 679.844 455.255 679.844C458.426 672.057 453.605 666.533 464.331 665.529C475.056 664.525 492.305 664.44 493.108 669.964C493.912 675.488 488.462 684.739 493.827 688.259C499.192 691.78 500.556 691.886 498.933 697.912Z" fill="#ED824C"/>
<path d="M394.364 730.585C391.779 725.473 403.54 721.937 411.808 721.281C420.075 720.626 423.86 717.105 427.46 717.105C431.06 717.105 429.801 721.292 437.001 721.958C444.201 722.624 451.395 716.101 458.774 717.105C466.154 718.11 468.818 722.555 470.108 729.496C470.964 734.1 483.064 742.056 460.593 742.056C452.664 742.056 443.857 737.198 437.382 737.029C430.906 736.859 434.427 738.371 422.856 739.376C411.284 740.38 410.544 733.682 405.686 733.682C400.828 733.682 396.52 734.856 394.364 730.585Z" fill="#ED824C"/>
<path d="M248.364 168.585C245.779 163.473 257.54 159.937 265.808 159.281C274.075 158.626 277.86 155.105 281.46 155.105C285.06 155.105 283.801 159.292 291.001 159.958C298.201 160.624 305.395 154.101 312.774 155.105C320.154 156.11 322.818 160.555 324.108 167.496C324.964 172.1 337.064 180.056 314.593 180.056C306.664 180.056 297.857 175.198 291.382 175.029C284.906 174.859 288.427 176.371 276.856 177.376C265.284 178.38 264.544 171.682 259.686 171.682C254.828 171.682 250.52 172.856 248.364 168.585Z" fill="#ED824C"/>
<path d="M595.352 639.975C592.18 633.405 587.253 629.541 579.879 630.46C575.386 630.989 556.753 631.449 552.164 630.64C547.576 629.831 544.336 633.611 539.747 634.15C535.159 634.689 526.791 631.719 522.742 625C522.742 625 514.913 628.753 506.546 629.562C498.178 630.371 486.036 632.802 480.306 635.192C474.575 637.581 477.398 640.086 472.535 640.086C467.672 640.086 463.358 634.689 460.906 635.229C458.453 635.768 458.744 640.356 443.631 639.547C437.879 639.241 432.239 638.569 427.424 638.226C412.834 636.841 404.223 640.176 402.05 640.176C399.878 640.176 401.522 634.06 396.109 634.42C390.696 634.779 383.153 639.817 379.014 640.176C374.875 640.536 369.837 653.307 375.594 654.565C381.35 655.823 388.735 654.385 393.952 653.127C399.17 651.869 416.984 661.188 422.566 659.317C428.148 657.446 425.737 650.193 433.259 653.989C436.849 656.341 441.189 660.829 451.444 660.861C467.64 660.935 474.121 657.552 482.219 659.978C490.317 662.404 493.283 659.449 497.062 655.665C500.842 651.88 504.082 654.311 518.117 657.012C519.174 656.204 522.436 651.615 531.612 654.042C540.789 656.468 551.858 653.835 562.118 650.6C572.378 647.365 577.321 651.589 582.734 653.476C588.147 655.363 599.76 649.147 595.352 639.975Z" fill="#ED824C"/>
<path d="M409.215 741.876C411.494 738.277 409.49 734.048 405.055 731.209C401.884 729.2 393.917 730.585 392.548 730.961C391.179 731.336 387.511 727.72 384.746 727.757C373.952 727.884 369.379 727.393 368.83 725.77C368.28 724.147 375.839 725.638 376.378 721.049C376.917 716.461 373.952 710.879 364.596 709.51C361.186 708.352 355.979 708.363 352.559 707.845C347.109 707.015 345.724 707.485 341.828 709.663C337.933 711.841 336.416 705.006 332.271 704.144C328.127 703.283 317.999 707.543 315.916 709.431C313.833 711.318 310.725 710.699 304.757 709.431C298.789 708.162 295.929 705.344 289.956 704.023C283.983 702.701 284.247 708.934 284.083 711.619C283.92 714.304 282.011 716.408 280.626 711.429C279.241 706.449 275.98 702.226 271.814 702.035C267.649 701.845 260.55 702.416 258.129 703.949C255.708 705.482 249.819 703.373 247.028 703.182C244.237 702.992 242.556 709.711 240.653 709.711C238.75 709.711 231.667 703.367 227.501 703.769C223.336 704.171 218.298 703.383 216.401 705.688C214.503 707.993 215.549 713.887 210.184 715.996C204.819 718.105 192 715.673 192 721.811C192 730.533 204.977 731.399 207.832 731.146C210.686 730.892 216.025 731.114 218.362 732.837C220.698 734.561 215.1 741.58 221.533 743.97C223.722 744.778 230.578 741.184 237.159 741.184C243.74 741.184 246.632 746.185 250.142 746.185C272.983 746.248 264.192 738.351 269.97 736.046C275.747 733.741 274.198 739.418 278.665 740.069C288.566 741.506 300.539 737.907 305.207 735.893C309.874 733.879 312.137 737.817 316.196 738.689C319.156 739.323 322.888 738.853 326.309 738.314C332.943 735.142 336.474 728.106 338.139 729.269C339.941 730.527 335.982 733.768 340.301 737.907C344.62 742.046 349.287 743.848 356.767 742.135C356.767 742.135 363.893 740.55 364.696 740.624C365.753 740.74 368.111 744.9 370.326 744.9C372.541 744.9 374.787 742.474 376.299 743.05C377.811 743.626 382.235 745.302 386.031 745.069C389.826 744.837 391.75 741.443 393.125 741.522C400.673 741.956 407.423 744.71 409.215 741.876Z" fill="#ED824C"/>
<path d="M0.973956 -23.4559C-2.40913 -15.1198 3.13596 -6.80481 15.8225 -7.06911C28.5091 -7.33342 32.5582 -15.6431 40.3869 -15.2678C48.2156 -14.8925 46.3232 -10.6002 50.9115 -9.8443C55.4998 -9.0884 66.1354 -11.8636 70.8083 -11.3561C75.4812 -10.8487 89.5104 -7.529 89.78 -3.39C90.0496 0.748992 92.6133 8.45608 95.3621 10.1688C104.808 16.0575 118.933 15.6716 120.735 11.3476C122.21 7.79532 121.095 4.53382 124.06 4.28008C127.026 4.02635 124.589 9.80403 134.59 12.2092C144.591 14.6144 156.453 4.69768 165.54 5.45359C174.627 6.2095 177.323 15.6663 192.002 15.1271C202.876 14.7201 214.732 11.6489 217.455 3.49775C219.077 -1.36544 217.909 -4.1882 215.985 -5.66302C212.686 -8.20033 205.413 -6.40307 205.672 -10.5421C205.73 -11.4407 215.478 -9.36855 220.156 -11.3614C226.557 -14.089 228.756 -14.7075 238.06 -15.9074C247.955 -17.1761 261.815 -12.7094 264.516 -19.0791C267.429 -25.9774 253.088 -33.0396 242.844 -32.7859C232.599 -32.5321 219.363 -29.5085 215.583 -28.4989C211.804 -27.4892 199.387 -32.4476 195.068 -32.955C190.749 -33.4625 188.862 -25.6391 184.274 -25.1316C179.686 -24.6242 174.283 -30.1798 166.185 -30.1798C161.031 -30.1798 150.327 -30.5129 143.783 -28.3561C140.045 -27.1245 134.305 -23.2762 128.611 -23.2762C112.959 -23.2762 103.561 -25.9721 91.4187 -28.7473C79.2766 -31.5225 78.2669 -34.0334 75.3966 -29.2759C72.5262 -24.5184 69.8251 -21.96 67.3935 -27.0029C64.9619 -32.0458 64.1531 -33.5735 50.1186 -32.8176C36.0841 -32.0617 34.0119 -28.7737 24.1164 -27.5315C14.2209 -26.2893 3.94473 -30.7719 0.973956 -23.4559Z" fill="#ED824C"/>
<path d="M385.852 328.498C388.13 324.898 386.127 320.669 381.692 317.83C378.52 315.822 370.554 317.206 369.185 317.582C367.816 317.957 364.147 314.341 361.383 314.378C350.589 314.505 346.016 314.014 345.466 312.391C344.917 310.768 352.476 312.259 353.015 307.67C353.554 303.082 350.589 297.5 341.232 296.131C337.823 294.973 332.616 294.984 329.196 294.466C323.746 293.636 322.361 294.106 318.465 296.284C314.569 298.462 313.052 291.627 308.908 290.766C304.764 289.904 294.636 294.164 292.553 296.052C290.47 297.939 287.362 297.32 281.394 296.052C275.426 294.783 272.566 291.965 266.593 290.644C260.62 289.322 260.884 295.555 260.72 298.24C260.556 300.925 258.648 303.029 257.263 298.05C255.878 293.07 252.617 288.847 248.451 288.656C244.286 288.466 237.187 289.037 234.766 290.57C232.344 292.103 226.456 289.994 223.665 289.803C220.874 289.613 219.193 296.332 217.29 296.332C215.387 296.332 208.303 289.988 204.138 290.39C199.973 290.792 194.935 290.004 193.037 292.309C191.14 294.614 192.186 300.508 186.821 302.617C181.455 304.726 168.637 302.294 168.637 308.432C168.637 317.154 181.614 318.021 184.469 317.767C187.323 317.513 192.662 317.735 194.998 319.458C197.335 321.182 191.737 328.202 198.17 330.591C200.358 331.4 207.214 327.805 213.796 327.805C220.377 327.805 223.268 332.806 226.778 332.806C249.619 332.869 240.829 324.972 246.606 322.667C252.384 320.362 250.835 326.04 255.302 326.69C265.203 328.128 277.176 324.528 281.843 322.514C286.511 320.5 288.773 324.438 292.833 325.31C295.793 325.944 299.525 325.474 302.945 324.935C309.579 321.763 313.11 314.727 314.776 315.89C316.578 317.148 312.619 320.389 316.938 324.528C321.256 328.667 325.924 330.469 333.404 328.757C333.404 328.757 340.529 327.171 341.333 327.245C342.39 327.361 344.748 331.521 346.962 331.521C349.177 331.521 351.424 329.095 352.936 329.671C354.447 330.247 358.872 331.923 362.667 331.69C366.463 331.458 368.387 328.064 369.761 328.143C377.31 328.577 384.06 331.331 385.852 328.498Z" fill="#ED824C"/>
<path d="M303.737 27.0965C308.289 24.739 315.584 25.5107 321.789 24.7389C327.995 23.9672 335.824 20.8537 339.334 19.2678C342.844 17.682 358.332 8.79086 365.616 9.31418C372.9 9.8375 367.598 23.1055 370.902 22.9099C374.206 22.7144 385.101 26.7318 382.362 32.3244C377.388 42.4948 361.937 41.7443 355.118 39.9153C348.299 38.0863 340.127 35.2899 330.95 38.3823C321.774 41.4746 318.533 42.7856 310.165 40.169C301.797 37.5524 295.322 36.7701 292.351 36.2467C289.38 35.7234 280.722 38.081 278.993 34.0266C277.265 29.9722 288.709 28.7934 291.273 28.7934C293.837 28.7934 301.359 28.3282 303.737 27.0965Z" fill="#ED824C"/>
<path d="M350.584 -16C349.686 -10.9941 353.28 -6.25248 354.364 -4.69837C355.448 -3.14427 350.04 0.365693 345.177 0.69343C340.314 1.02117 332.041 4.45711 329.704 4.62098C327.368 4.78485 321.426 1.51276 318.905 1.67663C316.384 1.8405 320.528 5.60417 318.186 7.24285C315.844 8.88153 302.169 9.88589 298.39 10.5149C294.61 11.144 287.564 15.7164 283.171 15.7164C278.778 15.7164 278.599 16.6997 273.561 14.8971C268.523 13.0946 263.301 13.4223 262.402 10.478C261.504 7.53361 262.222 8.51153 263.459 4.09237C264.696 -0.326786 263.819 -0.813119 265.262 -5.07369C266.705 -9.33427 273.54 -10.143 277.314 -9.65142C281.088 -9.15982 290.455 -12.7649 294.23 -13.7481C298.004 -14.7313 300.531 -14.8899 305.029 -12.9288C309.528 -10.9677 317.626 -13.4204 322.124 -12.6011C326.623 -11.7817 343.924 -12.0936 350.584 -16Z" fill="#ED824C"/>
<path d="M550.145 161.817C557.482 159.232 564.032 163.931 568.023 161.817C572.014 159.702 574.171 155.405 566.342 150.896C558.513 146.387 556.357 136.417 551.493 136.655C546.63 136.893 539.774 143.527 529.979 145.435C520.184 147.344 525.851 140.926 521.521 140.678C517.192 140.429 494.8 142.105 488.325 141.867C481.849 141.629 475.363 138.072 472.128 133.087C468.893 128.102 455.932 129.286 446.486 129.524C437.039 129.762 425.97 129.286 422.17 134.985C418.369 140.683 426.219 144.003 426.219 144.003C405.973 142.105 403.272 139.494 394.095 139.494C384.919 139.494 377.629 143.723 370.075 146.117C362.522 148.512 345.511 143.474 342.81 146.117C340.109 148.76 337.413 162.753 348.207 165.147C359.001 167.542 365.757 164.434 371.154 163.963C376.551 163.493 374.394 171.792 376.551 175.117C378.707 178.442 387.35 178.674 391.13 178.912C394.909 179.15 395.988 173.695 398.144 173.927C400.301 174.16 400.306 179.864 404.086 180.101C407.865 180.339 418.39 179.393 420.822 176.544C423.253 173.695 426.245 166.865 430.807 166.337C446.337 164.523 440.322 156.119 443.816 154.707C447.31 153.296 444.302 163.022 449.43 163.498C454.557 163.974 468.597 158.989 472.916 159.465C477.235 159.94 484.545 164.92 493.701 165.871C502.856 166.823 516.642 159.697 521.77 159.935C526.897 160.173 539.351 165.628 550.145 161.817Z" fill="#ED824C"/>
<path d="M395 10.4137C398.103 7.71255 406.746 7.8024 411.736 8.7486C416.726 9.69481 423.476 8.88073 425.776 7.40063C428.075 5.92053 433.916 -0.0315902 442.871 0.000126277C447.142 0.000126277 457.397 2.18856 461.404 3.2352C467.25 4.76816 467.218 9.98556 467.07 12.0048C466.922 14.0241 465.453 18.6177 468.693 20.9119C471.934 23.206 479.218 23.7452 483.135 25.3627C487.052 26.9802 491.904 31.8382 487.453 33.461C483.003 35.0838 470.179 32.1077 465.453 31.706C460.727 31.3042 457.762 29.0048 454.791 31.5685C451.82 34.1323 452.227 36.2943 447.39 35.7551C442.554 35.216 439.562 26.5785 432.679 26.0393C425.797 25.5002 429.301 33.3236 429.301 33.3236C419.855 34.2698 407.708 35.6177 401.634 32.5148C395.56 29.4118 395.566 21.2343 395 10.4137Z" fill="#ED824C"/>
<path d="M504.352 62.6385C501.18 56.0679 496.253 52.2038 488.879 53.1236C484.386 53.6522 465.753 54.1121 461.164 53.3033C456.576 52.4946 453.336 56.2741 448.747 56.8132C444.159 57.3524 435.791 54.3817 431.742 47.6631C431.742 47.6631 423.913 51.4162 415.546 52.225C407.178 53.0337 395.036 55.4653 389.306 57.8547C383.575 60.244 386.398 62.7496 381.535 62.7496C376.672 62.7496 372.358 57.3524 369.906 57.8916C367.453 58.4308 367.744 63.0191 352.631 62.2104C346.879 61.9038 341.239 61.2324 336.424 60.8889C321.834 59.5039 313.223 62.8394 311.05 62.8394C308.878 62.8394 310.522 56.7234 305.109 57.0828C299.696 57.4423 292.153 62.4799 288.014 62.8394C283.875 63.1988 278.837 75.97 284.594 77.2281C290.35 78.4861 297.735 77.0483 302.952 75.7903C308.17 74.5322 325.984 83.8516 331.566 81.9803C337.148 80.109 334.737 72.8565 342.259 76.6519C345.849 79.0042 350.189 83.4921 360.444 83.5238C376.64 83.5978 383.121 80.2148 391.219 82.6411C399.317 85.0674 402.283 82.1124 406.062 78.3276C409.842 74.5428 413.082 76.9743 427.117 79.6755C428.174 78.8667 431.436 74.2784 440.612 76.7047C449.789 79.1311 460.858 76.4986 471.118 73.2635C481.378 70.0284 486.321 74.252 491.734 76.1392C497.147 78.0263 508.76 71.8098 504.352 62.6385Z" fill="#ED824C"/>
</g>
<defs>
<clipPath id="clip0_412_386">
<rect width="450" height="720" fill="white"/>
</clipPath>
</defs>
</svg>
