<svg width="450" height="720" viewBox="0 0 450 720" fill="none" xmlns="http://www.w3.org/2000/svg">
<g clip-path="url(#clip0_412_386)">
<mask id="mask0_412_386" style="mask-type:alpha" maskUnits="userSpaceOnUse" x="-93" y="-193" width="426" height="1048">
<path d="M-42.602 228.22C-45.9777 233.003 -44.965 243.859 -42.602 248.824C-40.239 253.789 -37.2009 263.726 -38.2136 265.748C-39.2263 267.771 -43.4487 278.073 -43.4487 278.073C-35.347 276.599 -27.9204 285.981 -26.9076 289.106C-25.8949 292.232 -15.5962 301.248 -11.7114 304.191C-7.82653 307.133 -2.93447 294.443 0.944844 290.398C4.82416 286.352 16.4787 279.176 16.6447 276.05C16.8107 272.925 3.64542 272.553 3.98299 268.874C4.32056 265.194 13.103 262.069 12.2563 257.286C11.4096 252.504 0.634943 247.167 0.634943 243.304C0.634943 239.442 -13.034 239.259 -18.6067 234.111C-24.1794 228.963 -29.2651 223.604 -42.602 228.22Z" fill="#E5B76E"/>
<path d="M56.9758 333.65C58.7246 341.707 57.33 346.041 63.2569 349.449C69.1838 352.857 77.363 364.079 77.4903 368.606C77.6176 373.134 77.4903 385.542 79.56 387.869C81.6297 390.197 88.9678 396.664 91.9783 396.581C94.9887 396.498 96.992 385.702 99.9693 383.469C102.947 381.236 96.7983 378.792 96.4386 375.223C96.0789 371.654 103.843 368.091 105.293 365.664C106.743 363.236 104.031 338.986 104.419 334.919C104.806 330.851 107.49 326.961 108.132 322.882C108.774 318.803 102.642 308.014 99.7313 303.802C96.8205 299.59 98.9898 295.49 99.1337 291.655C99.2776 287.82 83.5943 280.167 80.1743 275.734C76.7543 271.3 77.2081 269.638 79.3829 265.759C81.5578 261.879 79.1616 258.106 77.5899 256.255C76.0183 254.404 80.8107 244.728 82.5428 243.248C77.4571 233.828 75.902 222.744 75.7471 218.311C75.5921 213.878 66.3393 213.196 62.222 211.511C58.1048 209.827 57.662 205.354 56.5718 202.523C55.4816 199.691 49.2227 196.105 46.3008 211.511C44.2975 222.079 34.8676 229.577 33.3015 232.231C30.1582 237.568 34.4857 241.287 36.1293 245.531C37.7729 249.776 31.4697 261.253 31.4697 261.253C38.0386 264.894 41.7131 268.147 40.5067 270.297C38.5754 273.733 31.8682 278.344 35.8305 283.957C39.7928 289.571 51.9953 287.787 52.9194 293.484C53.8436 299.18 44.8896 305.841 45.8193 311.161C46.749 316.481 54.3915 322.987 56.9758 333.65Z" fill="#E5B76E"/>
<path d="M82.6971 173.584C80.81 178.666 68.519 187.294 68.519 187.294C72.5699 196.35 77.9711 199.658 83.5991 199.486C89.2272 199.314 95.7739 201.099 96.8807 206.059C97.9875 211.018 94.6283 223.864 96.8807 228.148C99.133 232.431 103.405 237.386 103.405 240.339C103.405 243.293 99.3544 255.213 100.932 264.002C105.188 266.276 108.56 269.913 110.511 274.332C113.274 266.206 115.569 257.928 117.384 249.538C118.281 245.26 123.007 242.556 125.259 239.852C127.511 237.147 126.161 229.932 126.366 223.509C126.57 217.086 141.224 213.479 141.9 208.07C142.575 202.661 145.497 182.152 149.548 177.192C153.598 172.232 148.872 162.545 147.074 157.796C145.275 153.047 151.147 142.473 151.147 142.473C148.197 137.065 144.822 130.526 144.822 130.526C143.715 134.133 139.199 140.445 137.849 141.57C136.498 142.695 128.17 135.258 131.319 130.526C134.467 125.793 137.45 115.486 139.31 112.271C141.169 109.057 145.558 104.663 145.558 100.08C145.558 95.4968 143.698 89.0907 140.826 89.9386C137.954 90.7864 132.896 96.8656 129.205 98.3896C125.513 99.9135 112.287 99.0657 109.836 99.0657C107.384 99.0657 108.757 109.717 107.744 110.221C106.731 110.725 95.4197 104.125 92.2155 107.007C89.0114 109.889 82.4204 123.743 82.5919 127.461C82.7635 131.18 89.8525 135.746 89.681 138.96C89.5094 142.174 81.9334 144.369 83.1011 148.425C84.2687 152.482 84.6672 168.292 82.6971 173.584Z" fill="#E5B76E"/>
<path d="M170.107 245.006C172.785 253.38 170.882 260.085 175.801 271.878C177.644 276.311 191.535 281.692 196.427 283.898C201.319 286.103 196.05 294.261 194.135 294.865C192.221 295.469 188.574 291.734 184.65 288.885C184.65 288.885 187.655 304.108 187.506 308.159C187.356 312.21 180.627 321.897 180.046 324.784C179.465 327.671 181.557 328.896 183.073 332.786C184.589 336.676 179.88 347.998 175.425 353.473C168.607 347.466 158.126 349.55 155.647 350.398C153.167 351.245 146.239 355.385 145.016 357.164C142.011 361.542 139.609 352.487 139.891 347.388C140.174 342.29 146.571 334.565 145.475 328.336C144.38 322.107 137.219 325.233 134.468 320.423C131.718 315.613 145.597 311.118 146.931 310.597C150.91 309.046 145.78 304.596 141.43 306.014C135.442 307.971 133.561 302.135 133.743 299.137C133.926 296.139 138.453 294.15 137.617 290.481C136.781 286.813 134.706 283.576 131.685 279.049C132.714 273.939 134.607 271.523 137.611 268.98C144.092 263.488 141.214 258.927 142.16 256.234C144.579 249.39 155.348 251.917 157.329 247.367C159.31 242.817 167.523 236.932 170.107 245.006Z" fill="#E5B76E"/>
<path d="M264.354 423.374C261.852 425.779 251.229 441.796 251.844 446.452C252.46 451.108 260.391 458.973 260.391 458.973C260.391 458.973 252.945 481.357 251.784 484.986C250.623 488.616 253.616 504.325 256.088 509.324C258.56 514.322 254.426 521.289 247.031 520.684C239.635 520.079 247.876 539.438 249.402 547C231.088 540.058 226.814 545.512 221.015 540.648C215.215 535.783 222.541 531.271 215.215 528.549C207.889 525.826 196.59 534.003 195.064 540.345C187.128 534.296 181.633 520.382 182.854 516.449C184.075 512.517 192.032 510.097 190.786 505.877C189.54 501.658 187.428 501.34 187.428 497.105C187.428 492.871 198.992 481.679 200.659 476.839C202.325 471.999 208.795 451.024 210.627 447.583C212.458 444.141 214.7 446.373 215.716 449.596C216.731 452.819 223.041 447.583 224.873 442.743C226.704 437.903 228.741 426.607 233.625 423.583C238.509 420.558 246.87 423.508 250.518 420.959C259.47 414.702 271.9 416.125 264.354 423.374Z" fill="#E5B76E"/>
<path d="M119.034 799.458C114.412 796.503 114.968 785.108 112.051 783.022C109.249 781.096 106.098 779.736 102.774 779.02C99.5816 778.253 96.9829 771.043 97.039 767.045C97.0951 763.048 100.119 751.022 99.1983 744.321C98.2776 737.621 94.8143 736.438 93.3093 733.1C91.8043 729.761 99.203 719.76 98.6795 717.342C96.8894 709.104 86.2611 726.694 81.2087 719.493C74.6934 710.179 82.3912 694.104 86.3499 688.633C90.3087 683.163 87.2847 666.845 87.2847 666.845C93.4168 666.269 101.077 661.734 97.0998 661.112C93.1223 660.49 86.7051 660.645 86.864 656.095C87.023 651.546 90.3461 640.88 94.3749 637.317C98.4037 633.754 91.4725 625.707 92.1735 623.655C92.8746 621.602 100.484 621.691 102.367 617.422C104.251 613.153 110.514 608.3 110.135 605.228C109.757 602.156 100.881 602.207 101.185 594.502C101.54 585.398 110.317 571.591 114.786 570.146C119.254 568.701 128.751 578.473 128.751 578.473C128.148 582.055 131.49 592.075 133.864 593.749C136.238 595.423 147.446 598.621 149.157 601.777C150.868 604.933 145.035 613.209 144.824 616.627C144.614 620.045 155.943 614.5 158.584 620.952C162.72 631.071 151.816 649.685 151.662 656.82C151.508 663.955 151.195 667.681 154.046 671.025C156.256 673.601 163.076 674.185 166.034 680.334C169.082 686.67 167.436 705.115 164.908 708.748C159.897 715.87 149.853 714.392 149.157 719.503C148.461 724.613 159.528 724.917 156.196 737.649C153.807 746.757 147.273 746.757 143.427 758.896C142.132 762.987 151.662 769.879 151.662 769.879C146.17 776.766 137.211 784.841 136.388 787.787C133.892 796.676 122.582 801.73 119.034 799.458Z" fill="#E5B76E"/>
<path d="M-42.602 228.303C-45.9777 233.085 -44.965 243.936 -42.602 248.901C-40.239 253.866 -37.2009 263.803 -38.2136 265.825C-39.2263 267.848 -43.4487 278.15 -43.4487 278.15C-35.347 276.676 -27.9204 286.058 -26.9076 289.189C-25.8949 292.32 -15.5962 301.325 -11.7114 304.268C-7.82653 307.21 -2.93447 294.52 0.944844 290.475C4.82416 286.429 16.4787 279.253 16.6447 276.127C16.8107 273.002 3.64542 272.63 3.98299 268.951C4.32056 265.271 13.103 262.146 12.2563 257.363C11.4096 252.581 0.634943 247.25 0.634943 243.382C0.634943 239.514 -13.034 239.336 -18.6067 234.188C-24.1794 229.04 -29.2651 223.703 -42.602 228.303Z" fill="#E5B76E"/>
<path d="M10.4985 512.568C15.7613 519.833 17.3828 522.116 18.7995 526.76C20.2162 531.404 18.4951 544.033 16.1432 547.913C13.7912 551.792 18.1133 559.605 20.7862 562.77C23.4591 565.934 19.2588 581.19 17.167 581.916C15.0751 582.642 7.62087 593.554 6.46427 599.35C5.30767 605.147 16.4642 606.737 18.0856 610.04C19.7071 613.343 19.1205 620.758 21.1736 623.19C23.2267 625.623 25.8664 625.158 34.7263 621.146C43.5862 617.133 57.4875 607.43 61.2616 608.195C65.0358 608.959 69.7286 612.29 73.5803 609.447C77.4319 606.604 80.7744 604.166 79.391 599.3C78.0075 594.435 77.4873 573.133 80.7025 567.07C83.9177 561.007 76.5299 552.019 77.9355 546.012C79.3411 540.005 83.4252 526.117 80.6029 522.039C70.9184 521.684 62.7669 530.102 58.6884 533.022C62.2467 522.776 71.9699 517.023 75.0081 515.921C78.0462 514.818 79.9056 503.457 80.6472 499.894C81.3887 496.331 74.6816 501.002 70.9406 497.051C67.1996 493.1 61.1787 486.799 62.8444 480.98C64.5101 475.162 65.5283 471.005 63.6191 465.436C61.7099 459.867 58.6828 451.46 58.6828 451.46C53.5694 462.061 47.5872 472.928 44.0123 473.139C40.4373 473.35 42.092 477.899 41.9426 479.75C41.7931 481.601 36.06 493.51 32.7783 496.292C29.4967 499.074 26.7795 499.185 23.8409 499.961C20.9024 500.736 11.4006 501.662 10.4985 512.568Z" fill="#E5B76E"/>
<path d="M11.6663 314.228C7.08971 317.032 -4.63128 344.879 -4.63128 348.935C-4.63128 352.992 3.08863 359.525 5.01999 363.133C6.95136 366.74 4.80419 381.841 3.52031 384.319C2.23642 386.796 4.80417 386.796 5.01999 389.506C5.23582 392.215 -1.84215 414.969 -4.63128 416.322C-7.42041 417.674 -7.39826 433.905 -2.05796 437.934C3.28233 441.963 0.946973 451.007 1.58892 453.484C2.23086 455.961 8.45108 466.557 8.66691 468.585C16.5971 459.569 26.6745 456.15 26.6745 450.852C26.6745 445.554 25.7558 435.208 30.6091 433.855C35.4625 432.503 57.1225 432.498 57.9803 427.544C58.838 422.589 51.1181 406.807 50.9078 402.052C50.6975 397.297 54.9808 392.814 53.2653 387.178C51.5498 381.542 31.5001 367.344 31.8765 362.385C32.2528 357.425 33.4315 347.511 31.8765 342.778C30.3214 338.046 29.3031 336.466 24.0237 332.41C18.7443 328.353 21.1018 317.309 21.1018 317.309C21.1018 317.309 16.8351 311.069 11.6663 314.228Z" fill="#E5B76E"/>
<path d="M139.232 375.718C133.528 378.524 132.303 384.663 131.421 390.254C130.539 395.844 124.82 399.93 124.82 399.93C130.148 409.892 135.901 419.898 144.149 422.492C130.663 421.049 120.086 409.054 116.471 407.525C111.377 411.112 105.134 412.676 98.9538 411.914C95.4192 411.346 94.5371 414.284 94.8697 420.015C95.2024 425.747 91.7365 438.629 88.8336 440.999C85.9307 443.369 86.5854 462.004 86.5854 462.004C99.7248 459.621 102.158 469.651 101.917 471.899C101.676 474.147 96.6968 486.143 97.1777 489.606C97.6587 493.068 101.474 498.604 103.345 504.784C105.216 510.965 103.667 526.159 105.34 530.184C107.013 534.208 114.692 534.172 118.381 531.579C122.071 528.987 119.704 522.547 122.591 517.835C125.477 513.122 132.467 527.425 132.547 530.688C132.626 533.951 135.581 554.337 137.769 557.558C139.956 560.78 149.596 565.819 152.928 569.475C157.336 574.311 167.455 565.574 170.556 560.772C173.658 555.971 171.683 551.647 166.995 546.308C164.555 543.527 162.205 535.317 163.208 531.25C164.211 527.183 160.988 516.115 159.784 511.243C158.58 506.371 168.454 495.758 170.654 489.355C172.853 482.953 169.283 477.822 169.692 470.47C170.1 463.118 190.635 455.49 191.743 452.577C192.851 449.664 200.833 437.07 198.684 435.875C196.536 434.681 188.161 436.85 186.887 434.613C185.613 432.375 199.222 423.778 198.881 416.15C198.54 408.523 186.331 404.184 181.208 402.499C176.084 400.814 175.071 392.546 173.502 389.53C171.932 386.514 155.086 388.116 151.311 386.207C147.536 384.298 139.503 378.495 139.232 375.718Z" fill="#E5B76E"/>
<path d="M-2.77984 639.782C-10.3282 649.12 -16.6867 659.732 -14.7 669.07C-12.7134 678.408 -18.8062 697.089 -20.6601 701.334C-22.514 705.578 -44.329 707.274 -45.3472 712.084C-46.3655 716.895 -38.153 720.857 -35.2311 725.939C-32.3092 731.02 -32.0546 745.75 -33.3772 749.141C-26.493 753.952 -27.2898 764.425 -30.9921 768.388C-34.6943 772.35 -37.8819 787.911 -33.3772 790.177C-28.8726 792.444 -26.7364 798.95 -27.5499 801.211C-28.3634 803.472 -36.5592 816.777 -33.9085 824.696C-31.2577 832.616 -37.6827 839.166 -39.8022 841.549C-41.9217 843.932 -40.1729 850.731 -35.375 849.307C-30.577 847.883 -18.2196 852.421 -16.8749 854.4C-15.5301 856.378 -10.472 847.611 -9.94078 841.654C-9.40951 835.697 -13.7482 826.658 -11.8887 823.544C-10.0293 820.429 -0.765467 817.32 3.20793 813.358C7.18133 809.396 6.38997 804.586 6.38997 801.754C6.38997 798.922 2.15094 792.788 4.00482 787.933C5.85871 783.079 14.3367 788.543 18.3101 787.933C22.2835 787.323 18.5758 766.947 20.4297 762.996C22.2836 759.044 41.7576 764.98 44.5412 756.49C47.3248 748 46.1295 733.143 44.5412 723.378C42.953 713.614 46.2014 704.282 46.2014 704.282C39.3614 704.703 21.8519 699.189 17.5077 689.425C27.4689 694.091 41.1102 695.792 46.2014 695.365C44.9286 682.209 45.9247 680.087 46.2014 676.125C46.4781 672.162 53.0082 654.906 53.9102 650.372C55.3269 643.296 51.9346 637.072 43.3127 640.719C38.5645 642.719 27.7511 648.394 22.8038 648.583C17.8564 648.771 0.651228 635.349 -2.77984 639.782Z" fill="#E5B76E"/>
<path d="M14.2944 205.388C16.9839 203.171 25.5727 189.356 26.7016 186.945C27.8305 184.535 25.5948 181.603 25.5948 179.359C25.5948 177.114 33.8127 169.018 35.4231 167.982C37.0335 166.946 45.5171 169.417 49.6012 166.203C53.6852 162.989 57.7638 156.089 54.3272 148.73C50.8906 141.371 54.9747 127.179 55.4008 122.13C55.8269 117.082 53.8015 116.084 53.154 111.945C52.5065 107.805 66.2806 97.6027 70.9955 95.5302C75.7105 93.4576 74.7752 77.42 69.2468 76.162C67.0332 75.6578 65.1682 79.0991 61.3 78.8719C57.4317 78.6447 55.7328 76.0401 57.4262 70.0662C59.1196 64.0923 66.5075 63.8817 68.3724 60.0469C72.5838 51.3908 65.8655 46.963 65.0077 42.3136C64.15 37.6641 67.5257 29.9834 66.4079 26.1874C64.1611 18.5454 54.6758 17.1323 54.139 12.4274C53.0765 3.04538 46.7456 0.479591 43.5304 3.9265C40.3152 7.37342 38.1514 16.3454 34.2887 18.1797C30.4259 20.0139 26.768 28.997 25.0469 30.7149C23.3258 32.4328 10.4428 35.9407 10.6586 42.8068C10.8744 49.6729 21.1012 51.1692 21.3115 57.603C21.5218 64.0369 8.96519 65.0122 7.47655 68.9191C5.98791 72.826 -1.43315 83.2277 2.21927 85.7547C5.8717 88.2817 -2.56759 96.7881 0.17173 103.444C4.44949 113.851 12.9441 109.334 14.0067 112.781C15.0692 116.228 11.793 133.103 10.487 135.402C18.218 140.916 30.2489 149.899 30.2489 149.899C18.8655 146.912 10.8357 144.186 9.33045 144.413C7.18327 150.853 2.23589 167.688 5.24637 169.96C8.25686 172.232 10.2712 176.793 10.2712 180.24C10.2712 183.687 5.76102 204.623 6.61879 209.661C7.47655 214.698 11.1732 207.976 14.2944 205.388Z" fill="#E5B76E"/>
<path d="M108.46 78.9294C102.987 75.4326 103.645 61.922 100.192 59.4505C96.8714 57.1769 93.1402 55.5732 89.207 54.729C85.4273 53.8201 82.3504 45.2749 82.4168 40.5368C82.4832 35.7986 86.0637 21.551 84.9735 13.6043C83.8833 5.65754 79.7827 4.26104 78.0007 0.304291C76.2188 -3.65246 84.9791 -15.5116 84.3593 -18.3711C82.2397 -28.1355 69.6555 -7.28778 63.6732 -15.8275C55.9589 -26.8609 65.0733 -45.9187 69.7606 -52.4025C74.4479 -58.8862 70.8674 -78.2211 70.8674 -78.2211C78.128 -78.9027 87.1982 -84.2781 82.4888 -85.0207C77.7794 -85.7633 70.1812 -85.5748 70.3693 -90.9613C70.5575 -96.3478 74.4922 -108.999 79.2624 -113.222C84.0327 -117.445 75.8259 -126.982 76.656 -129.415C77.4861 -131.848 86.4954 -131.742 88.7256 -136.796C90.9558 -141.85 98.3713 -147.614 97.923 -151.255C97.4748 -154.895 86.9658 -154.829 87.3255 -163.967C87.746 -174.751 98.1388 -191.121 103.429 -192.828C108.72 -194.535 119.965 -182.964 119.965 -182.964C119.251 -178.714 123.208 -166.838 126.019 -164.859C128.83 -162.881 142.101 -159.079 144.126 -155.344C146.152 -151.609 139.245 -141.795 138.996 -137.744C138.747 -133.693 152.162 -140.266 155.288 -132.618C160.186 -120.62 147.275 -98.5645 147.092 -90.1079C146.91 -81.6513 146.539 -77.2346 149.915 -73.2723C152.532 -70.2134 160.606 -69.5206 164.109 -62.2334C167.718 -54.7299 165.77 -32.8626 162.776 -28.5622C156.843 -20.1223 144.951 -21.8734 144.126 -15.8164C143.302 -9.75936 156.406 -9.39916 152.46 5.69079C149.633 16.4915 141.896 16.4915 137.342 30.8555C135.809 35.6989 147.092 43.8728 147.092 43.8728C140.59 52.0302 129.981 61.6062 129.007 65.0919C126.052 75.6321 112.66 81.6171 108.46 78.9294Z" fill="#E5B76E"/>
<path d="M-2.77984 -145.715C-10.3282 -136.377 -16.6867 -125.765 -14.7 -116.427C-12.7134 -107.09 -18.8062 -88.4141 -20.6601 -84.1692C-22.514 -79.9243 -44.329 -78.2285 -45.3472 -73.4184C-46.3655 -68.6082 -38.153 -64.6459 -35.2311 -59.5642C-32.3092 -54.4825 -32.0546 -39.7528 -33.3772 -36.3557C-26.493 -31.5456 -27.2898 -21.0774 -30.9921 -17.1151C-34.6943 -13.1528 -37.8819 2.4082 -33.3772 4.67474C-28.8726 6.94128 -26.7364 13.4472 -27.5499 15.7082C-28.3634 17.9692 -36.5592 31.308 -33.9085 39.2104C-31.2577 47.1128 -37.6827 53.6797 -39.8022 56.057C-41.9217 58.4344 -40.1729 65.2451 -35.375 63.8154C-30.577 62.3856 -18.2196 66.9298 -16.8749 68.9082C-15.5301 70.8865 -10.472 62.1196 -9.94078 56.1623C-9.40951 50.205 -13.7482 41.1611 -11.8887 38.0522C-10.0293 34.9433 -0.765467 31.8233 3.20793 27.8611C7.18133 23.8988 6.38997 19.0886 6.38997 16.2624C6.38997 13.4361 2.15094 7.29042 4.00482 2.43592C5.85871 -2.41858 14.3367 3.0455 18.3101 2.43592C22.2835 1.82634 18.5758 -18.5448 20.4297 -22.5016C22.2836 -26.4583 41.7576 -20.5232 44.5412 -29.013C47.3248 -37.5029 46.1295 -52.3545 44.5412 -62.1189C42.953 -71.8833 46.2014 -81.221 46.2014 -81.221C39.3614 -80.7943 21.8519 -86.3138 17.5077 -96.0782C27.4689 -91.4066 41.1102 -89.7109 46.2014 -90.132C44.9286 -103.293 45.9247 -105.416 46.2014 -109.378C46.4781 -113.34 53.0082 -130.597 53.9102 -135.13C55.3269 -142.201 51.9346 -148.43 43.3127 -144.784C38.5645 -142.778 27.7511 -137.109 22.8038 -136.92C17.8564 -136.732 0.651228 -150.187 -2.77984 -145.715Z" fill="#E5B76E"/>
<path d="M249.206 95.3325C255.185 99.0027 269.276 99.1103 269.235 92.9136C269.117 75.5132 276.536 76.9957 282.882 75.1027C289.228 73.2098 290.027 56.1616 289.563 52.024C289.248 49.2253 297.845 46.0896 304.896 39.6342C308.349 36.4681 300.751 29.8013 302.122 26.8353C304.308 22.0502 317.418 27.9497 317.78 22.4593C318.101 17.6172 315.351 2.30282 316.387 -1.95887C318.601 -11.039 330.295 -12.7905 331.983 -23.9346C333.67 -35.0787 328.184 -37.2271 323.796 -47.5738C321.036 -54.096 318.652 -69.4796 319.842 -79.2645C320.534 -84.9881 325.863 -82.4596 327.32 -89.5586C331.22 -108.854 321.901 -103.568 314.864 -110.91C308.751 -117.271 301.884 -125.778 294.098 -125.378C284.87 -124.898 288.984 -100.811 285 -99.703C276.534 -97.3344 266.857 -106.098 259.047 -104.657C251.237 -103.215 246.31 -77.3903 246.31 -77.3903C253.279 -68.0579 268.614 -57.2768 272.2 -50.5171C258.717 -59.1159 245.783 -66.5146 244.583 -66.382C242.766 -55.9946 243.908 -38.4342 239.199 -27.157C236.88 -21.638 227.918 -19.1394 226.73 -16.7891C223.092 -9.62074 222.542 -0.289075 228.835 1.94278C235.128 4.17464 245.124 6.79524 245.379 12.6962C245.634 18.5971 238.237 24.6307 240.119 41.4125C242.002 58.1943 254.26 79.1723 249.206 95.3325Z" fill="#E5B76E"/>
<path d="M213.906 554.788C208.061 555.113 200.187 562.647 197.764 567.583C195.341 572.519 189.441 581.072 187.227 581.535C185.013 581.998 174.317 585.088 174.317 585.088C180.505 590.522 177.765 602.17 175.941 604.908C174.116 607.647 173.457 621.311 173.564 626.184C173.671 631.056 186.655 627.007 192.235 627.534C197.815 628.061 210.678 632.736 213.231 630.925C215.783 629.114 207.896 618.566 210.989 616.545C214.083 614.523 221.988 619.464 225.21 615.83C228.431 612.196 225.916 600.441 228.947 598.038C231.979 595.635 223.627 584.813 224.2 577.248C224.772 569.683 225.795 562.382 213.906 554.788Z" fill="#E5B76E"/>
<path d="M170.349 149.371C172.854 146.212 181.271 144.864 186.716 142.763C192.161 140.663 194.701 134.313 194.195 130.886C193.69 127.459 198.938 125.331 199.812 124.616C200.687 123.902 204.814 125.261 207.569 126.104C210.325 126.947 216.135 118.503 219.271 117.586C222.407 116.67 231.195 103.5 227.2 100.16C223.204 96.8206 222.252 85.0496 223.773 81.6034C225.293 78.1572 219.386 70.6376 219.241 65.4491C219.096 60.2606 222.284 57.7499 225.374 52.4408C228.463 47.1317 227.718 39.4041 223.834 33.1855C219.092 25.6002 209.926 27.3745 205.643 23.068C198.882 16.2595 196.24 10.231 196.24 10.231C190.23 12.9788 185.957 13.9832 184.55 17.4395C183.143 20.8959 188.346 26.709 187.781 29.6475C187.216 32.586 182.424 38.8095 181.049 42.2985C179.214 46.9272 184.862 51.9928 183.916 55.6944C182.969 59.396 183.931 75.8054 179.826 81.0191C175.721 86.2327 172.095 92.8739 173.185 96.5574C174.275 100.241 167.741 107.42 164.016 110.875C160.291 114.329 162.086 116.68 161.682 121.222C161.278 125.764 158.93 131.02 163.051 134.236C167.864 138.002 170.933 145.044 170.349 149.371Z" fill="#E5B76E"/>
</mask>
<g mask="url(#mask0_412_386)">
<rect x="1.68457" y="1" width="450" height="720" fill="#E5B76E"/>
</g>
</g>
<defs>
<clipPath id="clip0_412_386">
<rect width="450" height="720" fill="white"/>
</clipPath>
</defs>
</svg>
