<svg width="450" height="720" viewBox="0 0 450 720" fill="none" xmlns="http://www.w3.org/2000/svg">
<g clip-path="url(#clip0_412_386)">
<mask id="mask0_412_386" style="mask-type:alpha" maskUnits="userSpaceOnUse" x="81" y="-258" width="893" height="1185">
<path d="M430.088 507.623C439.642 512.4 443.127 520.97 439.712 526.555C436.296 532.14 437.774 537.109 435.482 542.386C433.189 547.663 417.673 549.217 409.3 547.041C404.332 560.696 396.262 559.765 389.123 562.557C381.984 565.35 384.777 571.25 381.054 579.319C377.33 587.389 371.745 595.464 366.776 597.937C381.054 601.347 394.703 612.831 401.231 620.907C407.759 628.982 410.854 628.668 413.955 633.631C417.056 638.594 412.401 644.499 410.854 652.249C409.306 659.999 407.747 674.94 397.507 678.017C387.267 681.095 375.154 682.363 369.254 678.017C363.355 673.671 349.077 664.671 345.982 662.186C342.887 659.702 341.014 644.179 349.706 640.764C358.398 637.349 365.234 636.441 365.816 637.686C366.439 641.41 361.784 641.718 361.476 648.549C361.167 655.379 368.923 657.858 373.577 660.656C378.232 663.455 382.281 654.14 383.852 649.782C385.423 645.424 385.091 635.19 380.129 628.052C375.166 620.913 361.511 615.636 350.328 613.46C339.146 611.284 319.283 600.131 314.937 594.225C310.591 588.32 308.421 580.262 308.729 577.766C299.106 579.005 288.552 574.967 282.966 565.967C277.381 556.966 284.811 542.386 291.345 538.657C297.878 534.927 305.622 534.933 310.591 534.619C315.559 534.305 318.66 538.348 316.176 540.21C313.692 542.072 306.553 543.311 301.584 546.726C296.616 550.142 295.999 559.142 297.861 563.802C299.723 568.463 317.107 568.765 323.007 565.35C328.906 561.935 322.384 569.696 321.762 575.287C321.139 580.879 325.177 589.873 328.284 592.049C331.39 594.225 345.976 595.773 349.392 592.98C352.807 590.187 363.047 579.633 363.047 574.362C363.047 569.091 353.738 565.978 348.147 564.117C342.555 562.255 341.939 557.286 350.008 557.909C358.078 558.531 369.877 559.462 372.984 552.94C376.091 546.418 386.947 552.632 391.916 550.147C396.885 547.663 392.23 529.97 396.885 528.731C401.539 527.492 416.131 533.077 422.961 527.8C429.792 522.523 426.371 516.624 424.201 511.969C422.03 507.315 422.635 503.894 430.088 507.623Z" fill="#E5B76E"/>
<path d="M448.75 486.646C442.769 490.376 433.186 496.682 444.985 499.335C456.785 501.989 464.319 507.871 467.35 514.462C470.381 521.054 476.659 525.377 477.968 530.462C479.277 535.547 469.433 542.68 467.792 550.965C466.152 559.25 462.818 565.708 454.137 565.801C445.457 565.894 444.439 571.468 441.599 579.427C438.76 587.386 426.728 587.45 420.654 587.904C414.58 588.358 411.881 591.977 420.404 598.656C428.928 605.335 437.858 601.809 435.671 612.701C434.594 618.071 427.444 619.264 432.273 623.243C437.102 627.223 446.742 633.716 449.931 643.025C453.119 652.334 451.158 657.134 447.947 661.218C444.735 665.302 438.935 669.125 439.976 676.252C441.07 683.746 432.965 680.324 430.463 688.307C427.962 696.289 429.765 718.305 429.567 726.619C429.37 734.933 428.404 739.075 427.077 746.767C425.751 754.459 432.634 756.408 438.597 761.312C444.561 766.217 452.485 773.53 458.35 770.098C464.214 766.665 472.761 759.445 475.705 757.402C478.649 755.36 480.546 748.291 479.236 742.316C478.124 737.187 476.081 732.304 473.209 727.911C470.975 724.588 468.328 726.311 468.7 735.236C469.072 744.16 465.599 744.079 460.054 746.325C454.51 748.571 447.778 739.203 444.427 734.072C441.076 728.94 444.566 717.333 450.71 714.506C456.854 711.678 461.683 708.856 461.8 703.806C461.916 698.756 455.4 697.255 457.244 693.334C459.088 689.412 464.028 681.593 469.229 674.786C473.558 669.096 472.645 667.501 471.603 662.457C470.878 658.523 471.154 654.469 472.406 650.67C473.023 649.198 478.323 645.16 480.15 641.361C481.977 637.562 479.138 636.055 472.354 629.358C465.57 622.661 459.333 618.211 459.426 614.347C459.519 610.484 459.088 603.939 464.883 603.479C470.678 603.02 481.756 599.988 485.613 607.825C489.471 615.662 493.13 608.006 491.542 601.728C489.953 595.45 484.81 592.652 477.648 589.51C470.486 586.368 471.97 582.621 480.516 575.989C489.063 569.356 505.86 564.87 510.515 563.771C515.169 562.671 526.625 555.236 527.172 544.251C527.719 533.267 526.276 527.96 519.102 525.435C511.928 522.91 515.064 525.046 517.258 530.148C519.451 535.251 516.786 542.82 513.796 547.207C510.805 551.594 502.323 552.495 498.617 549.115C494.91 545.735 497.11 533.22 499.082 523.161C501.054 513.101 485.875 504.019 483.373 499.801C480.871 495.583 497.994 483.952 505.889 480.252C513.784 476.552 527.626 482.742 531.308 481.835C534.991 480.927 537.86 478.227 540.454 476.302C543.049 474.376 548.35 470.745 553.539 471.461C558.729 472.177 563.779 480.019 566.642 480.281C569.504 480.543 573.216 479.443 573.257 477.663C573.297 475.883 585.812 476.965 589.792 479.833C593.771 482.702 601.928 488.834 605.157 490.888C608.386 492.941 614.396 492.68 611.22 487.269C608.043 481.858 602.656 473.992 601.597 470.571C600.538 467.15 603.261 465.457 604.308 461.914C605.355 458.37 600.962 456.485 601.835 452.151C602.708 447.816 617.899 433.108 624.526 430.094C631.153 427.081 630.611 425.481 619.604 426.214C608.596 426.947 588.669 437.21 585.306 440.317C581.943 443.424 576.881 454.187 569.522 455.595C562.162 457.003 559.107 455.554 554.336 453.268C549.566 450.981 536.882 448.503 529.79 455.665C522.698 462.827 520.952 454.077 518.264 453.617C515.576 453.157 501.665 454.199 501.211 457.178C500.758 460.156 488.412 475.505 479.911 477.483C471.411 479.461 464.284 477.518 459.234 479.182C454.184 480.846 453.195 483.883 448.75 486.646Z" fill="#E5B76E"/>
<path d="M312.355 175.196C308.914 164.439 304.804 163.446 301.345 159.766C297.193 155.342 295.452 150.662 296.025 148.796C296.598 146.931 300.163 131.878 299.283 127.855C298.404 123.833 294.565 120.701 291.234 125.521C287.904 130.342 285.6 131.74 281.031 129.834C276.463 127.929 265.058 123.255 271.442 116.208C274.137 113.237 275.024 110.011 274.255 107.833C273.922 106.899 270.503 105.39 269.034 103.264C267.564 101.139 271.709 82.6793 273.57 79.8046C275.43 76.9299 271.911 74.5293 271.338 70.4149C270.765 66.3004 281.791 50.1674 285.444 47.628C289.096 45.0886 293.456 48.0021 296.203 46.5805C298.949 45.1589 300.132 41.3601 301.133 38.988C302.133 36.6159 312.717 32.7524 316.143 33.7679C319.569 34.7834 334.299 35.8003 338.693 40.666C343.086 45.5316 343.443 48.2591 342.538 50.4555C341.633 52.652 338.045 56.5168 340.337 57.7045C342.628 58.8921 345.602 59.5002 346.4 63.7098C347.198 67.9193 345.297 71.4112 343.666 72.2257C342.035 73.0402 333.82 79.2477 329.784 80.1467C325.748 81.0457 318.256 78.9348 314.789 77.4708C311.323 76.0068 313.828 65.6655 314.564 63.8284C315.3 61.9914 324.03 63.23 328.732 64.8248C333.433 66.4196 332.79 63.3577 328.954 60.2335C325.117 57.1092 309.415 58.642 307.043 63.2315C304.671 67.8211 301.901 74.3904 301.753 76.2635C301.605 78.1365 310.101 86.0258 313.701 88.1896C317.301 90.3533 325.307 89.2252 330.722 90.6481C336.137 92.071 348.949 89.7504 352.539 90.4045C356.129 91.0586 366.599 82.0655 367.638 78.592C368.677 75.1185 362.039 73.9038 360.347 69.7503C358.654 65.5968 361.441 62.5787 364.477 61.4989C367.514 60.4191 371.852 60.7403 376.891 63.9466C381.931 67.1529 383.316 63.8683 381.743 61.4818C380.171 59.0952 376.737 56.5462 372.345 54.7177C367.952 52.8892 365.593 50.5545 362.366 45.1256C360.572 42.1121 361.791 40.1055 362.035 35.7946C362.179 34.3635 361.887 32.9222 361.195 31.6608C360.504 30.3993 359.447 29.3769 358.163 28.7284C355.043 26.9637 352.07 26.3685 349.579 25.1012C347.087 23.8339 346.702 22.8064 345.309 19.4257C343.915 16.0451 340.712 15.5516 331.26 13.4962C321.807 11.4408 312.898 8.10402 311.666 11.0233C310.434 13.9425 309.543 18.0775 307.279 17.3398C305.015 16.602 296.646 12.7384 292.942 13.0712C289.984 13.3306 280.9 20.8613 278.321 22.518C274.063 25.2381 273.695 31.7468 269.698 36.0871C265.701 40.4274 261.617 42.9944 256.747 45.8803C251.877 48.7661 255.98 62.9516 255.475 67.724C254.969 72.4965 251.236 77.7576 247.769 76.2937C244.303 74.8297 243.898 67.1328 245.613 62.0542C247.327 56.9756 246.004 52.5423 243.326 56.784C240.648 61.0258 235.226 80.0267 236.05 83.1676C236.875 86.3085 245.236 89.4136 246.01 93.1807C246.785 96.9477 237.629 100.821 237.133 105.553C236.636 110.285 239.907 114.256 242.215 122.105C244.522 129.955 249.081 132.663 253.233 135.06C257.386 137.458 268.744 150.215 270.585 150.989C272.427 151.764 272.97 149.423 276.305 150.181C279.639 150.94 279.481 160.984 283.32 164.115C287.16 167.247 299.414 168.781 304.609 178.471C306.265 181.557 303.819 191.264 307.787 191.666C314.94 192.388 313.294 178.143 312.355 175.196Z" fill="#E5B76E"/>
<path d="M422.802 452.52C414.267 460.613 407.949 461.434 407.949 466.78C407.949 472.127 413.592 493.544 403.196 493.224C392.799 492.904 375.944 508.845 367.827 512.929C349.716 522.041 336.992 499.164 324.931 501.241C312.87 503.318 300.402 508.671 292.972 506.291C285.542 503.911 280.201 497.378 274.552 489.657C268.902 481.936 267.966 475.694 268.588 465.297C269.211 454.9 274.552 452.497 286.141 451.037C297.731 449.576 308.128 455.487 313.772 457.867C319.415 460.247 314.068 467.077 312.608 470.347C311.148 473.617 309.047 470.644 307.558 466.78C306.068 462.917 300.402 460.543 291.785 462.62C283.168 464.698 283.762 472.511 283.762 478.847C283.762 485.183 285.251 489.064 297.143 489.064C309.036 489.064 316.157 480.447 322.4 480.447C328.643 480.447 336.264 493.52 344.776 495.894C349.937 497.337 354.783 487.359 361.614 484.211C368.444 481.064 385.677 478.661 387.76 475.694C389.843 472.726 390.134 465.221 389.541 465.396C377.654 465.594 375.28 464.814 369.934 462.027C364.587 459.24 367.356 455.889 364.191 449.547C361.026 443.206 361.218 434.891 365.18 430.534C369.142 426.176 379.638 423.407 385.567 424.989C391.495 426.572 392.898 427.962 393.491 431.523C394.084 435.083 392.7 434.496 389.529 432.913C386.358 431.331 382 431.523 379.824 434.298C377.648 437.073 379.033 444.189 380.813 447.767C382.594 451.345 390.518 454.696 397.849 452.148C405.18 449.6 411.911 443.037 412.702 437.097C413.494 431.156 412.9 425.408 410.724 421.446C408.548 417.484 402.404 414.517 399.629 409.763C396.854 405.01 395.271 399.657 400.211 390.348C405.15 381.039 407.542 369.752 411.306 367.378C415.07 365.005 428.336 368.367 432.891 367.378C437.447 366.389 442.991 362.625 449.531 362.421C456.07 362.218 468.73 371.73 474.089 374.506C479.447 377.281 481.024 378.27 484.562 381.639C488.099 385.007 489.716 394.904 489.716 399.459C489.716 404.015 479.61 410.403 476.05 415.232C472.489 420.061 463.174 430.161 457.63 429.964C452.085 429.766 449.112 424.419 441.979 421.818C434.846 419.218 436.074 410.729 436.655 404.986C437.237 399.244 439.035 395.096 442.398 395.096C445.761 395.096 443.986 404.207 445.569 407.378C447.151 410.549 453.097 414.115 456.856 414.115C460.614 414.115 471.122 408.762 473.891 403.811C476.661 398.86 464 385.775 456.437 382.226C448.873 378.677 434.456 381.435 428.312 382.424C422.168 383.413 412.074 392.722 414.448 397.278C416.822 401.833 425.345 402.624 425.938 409.164C426.532 415.703 421.779 419.462 422.768 422.825C423.757 426.188 434.293 441.623 422.802 452.52Z" fill="#E5B76E"/>
<path d="M520.25 341.109C522.466 350.721 493.114 351.803 489.751 351.803C486.388 351.803 485.492 340.661 475.689 341.109C465.885 341.557 451.201 343.349 440.926 338.881C430.651 334.413 411.957 329.967 402.602 332.196C393.247 334.424 383.885 345.118 382.995 355.817C382.105 366.517 377.177 379.433 372.296 382.999C367.414 386.566 355.784 402.606 348.22 406.184C340.657 409.763 348.22 398.161 348.22 394.153C348.22 390.144 348.668 386.129 342.874 380.771C337.079 375.413 344.654 371.858 351.787 372.306C358.92 372.754 365.599 368.536 365.599 362.415C365.599 356.294 358.914 345.135 365.157 338.898C371.4 332.661 385.654 327.757 386.102 323.3C386.55 318.843 402.142 312.158 412.394 311.716C422.645 311.274 452.056 320.181 457.403 319.733C462.749 319.285 454.494 302.553 447.82 299.434C441.147 296.316 418.235 285.372 421.307 266.702C422.657 258.486 431.559 253.634 427.544 248.73C423.53 243.825 420.173 239.368 435.015 235.348C449.857 231.328 459.631 234.609 461.859 227.924C464.088 221.239 462.749 205.193 468.096 205.193C473.443 205.193 475.229 219.453 481.024 219.901C486.819 220.349 502.411 219.406 507.363 226.731C509.312 229.64 523.409 225.568 529.745 228.32C535.464 230.816 527.319 237.873 529.547 244.558C531.775 251.243 553.674 259.569 559.021 253.32C564.368 247.071 556.345 236.384 555.455 230.147C554.565 223.91 561.273 222.123 568.836 234.155C576.4 246.187 568.388 256.881 568.836 266.684C569.284 276.488 560.359 279.164 552.784 280.514C545.209 281.864 535.4 299.231 528.273 299.673C521.146 300.115 530.018 282.149 526.783 273.678C523.548 265.206 517.032 253.675 506.781 250.108C496.529 246.542 496.308 257.561 493.114 261.401C487.372 268.331 476.084 265.166 474.793 257.329C472.023 240.456 448.303 248.567 448.751 264.159C449.199 279.752 466.787 291.196 479.697 297.439C492.608 303.681 493.51 313.927 498.414 323.283C503.319 332.638 518.911 335.314 520.25 341.109Z" fill="#E5B76E"/>
<path d="M399.067 138.03C391.542 129.021 382.6 121.818 378.583 119.658C373.631 116.987 359.234 110.787 351.44 112.384C343.645 113.982 327.025 107.312 324.188 116.527C321.352 125.741 329.921 133.615 333.328 147.002C336.734 160.389 343.543 166.605 360.228 174.424C376.914 182.244 385.508 169.411 394.191 165.846C402.874 162.282 406.595 147.046 399.067 138.03ZM377.705 153.574C375.242 158.992 362.282 153.158 356.597 147.919C350.912 142.679 342.468 131.279 347.33 129.564C354.419 127.072 369.688 131.838 370.77 137.869C371.853 143.899 380.191 148.163 377.705 153.574Z" fill="#E5B76E"/>
<path d="M330.662 875.305C340.198 868.743 343.613 872.313 349.701 871.671C355.789 871.03 361.447 862.843 365.233 860.308C369.018 857.773 383.925 855.869 387.694 847.459C391.464 839.049 393.321 815.732 396.467 809.215C399.614 802.699 392.26 791.592 390.557 785.695C388.854 779.798 389.257 758.384 382.744 758.183C376.231 757.982 365.728 758 358.581 753.805C351.433 749.61 337.562 747.115 330.851 755.525C324.14 763.935 318.909 765.851 310.912 772.568C302.916 779.284 303.378 789.383 303.791 799.902C304.204 810.421 312.225 818.799 317.057 820.265C321.889 821.732 329.236 818.566 333.849 816.47C338.463 814.374 348.127 808.885 346.228 804.058C344.329 799.231 338.016 791.25 335.495 792.097C332.974 792.943 338.031 799.235 335.931 800.921C333.831 802.606 326.267 803.871 321.649 802.199C317.031 800.526 316.576 790.032 317.924 786.159C319.273 782.286 333.776 776.996 335.87 774.048C337.964 771.1 343.844 765.632 345.737 766.263C347.631 766.894 360.232 779.075 365.082 779.262C369.933 779.449 371.824 796.898 373.509 798.579C375.194 800.259 371.832 799.84 369.744 810.346C367.656 820.851 373.33 827.348 371.666 831.983C370.002 836.617 344.795 848.405 342.276 850.93C339.758 853.456 333.72 851.937 328.036 849.645C322.351 847.353 306.409 856.253 294.876 858.177C283.343 860.101 253.653 839.514 254.95 825.146C255.708 816.74 255.3 812.766 261.182 811.919C267.064 811.072 273.37 813.581 276.307 810.216C279.244 806.851 276.928 807.064 276.919 797.4C276.91 787.736 279.198 779.131 281.721 776.602C284.243 774.072 295.788 768.807 297.247 761.034C298.705 753.261 292.781 735.216 296.149 728.049C299.517 720.882 310.891 701.667 326.095 703.79C341.299 705.913 338.844 709.207 343.982 718.374C349.12 727.542 351.836 730.694 352.463 725.863C353.09 721.032 354.757 715.982 355.601 710.094C356.445 704.206 353.066 700.433 343.04 693.934C333.804 687.944 329.965 677.969 326.491 677.151C321.779 676.034 307.587 676.613 303.177 680.194C298.768 683.775 295.992 696.659 290.745 701.92C285.499 707.181 270.602 713.722 268.097 719.596C265.591 725.47 278.692 733.515 279.183 743.24C279.673 752.965 267.783 752.71 261.7 759.65C255.616 766.59 258.646 780.385 259.513 785.407C260.379 790.429 260.721 793.481 259.52 794.231C258.32 794.982 251.804 789.519 236.822 805.283C225.927 816.743 233.47 824.751 239.787 838.191C246.104 851.631 260.191 858.541 269.65 865.468C279.11 872.396 295.744 885.896 306.045 885.685C316.347 885.473 324.238 879.72 330.662 875.305Z" fill="#E5B76E"/>
<path d="M233.481 596.85C233.853 599.602 234.278 602.762 249.341 597.694C264.404 592.626 274.283 596.193 280.526 599.288C286.768 602.383 284.779 611.762 289.253 612.606C293.727 613.449 298.166 621.048 298.166 624.707C298.166 628.367 295.792 637.088 299.655 642.435C303.519 647.782 316.051 651.43 321.915 652.256C328.449 653.204 317.162 659.575 308.534 659.854C299.906 660.134 294.867 665.766 291.004 658.167C287.141 650.569 283.278 640.16 281.497 635.093C279.717 630.025 283.528 623.34 280.334 619.896C272.374 611.273 259.231 609.487 252.471 612.21C244.547 615.398 235.016 632.282 235.016 637.53C235.016 642.778 243.93 641.661 247.892 638.473C251.854 635.285 253.634 644.663 245.117 648.224C236.599 651.785 228.675 647.287 223.328 647.287C217.981 647.287 203.197 654.135 195.599 653.385C188.001 652.634 189.618 647.66 201.941 643.162C213.932 638.775 217.981 634.534 220.361 624.777C222.74 615.02 220.559 607.759 223.921 598.328C227.424 588.693 232.096 586.512 233.481 596.85Z" fill="#E5B76E"/>
<path d="M152.272 517.834C151.415 523.891 139.797 535.652 144.39 540.587C148.983 545.523 158.211 549.977 163.826 557.912C169.442 565.846 170.792 578.699 180.223 580.872C189.653 583.046 199.051 583.312 204.355 584.319C209.658 585.326 213.414 579.221 223.187 573.041C232.959 566.861 232.793 548.638 235.926 545.856C239.059 543.074 256.52 528.558 268.635 530.579C280.75 532.601 281.454 534.929 281.613 529.537C281.88 520.719 276.099 516.151 272.595 515.17C269.092 514.19 258.311 517.05 251.006 521.84C243.7 526.63 229.861 518.212 226.782 521.304C223.703 524.396 226.883 535.351 223.243 544.2C219.152 554.114 212.767 568.159 188.498 559.349C180.549 556.461 170.627 550.31 167.745 545.901C164.863 541.492 163.303 530.914 164.767 525.554C166.231 520.194 183.148 522.011 186.769 522.014C190.391 522.016 194.731 533.022 194.65 541.182C194.569 549.341 202.337 545.439 202.443 537.452C202.548 529.465 198.633 513.24 195.799 508.634C192.965 504.027 180.101 509.792 176.004 510.511C171.906 511.23 153.885 506.387 152.272 517.834Z" fill="#E5B76E"/>
<path d="M208.44 380.766C216.347 384.33 224.764 383.852 227.316 389.249C229.868 394.646 229.099 407.241 235.477 410.841C241.856 414.44 233.689 423.93 229.099 428.325C224.509 432.72 218.39 444.777 225.273 444.001C232.156 443.226 240.577 438.861 247.21 438.861C253.843 438.861 267.36 434.492 270.931 431.919C274.502 429.347 299.496 429.865 304.851 428.068C310.205 426.271 303.577 412.386 304.851 405.701C306.125 399.015 305.35 389.762 309.956 385.136C314.561 380.509 325 376.673 325 369.454C325 362.235 314.291 356.088 313.267 349.403C312.243 342.717 318.627 326.245 317.348 319.585C316.069 312.924 298.732 307.759 289.806 300.047C280.881 292.334 272.205 286.958 259.707 288.221C247.21 289.485 245.937 292.334 244.658 296.191C243.379 300.047 239.049 302.358 229.609 305.7C220.168 309.043 223.745 323.955 220.938 330.121C218.13 336.288 215.328 339.893 222.216 341.947C229.104 344.001 236.496 344.776 243.384 350.686C250.272 356.597 257.41 368.17 266.72 367.395C276.031 366.62 276.795 353.772 279.857 349.659C282.918 345.546 280.856 338.584 277.05 333.464C273.243 328.344 274.427 337.32 273.553 341.177C272.679 345.033 268.868 355.313 263.259 349.403C257.65 343.492 247.19 336.037 245.402 331.667C243.614 327.297 248.719 322.922 253.564 319.842C258.409 316.761 253.928 315.421 258.059 310.276C262.19 305.131 286.19 314.158 290.526 319.041C294.861 323.924 294.606 334.98 295.625 339.611C296.644 344.243 302.004 347.837 302.768 354.004C303.532 360.171 292.818 373.542 288.483 377.398C284.147 381.254 288.483 396.166 288.483 403.878C288.483 411.591 269.098 421.357 262.724 419.812C256.351 418.266 258.868 406.114 262.12 402.272C266.615 396.946 273.753 398.467 269.417 391.106C268.014 388.725 250.737 394.127 248.939 396.141C247.14 398.154 245.113 401.024 242.82 402.308C240.527 403.591 237.975 399.997 238.484 394.082C238.994 388.166 240.268 376.784 231.342 373.225C222.416 369.666 209.364 374.8 204.549 370.944C199.734 367.088 198.75 376.396 208.44 380.766Z" fill="#E5B76E"/>
<path d="M273.124 286.306C267.26 275.467 257.334 261.975 246.943 254.836C236.552 247.697 212.325 236.422 199.921 235.432C187.517 234.443 168.16 238.51 163.849 245.015C159.538 251.519 138.831 255.941 132.129 256.331C125.426 256.721 118.299 276.927 107.047 279.115C95.7949 281.302 81.5755 269.974 81.017 262.364C80.4584 254.754 93.8691 264.267 99.6348 264.517C105.401 264.767 114.954 243.328 119.218 241.285C123.483 239.243 149.129 235.002 154.947 224.553C160.765 214.103 155.221 208.058 155.314 205.836C155.407 203.613 166.159 202.735 178.528 195.247C190.897 187.759 200.707 187.34 201.556 173.72C202.138 164.213 186.79 161.077 186.54 156.609C186.289 152.141 198.653 148.004 192.98 136.583C189.437 129.45 170.162 133.168 166.834 127.67C163.506 122.172 182.711 118.431 173.67 103.158C166.985 91.8712 162.063 93.9831 156.373 91.5221C150.683 89.061 153.103 84.6858 170.918 85.0174C188.733 85.3491 202.702 97.1481 204.663 102.105C208.957 112.997 203.15 119.431 203.749 123.05C204.349 126.669 216.415 120.287 221.157 134.244C225.899 148.202 209.457 152.74 210.231 155.451C211.005 158.162 223.333 161.851 224.491 176.146C225.649 190.441 204.709 208.052 195.633 212.119C186.557 216.186 196.797 215.738 208.951 213.591C221.105 211.444 240.828 208.733 246.559 220.573C252.29 232.413 264.077 236.055 272.362 236.416C280.647 236.776 284.033 230.679 299.44 235.368C314.846 240.058 316.393 255.732 317.225 267.368C318.057 279.004 311.175 282.268 309.79 273.093C308.987 267.752 306.596 259.746 301.319 253.69C295.198 246.667 280.822 254.271 279.21 260.456C277.598 266.641 286.343 281.296 287.454 291.944C288.513 302.178 287.076 310.806 283.568 316.153C281.182 319.789 277.546 314.919 278.413 311.62C280.129 305.075 275.76 291.181 273.124 286.306Z" fill="#E5B76E"/>
<path d="M128.293 -26.8039C132.469 -23.0844 139.523 -22.617 142.246 -18.1871C144.969 -13.7572 142.026 7.78509 147.071 6.53904C152.115 5.29299 152.504 -6.99724 156.269 -11.1629C160.034 -15.3287 166.005 -22.3712 173.668 -16.4654C181.332 -10.5596 184.599 -6.46946 183.258 -0.863458C181.916 4.74255 179.766 8.62833 187.273 4.85054C194.78 1.07276 201.303 1.84516 204.65 9.34377C207.998 16.8424 205.116 19.9361 208.764 23.0001C212.411 26.0641 215.542 40.5981 211.764 47.163C207.986 53.7279 194.268 64.0266 185.583 59.0109C176.897 53.9952 167.705 44.6757 169.208 38.4496C170.315 33.7867 171.874 25.6605 178.023 27.4573C184.172 29.254 181.292 36.0626 181.231 40.879C181.169 45.6953 185.353 35.4256 187.322 30.7669C189.292 26.1082 181.612 20.9897 176.33 18.1447C171.048 15.2997 165.169 15.9825 162.221 23.8943C159.273 31.8062 158.025 39.209 155.207 46.517C152.389 53.8249 165.973 59.1201 169.455 60.6974C172.937 62.2747 179.035 72.5936 179.958 75.7374C180.881 78.8812 195.753 72.4041 200.097 74.5173C204.441 76.6305 214.611 74.3509 218.164 66.593C221.718 58.8352 224.327 44.2313 231.133 38.4603C237.94 32.6894 231.818 23.1725 229.544 12.0851C227.269 0.997768 215.921 -12.714 212.21 -18.6601C208.5 -24.6062 199.344 -18.1974 195.6 -18.5357C191.856 -18.8739 197.849 -35.3092 186.386 -36.7572C174.922 -38.2051 160.297 -30.8292 156.019 -27.1163C151.742 -23.4035 139.142 -26.3932 134.888 -29.5008C129.875 -33.1652 120.489 -33.7582 128.293 -26.8039Z" fill="#E5B76E"/>
<path d="M372.795 221.73L372.791 221.728C365.192 218.24 364.669 222.342 369.744 228.822C374.694 235.14 380.544 236.777 386.138 242.564C391.733 248.351 392.872 252.912 390.708 262.921C388.476 273.202 391.162 276.433 394.918 271.598C398.674 266.762 400.377 253.79 402.658 250.181C404.938 246.571 411.387 243.106 412.627 235.808C413.867 228.511 406.723 225.736 407.188 229.783C407.654 233.831 404.592 240.353 401.036 238.106C397.48 235.859 390.124 222.164 391.356 215.43C392.41 209.677 406.675 206.365 408.503 199.825C410.331 193.284 407.358 190.662 407.358 190.662C407.358 190.662 399.365 187.974 394.595 190.877C389.826 193.781 383.179 198.949 380.158 211.335C377.138 223.716 374.818 222.655 372.795 221.73Z" fill="#E5B76E"/>
<path d="M487.564 179.286C478.194 177.25 464.108 165.177 458.274 158.758C452.44 152.338 447.625 142.562 450.544 138.81C453.463 135.059 454.899 138.056 458.464 137.822C462.029 137.589 466.518 132.795 459.119 127.79C451.72 122.785 440.019 122.342 433.328 111.112C426.636 99.8828 437.162 99.4109 432.645 92.1513C428.128 84.8916 422.955 82.3489 420.843 80.7053C418.731 79.0618 423.641 76.4838 422.898 70.2583C422.154 64.0327 427.893 61.3473 432.748 57.5987C437.604 53.8502 437.812 48.7413 432.446 49.8297C427.08 50.918 419.217 48.935 415.231 45.8337C411.245 42.7324 411.09 31.3174 412.225 25.0647C413.36 18.8119 417.231 0.72535 411.706 -6.20539C406.181 -13.1361 391.193 -12.7749 385.655 -11.4661C380.118 -10.1574 382.029 8.6754 384.844 10.8656C387.658 13.0558 391.052 16.434 393.867 18.6242C396.682 20.8144 396.865 27.7318 389.604 26.225C382.343 24.7181 375.625 14.972 372.338 12.4138C369.05 9.85556 374.38 -18.2638 376.829 -24.3199C379.278 -30.3759 415.16 -22.7806 423.03 -20.8068C430.901 -18.8329 433.035 -1.72789 432.264 5.54497C431.492 12.8178 432.94 27.9066 438.799 32.4656C444.658 37.0246 454.296 39.0019 458.585 36.0662C462.875 33.1304 472.294 38.4474 469.011 42.6672C465.727 46.8871 454.776 58.6973 452.676 63.3374C450.577 67.9774 445.494 83.8522 450.446 90.7134C455.398 97.5746 463.463 100.105 466.215 103.986C468.967 107.867 465.347 110.587 465.846 113.489C466.345 116.391 474.203 122.749 477.937 131.176C481.671 139.603 476.614 146.585 479.632 154.956C481.015 158.797 489.048 168.18 493.744 171.334C499.683 175.402 494.83 180.862 487.564 179.286Z" fill="#E5B76E"/>
<path d="M351.904 227.758L351.908 227.758C359.257 228.762 357.697 232.082 350.815 234.52C344.103 236.896 340.913 226.832 332.001 237.011C323.089 247.19 316.008 234.856 316.008 234.856C316.017 231.068 312.838 225.405 315.38 219.351C317.923 213.297 324.593 214.617 322.319 217.427C320.045 220.236 319.235 226.576 322.967 226.585C326.698 226.595 338.721 219.839 341.003 214.211C342.951 209.401 333.844 200.136 335.587 194.368C337.329 188.601 340.803 188.052 340.803 188.052C340.803 188.052 348.067 189.842 350.257 194.285C352.447 198.728 354.966 205.759 351.336 216.472C347.708 227.179 349.949 227.488 351.904 227.758Z" fill="#E5B76E"/>
</mask>
<g mask="url(#mask0_412_386)">
<rect x="-1" y="2" width="450" height="720" fill="#E5B76E"/>
</g>
</g>
<defs>
<clipPath id="clip0_412_386">
<rect width="450" height="720" fill="white"/>
</clipPath>
</defs>
</svg>
