<svg width="450" height="720" viewBox="0 0 450 720" fill="none" xmlns="http://www.w3.org/2000/svg">
<g clip-path="url(#clip0_412_386)">
<mask id="mask0_412_386" style="mask-type:alpha" maskUnits="userSpaceOnUse" x="-506" y="-168" width="836" height="1169">
<path d="M46.9038 243.198C37.3505 238.422 33.8654 229.852 37.2806 224.266C40.6959 218.681 39.2181 213.712 41.5104 208.435C43.8027 203.158 59.3196 201.605 67.6918 203.781C72.6604 190.126 80.7301 191.057 87.8689 188.264C95.0077 185.471 92.215 179.572 95.9386 171.502C99.6622 163.432 105.248 155.357 110.216 152.884C95.9386 149.475 82.2894 137.99 75.7615 129.914C69.2336 121.839 66.1384 122.153 63.0373 117.19C59.9363 112.227 64.5908 106.322 66.1384 98.5723C67.686 90.8226 69.2452 75.8817 79.4851 72.804C89.7249 69.7262 101.838 68.4579 107.738 72.804C113.637 77.1501 127.915 86.1507 131.01 88.635C134.105 91.1193 135.979 106.642 127.286 110.057C118.594 113.472 111.758 114.38 111.176 113.135C110.554 109.411 115.208 109.103 115.516 102.273C115.825 95.4421 108.069 92.9636 103.415 90.1651C98.7604 87.3666 94.711 96.6814 93.1401 101.039C91.5692 105.397 91.9009 115.631 96.8637 122.77C101.827 129.908 115.482 135.185 126.664 137.361C137.846 139.537 157.709 150.691 162.055 156.596C166.401 162.501 168.572 170.559 168.263 173.055C177.886 171.816 188.44 175.854 194.026 184.854C199.611 193.855 192.181 208.435 185.648 212.165C179.114 215.894 171.37 215.888 166.401 216.202C161.433 216.517 158.332 212.473 160.816 210.611C163.3 208.749 170.439 207.51 175.408 204.095C180.376 200.68 180.993 191.679 179.131 187.019C177.27 182.359 159.885 182.056 153.986 185.471C148.086 188.886 154.608 181.125 155.231 175.534C155.853 169.943 151.816 160.948 148.709 158.772C145.602 156.596 131.016 155.048 127.601 157.841C124.185 160.634 113.946 171.188 113.946 176.459C113.946 181.73 123.255 184.843 128.846 186.705C134.437 188.566 135.054 193.535 126.984 192.913C118.914 192.29 107.115 191.359 104.008 197.881C100.901 204.403 90.0449 198.19 85.0762 200.674C80.1076 203.158 84.762 220.851 80.1076 222.09C75.4531 223.329 60.8614 217.744 54.0309 223.021C47.2005 228.298 50.6215 234.198 52.7917 238.852C54.9618 243.507 54.3568 246.928 46.9038 243.198Z" fill="#E5B76E"/>
<path d="M14.8885 276.272C20.8695 272.542 30.4519 266.236 18.6528 263.582C6.8537 260.929 -0.680724 255.047 -3.71195 248.455C-6.74317 241.864 -13.0209 237.541 -14.33 232.456C-15.639 227.371 -5.79483 220.238 -4.15413 211.953C-2.51343 203.668 0.820355 197.21 9.50094 197.117C18.1815 197.024 19.1997 191.45 22.0389 183.491C24.8781 175.532 36.9099 175.468 42.984 175.014C49.0581 174.56 51.7577 170.941 43.2342 164.262C34.7107 157.583 25.7799 161.109 27.9675 150.217C29.0439 144.847 36.1943 143.654 31.3653 139.675C26.5363 135.695 16.8957 129.202 13.7074 119.893C10.5191 110.584 12.4798 105.784 15.6914 101.7C18.903 97.6158 24.7036 93.7933 23.6621 86.6661C22.5683 79.1725 30.673 82.5935 33.1747 74.6111C35.6765 66.6287 33.8729 44.613 34.0707 36.299C34.2685 27.9849 35.2343 23.8425 36.5609 16.1509C37.8874 8.45944 31.0046 6.51038 25.041 1.60574C19.0775 -3.29891 11.1533 -10.6122 5.28865 -7.17957C-0.57598 -3.7469 -9.12276 3.47334 -12.0667 5.51549C-15.0107 7.55764 -16.9074 14.6266 -15.5983 20.6018C-14.4856 25.7314 -12.4428 30.6139 -9.57076 35.0074C-7.33662 38.3295 -4.68939 36.6073 -5.06175 27.6824C-5.43411 18.7575 -1.96068 18.8389 3.58396 16.5931C9.12859 14.3473 15.8601 23.7145 19.2113 28.846C22.5625 33.9776 19.0717 45.5846 12.9278 48.4122C6.7839 51.2398 1.95489 54.0616 1.83853 59.1117C1.72217 64.1618 8.2384 65.6629 6.39407 69.5842C4.54973 73.5056 -0.389809 81.3251 -5.59118 88.1323C-9.91983 93.8224 -9.0064 95.4166 -7.96497 100.461C-7.23993 104.395 -7.51604 108.449 -8.76787 112.248C-9.38458 113.72 -14.6848 117.758 -16.5117 121.557C-18.3386 125.356 -15.4994 126.863 -8.71549 133.56C-1.9316 140.257 4.30537 144.707 4.21228 148.571C4.11919 152.434 4.54973 158.979 -1.24508 159.439C-7.0399 159.898 -18.1175 162.93 -21.9749 155.093C-25.8323 147.256 -29.4919 154.912 -27.9036 161.19C-26.3152 167.468 -21.172 170.266 -14.01 173.408C-6.8479 176.55 -8.3315 180.297 -16.8783 186.929C-25.425 193.562 -42.2219 198.048 -46.8763 199.147C-51.5308 200.247 -62.9866 207.682 -63.5335 218.667C-64.0804 229.651 -62.6375 234.958 -55.4638 237.483C-48.2901 240.008 -51.426 237.872 -53.6195 232.77C-55.8129 227.667 -53.1482 220.098 -50.1577 215.711C-47.1672 211.324 -38.6844 210.423 -34.9783 213.803C-31.2722 217.183 -33.4714 229.698 -35.4438 239.757C-37.4161 249.817 -22.2367 258.899 -19.7349 263.117C-17.2332 267.335 -34.3558 278.966 -42.2509 282.666C-50.1461 286.366 -63.9873 280.176 -67.6702 281.083C-71.353 281.991 -74.2213 284.691 -76.8162 286.616C-79.4111 288.542 -84.7113 292.173 -89.9011 291.457C-95.0908 290.741 -100.141 282.899 -103.003 282.637C-105.866 282.375 -109.578 283.475 -109.619 285.255C-109.659 287.035 -122.174 285.953 -126.154 283.085C-130.133 280.216 -138.29 274.084 -141.519 272.03C-144.748 269.977 -150.758 270.238 -147.582 275.649C-144.405 281.06 -139.017 288.926 -137.958 292.347C-136.9 295.768 -139.622 297.461 -140.67 301.004C-141.717 304.548 -137.324 306.433 -138.197 310.767C-139.07 315.102 -154.261 329.81 -160.888 332.824C-167.514 335.837 -166.973 337.437 -155.965 336.704C-144.958 335.971 -125.031 325.708 -121.668 322.601C-118.305 319.494 -113.243 308.731 -105.883 307.323C-98.5235 305.915 -95.469 307.364 -90.6981 309.65C-85.9273 311.937 -73.2439 314.415 -66.1516 307.253C-59.0594 300.091 -57.314 308.841 -54.626 309.301C-51.9381 309.761 -38.027 308.719 -37.5732 305.74C-37.1194 302.761 -24.7734 287.413 -16.2732 285.435C-7.77294 283.457 -0.645809 285.4 4.40429 283.736C9.45439 282.072 10.4435 279.035 14.8885 276.272Z" fill="#E5B76E"/>
<path d="M44.6189 299.538C53.154 291.445 59.4725 290.625 59.4725 285.278C59.4725 279.931 53.8289 258.515 64.2259 258.835C74.6228 259.155 91.4778 243.213 99.594 239.129C117.706 230.018 130.43 252.895 142.491 250.818C154.552 248.741 167.02 243.388 174.45 245.768C181.879 248.147 187.22 254.681 192.87 262.402C198.519 270.122 199.456 276.365 198.833 286.762C198.211 297.159 192.87 299.562 181.28 301.022C169.69 302.482 159.293 296.571 153.65 294.191C148.006 291.812 153.353 284.981 154.813 281.712C156.274 278.442 158.374 281.415 159.864 285.278C161.353 289.141 167.02 291.515 175.636 289.438C184.253 287.361 183.66 279.547 183.66 273.211C183.66 266.876 182.17 262.995 170.278 262.995C158.386 262.995 151.264 271.612 145.022 271.612C138.779 271.612 131.157 258.538 122.645 256.164C117.485 254.722 112.638 264.7 105.808 267.847C98.9773 270.995 81.7441 273.398 79.6612 276.365C77.5783 279.332 77.2874 286.837 77.8809 286.663C89.7672 286.465 92.141 287.245 97.4878 290.032C102.835 292.818 100.065 296.17 103.23 302.511C106.395 308.853 106.203 317.167 102.241 321.525C98.2791 325.883 87.7833 328.652 81.8546 327.07C75.926 325.487 74.5239 324.096 73.9304 320.536C73.337 316.975 74.7217 317.563 77.8925 319.145C81.0634 320.728 85.4211 320.536 87.5971 317.761C89.7731 314.985 88.3883 307.87 86.608 304.292C84.8277 300.714 76.9035 297.362 69.5727 299.911C62.2419 302.459 55.5103 309.022 54.7191 314.962C53.9278 320.902 54.5213 326.651 56.6972 330.613C58.8732 334.575 65.0171 337.542 67.7923 342.295C70.5676 347.049 72.1501 352.401 67.2105 361.71C62.271 371.019 59.8797 382.306 56.1154 384.68C52.3511 387.054 39.0859 383.691 34.5303 384.68C29.9748 385.669 24.4301 389.434 17.8906 389.637C11.3511 389.841 -1.30909 380.328 -6.66755 377.553C-12.026 374.778 -13.6027 373.789 -17.1401 370.42C-20.6775 367.051 -22.2949 357.155 -22.2949 352.599C-22.2949 348.044 -12.1889 341.655 -8.62824 336.826C-5.06757 331.997 4.2472 321.897 9.79184 322.095C15.3365 322.293 18.3095 327.64 25.4425 330.24C32.5754 332.841 31.3478 341.33 30.766 347.072C30.1842 352.815 28.3864 356.963 25.0236 356.963C21.6607 356.963 23.4352 347.852 21.8527 344.681C20.2702 341.51 14.3241 337.944 10.5657 337.944C6.80717 337.944 -3.70031 343.296 -6.46972 348.247C-9.23913 353.199 3.42103 366.283 10.9845 369.832C18.5481 373.381 32.9653 370.624 39.1092 369.635C45.2531 368.646 55.3474 359.337 52.9737 354.781C50.5999 350.225 42.0764 349.434 41.4829 342.895C40.8895 336.355 45.6429 332.597 44.6538 329.234C43.6647 325.871 33.1282 310.436 44.6189 299.538Z" fill="#E5B76E"/>
<path d="M-52.8282 410.949C-55.0449 401.338 -25.6926 400.256 -22.3298 400.256C-18.9669 400.256 -18.0709 411.397 -8.26746 410.949C1.53602 410.501 16.2209 408.709 26.4956 413.178C36.7703 417.646 55.4639 422.091 64.8194 419.863C74.1749 417.634 83.5361 406.941 84.4263 396.241C85.3165 385.542 90.2444 372.626 95.1258 369.059C100.007 365.493 111.638 349.452 119.201 345.874C126.765 342.296 119.201 353.897 119.201 357.906C119.201 361.915 118.753 365.929 124.548 371.288C130.343 376.646 122.768 380.201 115.635 379.753C108.502 379.305 101.822 383.523 101.822 389.644C101.822 395.764 108.507 406.923 102.265 413.16C96.0218 419.397 81.7675 424.302 81.3195 428.759C80.8715 433.215 65.279 439.9 55.0275 440.342C44.7761 440.785 15.3656 431.877 10.0188 432.325C4.672 432.773 12.9278 449.506 19.6012 452.624C26.2745 455.743 49.1862 466.687 46.1142 485.357C44.7644 493.572 35.8627 498.424 39.8772 503.329C43.8917 508.234 47.2487 512.69 32.4068 516.711C17.5649 520.731 7.79047 517.45 5.56215 524.135C3.33382 530.819 4.672 546.866 -0.674826 546.866C-6.02165 546.866 -7.80782 532.606 -13.6026 532.158C-19.3974 531.71 -34.9899 532.652 -39.9411 525.327C-41.8902 522.418 -55.9874 526.491 -62.3233 523.739C-68.0425 521.243 -59.8971 514.186 -62.1255 507.501C-64.3538 500.816 -86.2531 492.49 -91.5999 498.739C-96.9467 504.987 -88.9236 515.675 -88.0334 521.912C-87.1432 528.149 -93.8515 529.935 -101.415 517.903C-108.979 505.872 -100.967 495.178 -101.415 485.374C-101.863 475.571 -92.9381 472.895 -85.3629 471.545C-77.7878 470.195 -67.9784 452.828 -60.8513 452.386C-53.7241 451.944 -62.5967 469.91 -59.3619 478.381C-56.127 486.852 -49.6108 498.384 -39.3593 501.95C-29.1078 505.517 -28.8867 494.497 -25.6926 490.657C-19.9501 483.728 -8.66306 486.893 -7.37145 494.73C-4.60204 511.602 19.1183 503.492 18.6703 487.899C18.2223 472.307 0.634242 460.863 -12.2761 454.62C-25.1864 448.377 -26.0883 438.132 -30.9929 428.776C-35.8975 419.421 -51.49 416.744 -52.8282 410.949Z" fill="#E5B76E"/>
<path d="M-157.554 617.73C-152.003 625.131 -137.65 631.321 -131.111 625.154C-124.571 618.987 -123.093 611.487 -114.477 610.027C-105.86 608.567 -99.9315 614.484 -89.2204 605.867C-78.5093 597.25 -73.7734 583.584 -76.4206 577.05C-79.0679 570.516 -82.9544 563.668 -95.7309 561.923C-108.507 560.178 -115.931 564 -119.201 564.89C-122.471 565.78 -116.525 572.023 -115.338 577.073C-114.151 582.123 -115.041 585.987 -120.091 585.987C-125.141 585.987 -129.895 579.092 -134.351 572.884C-138.808 566.676 -144.452 557.175 -135.515 555.383C-126.578 553.592 -104.324 546.173 -98.0814 544.987C-94.1039 544.284 -90.0181 544.503 -86.1388 545.628C-82.2594 546.753 -78.6899 548.753 -75.705 551.474C-68.7233 558.013 -54.4516 561.876 -50.2916 563.657C-46.1317 565.437 -46.7251 579.697 -50.2916 588.017C-53.8581 596.337 -53.2647 592.177 -51.4552 593.661C-49.6458 595.144 -33.4192 589.105 -24.692 593.364C-13.9926 598.6 -6.76649 613.46 -13.3991 610.103C-29.841 601.783 -50.8327 602.871 -54.3992 608.52C-57.9657 614.169 -60.3395 625.649 -65.0928 627.481C-69.8462 629.314 -82.0293 642.981 -83.5129 650.707C-84.9965 658.433 -90.3491 674.177 -93.9098 682.491C-97.4705 690.805 -93.0196 698.834 -84.4031 698.834C-75.7865 698.834 -68.1648 705.071 -68.415 708.044C-68.6651 711.017 -72.5225 723.788 -64.7961 724.684C-57.0697 725.58 -48.7557 714.578 -39.2489 712.798C-29.7422 711.017 -16.378 693.93 -16.378 687.099C-16.378 680.269 -25.6869 668.982 -32.2148 670.116C-45.0786 672.345 -45.8815 685.168 -50.9316 687.57C-55.9817 689.973 -57.7678 687.57 -54.2014 671.239C-50.6349 654.908 -34.2046 655.629 -27.0774 652.365C-19.9503 649.101 -18.2514 660.051 -12.6079 665.979C-6.96431 671.908 5.7482 681.403 5.7482 689.723C5.7482 698.043 -17.3264 718.144 -18.81 726.464C-20.2936 734.784 -41.9834 741.591 -52.6828 745.478C-63.3823 749.364 -75.257 751.121 -80.0278 739.538C-84.7987 727.954 -88.0335 730.921 -97.2319 722.304C-106.43 713.688 -120.405 700.911 -118.328 682.491C-116.251 664.071 -106.145 655.606 -105.849 646.471C-105.552 637.337 -106.739 636.744 -120.976 637.93C-135.212 639.117 -151.282 646.547 -157.519 638.512C-163.756 630.478 -164.687 608.218 -157.554 617.73Z" fill="#E5B76E"/>
<path d="M69.4174 -77.9204C67.2996 -66.5402 62.3601 -66.6565 58.5027 -61.9032C54.6453 -57.1498 56.4198 -47.358 55.5296 -42.8897C54.6395 -38.4214 45.4294 -26.5467 48.6992 -17.9301C51.969 -9.3135 67.1193 8.50729 69.493 15.3435C71.8668 22.1798 84.9168 24.8503 90.2869 27.8233C95.657 30.7964 110.493 46.2434 115.246 41.7868C120 37.3301 127.424 29.9004 135.447 27.8233C143.47 25.7463 155.054 17.7173 153.867 7.02369C152.68 -3.66995 155.031 -8.72005 155.95 -19.1228C156.869 -29.5255 149.41 -36.3501 141.69 -43.5064C133.969 -50.6626 122.374 -50.9303 117.917 -48.5565C113.46 -46.1827 110.493 -38.753 108.707 -34.0113C106.921 -29.2695 103.954 -18.5584 108.707 -16.4814C113.46 -14.4043 123.566 -13.2116 124.753 -15.5912C125.94 -17.9708 117.917 -18.8552 118.214 -21.5315C118.51 -24.2078 122.973 -30.4448 127.424 -32.5218C131.875 -34.5989 139.607 -27.4892 141.387 -23.7947C143.167 -20.1002 136.634 -6.11356 137.233 -2.54707C137.832 1.01942 137.53 9.04256 135.744 9.93273C133.957 10.8229 116.433 11.0963 112.867 14.3894C109.3 17.6824 95.6395 6.66296 93.26 6.66296C90.8804 6.66296 93.5567 4.5859 87.6164 -4.3274C81.6761 -13.2407 73.0712 -13.8342 70.9766 -18.2908C68.8821 -22.7475 78.4064 -48.8939 78.4064 -52.4604C78.4064 -56.0269 83.7532 -59.2152 89.3967 -61.6065C95.0403 -63.9977 100.044 -81.5567 106.851 -91.0634C113.658 -100.57 149.218 -106.958 158.446 -95.8692C163.845 -89.382 166.94 -86.8569 163.374 -82.1036C159.807 -77.3502 153.57 -74.6739 153.867 -70.2172C154.164 -65.7606 155.653 -67.5467 162.484 -60.7105C169.314 -53.8742 173.771 -46.1652 173.771 -42.5929C173.771 -39.0206 169.314 -27.1401 173.771 -20.6064C178.227 -14.0727 195.164 -5.47938 197.84 1.97359C200.516 9.42655 206.032 31.064 193.767 40.2973C181.503 49.5306 180.915 45.4638 170.803 42.6013C160.692 39.7388 156.543 39.4246 159.51 43.2878C162.478 47.151 164.863 51.9044 168.424 56.6694C171.984 61.4344 177.04 61.7195 188.729 59.241C199.498 56.9603 209.261 61.3123 212.298 59.4388C216.423 56.9021 226.064 46.4703 226.657 40.821C227.25 35.1716 220.117 24.0881 220.117 16.6584C220.117 9.22874 226.046 -5.92155 223.672 -11.8502C221.299 -17.7788 206.34 -14.224 199.126 -20.7635C191.911 -27.303 200.511 -35.5182 199.917 -44.7282C199.324 -53.9382 187.437 -61.5657 183.277 -64.5097C179.117 -67.4536 176.72 -69.3736 177.04 -70.7525C177.36 -72.1314 185.831 -72.8644 185.308 -94.6066C184.93 -110.414 173.934 -110.758 159.97 -115.814C146.007 -120.869 131.153 -115.814 119.563 -114.039C107.974 -112.265 86.6622 -110.077 79.5176 -102.653C72.373 -95.2292 70.8487 -85.5828 69.4174 -77.9204Z" fill="#E5B76E"/>
<path d="M112.171 481.137C118.035 491.976 127.961 505.468 138.352 512.607C148.743 519.745 172.97 531.021 185.374 532.01C197.778 532.999 217.135 528.932 221.446 522.428C225.757 515.923 246.464 511.501 253.166 511.111C259.869 510.722 266.996 490.515 278.248 488.328C289.5 486.14 303.719 497.468 304.278 505.078C304.837 512.688 291.426 503.176 285.66 502.925C279.894 502.675 270.341 524.115 266.076 526.157C261.812 528.199 236.166 532.44 230.348 542.89C224.529 553.339 230.074 559.384 229.981 561.607C229.888 563.829 219.136 564.708 206.767 572.195C194.398 579.683 184.588 580.102 183.739 593.722C183.157 603.229 198.505 606.365 198.755 610.833C199.006 615.302 186.642 619.438 192.315 630.859C195.858 637.992 215.133 634.274 218.461 639.773C221.789 645.271 202.584 649.012 211.625 664.284C218.31 675.571 223.232 673.459 228.922 675.92C234.612 678.381 232.192 682.757 214.377 682.425C196.562 682.093 182.593 670.294 180.632 665.337C176.338 654.446 182.145 648.011 181.545 644.392C180.946 640.773 168.879 647.156 164.138 633.198C159.396 619.241 175.838 614.702 175.064 611.991C174.29 609.28 161.962 605.591 160.804 591.296C159.646 577.001 180.585 559.39 189.662 555.323C198.738 551.256 188.498 551.704 176.344 553.851C164.19 555.998 144.467 558.709 138.736 546.869C133.005 535.03 121.218 531.387 112.933 531.027C104.648 530.666 101.262 536.763 85.8554 532.074C70.4491 527.385 68.9015 511.711 68.0695 500.074C67.2375 488.438 74.1203 485.174 75.505 494.349C76.3079 499.69 78.6991 507.696 83.9762 513.753C90.0968 520.775 104.473 513.171 106.085 506.986C107.696 500.802 98.9519 486.146 97.8407 475.499C96.7818 465.265 98.2188 456.637 101.727 451.29C104.113 447.654 107.749 452.523 106.882 455.822C105.166 462.367 109.535 476.261 112.171 481.137Z" fill="#E5B76E"/>
<path d="M60.758 -125.391C44.3335 -117.001 45.375 -92.3153 38.3292 -86.0143C32.0632 -86.7416 25.8204 -86.0841 19.275 -87.9168C11.8453 -89.9939 5.08468 -89.0804 -2.3392 -82.7213C-6.20241 -79.4282 -7.54055 -69.2699 -11.9972 -69.2699C-16.4539 -69.2699 -20.3171 -71.5331 -30.5627 -68.4088C-36.4273 -66.6285 -40.3487 -59.1988 -43.0251 -56.825C-45.7014 -54.4512 -56.0983 -55.0272 -56.0983 -48.86C-56.0983 -42.6928 -51.1471 -33.3025 -49.6577 -28.2291C-48.1682 -23.1557 -49.6111 -23.1266 -48.6802 -16.4998C-47.7493 -9.87302 -52.4969 8.67503 -55.4699 12.6197C-58.443 16.5644 -88.6796 14.5746 -93.433 11.6073C-98.1863 8.64012 -89.0868 -12.4388 -87.58 -12.4388C-86.0731 -12.4388 -78.3234 -13.2126 -75.9438 -17.582C-73.5642 -21.9514 -80.8019 -21.9456 -87.58 -21.6546C-94.358 -21.3637 -102.399 -16.5056 -103.289 -9.47158C-104.336 -1.12262 -118.637 2.53695 -115.431 15.1157C-112.854 25.2158 -87.5683 24.8551 -82.2215 28.4216C-76.8747 31.9881 -64.0691 34.9611 -57.8495 30.5336C-51.63 26.106 -38.5335 8.84957 -35.863 1.12315C-33.1925 -6.60326 -31.7031 -12.5435 -33.4834 -22.0503C-35.2637 -31.557 -26.5017 -39.3707 -22.5279 -49.1742C-18.5542 -58.9777 -10.5427 -53.3109 -6.08605 -55.9814C-2.82792 -57.9362 7.69703 -67.5884 11.5428 -69.2699C24.6509 -71.824 34.9024 -73.3425 41.7154 -62.7187C43.8681 -57.5697 50.2738 -42.6579 48.6505 -39.4464C45.5088 -33.2035 31.8421 -33.0465 25.9018 -37.218C19.9616 -41.3896 16.5405 -38.626 18.3383 -34.245C20.1361 -29.864 32.5984 -18.6467 40.0223 -15.9762C47.4462 -13.3057 58.5937 -31.4232 61.8634 -36.4733C64.7317 -40.9125 54.9515 -57.5755 52.0134 -65.1856C52.8628 -67.3732 53.7588 -69.9564 54.7304 -72.8189C59.1289 -85.6187 62.643 -84.3212 63.5739 -100.344C64.5048 -116.367 78.4391 -119.957 85.9852 -124.629C93.5312 -129.301 78.8697 -134.654 60.758 -125.391Z" fill="#E5B76E"/>
<path d="M176.601 901.924C196.473 921.099 198.763 927.052 199.449 935.423C200.135 943.793 200.857 953.688 206.65 952.372C212.442 951.055 226.843 955.4 232.466 958.692C238.089 961.984 243.997 951.804 237.491 945.968C230.985 940.133 222.061 933.027 225.708 927.627C229.355 922.228 242.783 907.6 250.263 901.633C257.743 895.666 256.334 890.808 254.172 890.691C252.009 890.574 247.454 881.245 247.813 874.768C248.172 868.29 247.564 865.982 245.628 861.953C241.239 852.808 234.347 852.513 222.388 858.883C210.43 865.254 205.09 868.299 207.904 870.1C210.718 871.901 222.626 865.309 225.848 872.763C229.07 880.216 231.668 888.182 227.319 895.871C222.969 903.56 216.94 913.469 212.215 916.673C207.49 919.878 206.54 910.344 202.961 902.632C199.382 894.919 179.264 886.844 176.114 882.381C172.963 877.918 175.442 878.089 180.08 870.328C183.018 865.406 174.391 860.344 173.885 858.485C171.241 848.877 176.924 838.104 178.995 834.429C181.065 830.755 192.694 827.818 200.089 824.86C207.483 821.902 212.082 822.134 221.894 826.896C231.706 831.658 238.018 833.809 241.014 838.456C244.009 843.103 246.52 841.339 251.676 836.986C256.832 832.634 260.75 825.699 267.587 824.461C274.424 823.223 282.418 824.269 287.644 820.223C292.869 816.177 286.792 808.418 298.372 804.425C316.856 798.045 330.781 792.32 329.776 786.981C328.159 778.399 306.731 779.124 312.099 767.307C314.392 762.275 316.105 750.078 310.036 741.016C307.085 736.621 296.599 737.394 294.511 729.629C292.424 721.864 294.128 697.891 294.41 692.099C294.692 686.307 278.116 671.633 271.51 666.774C264.905 661.916 242.016 668.42 251.086 671.417C260.757 674.589 269.87 680.082 271.411 685.89C272.952 691.697 269.175 701.666 266.931 703.662C264.688 705.658 255.397 706.493 250.045 708.563C244.692 710.633 252.056 715.522 258.374 717.696C264.691 719.869 269.686 725.727 273.357 727.649C277.028 729.571 282.351 742.567 281.036 746.255C279.72 749.943 276.899 754.618 277.412 760.653C277.925 766.687 282.314 762.295 283.641 770.048C284.968 777.801 278.117 793.147 273.014 795.369C267.91 797.592 263.31 796.305 259.624 800.955C255.938 805.606 253.674 816.514 239.456 816.567C225.238 816.619 220.174 811.404 214.769 807.549C209.364 803.695 199.758 800.783 197.058 801.713C194.358 802.643 196.384 807.278 191.84 808.627C187.296 809.977 177.528 812.519 173.221 816.357C168.915 820.194 161.222 828.822 158.245 832.888C155.267 836.954 159.221 845.792 160.403 856.162C161.988 870.032 150.872 874.6 150.399 885.459C150.092 893.631 171.913 897.393 176.601 901.924Z" fill="#E5B76E"/>
<path d="M295.314 119.556C292.547 119.323 289.372 119.049 291.058 134.857C292.744 150.666 287.125 159.533 282.753 164.952C278.381 170.371 269.653 166.41 267.862 170.59C266.072 174.77 257.691 177.465 254.118 176.673C250.545 175.881 242.545 171.675 236.49 174.284C230.435 176.893 224.157 188.355 222.056 193.908C219.716 200.082 215.939 187.684 217.534 179.199C219.129 170.715 214.721 164.577 222.974 162.456C231.227 160.335 242.226 158.81 247.559 158.169C252.892 157.528 258.594 162.695 262.648 160.322C272.788 154.418 277.377 141.973 276.183 134.777C274.784 126.357 260.364 113.392 255.241 112.257C250.117 111.121 249.279 120.065 251.535 124.617C253.792 129.17 244.233 128.928 242.606 119.843C240.979 110.757 247.084 103.97 248.236 98.7731C249.388 93.5758 245.908 77.6376 248.274 70.3792C250.64 63.1208 255.157 65.7791 256.881 78.7831C258.569 91.4394 261.833 96.3108 270.845 100.74C279.857 105.169 287.415 104.622 295.895 109.947C304.589 115.408 305.708 120.441 295.314 119.556Z" fill="#E5B76E"/>
<path d="M159.095 470.933C161.292 469.234 163.819 467.292 151.896 456.776C139.973 446.259 138.125 435.926 137.687 428.977C137.249 422.028 146.36 419.051 144.857 414.76C143.353 410.469 147.711 402.82 150.88 400.99C154.05 399.16 162.789 396.855 165.491 390.841C168.193 384.827 165.077 372.135 162.875 366.621C160.429 360.489 171.59 367.078 176.146 374.411C180.702 381.744 188.099 383.291 183.447 390.431C178.795 397.571 171.716 406.126 168.217 410.201C164.719 414.277 157.024 414.319 155.638 418.807C152.151 430.011 157.175 442.287 162.917 446.785C169.637 452.049 189.027 451.865 193.572 449.241C198.117 446.617 192.692 439.456 187.953 437.624C183.214 435.792 190.425 429.513 197.762 435.112C205.1 440.711 205.184 449.839 207.845 454.45C210.507 459.06 223.841 468.459 227 475.409C230.16 482.359 225.033 483.451 214.977 475.028C205.182 466.837 199.484 465.451 189.848 468.274C180.211 471.096 175.008 476.606 165.159 478.409C155.06 480.256 150.834 477.301 159.095 470.933Z" fill="#E5B76E"/>
<path d="M213.531 100.437C205.455 94.5856 196.621 90.5635 192.887 89.6563C188.282 88.5323 175.234 86.5717 169.248 89.6563C163.263 92.7409 148.306 90.8861 148.008 99.2327C147.709 107.579 156.386 112.247 162.068 122.685C167.751 133.123 174.637 136.798 189.897 139.6C205.157 142.402 209.346 129.736 215.625 124.807C221.904 119.878 221.611 106.294 213.531 100.437ZM199.558 118.234C198.735 123.32 186.936 121.344 181.175 118.234C175.415 115.125 166.072 107.479 169.649 104.953C174.867 101.279 188.311 101.844 190.503 106.647C192.696 111.45 200.399 113.149 199.558 118.234Z" fill="#E5B76E"/>
<path d="M23.3712 556.488C19.2229 565.5 26.2803 579.121 39.9004 579.121C53.5205 579.121 67.1989 570.94 79.9405 575.676C92.6821 580.412 104.958 582.134 105.872 592.467C106.785 602.8 93.1359 604.383 94.4973 611.777C95.8587 619.172 102.689 619.597 102.235 627.777C101.782 635.957 88.5861 652.108 69.9275 648.14C51.2689 644.173 39.4466 636.644 38.5099 628.458C37.5732 620.272 45.381 610.131 61.1597 624.187C74.9136 636.405 70.4686 623.024 63.5858 616.723C53.9278 607.85 47.6443 603.132 41.5469 603.341C35.147 603.539 23.3479 600.345 24.5581 615.274C25.1399 622.57 18.2688 637.086 16.6746 644.295C15.511 649.496 19.2985 650.805 29.4104 651.567C33.6925 651.893 41.448 666.328 45.3868 667.643C50.5417 669.388 57.4361 666.357 62.9284 668.341C72.4701 671.791 81.7557 674.107 88.1032 670.005C98.1161 663.547 110.398 646.971 119.521 648.158C128.644 649.345 119.067 667.753 119.521 673.176C119.975 678.598 127.713 677.749 135.445 679.471C143.177 681.193 156 691.2 148.745 713.35C146.523 720.139 138.273 722.292 126.177 717.69C122.325 716.229 120.109 709.393 120.719 704.89C123.553 684.224 105.656 703.267 105.656 713.123C105.656 718.673 117.525 724.177 121.127 727.04C129.313 733.498 145.696 741.684 153.882 730.92C162.069 720.157 168.655 703.104 174.577 694.959C180.5 686.813 160.032 685.487 153.19 675.177C146.348 664.867 147.279 653.708 147.279 646.354C147.279 639 144.55 632.542 139.541 628.237C134.532 623.931 140.001 600.682 140.908 590.774C141.816 580.866 142.729 576.997 121.796 573.983C100.862 570.969 87.3178 564.511 83.3964 556.762C79.475 549.012 70.6839 545.608 64.0105 544.654C57.3372 543.7 47.8304 551.927 45.0028 558.239C42.1752 564.552 33.2736 560.09 32.0576 554.667C30.8416 549.245 24.6104 553.777 23.3712 556.488Z" fill="#E5B76E"/>
<path d="M60.758 699.212C44.3335 707.607 45.375 732.293 38.3467 738.6C32.0806 737.867 25.8378 738.525 19.2925 736.698C11.8628 734.615 5.10215 735.534 -2.32173 741.888C-6.18493 745.186 -7.52308 755.345 -11.9797 755.345C-16.4364 755.345 -20.2996 753.081 -30.5453 756.2C-36.4274 757.992 -40.3487 765.41 -43.0251 767.784C-45.7014 770.158 -56.0983 769.582 -56.0983 775.749C-56.0983 781.916 -51.1471 791.306 -49.6577 796.356C-48.1682 801.407 -49.6111 801.459 -48.6802 808.086C-47.7493 814.712 -52.4969 833.266 -55.4699 837.211C-58.443 841.156 -88.6796 839.166 -93.433 836.193C-98.1863 833.22 -89.1159 812.17 -87.58 812.17C-86.044 812.17 -78.3234 811.396 -75.9438 807.033C-73.5642 802.669 -80.8019 802.663 -87.58 802.96C-94.358 803.257 -102.399 808.109 -103.289 815.143C-104.336 823.492 -118.637 827.152 -115.431 839.73C-112.854 849.836 -87.5683 849.47 -82.2215 853.036C-76.8747 856.603 -64.0982 859.576 -57.8612 855.119C-51.6242 850.662 -38.5451 833.429 -35.8746 825.703C-33.2041 817.976 -31.7147 812.036 -33.495 802.529C-35.2754 793.023 -26.5133 785.238 -22.5396 775.435C-18.5658 765.631 -10.5543 771.304 -6.09766 768.627C-2.83953 766.673 7.68538 757.02 11.5311 755.345C24.6393 752.791 34.8908 751.272 41.7037 761.89C43.8564 767.039 50.2621 781.951 48.6389 785.162C45.4971 791.399 31.8304 791.562 25.8902 787.391C19.9499 783.219 16.5289 785.977 18.3267 790.358C20.1244 794.739 32.5868 805.956 40.0107 808.633C47.4346 811.309 58.582 793.18 61.8518 788.13C64.7201 783.696 54.9399 767.027 52.0018 759.423C52.8512 757.236 53.7472 754.647 54.7188 751.784C59.1173 738.984 62.6314 740.282 63.5623 724.259C64.4932 708.236 78.4275 704.646 85.9736 699.974C93.5196 695.302 78.8697 689.955 60.758 699.212Z" fill="#E5B76E"/>
</mask>
<g mask="url(#mask0_412_386)">
<rect x="2" width="450" height="720" fill="#E5B76E"/>
</g>
</g>
<defs>
<clipPath id="clip0_412_386">
<rect width="450" height="720" fill="white"/>
</clipPath>
</defs>
</svg>
