<svg width="450" height="720" viewBox="0 0 450 720" fill="none" xmlns="http://www.w3.org/2000/svg">
<g clip-path="url(#clip0_412_386)">
<mask id="mask0_412_386" style="mask-type:alpha" maskUnits="userSpaceOnUse" x="2" y="0" width="450" height="720">
<rect x="2" width="450" height="720" fill="#ED824C"/>
</mask>
<g mask="url(#mask0_412_386)">
<path d="M329.921 190.093C329.921 190.093 324.717 186.065 320.432 183.494C316.596 181.193 315.439 173.084 316.19 165.602C316.941 158.12 310.592 145.466 310.298 133.13C310.187 128.484 312.675 125.812 313.309 120.395C313.514 118.608 311.64 108.107 311.871 106.384C312.865 99.4668 314.094 99.172 314.727 96.1225C315.991 90.0081 315.209 85.3439 316.917 77.8179C318.625 70.292 325.885 67.7728 330.911 51.8996C335.13 38.5813 344.859 43.0615 343.035 47.6238C341.211 52.1861 336.791 60.1108 340.287 66.5637C344.459 74.2816 353.984 78.3875 358.386 75.366C360.202 74.1267 361.73 72.4493 362.08 70.3617C362.762 66.2086 358.902 60.8838 365.625 56.0745C368.608 53.9381 368.82 55.3798 375.419 47.8427C379.225 43.4922 387.123 41.8738 388.914 35.9347C390.705 29.9955 391.008 24.7537 396.511 22.4002C401.778 20.1507 413.48 19.6968 412.847 26.8046C412.399 31.8147 399.853 34.4385 397.38 47.071C395.445 57.0256 392.736 56.0441 390.432 59.6294C388.127 63.2148 386.606 68.9803 388.528 74.089C390.451 79.1977 385.357 96.5084 385.249 101.328C385.141 106.148 384.325 118.644 386.674 123.232C389.023 127.82 386.83 135.08 385.654 139.515C384.477 143.95 385.476 154.599 387.946 163.832C385.654 164.946 383.446 166.225 381.34 167.659C378.738 169.494 377.914 164.767 374.425 167.611C371.032 170.379 367.56 172.858 368.08 178.38C368.601 183.902 364.732 184.062 358.358 184.494C351.189 185.052 347.719 180.779 341.666 183.629C339.583 184.582 330.925 189.891 329.921 190.093Z" fill="#ED824C"/>
<path d="M215.199 340.848C217.535 348.248 216.644 356.16 217.518 358.931C218.393 361.701 221.731 371.837 220.945 377.934C220.158 384.03 228.38 391.349 229.734 396.263C231.088 401.177 233.605 412.735 232.081 418.813C231.19 422.75 231.152 426.832 231.97 430.785C239.339 431.511 243.419 428.479 247.082 424.718C249.167 422.582 248.586 417.125 250.67 412.418C252.925 407.357 254.393 423.318 259.061 422.095C263.728 420.873 264.797 417.617 268.817 413.296C267.32 400.674 267.215 402.031 273.044 398.2C270.562 388.648 270.967 379.94 270.392 375.885C269.816 371.83 271.863 350.929 265.499 343.615C262.606 340.297 263.252 323.648 261.794 319.028C260.336 314.409 259.158 312.924 257.37 310.084C255.582 307.244 248.282 315.524 246.707 317.227C245.131 318.93 243.892 323.068 241.923 325.637C240.459 327.56 235.632 326.096 233.105 327.571C230.577 329.047 223.329 340.907 215.199 340.848Z" fill="#ED824C"/>
<path d="M410.204 57.0012C412.306 62.8732 413.461 72.0325 412.998 80.1741C412.535 88.3156 410.693 85.0183 414.611 93.9129C418.529 102.808 414.835 116.073 415.628 125.497C416.422 134.921 418.743 157.081 418.743 162.938C418.693 166.923 418.314 170.897 417.608 174.82C425.673 174.703 433.632 177.735 436.222 174.82C438.812 171.904 446.536 172.214 449.136 175.201C453.578 180.29 459.023 176.02 457.842 171.695C457.369 166.067 450.306 142.981 450.434 133.756C450.561 124.53 451.345 118.297 446.536 109.84C444.236 105.8 443.808 88.5293 449.004 77.4873C448.098 89.3079 452.678 102.523 457.929 108.568C464.208 115.793 458.585 123.319 460.58 132.687C464.346 150.497 468.783 156.196 472.563 162.826C474.858 161.859 479.239 160.791 485.91 161.915C492.052 162.933 500.53 166.062 502.224 166.179C505.761 166.419 506.234 163.513 509.068 162.541C511.902 161.569 519.215 163.996 524.171 165.935C522.201 159.473 524.562 148.97 524.878 143.8C525.193 138.63 518.741 132.005 518.426 126.672C518.11 121.34 514.966 107.606 513.846 101.306C512.727 95.0069 510.381 93.5516 510.071 89.9948C509.76 86.438 512.584 77.2329 512.106 72.5464C511.628 67.86 513.276 74.536 509.974 61.6927C506.671 48.8494 508.32 46.6665 505.252 45.4554C502.183 44.2444 502.657 45.9388 501.476 54.9912C500.535 51.6786 498.881 39.8785 496.052 39.3951C493.223 38.9117 490.149 41.0946 483.544 41.0946C481.891 37.2121 481.346 31.7725 478.965 29.8338C476.583 27.8951 467.638 28.1394 467.638 34.6831C467.638 37.5072 470.935 47.272 471.963 51.6176C473.718 59.0569 462.295 45.1705 456.326 41.8731C445.264 34.9935 440.73 44.6921 439.697 47.2415C438.664 49.7908 433.825 49.7857 429.678 49.5364C425.531 49.287 416.809 46.9921 413.771 48.0098C410.733 49.0275 408.082 51.1443 410.204 57.0012Z" fill="#ED824C"/>
<path d="M227.974 149.344C227.974 149.344 234.053 151.866 238.864 153.227C243.164 154.444 246.409 161.965 247.649 169.376C248.89 176.786 258.335 187.343 261.853 199.165C263.178 203.619 261.479 206.85 262.289 212.248C262.554 214.024 267.122 223.663 267.351 225.387C268.218 232.34 267.107 232.942 267.297 236.051C267.676 242.284 269.659 246.578 269.985 254.289C270.311 261.999 263.966 266.335 263.277 282.977C262.699 296.935 252.148 295.154 252.697 290.278C253.246 285.403 255.447 276.591 250.386 271.279C244.33 264.928 234.066 263.462 230.606 267.535C229.184 269.205 228.144 271.226 228.359 273.331C228.786 277.519 233.912 281.643 228.686 288.048C226.363 290.893 225.78 289.558 221.39 298.562C218.858 303.759 211.662 307.392 211.496 313.591C211.33 319.79 212.408 324.93 207.715 328.645C203.218 332.199 192.044 335.706 190.796 328.679C189.914 323.727 201.332 317.905 200.405 305.065C199.658 294.959 202.532 295.189 203.818 291.129C205.103 287.069 205.05 281.099 201.846 276.65C198.641 272.201 199.025 254.183 197.867 249.509C196.709 244.835 194.214 232.552 190.744 228.741C187.273 224.93 187.487 217.353 187.457 212.76C187.428 208.168 183.677 198.156 178.867 189.896C180.786 188.218 182.583 186.404 184.242 184.469C186.27 182.011 188.305 186.356 190.921 182.699C193.469 179.137 196.174 175.833 194.223 170.641C192.273 165.449 195.961 164.285 202.002 162.19C208.769 159.773 213.242 162.984 218.333 158.652C220.088 157.189 227.06 149.818 227.974 149.344Z" fill="#ED824C"/>
<path d="M288.747 731.498C285.211 723.947 277.553 721.454 276.891 715.775C276.23 710.096 280.244 697.584 276.382 688.684C274.754 684.934 273.792 664.402 274.896 658.957C276.001 653.513 281.003 650.134 282.84 642.674C285.206 633.006 282.158 629.027 284.788 620.025C287.419 611.024 283.893 604.373 281.817 603.635C278.484 602.465 278.097 606.236 278.306 612.861C278.438 616.932 275.385 620.493 272.032 625.333C268.19 630.889 264.597 627.963 262.308 632.965C260.018 637.967 261.005 645.03 259.824 643.651C258.644 642.272 254.079 637.392 250.818 638.339C247.556 639.285 245.953 638.848 245.393 642.181C243.836 651.457 240.356 673.831 243.007 677.291C245.658 680.751 247.841 680.792 247.398 686.857C246.956 692.923 245.694 697.416 247.429 701.436C249.164 705.456 254.471 704.489 254.471 704.489C254.914 710.875 254.298 720.4 257.57 724.156C260.995 729.641 260.995 743.207 263.982 745.939C267.126 748.82 276.433 749.944 279.196 749.552C281.959 749.161 282.845 745.008 286.178 742.322C290.192 740.419 291.841 738.103 288.747 731.498Z" fill="#ED824C"/>
<path d="M235.583 719.144C234.056 713.684 229.589 711.216 227.909 703.812C226.23 696.409 226.932 684.95 226.225 682.349C225.518 679.749 223.711 679.622 222.989 675.856C222.266 672.091 225.253 667.669 225.08 664.153C224.907 660.637 225.503 644.817 227.482 639.372C229.548 633.658 226.612 631.846 224.699 629.897C222.785 627.948 221.188 637.311 219.569 632.304C218.318 625.18 216.842 616.53 216.308 610.454C215.606 602.43 214.822 602.903 209.24 601.804C206.431 601.244 206.497 616.82 201.098 618.952C198.325 620.046 193.974 632.95 193.074 642.359C189.949 619.344 198.015 606.77 199.048 600.267C200.081 593.764 198.574 589.826 197.979 587.037C197.384 584.249 189.43 588.538 187.059 588.783C184.398 595.733 186.83 606.592 185.054 610.734C183.278 614.876 179.732 610.225 180.398 618.54C181.065 626.854 181.569 631.709 180.317 640.736C179.065 649.763 177.127 654.882 180.317 664.881C183.507 674.879 182.795 680.492 182.821 685.128C182.821 688.725 186.851 703.003 189.685 711.272C191.094 715.119 191.272 720.035 191.634 724.451C191.995 728.868 195.114 728.609 198.839 731.463C202.564 734.318 203.037 739.549 204.854 741.757C206.67 743.966 212.354 741.111 215.188 737.081C218.023 733.051 217.829 729.871 220.836 726.904C223.844 723.937 224.678 725.444 227.563 726.904C230.449 728.364 237.135 724.609 235.583 719.144Z" fill="#ED824C"/>
<path d="M279.852 431.014C272.729 447.643 259.27 457.367 256.618 461.545C253.967 465.723 255.479 473.538 250.553 477.828C245.627 482.118 236.575 483.471 234.896 488.626C233.217 493.78 231.705 510.135 224.525 516.556C217.346 522.978 210.787 526.484 210.069 531.944C209.352 537.404 195.821 555.717 199.994 557.819C201.551 558.602 203.357 559.528 205.22 559.854C209.479 561.381 211.774 559.035 214.023 561.284C216.272 563.533 214.934 577.135 223.66 579.994C226.088 580.34 230.23 579.256 231.11 575.791C232.194 571.758 234.722 568.263 238.213 565.97C241.027 564.108 246.615 546.868 247.047 552.455C247.286 555.575 239.557 584.839 238 588.304C236.443 591.769 232.667 597.519 236.382 603.554C242.844 609.93 245.124 609.731 245.851 605.625C246.579 601.519 250.161 605.075 254.644 604.241C261.142 603.03 265.427 599.437 265.04 595.148C263.59 581.628 270.678 581.409 273.095 575.812C275.512 570.214 274.235 553.575 271.655 549.494C269.075 545.413 267.956 540.844 271.014 540.65C274.072 540.457 269.731 525.288 271.136 520.016C272.54 514.745 273.68 510.557 277.374 507.977C281.069 505.397 278.504 498.258 277.374 494.518C276.423 491.353 274.515 484.764 275.258 481.644C276 478.525 277.196 470.816 275.258 466.557C274.637 464.822 273.731 463.947 273.41 461.698C272.902 458.095 279.949 449.129 282.224 442.112C284.498 435.095 281.45 427.279 279.852 431.014Z" fill="#ED824C"/>
<path d="M523.168 788.281C523.248 781.407 522.876 774.534 522.054 767.708C521.693 764.284 522.781 760.315 522.659 754.86C522.537 749.405 524.13 741.447 522.812 731.535C521.285 720.152 522.237 712.122 522.237 705.889C522.237 699.655 522.827 682.553 522.827 682.553C519.021 683.84 510.284 684.431 506.249 684.777C497.904 683.036 501.669 678.009 499.527 673.378C497.186 668.387 492.77 673.694 485.229 674.513C475.52 675.261 471.144 680.981 465.887 680.981C460.631 680.981 459.038 687.494 458.473 693.193C457.909 698.892 455.929 722.233 453.848 726.863C451.767 731.494 444.18 750.27 444.18 755.298C444.18 760.325 441.061 781.285 441.061 781.285C441.061 781.285 438.196 794.647 438.196 795.99C438.196 797.334 440.46 796.698 442.373 795.99C444.287 795.283 450.881 794.464 453.502 793.446C456.122 792.428 461.979 761.643 468.767 738.999C475.22 761.628 464.295 798.173 464.295 798.173C465.821 799.074 465.821 799.405 468.513 800.778C468.513 800.778 482.7 807.429 490.266 805.18C491.991 805.297 493.385 804.249 494.53 803.409C495.049 803.131 495.558 802.831 496.057 802.509C497.614 802.04 504.799 797.99 504.799 800.326C504.799 802.661 505.872 803.913 509.226 805.002C512.579 806.091 520.766 808.014 522.201 808.951C523.636 809.887 523.051 798.57 523.168 788.281Z" fill="#ED824C"/>
<path d="M523.3 275.355C523.3 260.756 521.428 252.874 519.631 246.498C517.835 240.122 518.283 244.463 520.532 233.777C522.781 223.091 519.321 199.252 519.321 195.782C519.321 192.311 517.555 192.311 514.268 192.387C511.63 192.481 509.031 191.724 506.854 190.23C505.17 189.075 503.74 187.894 503.74 187.894C500.794 190.383 497.929 191.924 493.054 191.848C488.179 191.772 484.628 187.971 483.03 185.935C481.793 184.5 481.025 183.859 477.514 182.607C476.863 183.691 476.283 200.753 474.074 210.085C471.866 219.417 470.955 213.591 471.021 210.085C471.087 206.579 470.563 201.379 470.238 196.962C469.912 192.545 467.836 191.614 462.656 192.306C456.259 192.927 444.627 195.359 438.124 196.713C431.255 198.163 426.507 200.783 421.225 204.086C420.64 211.556 419.755 220.669 418.681 230.113C417.755 238.143 414.346 236.81 413.781 248.783C413.511 254.38 413.211 263.076 413.618 268.893C414.173 276.759 417.521 279.751 416.783 289.313C416.229 296.508 413.033 306.766 412.804 310.557C412.041 323.12 419.617 320.586 424.706 320.006C426.38 319.818 428.828 313.305 432.278 313.391C439.31 313.6 446.261 320.693 447.624 320.566C449.568 320.383 455.303 323.161 456.692 316.816C458.061 313.915 460.834 310.608 464.126 309.397C467.419 308.186 473.392 308.964 478.12 309.906C486.414 312.323 491.35 310.883 497.644 309.03C503.938 307.178 514.222 311.066 521.636 312.643C520.888 296.681 523.3 289.959 523.3 275.355ZM448.586 272.623C446.968 274.541 447.97 288.554 445.675 299.245C444.149 306.293 440.663 305.494 437.137 300.772C438.447 293.664 439.162 286.459 439.274 279.232C439.274 273.248 438.323 269.178 438.206 262.476C438.089 255.775 440.46 238.051 442.353 233.518C444.246 228.984 442.566 226.129 442.353 223.224C441.701 214.136 447.828 221.377 448.586 224.012C449.344 226.648 445.838 241.089 445.599 246.356C445.36 251.622 447.594 260.873 448.586 264.221C449.578 267.57 450.209 270.709 448.586 272.623Z" fill="#ED824C"/>
<path d="M439.238 680.549C439.304 676.478 436.185 671.445 434.307 668.789C432.43 666.133 433.529 660.5 433.656 652.878C433.738 649.219 425.337 649.87 424.858 653.035C424.28 656.923 423.999 660.849 424.019 664.78C424.924 669.741 425.703 683.235 425.545 687.24C425.387 691.245 421.983 713.568 413.694 724.742C414.106 722.758 418.971 695.6 418.859 689.011C418.762 683.098 418.574 675.781 417.551 670.85C416.444 670.977 415.374 671.323 414.401 671.868C409.649 674.056 408.076 676.625 403.013 673.466C402.469 672.137 402.962 670.784 402.418 669.822C401.461 667.817 397.233 670.774 396.134 669.659C394.261 667.756 389.386 660.566 384.39 660.897C383.748 664.53 386.308 669.507 385.224 674.636C384.14 679.765 382.553 686.421 379.754 697.101C376.955 707.782 368.279 713.644 368.188 720.595C368.096 727.546 369.852 729.998 368.341 734.537C366.829 739.076 362.703 735.698 358.281 743.89C353.859 752.082 357.095 757.746 353.192 764.351C349.289 770.956 352.307 781.412 339.927 796.138C335.963 800.85 332.508 807.776 330.33 812.131C325.709 821.387 323.206 824.853 327.368 826.802C333.983 829.936 336.843 823.372 339.311 820.253C343.667 814.732 343.407 815.877 343.142 821.922C342.898 827.621 348.948 821.962 354.134 815.24C360.789 808.936 381.647 806.117 385.387 806.554C387.534 807.018 389.132 806.758 389.9 804.885C391.234 801.644 392.404 795.329 394.526 796.016C396.648 796.703 401.411 805.486 406.275 807.877C411.14 810.269 417.134 809.089 416.961 806.86C416.788 804.631 415.037 794.749 417.225 790.521C419.414 786.292 421.032 767.21 422.406 761.277C423.779 755.344 423.998 742.002 426.4 738.705C428.802 735.407 433.972 721.979 435.529 717.954C437.086 713.929 436.323 704.414 435.987 698.928C435.651 693.443 439.172 684.599 439.238 680.549Z" fill="#ED824C"/>
<path d="M521.237 -12.0615C518.566 -21.5719 516.841 -33.6264 516.057 -39.3968C515.274 -45.1671 508.994 -70.4771 506.796 -73.52C495.027 -75.6165 496.11 -76.5731 490.788 -79.9926C485.465 -83.412 482.941 -86.4651 478.86 -86.2717C474.779 -86.0784 470.21 -83.7988 468.816 -83.7988C467.89 -83.7988 464.903 -87.2233 462.954 -88.6531C462.867 -88.7193 462.761 -88.7905 462.638 -88.8668C462.427 -89.0098 462.198 -89.1244 461.957 -89.2078C457.29 -91.2432 440.687 -94.1131 434.754 -93.9706C432.718 -94.0368 431.227 -93.9706 431.227 -93.9706C430.688 -85.4525 426.347 -78.7052 424.103 -76.97C421.859 -75.2349 415.662 -77.6875 413.275 -70.8639C411.927 -67.0272 401.653 -65.9433 396.198 -72.6957C396.035 -65.5057 391.756 -50.0418 391.491 -46.8208C391.227 -43.5998 391.268 -27.1386 391.491 -22.3962C391.715 -17.6537 389.191 -11.5628 393.796 -11.8681C398.402 -12.1734 407.535 -12.9876 411.275 -14.7584C415.015 -16.5292 415.346 -19.5568 415.346 -19.5568C419.449 -19.6529 423.535 -19.0118 427.411 -17.6639C430.342 -16.5241 429.782 -12.3617 431.207 -6.46925C432.632 -0.576796 439.633 -1.73697 439.633 -1.73697C440.448 3.3515 444.111 2.04886 448.635 4.51168C452.965 6.86256 457.418 13.6709 457.184 7.22891C457.186 7.22327 457.187 7.2172 457.187 7.21108C457.187 7.20496 457.186 7.19895 457.184 7.19332C457.229 5.77363 455.174 -14.8042 454.232 -19.1345C453.291 -23.4647 454.232 -31.3468 453.545 -45.9863C455.26 -45.4775 464.531 -4.94271 466.16 2.59332C467.788 10.1293 470.861 9.96651 475.487 9.71718C475.57 9.71107 475.652 9.69397 475.731 9.66631C478.519 9.41188 481.613 8.18044 483.552 7.21363C487.557 5.21386 486.066 -2.10845 485.277 -5.50755C491.892 -4.74937 495.322 -0.373298 499.876 0.389972C504.43 1.15324 511.02 1.14816 515.884 -0.179934C520.749 -1.50802 523.904 -2.54606 521.237 -12.0615Z" fill="#ED824C"/>
<path d="M382.101 2.77928C378.88 -4.02401 379.129 -2.1667 379.129 -8.21181C379.129 -14.2569 378.834 -15.5036 375.47 -23.4772C372.107 -31.4508 363.319 -49.0112 360.536 -56.7558C357.752 -64.5005 346.797 -99.9366 344.838 -103.906C342.879 -107.875 342.66 -99.9976 340.614 -96.9802C338.569 -93.9627 335.063 -92.6397 335.795 -89.4289C336.078 -88.0572 336.093 -86.644 335.841 -85.2665V-85.2665C333.155 -75.9139 317.151 -85.1851 312.897 -88.7623C310.664 -90.7977 308.572 -92.8331 307.437 -95.2908C304.741 -101.158 289.287 -103.432 292.416 -98.3439C295.271 -93.693 297.739 -86.8134 297.739 -85.4802C297.739 -84.1471 294.813 -71.0544 292.91 -67.0549C291.007 -63.0553 294.889 -54.6339 299.815 -43.0678C304.741 -31.5017 304.344 -16.9487 305.295 -10.8222C306.247 -4.69568 309.366 -4.69059 312.679 -4.69059C310.536 7.01289 310.297 12.3405 310.297 19.9478C310.297 27.555 316.719 25.2449 324.591 25.1584C333.211 25.0668 333.378 24.1407 334.096 20.9299C334.813 17.719 333.806 3.15076 331.302 -5.24522C328.799 -13.6412 329.053 -33.1351 329.053 -33.1351C336.91 -9.94187 340.482 -1.48995 342.385 4.90625C343.805 9.67415 345.28 5.4151 345.28 5.4151C346.766 3.13547 354.323 -3.48463 361.34 -0.721592C362.466 -0.26897 363.5 0.384505 364.393 1.20696C367.604 4.16845 370.168 12.2286 370.458 18.4314C370.748 24.6343 373.14 26.7969 376.29 22.4717C379.439 18.1465 378.788 17.4087 382.009 14.3861C385.23 11.3636 385.316 9.57747 382.101 2.77928Z" fill="#ED824C"/>
<path d="M390.296 286.93C391.599 284.59 393.675 273.42 393.624 269.263C393.573 265.106 392.896 252.369 393.624 247.434C394.352 242.498 397.092 216.443 401.783 203.711C393.988 202.694 376.85 210.469 373.68 210.469C370.51 210.469 366.251 204.78 364.169 202.704C362.607 201.142 357.676 202.658 353.992 204.5C345.749 208.271 333.669 209.11 327.985 207.909C323.579 206.475 319.689 203.785 316.791 200.17C312.989 195.163 304.253 195.672 301.907 196.608C299.561 197.544 295.274 227.568 296.078 232.484C296.882 237.399 297.635 253.123 294.73 259.453C291.824 265.783 295.32 274.306 294.541 284.386C293.763 294.466 291.86 292.019 289 304.048C290.252 307.238 296.078 310.984 299.177 309.264C302.276 307.544 302.296 306.455 306.453 302.649C310.611 298.842 321.933 307.798 329.728 310.994C329.71 307.442 329.97 303.895 330.507 300.384C331.585 294.934 333.494 285.882 333.412 281.893C333.326 277.73 333.412 277.313 335.229 274.962C337.045 272.611 338.954 268.81 339.106 264.785C339.259 260.76 338.261 251.403 341.813 244.386C341.64 249.474 343.803 256.511 344.581 264.785C345.36 273.059 342.246 286.829 341.294 293.148C340.343 299.468 341.554 298.435 344.902 305.661C345.205 306.592 345.353 307.567 345.34 308.546C345.34 314.525 344.322 318.372 342.22 324.081C342.22 324.081 346.21 328.518 353.878 326.193C356.789 325.308 357.811 322.321 361.969 310.368C365.607 309.065 367.688 306.73 377.433 310.108C377.56 311.925 375.906 320.931 383.03 321.71C390.154 322.489 389.915 327.424 391.212 321.71C392.51 315.996 393.67 300.232 393.619 293.723C393.568 287.215 389.019 289.266 390.296 286.93Z" fill="#ED824C"/>
<path d="M431.534 600.996C430.054 586.061 428.242 573.676 426.955 567.824C425.041 557.088 421.011 547.572 412.707 541.588C400.683 530.561 394.434 519.535 395.874 512.731C397.314 505.928 399.385 499.064 393.905 497.334C388.425 495.604 384.334 491.38 381.693 485.396C379.052 479.412 369.959 472.41 366.356 464.432C363.227 468.894 354.307 469.128 354.078 473.113C353.849 477.097 349.238 489.823 347.31 491.848C345.381 493.874 341.621 498.591 348.552 502.875C355.482 507.16 362.591 512.92 363.664 517.423C364.738 521.926 362.082 526.394 365.832 528.668C369.582 530.943 378.192 546.056 377.663 549.211C377.535 550.016 377.535 550.837 377.663 551.643C377.668 552.03 377.755 552.411 377.917 552.762C378.26 553.864 378.843 554.876 379.624 555.726C380.406 556.575 381.366 557.24 382.436 557.673C383.596 558.609 384.953 559.627 386.506 560.726C388.389 562.023 387.463 568.313 386.939 570.597C386.15 574.063 382.955 572.068 386.15 580.841C386.211 581.014 386.277 581.182 386.354 581.349C389.89 590.198 389.554 603.444 388.537 609.677C387.585 615.539 386.466 619.956 388.537 624.703C390.608 629.451 387.967 637.984 388.628 639.236C397.411 642.574 405.883 650.354 409.852 647.591C417.297 642.406 410.957 637.923 415.088 630.972C419.22 624.021 424.126 626.545 429.295 624.042C434.465 621.538 432.44 610.14 431.534 600.996Z" fill="#ED824C"/>
<path d="M529.767 548.248C527.793 544.808 525.416 528.53 524.124 519.356C522.832 510.181 528.225 506.288 527.218 501.546C526.21 496.804 525.345 486.108 525.345 483.507C516.568 481.828 511.098 480.912 511.245 483.507C511.393 486.103 509.042 486.718 505.393 486.718C502.111 486.718 495.318 488.377 490.8 491.216C484.48 495.185 484.754 500.421 481.701 505.393C478.648 510.364 471.067 514.303 468.431 509.464C465.795 504.625 463.851 502.472 463.851 502.472C460.289 501.734 461.531 503.841 462.325 510.97C463.118 518.099 463.8 537.018 463.8 542.203C463.8 547.388 477.157 585.206 469.82 591.185C464.563 575.466 457.943 555.173 455.623 546.584C453.303 537.995 455.114 529.085 453.44 523.905C451.766 518.725 448.199 517.422 449.13 511.265C450.061 505.108 449.13 500.844 448.662 499.735C439.849 497.653 437.218 497.007 435.361 492.305C433.503 487.604 431.285 476.424 428.359 475.915C422.792 475.025 421.378 480.225 421.851 483.63C422.324 487.034 412.814 491.14 413.745 495.404C414.676 499.668 419.556 500.157 421.174 505.016C422.792 509.876 422.258 512.329 421.851 518.14C421.444 523.951 433.229 539.282 436.246 544.391C439.264 549.5 444.459 557.957 443.996 562.089C443.533 566.221 442.978 572.093 447.41 576.184C451.842 580.275 450.387 592.024 449.812 599.316C449.237 606.608 450.01 624.346 450.01 624.346C456.427 626.295 457.969 627.023 457.083 636.014C456.198 645.005 460.371 649.188 461.765 653.172C463.159 657.157 460.208 660.561 467.362 660.561C474.516 660.561 477.076 658.912 477.539 653.172C477.809 649.819 480.801 649.707 484.001 650.119C487.706 650.806 490.311 654.027 492.448 654.088C494.585 654.149 498.804 651.605 504.421 651.814C504.821 651.839 505.218 651.887 505.612 651.956C509.011 652.557 511.601 650.491 511.169 655.08C510.736 659.67 513.113 662.876 517.86 661.039C522.608 659.202 519.158 650.14 520.236 641.489C521.315 632.839 524.551 617.706 522.394 611.284C520.236 604.862 519.158 603.259 518.511 597.067C517.865 590.874 521.748 587.205 522.18 581.247C522.613 575.288 521.534 556.023 521.534 556.023C528.653 554.899 531.746 551.688 529.767 548.248Z" fill="#ED824C"/>
<path d="M410.539 421.816C410.371 416.3 408.193 417.434 406.519 414.692C404.845 411.949 407.369 403.645 404.825 398.449C402.281 393.254 397.457 383.184 393.936 376.569C390.414 369.954 392.562 356.587 391.595 351.554C390.628 346.522 386.934 344.252 382.746 345.387C378.558 346.522 371.755 342.843 370.915 340.451C370.076 338.059 366.285 340.527 365.827 341.84C365.155 343.749 364.376 345.618 363.491 347.437C361.547 350.404 353.961 349.076 348.073 350.063C342.186 351.05 342.374 361.151 339.082 360.718C335.79 360.286 336.222 354.566 335.098 350.323C333.973 346.079 330.823 345.489 326.447 343.036C326.249 342.883 326.05 342.736 325.852 342.598C322.061 340.008 323.079 334.045 318.631 330.656C314.184 327.267 311.66 327.888 307.716 329.709C303.773 331.531 297.702 336.324 291.403 334.874C290.36 339.586 291.271 341.743 291.403 346.165C291.535 350.587 288.894 358.678 288.859 367.277C288.823 375.877 293.133 376.182 294.507 382.614C295.881 389.046 292.298 399.966 296.323 411.807C298.12 417.083 307.696 431.316 307.518 436.71C307.238 444.648 309.553 448.683 313.731 452.993C317.909 457.303 320.275 459.806 325.77 467.541C331.266 475.275 330.935 474.664 334.319 471.23C336.522 469.001 337.128 466.462 337.326 463.811C332.279 457.705 328.284 452.82 325.562 449.131C322.585 445.095 316.428 428.064 315.924 423.871C315.42 419.678 311.253 406.525 309.548 400.902C313.008 405.935 320.081 415.231 320.809 418.366C321.537 421.5 323.598 431.82 325.445 433.153C327.292 434.486 330.492 437.529 331.744 441.335C332.996 445.141 339.972 453.893 343.997 452.983C348.333 451.761 348.653 444.77 353.223 444.149C357.792 443.528 361.603 444.658 361.731 437.122C361.792 433.657 363.405 425.306 365.435 421.139C366.845 418.244 365.979 414.809 368.488 416.3C371.755 418.249 368.224 424.222 371.628 435.529C375.032 446.836 379.189 454.224 381.25 457.608C383.311 460.992 392.261 467.439 393.07 469.851C393.88 472.263 397.477 466.116 400.825 462.727C404.174 459.338 401.334 457.862 402.667 454.29C404.001 450.718 412.717 446.5 412.717 446.016C410.203 439.02 410.707 427.332 410.539 421.816Z" fill="#ED824C"/>
<path d="M529.493 453.801C527.391 447.928 526.236 438.769 526.699 430.628C527.162 422.486 529.004 425.783 525.086 416.889C521.168 407.994 524.862 394.729 524.068 385.305C523.274 375.881 520.954 353.721 520.954 347.864C521.003 343.879 521.383 339.905 522.089 335.982C514.024 336.099 506.065 333.066 503.475 335.982C500.885 338.898 493.161 338.587 490.561 335.601C486.118 330.512 480.674 334.781 481.854 339.106C482.328 344.734 489.39 367.821 489.263 377.046C489.136 386.272 488.352 392.505 493.161 400.962C495.461 405.002 495.888 422.272 490.693 433.314C491.599 421.494 487.019 408.279 481.768 402.234C475.489 395.008 481.111 387.483 479.117 378.115C475.351 360.305 470.914 354.606 467.133 347.976C464.838 348.942 460.457 350.011 453.786 348.887C447.645 347.869 439.167 344.739 437.473 344.622C433.936 344.383 433.463 347.289 430.629 348.261C427.794 349.233 420.482 346.805 415.526 344.867C417.495 351.329 415.134 361.832 414.819 367.001C414.503 372.171 420.956 378.797 421.271 384.129C421.586 389.462 424.731 403.196 425.851 409.495C426.97 415.795 429.316 417.25 429.626 420.807C429.937 424.364 427.113 433.569 427.591 438.255C428.069 442.942 426.421 436.266 429.723 449.109C433.025 461.952 431.377 464.135 434.445 465.346C437.513 466.557 437.04 464.863 438.221 455.811C439.162 459.123 440.816 470.923 443.645 471.407C446.474 471.89 449.548 469.707 456.152 469.707C457.806 473.59 458.351 479.029 460.732 480.968C463.113 482.907 472.059 482.662 472.059 476.119C472.059 473.295 468.762 463.53 467.734 459.184C465.978 451.745 477.402 465.631 483.371 468.929C494.433 475.808 498.967 466.11 500 463.56C501.033 461.011 505.872 461.016 510.019 461.265C514.166 461.515 522.888 463.81 525.926 462.792C528.963 461.774 531.614 459.657 529.493 453.801Z" fill="#ED824C"/>
<path d="M185.326 7.73014C181.708 1.12961 182.066 2.96888 181.708 -3.0656C181.35 -9.10009 180.987 -10.3274 177.152 -18.0875C173.317 -25.8476 163.509 -42.8568 160.272 -50.4229C157.035 -57.9891 143.999 -92.714 141.814 -96.5602C139.628 -100.407 139.871 -92.5301 138.003 -89.3965C136.135 -86.2629 132.718 -84.7348 133.64 -81.573C134.005 -80.2209 134.106 -78.8112 133.937 -77.421V-77.421C131.809 -67.9256 115.28 -76.2322 110.821 -79.5511C108.476 -81.4509 106.268 -83.3588 104.989 -85.745C101.945 -91.4417 86.3884 -92.7971 89.8087 -87.9026C92.9338 -83.429 95.81 -76.708 95.889 -75.3772C95.968 -74.0463 93.8178 -60.8031 92.155 -56.6978C90.4921 -52.5926 94.8718 -44.4162 100.474 -33.1622C106.076 -21.9082 106.537 -7.35696 107.85 -1.29757C109.163 4.76182 112.277 4.58211 115.583 4.38587C114.138 16.1957 114.215 21.5281 114.666 29.122C115.116 36.7159 121.395 34.0291 129.243 33.4767C137.842 32.8747 137.96 31.94 138.481 28.6926C139.002 25.4452 137.138 10.9619 134.142 2.72897C131.145 -5.50396 130.271 -24.9599 130.271 -24.9599C139.493 -2.27312 143.554 5.95268 145.833 12.2249C147.537 16.9 148.753 12.5614 148.753 12.5614C150.101 10.1977 157.252 3.1416 164.426 5.4838C165.567 5.87459 166.629 6.46577 167.562 7.22958C170.938 9.99596 173.975 17.89 174.637 24.0645C175.3 30.239 177.81 32.2564 180.698 27.7522C183.586 23.248 182.887 22.5503 185.923 19.3423C188.96 16.1342 188.944 14.3256 185.326 7.73014Z" fill="#ED824C"/>
<path d="M368.697 622.92C364.677 624.569 355.106 623.831 351.061 621.785C347.015 619.74 342.715 618.356 342.863 624.33C342.97 628.808 339.159 636.033 335.093 637.478C331.027 638.923 326.799 631.957 320.738 630.482C319.884 630.029 318.942 629.998 317.853 629.754C315.706 629.245 315.207 630.487 312.928 631.825C310.648 633.163 306.771 617.669 306.272 627.067C306.073 637.565 300.232 648.897 301.763 650.678C303.295 652.459 303.799 658.071 301.763 660.997C299.728 663.923 296.344 662.707 296.344 666.859C296.344 671.011 299.321 680.043 299.321 687.61C299.321 695.176 297.535 704.208 299.123 706.895C300.71 709.582 306.669 712.492 308.455 716.171C310.241 719.85 311.304 724.959 311.304 724.959C316.255 721.346 315.039 711.51 315.451 707.786C315.864 704.061 325.237 686.414 327.786 669.246C328.564 682.236 322.616 709.083 323.105 716.273C323.328 719.509 317.283 730.414 319.471 736.8C320.713 741.955 327.811 736.719 327.135 745.959C326.458 755.2 325.715 757.815 329.984 759.78C334.253 761.744 333.912 757.235 336.324 750.437C338.736 743.639 339.718 737.248 342.553 732.831C345.387 728.414 344.354 724.181 344.466 719.403C344.578 714.625 352.643 702.275 355.055 696.505C357.314 697.095 360.652 697.71 360.897 693.136C361.141 688.561 367.003 664.549 367.094 661.552C367.186 658.555 363.171 654.428 364.408 648.795C365.644 643.162 367.593 641.111 367.797 639C368 636.888 365.41 633.316 368.697 622.92Z" fill="#ED824C"/>
<path d="M374.839 595.621C373.602 591.769 369.501 583.322 367.267 577.094C365.033 570.866 364.626 564.846 363.1 559.076C361.573 553.305 362.978 554.46 358.764 552.664C354.551 550.868 348.145 539.617 347.773 536.279C347.402 532.941 343.809 522.429 341.703 519.223C339.596 516.017 323.242 505.113 322.366 500.879C321.491 496.645 318.397 485.359 314.683 480.739C310.968 476.118 298.201 466.888 297.83 462.268C294.858 467.402 290.767 472.75 293.367 479.202C297.092 488.432 294.828 490.946 295.759 494.539C296.359 500.416 300.99 506.054 303.977 513.249C306.964 520.444 312.164 526.372 314.891 526.479C317.619 526.586 319.049 532.193 319.308 537.165C319.568 542.136 319.441 549.743 323.598 560.526C316.189 554.16 316.189 541.19 313.462 535.715C310.734 530.239 305.061 534.417 303.503 530.117C301.946 525.817 298.415 517.6 297.611 519.289C296.807 520.978 297.611 520.882 296.924 525.904C296.1 527.588 295.571 530.275 294.273 532.183C292.268 535.15 290.502 538.91 290.502 540.493C290.502 542.075 292.629 549.606 293.347 553.611C294.064 557.615 291.754 563.279 291.759 566.083C291.764 568.886 291.988 573.318 294.1 577.908C296.308 582.712 295.754 585.337 295.754 590.899C295.754 596.461 306.485 595.58 306.267 602.506C312.291 601.646 310.622 608.134 316.443 610.139C322.265 612.143 322.697 604.735 324.183 607.442C327.933 614.26 328.951 612.164 331.816 609.609C334.93 606.836 333.2 601.117 333.2 601.117C331.77 596.791 333.566 594.573 335.744 594.664C338.863 594.797 343.672 595.682 346.786 595.748C349.9 595.814 351.635 600.252 355.945 602.506C356.181 602.636 356.445 602.704 356.714 602.704C370.814 606.388 376.055 599.397 374.839 595.621Z" fill="#ED824C"/>
<path d="M229.868 126.056C228.513 122.96 227.51 117.482 225.155 112.585C222.8 107.687 223.46 88.3528 221.142 83.8564C218.823 79.3599 214.203 71.8731 211.453 67.8503C208.703 63.8275 203.454 40.455 202.36 39.0746C201.266 37.6943 197.771 40.5991 195.912 42.9881C194.052 45.3771 193.88 49.6158 192.34 51.7031C190.799 53.7904 188.151 55.6424 187.083 56.7244C186.015 57.8065 186.776 60.325 189.557 67.9112C192.339 75.4974 192.086 83.4305 184.569 66.058C177.053 48.6856 178.293 47.8497 176.297 41.7123C173.906 34.3589 174.505 35.633 173.183 33.5155C171.861 31.398 167.757 33.8567 164.779 36.3007C162.916 37.8354 162.01 37.9374 162.676 42.2367C163.009 44.3839 163.277 50.1402 161.922 52.2246C160.566 54.309 156.725 50.9237 153.155 53.0681C152.74 53.3176 151.189 54.3046 150.467 54.7615C147.72 56.5104 145.445 56.2142 145.445 56.2142C145.445 56.2142 140.662 55.9872 140.049 57.4517C141.764 64.328 148.778 74.3378 149.454 76.4111C150.131 78.4843 152.044 101.369 152.133 103.869C150.534 97.237 143.102 78.0852 141.162 74.9668C139.221 71.8484 134.583 63.2111 133.192 60.0848C128.85 59.6813 123.301 56.2313 124.466 58.8982C127.279 65.3571 130.136 75.5578 132.549 77.8358C134.962 80.1138 134.005 86.7345 134.033 89.0731C134.06 91.4117 137.756 99.3096 141.185 105.328C144.615 111.346 141.015 114.999 149.936 131.366C153.491 137.89 156.925 145.334 158.502 153.617C159.182 157.172 159.813 157.425 166.037 155.22C172.26 153.014 174.027 150.526 175.684 146.001C177.341 141.476 175.645 136.476 175.205 134.464C173.676 127.492 179.042 121.908 181.012 128.178C181.607 129.918 182.406 131.581 183.392 133.134C184.301 134.718 186.376 136.909 190.194 135.463C193.487 134.216 195.376 140.792 199.589 141.463L199.665 141.451L199.812 141.47C199.908 141.484 200.006 141.493 200.104 141.496C200.272 141.517 200.44 141.537 200.626 141.544C200.775 141.554 200.925 141.531 201.064 141.476C202.144 141.328 203.206 141.075 204.237 140.722C210.85 138.668 211.087 131.422 215.467 128.818C219.847 126.213 220.777 133.515 225.553 134.093C230.328 134.672 232.716 132.54 229.868 126.056Z" fill="#ED824C"/>
<path d="M217.853 30.5502C220.258 35.684 225.071 37.3821 227.947 44.408C230.823 51.4339 232.019 62.8523 233.145 65.3004C234.271 67.7485 236.073 67.5764 237.406 71.1714C238.739 74.7663 236.522 79.6199 237.272 83.0595C238.022 86.4991 240.041 102.201 238.986 107.897C237.889 113.874 241.084 115.177 243.292 116.784C245.5 118.391 245.534 108.893 247.955 113.565C250.363 120.385 253.244 128.674 254.772 134.579C256.786 142.378 257.481 141.782 263.168 141.947C266.031 142.036 263.399 126.684 268.373 123.692C270.928 122.156 273.093 108.711 272.432 99.2824C279.305 121.468 273.422 135.199 273.474 141.783C273.527 148.368 275.661 152.004 276.708 154.656C277.754 157.309 284.892 151.767 287.191 151.136C288.671 143.841 284.483 133.532 285.552 129.154C286.621 124.776 290.885 128.779 288.858 120.688C286.831 112.597 285.534 107.892 285.281 98.7817C285.029 89.6719 286.098 84.3034 281.304 74.9668C276.509 65.6303 276.287 59.977 275.498 55.409C274.906 51.8606 268.578 38.4414 264.42 30.7526C262.396 27.1905 261.411 22.3716 260.327 18.0747C259.243 13.7777 256.209 14.5476 252.065 12.3457C247.921 10.1437 246.592 5.06221 244.436 3.18328C242.281 1.30435 237.145 5.05641 235.013 9.49837C232.882 13.9403 233.597 17.0453 231.119 20.4668C228.642 23.8883 227.57 22.5402 224.484 21.5751C221.398 20.61 215.422 25.4156 217.853 30.5502Z" fill="#ED824C"/>
</g>
</g>
<defs>
<clipPath id="clip0_412_386">
<rect width="450" height="720" fill="white"/>
</clipPath>
</defs>
</svg>
