<svg width="450" height="720" viewBox="0 0 450 720" fill="none" xmlns="http://www.w3.org/2000/svg">
<g clip-path="url(#clip0_412_386)">
<mask id="mask0_412_386" style="mask-type:alpha" maskUnits="userSpaceOnUse" x="-206" y="-8" width="585" height="773">
<path d="M28.9005 730.562C28.7314 739.791 35.5874 744.416 43.2628 745.119C50.9382 745.823 53.3962 743.238 58.5924 745.119C63.7886 747.001 58.862 752.631 61.3147 754.978C63.7675 757.325 66.2096 757.795 77.3685 757.33C88.5274 756.865 99.4115 749.11 102.134 749.343C104.856 749.576 98.867 760.613 108.123 763.43C117.379 766.248 121.729 763.43 126.355 761.083C130.98 758.736 138.872 754.74 148.667 756.855C158.462 758.969 156.718 764.609 169.975 764.609C183.233 764.609 202.823 756.855 209.357 756.617C215.89 756.379 226.23 760.09 228.952 760.09C231.674 760.09 236.3 756.146 236.3 753.329C245.55 751.452 242.828 757.922 246.639 760.09C250.45 762.257 254.262 766.253 263.512 764.609C272.763 762.965 283.652 757.79 287.189 757.79C290.725 757.79 290.181 757.843 299.981 758.964C309.781 760.084 313.043 756.849 315.221 756.617C317.399 756.384 318.757 756.146 326.649 756.855C334.541 757.563 342.159 753.255 337.808 747.773C333.458 742.291 326.374 743.47 322.568 744.644C318.762 745.817 310.865 746.05 307.873 744.876C304.881 743.703 313.857 741.356 315.49 737.597C317.124 733.839 311.552 731.254 309.575 727.739C307.598 724.224 306.24 723.51 306.24 717.642C306.24 711.775 304.876 707.546 296.439 708.72C288.003 709.893 286.221 711.067 277.182 712.478C268.143 713.889 256.165 707.292 247.998 705.543C239.831 703.793 222.418 705.432 217.249 708.487C212.079 711.542 211.804 717.405 209.901 717.405C207.998 717.405 206.365 713.651 205.545 710.834C204.726 708.016 185.411 701.657 176.699 705.548C167.988 709.438 169.082 714.36 158.198 714.83C147.314 715.301 141.869 709.428 136.155 709.428C130.441 709.428 126.64 710.369 120.915 710.839C115.19 711.31 110.845 704.263 101.325 703.322C91.8048 702.382 89.8912 707.313 89.8912 707.313C77.3738 706.848 71.6596 707.081 69.7566 711.542C67.8536 716.004 70.5706 722.812 57.5088 722.342C44.4469 721.871 29.0538 722.902 28.9005 730.562Z" fill="#ED824C"/>
<path d="M113.468 390.002C113.997 397.64 122.031 399.702 127.413 401.568C132.794 403.434 138.207 398.692 141.378 399.887C144.55 401.082 138.931 408.63 141.378 410.755C143.826 412.88 157.105 413.118 164.78 408.641C172.455 404.163 181.753 408.641 185.924 409.349C190.095 410.057 201.222 404.856 207.766 406.986C214.31 409.116 217.736 401.785 215.04 398.243C212.344 394.701 206.968 396.129 200.852 392.809C194.736 389.489 191.554 381.941 182.499 383.125C173.444 384.309 168.126 388.554 164.79 388.791C161.455 389.029 158.516 385.149 152.157 384.964C145.798 384.779 136.256 388.665 130.748 387.903C125.24 387.142 112.976 382.956 113.468 390.002Z" fill="#ED824C"/>
<path d="M85.468 -0.998018C85.9966 6.64036 94.0314 8.70193 99.4126 10.5679C104.794 12.4339 110.207 7.69229 113.378 8.88695C116.55 10.0816 110.931 17.6301 113.378 19.7551C115.826 21.8801 129.105 22.118 136.78 17.6407C144.455 13.1634 153.753 17.6407 157.924 18.349C162.095 19.0573 173.222 13.8559 179.766 15.9861C186.31 18.1164 189.736 10.7847 187.04 7.24299C184.344 3.70132 178.968 5.12854 172.852 1.80889C166.736 -1.51077 163.554 -9.05929 154.499 -7.87521C145.444 -6.69113 140.126 -2.44639 136.79 -2.20852C133.455 -1.97064 130.516 -5.85062 124.157 -6.03563C117.798 -6.22064 108.256 -2.33538 102.748 -3.09657C97.2401 -3.85777 84.9764 -8.04436 85.468 -0.998018Z" fill="#ED824C"/>
<path d="M376.96 695.805C373.45 692.85 378.308 685.159 373.719 683.827C369.131 682.495 366.567 682.495 362.925 682.939C359.283 683.383 357.11 680.571 354.827 680.296C352.543 680.021 351.856 685.18 350.91 685.328C349.964 685.476 346.591 683.309 342.949 681.136C339.307 678.964 332.017 677.484 329.047 677.78C326.076 678.076 319.77 681.681 314.959 681.136C310.318 680.608 299.746 678.985 293.545 674.793C290.728 672.753 287.683 671.209 285.616 670.834C281.298 670.041 281.657 674.581 277.877 674.777C274.098 674.973 266.724 675.369 262.585 673.789C258.446 672.208 246.029 665.114 241.53 665.114C237.032 665.114 226.603 664.469 226.423 666.245C226.243 668.021 231.46 678.076 228.046 677.684C224.631 677.293 223.907 667.641 219.588 667.229C215.269 666.816 213.636 666.885 212.187 669.454C210.739 672.023 208.767 672.213 203.37 669.65C197.973 667.086 195.055 664.966 191.815 665.558C188.575 666.15 186.497 669.169 184.155 671.537C181.814 673.905 176.834 671.14 176.469 677.595C176.247 681.475 178.346 685.777 183.579 689.314C186.999 691.619 192.211 690.952 195.272 691.344C198.333 691.735 202.831 693.516 207.869 694.695C212.906 695.874 219.207 692.528 221.724 691.74C224.24 690.952 234.859 695.197 237.021 694.949C239.183 694.7 249.798 691.936 253.038 690.752C256.279 689.568 264.551 689.568 265.815 690.952C266.872 692.1 275.62 691.481 280.716 690.662C288.27 690.281 302.442 704.258 307.147 704.85C311.851 705.442 318.078 704.702 321.451 702.635C324.823 700.568 323.206 692.131 324.961 691.243C326.716 690.355 325.637 700.711 327.794 700.711C329.951 700.711 335.49 699.965 339.265 698.12C343.039 696.276 349.525 699.674 353.035 700.415C356.545 701.155 362.888 700.267 364.368 700.267C365.848 700.267 371.927 702.043 374.761 701.747C377.594 701.451 380.475 698.765 376.96 695.805Z" fill="#ED824C"/>
<path d="M106.231 189.716C104.925 194.563 108.16 200.388 112.818 200.927C117.475 201.467 126.752 202.582 128.993 202.867C131.234 203.153 136.769 206.906 137.112 209.237C137.456 211.568 142.118 215.327 144.185 214.608C146.252 213.889 148.144 207.429 150.56 207.958C152.976 208.486 159.446 213.107 163.199 213.376C166.952 213.646 173.301 209.11 175.621 210.442C179.967 212.948 185.792 212.314 190.116 210.733C193.055 209.676 195.809 207.371 196.195 204.39C204.605 202.376 205.382 201.615 204.996 199.379C204.61 197.143 206.291 190.154 194.646 191.095C183.001 192.036 177.561 195.488 175.087 195.351C172.614 195.213 173.406 192.396 169.273 193.204C165.139 194.013 167.465 196.699 162.158 196.831C156.85 196.963 148.054 195.488 144.428 194.817C143.42 194.601 142.376 194.609 141.371 194.841C140.367 195.073 139.425 195.523 138.614 196.159C134.083 192.533 132.799 192.819 128.517 192.459C124.235 192.1 111.353 187.252 106.231 189.716Z" fill="#ED824C"/>
<path d="M199.482 80.9807C200.159 83.5551 200.709 87.2923 204.028 87.4932C207.348 87.6941 211.889 86.1082 214.86 86.1082C217.83 86.1082 223.946 89.0684 225.516 89.2799C227.086 89.4913 230.237 82.1807 231.632 82.1807C233.028 82.1807 236.527 86.5206 240.021 87.5091C243.515 88.4976 256.001 85.7224 259.495 86.3144C262.989 86.9065 271.378 88.4817 274.349 86.9012C277.32 85.3206 280.211 80.0028 274.349 79.6064C268.487 79.2099 263.65 81.3825 258.491 77.2382C253.332 73.0939 246.661 68.9497 243.32 69.7373C239.979 70.5249 241.919 74.6639 238.25 72.9089C234.582 71.154 228.466 61.8663 224.797 64.4512C221.129 67.0361 217.022 74.4947 211.915 75.4938C206.809 76.4929 198.917 78.8293 199.482 80.9807Z" fill="#ED824C"/>
<path d="M120.566 581.282C126.1 581.779 137.64 581.102 141.599 578.406C145.558 575.71 148.037 571.006 152.018 570.477C155.998 569.949 169.853 571.096 175.276 569.076C180.7 567.057 198.673 567.136 199.931 575.948C201.189 584.76 195.971 591.727 182.487 588.852C169.002 585.976 164.673 584.353 159.27 585.432C153.868 586.51 152.615 591.008 143.438 590.829C134.262 590.649 120.941 588.672 115.544 587.409C110.147 586.145 108.529 580.204 120.566 581.282Z" fill="#ED824C"/>
<path d="M82.3321 621.023C89.8436 623.211 107.864 617.507 111.696 615.737C115.529 613.966 118.499 604.435 128.76 606.444C139.02 608.452 140.638 611.465 148.466 611.465C156.295 611.465 160.624 603.431 160.624 603.431C172.502 603.431 191.939 603.431 197.336 604.937C202.733 606.444 216.503 612.972 220.283 612.221C224.062 611.471 228.645 609.578 233.778 608.141C238.911 606.703 249.43 606.819 256.72 608.141C264.009 609.462 263.111 614.315 260.721 620.478C259.442 623.798 272.351 635.977 267.593 643.113C262.645 650.567 246.856 645.376 241.121 643.367C235.385 641.358 226.742 638.847 221.884 643.113C217.027 647.379 212.977 651.655 204.34 651.904C195.703 652.152 196.511 641.104 189.222 639.096C181.932 637.087 186.526 643.853 165.741 647.638C144.956 651.423 124.652 650.281 121.47 648.167C115.164 643.938 133.258 638.52 130.821 634.888C127.311 629.655 118.943 642.701 105.004 637.864C92.3175 633.466 86.9204 636.611 79.9005 638.62C72.8806 640.629 66.4422 642.701 58.0056 634.349C55.3626 631.748 47.2326 624.136 50.473 620.077C54.1891 615.419 71.2895 617.804 82.3321 621.023Z" fill="#ED824C"/>
<path d="M82.064 620.592C89.5755 622.781 107.596 617.077 111.428 615.306C115.261 613.535 118.231 604.004 128.492 606.013C138.752 608.022 140.369 611.035 148.198 611.035C156.027 611.035 160.356 603 160.356 603C172.234 603 191.671 603 197.068 604.507C202.465 606.013 216.235 612.541 220.015 611.791C223.794 611.04 228.377 609.148 233.51 607.71C238.643 606.272 249.162 606.388 256.452 607.71C263.741 609.031 262.842 613.884 260.453 620.048C259.174 623.367 272.083 635.546 267.325 642.683C262.377 650.136 246.588 644.945 240.852 642.936C235.117 640.928 226.474 638.417 221.616 642.683C216.758 646.948 212.709 651.225 204.072 651.473C195.434 651.722 196.243 640.674 188.954 638.665C181.664 636.656 186.258 643.423 165.473 647.207C144.688 650.992 124.384 649.85 121.202 647.736C114.896 643.507 132.99 638.089 130.553 634.457C127.043 629.224 118.675 642.27 104.736 637.433C92.0494 633.035 86.6524 636.181 79.6325 638.189C72.6125 640.198 66.1741 642.27 57.7375 633.918C55.0945 631.317 46.9645 623.706 50.2049 619.646C53.921 614.989 71.0214 617.373 82.064 620.592Z" fill="#ED824C"/>
<path d="M131.276 687.585C138.613 685.001 145.163 689.7 149.154 687.585C153.145 685.471 155.301 681.173 147.473 676.664C139.644 672.155 137.487 662.186 132.624 662.424C127.761 662.662 120.905 669.296 111.11 671.204C101.315 673.112 106.981 666.695 102.652 666.446C98.3229 666.198 75.9311 667.874 69.4556 667.636C62.9802 667.398 56.4942 663.84 53.2591 658.856C50.024 653.871 37.0626 655.055 27.6164 655.293C18.1702 655.531 7.10112 655.055 3.30043 660.753C-0.500258 666.452 7.34955 669.771 7.34955 669.771C-12.8961 667.874 -15.5973 665.262 -24.7739 665.262C-33.9505 665.262 -41.24 669.491 -48.7938 671.886C-56.3476 674.28 -73.3582 669.243 -76.0594 671.886C-78.7606 674.529 -81.4565 688.521 -70.6623 690.916C-59.8681 693.31 -53.1126 690.202 -47.7155 689.732C-42.3184 689.261 -44.4751 697.56 -42.3184 700.885C-40.1617 704.21 -31.519 704.443 -27.7394 704.681C-23.9599 704.918 -22.8815 699.463 -20.7248 699.696C-18.5681 699.928 -18.5628 705.632 -14.7832 705.87C-11.0037 706.108 -0.479107 705.162 1.95249 702.312C4.38408 699.463 7.37597 692.634 11.9379 692.105C27.4683 690.292 21.4528 681.887 24.9469 680.476C28.441 679.064 25.4332 688.791 30.5607 689.266C35.6882 689.742 49.728 684.757 54.0467 685.233C58.3655 685.709 65.6761 690.688 74.8316 691.64C83.9871 692.591 97.7731 685.466 102.901 685.704C108.028 685.941 120.482 691.397 131.276 687.585Z" fill="#ED824C"/>
<path d="M109.63 112.206C112.019 114.58 117.459 117.661 121.418 117.762C125.377 117.862 131.493 110.166 134.194 110.552C136.896 110.938 133.835 115.034 137.614 115.42C141.394 115.806 153.631 114.839 159.028 116.98C164.425 119.12 162.808 121.071 165.689 121.267C168.57 121.462 169.283 115.811 172.164 116.203C175.045 116.594 175.405 123.989 179.184 125.548C182.964 127.108 188.699 127.494 192.32 125.548C195.941 123.603 202.554 118.735 207.602 118.93C212.65 119.126 221.293 120.294 222.281 120.49C223.27 120.685 221.652 117.371 223.629 115.811C225.606 114.252 228.487 116.203 233.71 116.588C238.933 116.974 249.003 107.602 240.365 106.846C231.728 106.09 226.87 108.014 223.09 106.846C219.311 105.678 214.273 101.782 211.752 101.391C209.23 101 208.67 103.727 207.602 104.51C206.534 105.292 197.717 100.027 191.961 98.8589C186.204 97.6907 181.114 102.364 177.63 102.95C174.146 103.537 175.516 101.116 165.234 98.6686C154.953 96.2212 149.048 94.3076 145.533 95.201C142.018 96.0943 141.346 100.17 141.346 100.17C133.946 99.4404 132.038 99.7364 125.694 100.609C119.351 101.481 112.828 99.9426 111.522 100.318C107.114 101.587 106.02 108.612 109.63 112.206Z" fill="#ED824C"/>
<path d="M129.949 37.9838C129.468 41.7687 128.892 45.8019 131.123 48.075C133.354 50.348 149.841 51.2466 150.681 52.3038C154.535 61.2003 155.751 67.9982 157.421 71.265C159.668 75.6735 175.922 78.1791 182.345 76.6673C188.768 75.1555 188.889 69.7637 190.036 66.4071C191.791 61.2796 192.795 61.2003 199.128 60.9465C205.461 60.6928 208.759 55.1319 213.163 54.6403C217.566 54.1487 226.907 57.4154 231.331 58.4251C235.755 59.4347 229.957 51.3576 233.81 50.0995C237.664 48.8414 242.892 55.2693 246.497 52.3038C250.102 49.3383 247.189 43.2858 240.788 37.9891C234.386 32.6925 225.025 35.1452 219.522 35.0554C214.019 34.9655 208.146 39.5009 205.207 39.1679C202.268 38.8349 199.519 33.6175 193.462 33.1101C187.404 32.6026 180.653 34.458 174.215 36.4773C167.777 38.4966 165.757 40.8489 160.249 39.649C154.741 38.449 140.062 30.7525 129.949 37.9838Z" fill="#ED824C"/>
<path d="M-86.7532 232.909C-87.2554 236.852 -87.8368 244.152 -86.7532 245.337C-85.6696 246.521 -78.1158 246.817 -76.7678 247.705C-75.4199 248.593 -68.6696 251.844 -63.2725 247.705C-57.8754 243.566 -54.3654 242.672 -50.0573 245.337C-45.7491 248.001 -39.2578 247.705 -33.5912 246.817C-27.9245 245.929 -21.1742 248.889 -17.6642 247.705C-14.1543 246.521 -10.6443 242.376 -3.08522 248.001C4.47386 253.625 13.6452 255.692 17.9692 254.508C22.2932 253.324 38.2202 256.591 38.2202 256.591C36.0634 261.026 41.0429 267.501 48.2108 267.242C60.5062 266.793 54.4061 257.019 60.2366 249.338C62.2136 246.727 55.2836 262.923 69.2653 260.73C77.0041 259.519 89.7752 257.183 99.4963 257.479C109.217 257.775 112.183 265.762 121.36 265.17C130.536 264.578 135.933 259.847 145.385 261.618C154.836 263.389 149.973 254.518 145.385 248.011C140.796 241.504 143.492 240.32 140.796 236.768C138.101 233.216 131.615 232.01 122.168 229.669C112.722 227.327 117.31 221.681 110.29 219.313C103.271 216.945 95.9863 217.241 91.1284 217.241C86.2705 217.241 75.4711 217.241 70.074 214.873C64.6769 212.505 58.4446 214.577 60.6278 218.129C62.8109 221.681 56.5787 224.34 46.3184 225.53C36.0581 226.719 26.3423 225.234 19.5973 224.938C12.8523 224.642 10.4207 219.588 4.73816 219.588C-0.944371 219.588 -22.2208 226.989 -30.6098 226.402C-38.9988 225.815 -51.3947 226.106 -58.4146 222.855C-65.4345 219.604 -70.5725 216.638 -75.4199 218.415C-80.2672 220.191 -85.6537 224.134 -86.7532 232.909Z" fill="#ED824C"/>
<path d="M-57.2676 142.559C-57.479 144.8 -54.6245 153.739 -48.683 153.602C-42.7414 153.464 -27.1528 150.15 -21.4861 150.018C-15.8194 149.885 -16.5278 154.934 -13.8002 156.361C-11.0726 157.788 1.05899 156.889 8.05775 155.832C15.0565 154.775 11.5412 154.569 15.5587 152.703C19.5761 150.837 21.0033 155.24 23.234 158.74C25.4648 162.239 41.841 162.746 44.7325 163.27C47.624 163.793 56.4042 162.773 59.8771 168.841C64.6874 177.251 65.4962 189.637 65.4962 189.637C74.4825 195.557 85.3507 188.516 85.2503 183.193C85.1498 177.87 87.6872 169.523 87.6872 169.523C89.7223 162.725 97.3448 163.412 101.669 167.842C109.63 176.009 135.616 175.243 138.872 176.057C142.128 176.871 166.925 176.11 170.435 176.03C173.945 175.951 181.008 164.248 170.203 163.904C159.398 163.56 148.149 161.531 137.429 160.093C128.942 158.866 120.574 156.921 112.415 154.278C119.552 152.047 139.316 156.863 141.489 155.203C142.599 154.347 145.094 148.495 147.79 148.432C150.486 148.368 151.384 153.913 155.999 155.171C160.614 156.43 173.348 158.734 174.352 154.743C175.357 150.752 173.084 145.049 171.709 143.077C170.335 141.105 163.252 138.319 158.917 137.823C154.582 137.326 144.47 129.571 138.301 132.082C132.132 134.593 129.204 136.432 124.346 136.543C119.488 136.654 101.917 129.465 98.9042 127.171C95.8912 124.877 98.735 135.846 95.5158 136.808C92.2966 137.77 84.1825 141.845 76.5705 139.065C68.9586 136.284 67.5842 136.311 64.4126 138.161C61.2409 140.011 46.1492 132.584 40.4614 131.532C37.1531 130.91 33.8094 130.493 30.4496 130.285C28.0814 133.594 18.4449 137.955 14.1103 137.157C9.7757 136.358 -0.114529 137.067 -5.26845 135.708C-10.4224 134.35 -11.5589 131.416 -18.5894 130.982C-25.6198 130.549 -32.3331 131.892 -38.5284 132.922C-44.7237 133.953 -57.7803 129.846 -57.2676 142.559Z" fill="#ED824C"/>
<path d="M-139.519 300.227C-140.645 295.501 -130.004 294.307 -125.844 294.307C-121.684 294.307 -117.915 292.335 -113.607 291.743C-109.299 291.151 -96.1628 295.491 -91.0194 295.094C-85.8761 294.698 -83.7352 289.771 -81.9326 288.587C-80.1301 287.403 -78.6976 290.559 -75.0978 290.559C-71.4979 290.559 -69.4311 275.372 -69.2831 273.205C-69.1351 271.037 -57.8123 273.009 -52.5897 273.205C-47.367 273.4 -43.9522 269.256 -38.3754 269.06C-32.7986 268.865 -11.3847 274.78 -7.78489 274.981C-4.18507 275.182 -6.52679 286.42 -4.36478 285.828C-2.20278 285.236 -2.74726 276.752 3.91319 276.953C10.5736 277.153 10.6794 280.124 15.3576 278.961C20.0357 277.798 28.2133 276.73 29.4713 278.026C30.7294 279.321 33.2509 287.012 39.9113 287.604C46.5718 288.196 51.4297 287.207 52.3284 293.123C53.227 299.038 48.3691 305.947 38.6532 304.366C29.8308 312.824 28.9322 314.41 23.1756 311.666C17.4191 308.923 14.8818 303.774 8.5808 304.165C2.2798 304.556 0.302795 304.361 -5.81319 305.941C-11.9292 307.522 -19.3138 308.505 -23.2572 304.953C-27.2006 301.401 -30.0974 302.786 -34.0567 305.148C-38.0159 307.511 -41.6158 312.253 -43.413 308.896C-45.2103 305.54 -53.6733 304.556 -63.0296 306.729C-72.386 308.902 -79.2262 307.125 -80.1248 306.925C-88.5825 311.069 -96.1416 311.856 -101.359 308.701C-111.254 314.42 -110.715 315.604 -120.796 310.286C-130.876 304.969 -137.357 309.298 -139.519 300.227Z" fill="#ED824C"/>
<path d="M73.7271 284.834C70.5554 286.076 74.7156 292.203 74.5147 295.142C74.3138 298.081 67.7908 303.674 69.7572 305.947C71.7236 308.22 82.8191 305.947 86.1811 305.947C89.543 305.947 92.9102 311.333 99.243 310.916C102.991 310.683 106.518 309.06 109.133 306.364C116.655 311.333 122.396 308.019 127.735 307.421C133.074 306.824 143.768 298.102 137.25 296.654C130.732 295.205 132.355 287.266 126.149 285.627C118.5 283.608 115.196 290.384 110.428 287.641C106.395 285.326 102.843 292.515 100.861 290.448C98.8782 288.381 101.458 283.824 94.9242 282.788C88.3906 281.752 76.8934 279.041 73.7271 284.834Z" fill="#ED824C"/>
<path d="M-97.4048 417.456C-103.653 418.587 -106.312 427.198 -108.199 431.089C-110.086 434.979 -112.787 441.312 -112.248 444.23C-111.709 447.148 -105.635 445.662 -102.395 448.094C-99.1544 450.525 -94.5556 455.674 -92.6631 459.565C-90.7707 463.455 -90.5064 465.649 -80.5052 468.551C-70.5039 471.453 -69.7057 463.688 -65.387 462.953C-61.0683 462.218 -53.5092 468.308 -49.7296 470.496C-45.9501 472.685 -42.9846 469.28 -37.5717 469.037C-32.1587 468.794 -14.6301 465.633 -10.0418 465.866C-4.37514 470.486 5.34595 475.597 13.4442 474.625C21.5425 473.652 23.16 469.999 25.3167 471.707C27.4735 473.414 29.0963 473.89 32.0671 474.746C35.0378 475.603 47.1588 462.747 55.7963 465.919C64.4337 469.09 76.5811 468.387 83.3261 467.15C90.0711 465.913 97.0699 469.793 103.033 471.273C108.995 472.753 122.195 471.516 124.626 469.566C127.058 467.615 120.847 465.432 115.18 464.46C109.513 463.487 107.621 457.847 110.861 457.868C114.102 457.889 121.925 459.105 131.239 456.187C140.553 453.269 139.2 450.832 140.823 448.4C142.446 445.969 137.582 445.964 145.411 444.505C153.24 443.046 151.887 438.161 142.979 436.961C134.072 435.761 127.597 435.502 120.038 433.557C112.479 431.612 96.0127 425.501 92.4869 426.474C88.9611 427.446 87.629 429.645 81.1535 430.364C74.6781 431.083 74.1336 431.58 69.8149 429.149C65.4962 426.717 63.3342 425.015 54.9663 424.042C46.5985 423.07 50.378 422.821 43.9026 423.799C37.4272 424.777 39.0447 424.285 34.7259 423.064C30.4072 421.843 19.8774 420.876 11.7791 423.551C3.68085 426.225 3.62271 434.281 0.382344 434.281C-2.85802 434.281 5.79528 423.757 -10.0629 422.092C-15.3067 421.563 -17.0829 420.876 -23.2781 420.876C-29.4734 420.876 -47.8425 424.285 -52.4308 422.335C-57.0191 420.384 -64.3086 416.256 -64.3086 416.256C-67.549 421.119 -67.0045 424.285 -75.1028 422.599C-83.2011 420.913 -83.9041 415.019 -97.4048 417.456Z" fill="#ED824C"/>
<path d="M62.0183 488.961C58.318 489.933 60.036 497.027 60.9611 498.375C61.8861 499.723 61.4897 503.08 63.2975 505.601C65.1054 508.123 72.8124 504.592 78.7751 505.601C84.7378 506.611 98.2067 511.31 101.447 510.808C104.687 510.306 104.508 507.954 106.485 507.446C108.462 506.939 110.085 509.465 112.247 509.968C114.409 510.47 119.261 505.601 125.203 507.113C131.144 508.625 141.399 510.549 146.257 510.845C151.115 511.141 152.759 509.465 156.977 508.287C161.196 507.108 167.491 504.925 159.932 503.08C152.373 501.235 148.234 501.975 145.179 499.908C142.123 497.841 139.237 492.476 135.098 493.316C130.959 494.157 130.42 497.017 126.641 496.678C122.861 496.34 119.081 491.636 114.942 490.795C110.803 489.955 109.725 490.626 104.687 491.466C99.6498 492.307 95.1725 487.1 91.7313 486.931C88.2901 486.762 87.0531 493.147 87.0531 493.147C84.7114 492.307 84.3519 485.419 78.0668 485.583C71.7816 485.747 66.5167 487.787 62.0183 488.961Z" fill="#ED824C"/>
<path d="M-77.0746 344.788C-80.4048 343.292 -78.6022 331.177 -73.7866 330.193C-68.971 329.21 -53.6995 331.97 -49.5394 333.365C-45.3793 334.761 -41.6103 329.422 -39.4641 327.841C-37.318 326.261 -34.9657 330.014 -32.2645 331.193C-29.5633 332.371 -19.1286 324.252 -11.929 324.252C-4.72936 324.252 6.60399 335.696 16.3251 335.696C26.0462 335.696 27.1192 332.34 33.2405 333.133C39.3618 333.925 49.4318 330.172 52.1329 327.804C54.8341 325.436 59.6921 324.056 66.8917 326.218C74.0913 328.38 77.5061 338.049 80.7465 337.261C83.9868 336.473 75.5291 329.57 80.0276 328.386C84.526 327.202 95.1404 333.143 99.2794 333.318C103.418 333.492 109.54 340.612 104.677 344.757C99.8133 348.901 90.2826 349.292 88.2897 351.264C86.2969 353.235 85.0493 356.592 77.4903 354.028C69.9312 351.465 66.7067 346.982 63.1121 347.944C59.5176 348.906 45.8372 355.44 41.878 356.624C37.9187 357.808 26.7598 353.452 24.2383 353.267C21.7169 353.082 25.8612 360.567 22.4411 361.159C19.021 361.751 13.9833 363.131 7.50262 358.791C1.02189 354.451 -12.8276 352.088 -16.068 352.088C-19.3083 352.088 -20.7461 354.848 -26.508 355.831C-32.2698 356.814 -36.4035 357.015 -41.6209 355.244C-46.8382 353.473 -47.5624 349.324 -51.7014 347.548C-55.8404 345.772 -52.7586 348.732 -58.1768 349.519C-63.5951 350.307 -73.1153 346.564 -77.0746 344.788Z" fill="#ED824C"/>
<path d="M8.10149 381.699C9.54987 383.988 14.5769 390.157 18.1767 393.535C21.7766 396.913 19.0754 401.03 21.7766 401.993C24.4777 402.955 35.0922 401.305 40.669 402.928C46.2458 404.551 58.6416 410.08 63.7057 410.08C68.7698 410.08 71.804 402.78 78.9983 404.556C86.1927 406.332 97.896 414.024 102.394 413.236C106.893 412.448 102.035 407.025 100.957 402.928C99.8783 398.831 97.3885 390.559 90.5166 390.136C80.933 389.544 81.8792 375.007 76.7729 371.687C74.9439 370.498 67.8658 375.8 65.8888 375.8C63.9118 375.8 55.8136 375.002 51.1301 373.622C46.4466 372.242 39.7915 368.283 35.6525 374.003C31.5135 379.722 27.1736 381.895 23.2144 380.309C19.2551 378.723 5.00385 376.81 8.10149 381.699Z" fill="#ED824C"/>
<path d="M43.0039 186.1C43.0039 188.743 44.0611 193.5 44.5897 196.455C45.1183 199.41 43.2735 203.259 36.6923 203.259C30.1112 203.259 14.845 197.639 10.1086 197.639C5.37232 197.639 3.26319 196.455 -0.685509 198.528C-4.63421 200.6 -14.3817 206.515 -21.7558 205.315C-29.1299 204.115 -33.0733 196.006 -38.3382 195.8C-43.6031 195.594 -42.2869 200.309 -50.9719 200.309C-59.6569 200.309 -70.7154 198.237 -73.3479 197.941C-75.9803 197.645 -84.6654 202.968 -96.5115 203.856C-108.358 204.744 -118.623 200.309 -125.469 199.421C-132.314 198.533 -136.786 199.717 -142.839 202.064C-148.891 204.411 -162.059 210.939 -166.795 201.176C-171.531 191.412 -164.95 189.932 -155.478 189.044C-146.005 188.156 -146.528 184.287 -141.787 177.209C-137.045 170.131 -123.888 178.985 -115.462 177.209C-107.036 175.433 -104.737 165.807 -103.156 163.74C-101.576 161.673 -94.1433 162.714 -84.9297 162.122C-75.716 161.53 -69.1349 155.61 -65.7148 162.122C-62.2947 168.635 -57.5531 177.505 -49.3914 177.209C-41.2297 176.913 -33.8609 171.886 -28.596 173.958C-23.331 176.03 -10.433 180.761 -5.961 180.761C-1.48898 180.761 13.7825 178.118 16.1507 179.873C18.5188 181.628 15.8863 186.676 21.6799 185.788C27.4734 184.9 31.1684 180.47 43.0039 186.1Z" fill="#ED824C"/>
<path d="M164.718 489.889C165.738 492.828 172.478 494.72 177.706 496.105C182.934 497.49 185.556 499.356 186.951 503.104C188.347 506.852 197.111 510.764 199.728 509.183C202.344 507.603 215.264 506.82 217.172 505.636C219.08 504.452 216.754 495.016 219.022 492.849C221.29 490.682 232.623 485.549 227.913 481.801C223.203 478.053 215.924 481.209 212.155 481.801C208.386 482.393 201.409 476.283 192.867 477.07C184.324 477.858 182.057 479.042 181.184 481.801C171.627 482.002 162.799 484.365 164.718 489.889Z" fill="#ED824C"/>
<path d="M-68.9017 492.276C-71.6029 495.088 -74.4785 504.688 -77.666 507.658C-80.8535 510.629 -71.0267 514.943 -64.1178 511.702C-57.2089 508.462 -47.9213 508.938 -46.3249 509.514C-44.7285 510.09 -39.9499 516.56 -30.3926 516.291C-20.8354 516.021 -17.3783 511.163 -15.7819 511.163C-14.1855 511.163 -14.4551 515.831 -9.94082 518.088C-5.42652 520.345 9.18421 519.801 14.2271 516.56C19.27 513.32 26.9771 511.702 33.8807 514.134C40.7844 516.566 44.0194 510.376 42.9622 505.877C41.905 501.379 37.1105 496.891 32.5222 495.448C28.4519 494.168 23.9376 496.426 18.7308 496.87C13.5241 497.314 5.90683 496.595 1.12822 495.696C-3.65039 494.797 -10.4113 491.198 -14.9996 492.276C-19.5879 493.354 -22.749 497.673 -22.749 497.673C-29.3037 496.774 -28.7698 490.273 -36.3817 489.58C-43.9937 488.888 -51.077 491.737 -56.0354 491.018C-60.9937 490.299 -65.2701 488.496 -68.9017 492.276Z" fill="#ED824C"/>
<path d="M24.8726 536.182C27.9755 533.481 36.6182 533.571 41.6083 534.517C46.5983 535.463 53.3486 534.649 55.6481 533.169C57.9475 531.689 63.7886 525.737 72.7432 525.769C77.0144 525.769 87.2694 527.957 91.2762 529.004C97.1226 530.537 97.0909 535.754 96.9429 537.773C96.7949 539.793 95.3253 544.386 98.5657 546.68C101.806 548.975 109.09 549.514 113.007 551.131C116.924 552.749 121.777 557.607 117.326 559.23C112.875 560.852 100.051 557.876 95.3253 557.475C90.5996 557.073 87.6341 554.773 84.6633 557.337C81.6926 559.901 82.0996 562.063 77.2628 561.524C72.4261 560.985 69.4341 552.347 62.5517 551.808C55.6692 551.269 59.1739 559.092 59.1739 559.092C49.7277 560.038 37.5803 561.386 31.5066 558.283C25.4329 555.18 25.4382 547.003 24.8726 536.182Z" fill="#ED824C"/>
<path d="M97.4825 588.407C94.3108 581.836 89.3842 577.972 82.0101 578.892C77.517 579.421 58.8836 579.881 54.2953 579.072C49.7069 578.263 46.4666 582.043 41.8783 582.582C37.29 583.121 28.9221 580.15 24.873 573.432C24.873 573.432 17.0443 577.185 8.67644 577.994C0.308587 578.802 -11.8335 581.234 -17.5636 583.623C-23.2937 586.013 -20.471 588.518 -25.3342 588.518C-30.1974 588.518 -34.5108 583.121 -36.9635 583.66C-39.4163 584.199 -39.1255 588.788 -54.2384 587.979C-59.9897 587.672 -65.6299 587.001 -70.4455 586.657C-85.0351 585.272 -93.6461 588.608 -95.8187 588.608C-97.9912 588.608 -96.3473 582.492 -101.76 582.851C-107.173 583.211 -114.716 588.248 -118.855 588.608C-122.994 588.967 -128.032 601.739 -122.275 602.997C-116.519 604.255 -109.134 602.817 -103.917 601.559C-98.6996 600.301 -80.8855 609.62 -75.3034 607.749C-69.7213 605.878 -72.1318 598.625 -64.6097 602.42C-61.0204 604.773 -56.6806 609.261 -46.4256 609.292C-30.2291 609.366 -23.7483 605.983 -15.6501 608.41C-7.55181 610.836 -4.58632 607.881 -0.806775 604.096C2.97277 600.311 6.21314 602.743 20.2477 605.444C21.3049 604.635 24.5664 600.047 33.743 602.473C42.9196 604.9 53.9887 602.267 64.2489 599.032C74.5092 595.797 79.4517 600.021 84.8646 601.908C90.2776 603.795 101.891 597.578 97.4825 588.407Z" fill="#ED824C"/>
<path d="M-75.8376 20.7892C-64.1395 20.1126 -61.3379 24.6533 -54.6034 25.0604C-47.869 25.4674 -35.5736 19.3673 -31.2707 18.7594C-26.9678 18.1515 -23.7116 23.6331 -20.2016 24.6481C-16.6917 25.663 -15.0742 18.8704 -13.9958 18.7118C-12.9174 18.5532 -0.252008 19.769 6.49302 18.7858C13.2381 17.8026 19.7082 13.5579 27.0083 14.7737C34.3083 15.9895 46.0381 25.7211 52.5294 26.1282C59.0207 26.5352 55.2253 32.0116 60.0832 33.2326C64.9411 34.4537 66.564 29.58 75.7406 29.1729C84.9172 28.7659 98.4178 28.343 101.383 33.4018C104.349 38.4606 103.276 43.3555 93.0155 43.9739C82.7552 44.5924 78.7114 42.552 72.7698 43.9739C66.8283 45.3959 64.1323 52.9074 51.1762 50.4705C38.22 48.0336 34.1709 41.9758 28.5254 41.9758C22.8798 41.9758 32.0353 45.6285 22.5891 49.2864C13.1429 52.9444 -5.32666 53.7796 -16.5543 49.4873C-24.0499 46.6223 -30.7104 45.9932 -34.0406 40.501C-35.4044 38.2544 -39.5487 43.7043 -43.7617 44.0004C-50.2266 44.4603 -55.8721 46.1677 -63.7748 46.0461C-69.7956 45.9509 -87.1339 48.0389 -88.7726 36.2774C-90.5646 23.5486 -84.6917 21.2967 -75.8376 20.7892Z" fill="#ED824C"/>
<path d="M-131.685 74.7081C-135.068 83.0443 -129.523 91.3593 -116.836 91.0949C-104.15 90.8306 -100.1 82.5209 -92.2718 82.8963C-84.4431 83.2716 -86.3355 87.5639 -81.7472 88.3198C-77.1589 89.0757 -66.5233 86.3005 -61.8504 86.8079C-57.1775 87.3154 -43.1483 90.6351 -42.8787 94.7741C-42.6091 98.9131 -40.0454 106.62 -37.2966 108.333C-27.8504 114.222 -13.726 113.836 -11.9235 109.512C-10.4487 105.959 -11.564 102.698 -8.5985 102.444C-5.63302 102.19 -8.06991 107.968 1.93135 110.373C11.9326 112.778 23.7945 102.862 32.8813 103.618C41.9681 104.374 44.664 113.83 59.3434 113.291C70.2168 112.884 82.0735 109.813 84.7958 101.662C86.4187 96.7986 85.2504 93.9759 83.3263 92.501C80.0278 89.9637 72.7541 91.761 73.0132 87.622C73.0713 86.7234 82.8188 88.7955 87.497 86.8027C93.8985 84.075 96.0975 83.4566 105.401 82.2566C115.296 80.988 129.157 85.4547 131.858 79.085C134.77 72.1867 120.429 65.1245 110.185 65.3782C99.9404 65.6319 86.7041 68.6556 82.9246 69.6652C79.145 70.6748 66.728 65.7165 62.4093 65.209C58.0906 64.7016 56.2035 72.525 51.6151 73.0324C47.0268 73.5399 41.6245 67.9842 33.5262 67.9842C28.3723 67.9842 17.668 67.6512 11.1238 69.8079C7.38658 71.0396 1.6459 74.8878 -4.0472 74.8878C-19.6993 74.8878 -29.0979 72.192 -41.24 69.4168C-53.3821 66.6416 -54.3918 64.1307 -57.2621 68.8882C-60.1325 73.6456 -62.8336 76.2041 -65.2652 71.1612C-67.6968 66.1183 -68.5056 64.5906 -82.5401 65.3465C-96.5746 66.1024 -98.6468 69.3903 -108.542 70.6326C-118.438 71.8748 -128.714 67.3922 -131.685 74.7081Z" fill="#ED824C"/>
<path d="M246.624 435.699C245.176 437.988 240.149 444.157 236.549 447.535C232.949 450.913 235.65 455.03 232.949 455.993C230.248 456.955 219.633 455.305 214.057 456.928C208.48 458.551 196.084 464.08 191.02 464.08C185.956 464.08 182.922 456.78 175.727 458.556C168.533 460.332 156.83 468.024 152.331 467.236C147.833 466.448 152.691 461.025 153.769 456.928C154.847 452.831 157.337 444.559 164.209 444.136C173.793 443.544 172.846 429.007 177.953 425.687C179.782 424.498 186.86 429.8 188.837 429.8C190.814 429.8 198.912 429.002 203.595 427.622C208.279 426.242 214.934 422.283 219.073 428.003C223.212 433.722 227.552 435.895 231.511 434.309C235.471 432.723 249.722 430.81 246.624 435.699Z" fill="#ED824C"/>
</mask>
<g mask="url(#mask0_412_386)">
<rect x="-0.546387" width="450" height="720" fill="#ED824C"/>
</g>
</g>
<defs>
<clipPath id="clip0_412_386">
<rect width="450" height="720" fill="white"/>
</clipPath>
</defs>
</svg>
