<svg width="385" height="720" viewBox="0 0 385 720" fill="none" xmlns="http://www.w3.org/2000/svg">
<g clip-path="url(#clip0_403_173)">
<mask id="mask0_403_173" style="mask-type:alpha" maskUnits="userSpaceOnUse" x="11" y="-273" width="413" height="1232">
<path d="M225.429 -48.1548C230.308 -50.2485 236.075 -53.0519 239.624 -53.4777C241.93 -43.2577 255.592 -27.0227 255.592 -24.3789C255.592 -20.2093 250.465 -1.91603 255.592 -0.301395C260.72 1.31324 265.866 9.95419 265.866 13.8045C265.866 17.6547 274.418 20.9017 274.418 20.9017C276.192 25.4085 255.486 29.2588 249.932 32.7896C258.618 34.1086 267.453 34.1086 276.139 32.7896C276.139 39.8869 278.694 53.6379 278.375 57.1688C278.055 60.6997 269.716 64.55 269.716 67.1227C269.716 69.6955 273.265 77.7687 274.418 78.9929C275.571 80.2172 283.201 98.2443 279.989 103.39C276.778 108.535 276.263 133.411 273.779 135.328C271.029 137.457 256.763 126.456 251.281 124.309C245.798 122.162 249.365 108.997 249.134 105.164C248.903 101.332 244.379 102.343 237.193 97.02C232.899 93.8617 245.053 85.9305 246.65 84.9724C238.204 86.9596 232.455 87.8468 232.455 82.098C232.455 76.3492 233.342 76.0653 234.052 69.2519C234.762 62.4386 234.531 62.8467 232.136 57.7899C229.741 52.733 229.989 52.0055 232.136 47.9423C234.283 43.8792 233.91 29.7556 226.476 19.6952C219.041 9.63483 217.072 7.78952 215.83 5.09255C214.162 1.34874 214.765 -2.00471 218.172 -7.70028C221.579 -13.3958 205.468 -30.1809 201.831 -39.5493C199.417 -45.724 198.885 -60.8412 203.374 -68.6304C210.33 -80.6071 223.672 -93.6483 228.215 -100C229.634 -91.1288 233.839 -67.7255 236.341 -63.13C237.725 -60.6282 234.602 -57.3458 225.429 -48.1548Z" fill="white"/>
<path d="M164.928 163.595C160.721 168.621 157.385 189.034 155.082 194.372C152.778 199.71 171.476 194.203 171.476 194.203C170.889 199.662 170.003 205.084 168.821 210.446L196.011 214.89L165.084 218.467C164.477 222.183 155.795 236.974 155.965 242.233C156.135 247.492 161.404 250.269 160.013 252.908C158.622 255.546 152.4 264.041 153.734 264.743C155.068 265.444 161.405 291.253 161.405 291.253C161.405 291.253 156.017 283.226 151.406 284.854C146.796 286.483 140.221 312.081 138.627 321.833C137.033 331.585 146.945 344.6 146.071 349.947C145.197 355.294 170.622 347.054 170.622 347.054C170.622 347.054 152.929 354.641 150.26 359.436C147.592 364.231 154.952 369.266 154.952 369.266C154.952 369.266 145.475 365.335 143.807 375.541C142.139 385.748 142.194 394.268 139.231 397.668C136.267 401.067 148.202 410.563 153.828 411.482C159.17 417.12 154.831 437.369 154.831 437.369C161.638 439.914 196.826 433.754 197.659 428.659C198.078 425.209 197.658 421.708 196.432 418.446L178.677 412.212C192.193 412.039 200.314 412.417 200.314 412.417C201.556 393.077 199.399 370.834 202.275 365.089C205.15 359.344 208.902 342.159 207.263 337.454C205.624 332.75 198.162 325.453 198.162 325.453L208.016 324.094C205.875 305.169 209.007 303.298 210.826 292.167C212.646 281.036 219.32 257.82 215.742 244.373C212.165 230.927 214.941 222.801 211.345 221.212C212.537 210.928 218.613 206.207 216.223 197.236C213.834 188.265 212.569 184.26 213.324 182.951C220.697 176.059 228.367 161.586 224.306 162.839C206.606 165.125 179.772 161.274 176.338 158.796C172.905 156.318 164.928 163.595 164.928 163.595Z" fill="white"/>
<path d="M90.3403 -192.706C85.1114 -195.578 86.8222 -200.624 86.1069 -206.022C85.3915 -211.419 89.4377 -222.843 87.2863 -232.912C86.6685 -235.786 79.5452 -232.512 80.5067 -233.383C82.8015 -235.46 87.3432 -240.163 85.9979 -240.722C84.6526 -241.28 80.1079 -246.638 80.1079 -246.638L78.6093 -254.982C71.3562 -254.2 67.7558 -255.574 67.7558 -255.574L79.2313 -260.29C80.0258 -264.142 83.1082 -274.071 81.2054 -272.853C67.8346 -267.796 56.5207 -264.443 57.3508 -263.004C60.2045 -259.705 58.994 -248.055 57.9993 -244.751C57.0047 -241.447 54.0608 -241.782 53.8495 -237.654C53.6382 -233.525 56.4332 -233.595 56.8981 -229.804C57.363 -226.013 53.7268 -211.246 53.5042 -209.161C53.2816 -207.075 58.4645 -207.219 58.4645 -207.219C60.8296 -207.135 62.1853 -207.722 63.0984 -209.004C63.2067 -208.401 63.3821 -205.726 63.464 -203.784C63.7317 -197.201 61.9568 -196.12 61.5757 -189.471C61.7127 -188.708 73.5359 -186.538 73.5359 -186.538C73.5359 -186.538 63.941 -185.78 60.7984 -184.25C57.6559 -182.72 58.3584 -172.937 54.7729 -156.261C54.4518 -155.149 48.3675 -168.513 46.017 -172.83C44.75 -175.499 38.3888 -164.092 38.3888 -164.092C38.3888 -164.092 42.1426 -176.86 42.2988 -177.688C42.4549 -178.516 38.3038 -191.161 32.7513 -192.793C32.612 -193.568 29.0014 -199.526 28.2137 -205.609C27.4867 -210.789 29.2865 -215.127 26.7976 -215.404C24.0594 -215.725 14.2571 -208.553 12.9953 -204.261C11.3673 -198.684 11.2438 -191.166 13.3391 -186.715L18.5113 -179.844L19.8388 -162.691L25.8813 -156.421C25.8813 -156.421 23.7762 -146.921 26.6143 -142.578C29.4523 -138.235 37.3971 -137.147 37.3971 -137.147C37.3971 -137.147 37.6901 -127.735 39.6538 -124.581C41.6176 -121.428 44.5702 -108.949 43.1581 -99.2697C41.7461 -89.5899 45.3672 -94.7501 49.3668 -88.1129C53.3664 -81.4758 56.0742 -64.4182 55.1276 -57.9471C54.181 -51.476 57.9519 -46.1825 57.6153 -36.3148C57.2787 -26.447 51.7343 -26.1246 63.7301 -10.0491C73.4935 -14.2544 75.8021 -20.6398 75.3325 -35.2791C75.3325 -35.2791 79.2876 -23.0189 79.6495 -17.1132C80.0115 -11.2074 71.3493 -4.76074 66.6212 -1.80275C66.6212 -1.80275 65.6744 14.1454 66.5726 21.3395C67.4709 28.5337 75.2737 38.4514 76.3722 44.5678C77.4707 50.6843 85.0006 49.6749 86.7689 59.5204C87.2937 62.7174 86.8909 65.9979 85.6082 68.973C84.3255 71.948 82.2166 74.493 79.5316 76.3061C78.2375 76.8815 74.551 81.7485 74.551 81.7485C74.551 81.7485 79.1628 91.7947 76.9823 95.286C74.8019 98.7773 72.4457 109.071 73.7117 120.011C78.6875 117.646 83.8823 115.773 89.222 114.417C84.3023 118.845 79.6326 123.543 75.2346 128.49C77.0991 133.071 79.4075 136.163 83.5215 147.328C83.5215 147.328 97.4267 148.641 95.1444 141.734C92.8621 134.826 91.3929 132.588 92.9495 129.513C94.5062 126.439 91.3453 124.542 92.0667 118.797C92.7881 113.053 100.045 98.779 99.9149 88.2963C99.9149 88.2963 105.373 106.943 105.998 116.295C111.63 115.187 117.071 113.264 122.148 110.587C121.538 107.191 124.838 98.1881 123.969 93.3515C123.1 88.5149 117.33 83.7584 115.899 77.7016C115.899 77.7016 121.688 74.5659 122.028 68.8898C122.135 60.4198 120.624 52.0071 117.576 44.1039C114.373 36.5234 117.79 27.7538 117.242 24.7017C116.694 21.6496 111.033 15.0313 110.027 12.3282C107.902 7.07946 106.224 1.66095 105.009 -3.86978C105.009 -3.86978 107.939 2.18464 117.284 14.9631C117.284 14.9631 120.274 5.2285 121.589 2.36271C122.904 -0.503077 116.652 -18.0548 115.912 -23.448C114.984 -25.6442 98.4931 -20.8405 91.4895 -23.2667C95.7029 -26.1196 100.231 -28.7749 100.231 -28.7749C100.231 -28.7749 103.062 -30.5538 99.7752 -44.4711C101.058 -40.2297 108.764 -29.7866 115.943 -27.6586C115.548 -31.2718 118.064 -34.8742 118.064 -34.8742C117.211 -37.6621 115.669 -40.1901 113.581 -42.2248C110.485 -44.8194 114.543 -47.1234 114.649 -49.5053C114.755 -51.8872 109.631 -73.0588 104.201 -78.3973C98.7702 -83.7357 93.0971 -94.8108 91.7831 -94.8416C90.4691 -94.8724 84.5551 -96.9608 84.3778 -102.404C84.2005 -107.848 87.7826 -115.631 88.7891 -120.283C89.7955 -124.936 91.6284 -141.043 90.5321 -147.147C89.4358 -153.251 87.8824 -154.827 84.0025 -155.705C80.1225 -156.584 83.2244 -160.037 83.088 -163.697C83.088 -163.697 90.0581 -164.428 93.6271 -165.069L91.8849 -181.843C91.8849 -181.843 95.567 -189.847 90.3403 -192.706Z" fill="white"/>
<path d="M294.717 659.22C296.302 665.413 294.226 666.264 294.226 671.48C294.226 676.696 300.217 683.551 303.499 684.213C307.174 685.2 310.789 686.4 314.325 687.806C314.325 687.806 303.498 686.23 303.229 691.068C302.96 695.906 296.477 705.408 293.528 710.309C290.58 715.21 291.23 726.619 289.264 730.527C287.221 734.064 284.916 737.446 282.369 740.644L287.949 748.145C287.949 748.145 297.126 724.98 301.073 722.049C305.02 719.118 305.004 730.196 305.004 731.835C305.004 733.474 324.025 731.504 324.025 731.504C324.025 731.504 306.304 735.428 305.004 738.359C303.705 741.29 304.022 751.076 303.197 754.669C302.373 758.262 316.813 756.954 316.813 756.954L326.989 747.499L320.76 760.232L329.621 774.572C329.621 774.572 323.058 764.471 316.813 764.14C310.568 763.809 304.354 760.547 303.372 762.186C302.389 763.825 301.787 784.689 305.987 790.882C310.188 797.076 309.934 808.832 308.951 812.094C307.968 815.356 319.444 818.933 319.444 818.933C319.444 818.933 309.934 817.956 309.601 822.195C309.268 826.434 305.004 843.721 314.515 843.721C324.025 843.721 324.533 848.575 324.865 854.752C325.198 860.929 323.55 868.446 323.55 874.97C323.55 881.494 324.865 888.664 324.865 892.305C324.865 895.945 326.45 903.934 321.14 913.941C315.83 923.948 326.387 937.863 325.515 942.653C324.643 947.444 340.827 947.003 340.827 947.003C341.271 940.904 342.143 925.256 340.827 921.789C344.774 936.145 347.833 950.926 349.577 957.45C359.642 962.667 379.693 952.723 379.693 952.723C379.265 942.732 378.394 933.151 379.693 925.76C380.993 918.369 370.944 892.667 370.944 892.667C370.944 892.667 363.018 893.534 360.894 889.184C358.77 884.835 356.519 866.13 356.519 866.13C349.513 867.438 337.261 865.704 337.261 865.704C350.829 861.355 356.947 863.088 356.947 860.047C354.76 850.481 340.272 836.614 340.7 824.874C341.128 813.134 342.46 813.543 342.888 806.814C343.316 800.085 341.144 780.955 344.647 779.205C348.15 777.456 345.519 761.871 344.203 758.719C342.888 755.568 337.641 753.503 337.641 753.503L343.759 746.112C343.759 746.112 343.759 729.582 345.947 721.324C348.134 713.067 350.353 690.437 349.608 684.701C346.438 680.651 341.271 679.28 338.275 667.257C336.912 661.773 335.549 647.385 335.549 647.385L316.734 643.461H335.977C333.436 636.462 331.946 629.129 331.554 621.699C331.079 604.664 329.969 605.089 327.639 601.559C324.469 596.753 329.779 583.5 328.654 574.344C327.576 565.582 327.592 558.176 323.898 551.699C321.22 546.972 310.108 546.168 301.454 543.615C295.002 541.724 290.358 541.74 291.388 546.767C292.672 553.464 300.645 558.475 301.771 570.105C302.024 572.737 300.186 581.42 300.027 584.036C299.869 586.652 311.361 590.024 309.141 590.418C305.147 591.127 297.428 591.489 296.746 592.262C293.687 595.744 300.883 604.963 300.883 608.02C300.883 611.077 296.825 620.391 296.302 622.676C293.306 635.535 299.615 652.239 299.615 652.239L294.717 659.22Z" fill="white"/>
<path d="M186.395 59.7771C187.498 65.5456 195.319 88.7807 200.274 97.1186C189.708 102.517 179.665 106.677 179.665 106.677C191.685 106.998 203.294 102.9 203.727 104.316C207.288 110.374 211.119 124.075 214.435 128.192C217.751 132.309 217.75 136.084 204.261 135.827C190.772 135.571 176.218 131.633 168.59 130.852C165.817 123.636 163.816 116.147 162.619 108.51C157.593 104.611 156.753 88.6944 157.584 82.1767C146.861 77.8683 144.979 70.0088 143.252 60.9814L140 43.9722C140 43.9722 150.075 43.8521 153.763 43.5806C157.45 43.3091 186.395 59.7771 186.395 59.7771Z" fill="white"/>
<path d="M304.701 465.749C303.362 460.589 304.244 443.904 303.362 427.306C302.481 410.707 295.327 414.474 295.327 414.474C295.327 414.474 295.327 410.208 292.649 397.858C289.971 385.509 285.072 384.58 281.716 379.351C278.36 374.122 279.749 339.618 277.275 339.618C277.665 337.16 277.716 334.659 277.427 332.187C275.732 324 274.037 318.306 277.088 314.385C280.641 309.593 282.271 303.612 281.648 297.649C281.19 290.184 274.088 276.286 274.088 276.286C274.088 276.286 283.123 272.725 281.445 270.592C279.766 268.459 277.766 257.778 277.766 257.778C277.766 257.778 258.018 258.844 258.679 263.11C259.34 267.376 260.374 277.352 259.357 279.846C258.34 282.34 255.001 284.473 255.001 292.127C255.001 292.127 259.357 295.567 273.071 299.437C273.071 299.437 268.731 301.157 255.34 299.437L253.323 306.197L265.036 315.933C260.181 314.598 255.473 312.765 250.984 310.463C248.983 309.758 243.288 314.385 243.627 321.867C243.966 329.349 240.61 342.869 233.253 354.255C231.926 357.175 230.914 360.231 230.236 363.372C227.913 372.419 228.913 386.781 230.608 392.612C232.405 398.787 245 403.414 245 403.414C245 403.414 237.304 410.656 239.542 414.44C241.779 418.224 244.288 430.109 244.288 430.109C251.594 430.109 259.171 430.109 261.849 432.965C264.527 435.82 264.087 441.032 262.714 444.73C260.925 448.221 258.891 451.578 256.628 454.775C276.308 453.347 279.427 454.775 279.427 454.775C279.427 454.775 255.221 460.468 256.628 463.788C258.018 470.444 264.324 481.866 264.324 481.866C264.324 481.866 282.682 490.689 290.157 504.845C294.141 512.345 304.701 485.168 304.701 485.168C304.701 485.168 306.041 470.909 304.701 465.749Z" fill="white"/>
<path d="M110.933 439.703C115.689 438.091 121.333 435.892 124.711 435.741C126.107 445.599 137.749 461.97 137.547 464.488C137.23 468.431 131.011 485.346 135.721 487.244C140.431 489.142 144.62 497.737 144.323 501.446C144.025 505.155 151.842 508.805 151.842 508.805C153.173 513.185 133.372 515.261 127.871 518.181C135.953 520.095 144.279 520.763 152.563 520.162C152.024 526.875 153.403 540.092 152.817 543.407C152.232 546.721 144.099 549.733 143.905 552.15C143.711 554.566 146.524 562.494 147.433 563.749C148.342 565.004 154.247 582.622 150.832 587.229C147.417 591.836 145.043 615.342 142.574 616.968C139.82 618.791 127.199 607.289 122.195 604.861C117.19 602.433 121.553 590.217 121.626 586.574C121.7 582.932 117.357 583.58 111.003 578.054C107.181 574.741 119.251 568.159 120.828 567.374C112.703 568.614 107.136 569.011 107.572 563.574C108.008 558.137 108.864 557.952 110.068 551.546C111.272 545.14 110.989 545.523 109.133 540.56C107.276 535.597 107.531 534.942 109.88 531.246C112.229 527.55 112.932 514.179 106.674 504.1C100.416 494.021 98.7174 492.128 97.7518 489.484C96.4645 485.817 97.2874 482.691 100.929 477.561C104.571 472.432 90.6658 455.338 87.9564 446.118C86.1515 440.096 86.7972 425.757 91.6346 418.731C99.0801 407.927 112.641 396.601 117.418 390.955C118.099 399.455 120.268 421.907 122.278 426.425C123.43 428.849 120.279 431.636 110.933 439.703Z" fill="white"/>
<path d="M276.28 603.093C275.227 596.045 271.786 585.245 270.453 578.889C269.121 572.533 275.098 573.533 272.885 568.526C270.672 563.519 263.273 556.15 262.695 552.967C267.233 542.748 272.317 535.181 270.069 530.798C267.822 526.415 253.414 519.564 250.23 510.419C236.9 508.001 229.811 507.439 229.811 507.439C241.267 505.488 248.822 502.77 248.748 501.513C247.884 492.232 241.828 476.84 241.078 474.964C235.059 476.597 231.556 482.632 230.372 484.265C229.112 473.675 230.802 469.772 228.627 465.403C226.451 461.034 197.479 475.867 197.674 496.793C197.757 505.479 196.459 525.48 199.421 526.586C202.383 527.692 203.796 538.771 204.846 543.935C199.289 540.101 191.602 530.261 191.602 530.261C190.592 540.611 191.905 557.561 193.312 559.416C194.718 561.271 200.437 565.753 198.187 571.341C195.938 576.929 194.66 581.199 193.55 583.183C192.44 585.168 193.456 591.294 194.132 593.12C195.592 597.105 186.261 603.784 186.302 611.14C186.261 617.718 191.611 617.725 192.383 623.918C192.985 628.735 189.182 632.992 190.807 636.452C192.361 639.342 193.206 642.559 193.275 645.839C193.344 649.12 192.633 652.37 191.202 655.322C188.539 660.944 188.202 667.389 190.263 673.257C192.474 680.664 203.389 692.821 203.389 692.821C203.389 692.821 194.578 698.67 196.861 700.313C199.143 701.957 203.805 712.348 203.805 712.348C203.805 712.348 224.656 706.327 222.939 702.197C221.221 698.068 217.786 688.28 218.285 685.567C218.783 682.854 221.84 679.813 220.04 672.152C220.04 672.152 214.571 669.824 199.008 669.332C199.008 669.332 203.247 666.453 217.961 664.88L218.511 657.596L203.713 650.75C203.713 650.75 205.011 650.762 207.063 650.891C214.235 654.683 223.153 655.529 223.713 649.915C224.691 648.38 225.329 646.653 225.585 644.851C225.841 643.049 225.709 641.213 225.198 639.466C223.67 633.174 223.493 626.63 224.677 620.265C225.041 617.987 222.28 615.162 222.955 612.724C223.859 610.294 223.934 607.634 223.169 605.157L228.463 606.624C229.945 603.711 227.081 600.04 226.336 597.329C224.31 590.054 228.115 588.871 225.682 583.148C223.25 577.426 218.321 573.395 220.157 566.214C221.994 559.032 228.574 545.156 224.147 529.971C230.261 552.114 226.287 555.564 228.847 563.465C231.408 571.366 235.326 572.719 237.801 576.43C239.04 586.649 239.312 594.329 239.312 594.329C244.75 594.01 248.154 600.831 248.582 602.672C250.253 609.91 251.093 617.314 251.084 624.743C251.175 633.269 277.419 610.1 276.28 603.093Z" fill="white"/>
<path d="M333.435 257.756C338.297 255.663 344.081 252.877 347.63 252.433C349.936 262.671 363.598 278.889 363.598 281.55C363.598 285.72 358.471 304.013 363.598 305.61C368.726 307.207 373.872 315.883 373.872 319.804C373.872 323.726 382.424 326.902 382.424 326.902C384.198 331.391 363.492 335.241 357.921 338.772C366.612 340.102 375.454 340.102 384.145 338.772C384.145 345.869 386.7 359.638 386.381 363.169C386.061 366.7 377.722 370.55 377.722 373.105C377.722 375.66 381.36 383.751 382.424 384.993C383.489 386.235 391.189 404.244 387.995 409.372C384.802 414.5 384.269 439.393 381.785 441.31C379.035 443.457 364.77 432.438 359.287 430.309C353.804 428.18 357.371 414.979 357.14 411.146C356.909 407.314 352.385 408.361 345.199 403.091C340.905 399.933 353.059 392.001 354.656 391.043C346.21 393.03 340.461 393.918 340.461 388.169C340.461 382.42 341.349 382.154 342.058 375.323C342.768 368.492 342.537 368.918 340.142 363.861C337.747 358.804 337.995 358.094 340.142 354.013C342.289 349.932 341.916 335.826 334.482 325.766C327.048 315.706 325.078 313.86 323.836 311.163C322.15 307.42 322.771 304.066 326.178 298.371C329.585 292.675 313.474 275.89 309.837 266.433C307.424 260.258 306.874 245.141 311.38 237.352C318.336 225.375 331.679 212.334 336.221 206C337.658 214.871 341.845 238.274 344.365 242.852C345.731 245.301 342.608 248.494 333.435 257.756Z" fill="white"/>
<path d="M416.683 727.133C417.294 717.978 423.423 686.32 423.423 686.32C412.978 686.027 410.416 681.742 410.416 681.742L402.848 697.452V674.601C402.848 670.61 406.533 662.626 404.996 661.473C403.459 660.319 398.236 650.633 398.236 650.633C398.236 650.633 407.144 657.774 407.144 654.295C407.144 650.816 403.459 643.73 406.238 637.157C409.016 630.584 406.238 626.024 410.83 624.029C415.422 622.033 421.906 627.178 421.591 620.037C421.275 612.896 414.22 596.911 414.22 593.487C414.22 590.063 407.459 591.198 407.459 591.198C407.459 591.198 412.978 588.067 414.515 584.35C416.053 580.633 407.144 556.098 407.144 549.817C407.144 543.537 405.922 524.696 405.922 524.696H389.722C389.722 524.696 402 522.993 401.705 518.415C401.409 513.838 406.001 499.867 401.389 499.299C396.777 498.732 352.847 494.722 348.846 495.015C344.845 495.308 348.55 523.56 348.846 533.265C349.141 542.969 357.458 562.946 358.069 564.667C358.68 566.388 368.83 566.663 368.83 566.663C368.83 566.663 360.829 568.658 360.533 575.818C360.237 582.977 368.83 585.229 370.052 599.218C371.274 613.207 372.516 628.331 368.2 638.604C363.883 648.876 372.516 669.438 373.127 673.393C373.738 677.348 392.836 672.825 392.836 672.825C392.836 672.825 373.127 681.669 373.127 685.954C373.127 690.238 382.646 698.771 379.572 707.651C376.497 716.532 379.276 731.912 379.276 731.912C379.276 731.912 409.923 731.674 416.683 727.133Z" fill="white"/>
<path d="M269.239 170.352C266.045 170.139 255.594 168.755 255.594 173.474C255.594 183.393 257.368 195.174 248 198.971C249.632 208.517 252.223 217.069 252.17 220.263C252.116 223.457 265.495 219.11 268.28 218.17C264.04 223.492 254.547 228.265 254.547 228.265C255.984 233.145 261.804 239.905 263.774 241.484C265.743 243.063 273.976 234.617 276.194 233.304C278.412 231.991 276.797 224.078 276.939 221.683C277.081 219.287 281.836 207.595 281.836 207.595C281.836 207.595 270.232 175.373 269.239 170.352Z" fill="white"/>
<path d="M403.961 68.1273C403.322 61.0301 400.518 50.0647 399.56 43.6417C398.602 37.2187 404.511 38.5672 402.594 33.4216C400.678 28.2761 393.723 20.5223 393.332 17.3108C398.46 7.35687 403.978 0.0998815 401.991 -4.38915C400.004 -8.87817 386.022 -16.5787 383.378 -25.8939C370.213 -29.1054 363.169 -30.0635 363.169 -30.0635C374.72 -31.341 382.42 -33.6122 382.42 -34.8719C382.101 -44.1871 376.955 -59.9075 376.317 -61.8416C370.213 -60.5463 366.363 -54.7443 365.085 -53.1652C364.446 -63.8111 366.363 -67.6081 364.446 -72.1149C362.53 -76.6216 332.757 -63.4917 331.71 -42.5902C331.284 -33.8961 328.818 -14.0237 331.71 -12.7284C334.602 -11.4332 335.365 -0.308175 336.111 4.90832C330.788 0.738673 323.69 -9.53466 323.69 -9.53466C322.076 0.738647 322.395 17.7544 323.69 19.6707C324.986 21.5869 330.433 26.413 327.86 31.8779C325.287 37.3428 323.761 41.4948 322.537 43.4288C321.313 45.3628 321.969 51.5197 322.537 53.3827C323.761 57.4459 314.056 63.5495 313.665 70.913C313.24 77.4602 318.58 77.7974 318.988 84.0252C319.29 88.8691 315.245 92.8968 316.664 96.4454C318.036 99.4197 318.683 102.677 318.55 105.95C318.417 109.223 317.509 112.417 315.901 115.271C312.915 120.734 312.201 127.153 313.914 133.138C315.688 140.644 325.873 153.437 325.873 153.437C325.873 153.437 316.735 158.76 318.917 160.534C321.1 162.308 325.145 172.865 325.145 172.865C325.145 172.865 346.313 168.075 344.84 163.87C343.368 159.664 340.511 149.675 341.167 146.978C341.824 144.281 345.053 141.46 343.705 133.688C343.705 133.688 338.382 131.062 322.874 129.643C322.874 129.643 327.274 127.035 342.055 126.325L343.03 119.068L328.658 111.385C328.658 111.385 329.954 111.385 331.994 111.705C338.932 115.927 347.786 117.276 348.673 111.705C349.738 110.225 350.476 108.536 350.837 106.749C351.198 104.963 351.174 103.119 350.766 101.343C349.61 94.9783 349.815 88.4412 351.37 82.1622C351.867 79.9088 349.276 76.8392 350.092 74.5326C351.137 72.154 351.368 69.4971 350.749 66.974L355.947 68.7483C357.598 65.9449 354.954 62.0946 354.368 59.3622C352.771 51.981 356.639 51.0229 354.546 45.1676C352.452 39.3124 347.768 35.0185 350.021 27.9567C352.275 20.8949 359.656 7.41008 356.125 -7.99101C360.933 14.4719 356.764 17.6834 358.857 25.7211C360.951 33.7587 364.784 35.3556 367.037 39.2059C367.676 49.4792 367.498 57.162 367.498 57.162C372.945 57.162 375.944 64.1706 376.263 66.0336C377.507 73.3568 377.911 80.7978 377.47 88.2126C377.133 96.8003 404.599 75.1891 403.961 68.1273Z" fill="white"/>
</mask>
<g mask="url(#mask0_403_173)">
<rect x="-80" y="-0.000488281" width="465" height="720" fill="#939960"/>
</g>
</g>
<defs>
<clipPath id="clip0_403_173">
<rect width="385" height="720" fill="white"/>
</clipPath>
</defs>
</svg>
