<svg width="385" height="720" viewBox="0 0 385 720" fill="none" xmlns="http://www.w3.org/2000/svg">
<g clip-path="url(#clip0_403_177)">
<mask id="mask0_403_177" style="mask-type:alpha" maskUnits="userSpaceOnUse" x="-62" y="-283" width="393" height="1114">
<path d="M-8.69009 -151.5C-6.91577 -144.527 -9.25787 -143.587 -9.25787 -137.696C-9.25787 -131.805 -2.55094 -124.105 1.1219 -123.377C5.23406 -122.257 9.27998 -120.906 13.2405 -119.332C13.2405 -119.332 1.1219 -121.106 0.820265 -115.659C0.51863 -110.212 -6.73834 -99.4949 -10.0563 -93.9945C-13.3743 -88.4942 -12.6823 -75.6303 -14.8825 -71.2123C-17.1581 -67.2319 -19.7323 -63.4299 -22.583 -59.8389L-16.3551 -51.3931C-16.3551 -51.3931 -6.0641 -77.4579 -1.59281 -80.7759C2.87847 -84.0938 2.82525 -71.5849 2.82525 -69.7573C2.82525 -67.9298 24.1171 -70.1122 24.1171 -70.1122C24.1171 -70.1122 4.29793 -65.7119 2.82525 -62.4117C1.35256 -59.1114 1.65419 -48.0751 0.731547 -44.0474C-0.191099 -40.0197 15.973 -41.4747 15.973 -41.4747L27.3641 -52.1206L20.3733 -37.8019L30.3449 -21.6378C30.3449 -21.6378 22.946 -33.0289 15.973 -33.4015C8.99988 -33.7741 1.95583 -37.4292 0.908979 -35.6017C-0.137869 -33.7741 -0.91857 -10.3354 3.85435 -3.2381C8.62727 3.85918 8.25466 16.9536 7.15458 20.6265C6.05451 24.2993 18.9006 28.3448 18.9006 28.3448C18.9006 28.3448 8.25466 27.2447 7.89979 32.0176C7.54493 36.7905 2.75427 56.2548 13.4002 56.2548C24.0461 56.2548 24.6139 61.702 24.9865 68.6751C25.3591 75.6481 23.5138 84.1116 23.5138 91.4573C23.5138 98.803 24.9865 106.876 24.9865 110.975C24.9865 115.074 26.7608 124.069 20.8168 135.336C14.8729 146.603 26.6898 162.253 25.714 167.647C24.7381 173.041 42.8539 172.419 42.8539 172.419C43.3329 165.571 44.3266 147.934 42.8539 144.03C47.2542 160.194 50.6786 176.838 52.6481 184.183C63.9151 190.074 86.3602 178.86 86.3602 178.86C85.8634 167.593 84.8875 156.823 86.3602 148.502C87.8329 140.18 76.566 111.241 76.566 111.241C76.566 111.241 67.6944 112.235 65.299 107.337C62.9037 102.44 60.5084 81.3792 60.5084 81.3792C52.6836 82.8519 38.9681 80.8824 38.9681 80.8824C54.1563 75.9853 61.0052 77.9548 61.0052 74.5126C58.5211 63.7425 42.2861 48.2172 42.7652 34.9098C43.2442 21.6024 44.7169 22.1702 45.2137 14.5938C45.7105 7.01747 43.2442 -14.5405 47.1655 -16.4923C51.0867 -18.444 48.1414 -36.0098 46.6864 -39.5584C45.2315 -43.1071 39.3407 -45.4314 39.3407 -45.4314L46.1896 -53.753C46.1896 -53.753 46.1896 -72.3656 48.6382 -81.663C51.0867 -90.9605 53.5708 -116.44 52.7368 -122.898C49.1882 -127.44 43.3862 -128.984 40.0327 -142.522C38.5246 -148.732 36.9986 -164.879 36.9986 -164.879L15.9552 -169.279H37.4422C34.5975 -177.16 32.9237 -185.416 32.4741 -193.782C31.9418 -212.945 30.6998 -212.466 28.1093 -216.44C24.5607 -221.852 30.4869 -236.792 29.2271 -247.101C28.0383 -256.948 28.0383 -265.287 23.9929 -272.598C20.9943 -277.92 8.5563 -278.825 -1.14923 -281.682C-8.35297 -283.829 -13.463 -283.811 -12.3984 -278.133C-10.9612 -270.593 -2.03639 -264.932 -0.794366 -251.838C-0.510475 -248.893 -2.56869 -239.116 -2.74612 -236.153C-2.92355 -233.19 9.95801 -229.428 7.47396 -229.056C3.00268 -228.257 -5.656 -227.849 -6.41896 -226.98C-9.84339 -223.059 -1.77024 -212.679 -1.77024 -209.237C-1.77024 -205.794 -6.25927 -195.326 -6.91577 -192.753C-10.2692 -178.275 -3.20744 -159.485 -3.20744 -159.485L-8.69009 -151.5Z" fill="#939960"/>
<path d="M82.6225 502.632C70.3087 510.386 59.9112 520.376 60.1773 525.876C60.4435 531.376 65.7487 536.398 63.2824 540.07C60.8161 543.743 57.1787 548.321 59.095 549.528C61.0112 550.734 66.1922 554.425 66.1922 554.425L71.0361 565.443C80.7594 561.895 86.2243 562.64 86.2243 562.64L72.0298 572.984C72.2249 578.573 71.391 593.265 73.5557 590.958C90.2698 579.478 104.73 571.015 103.098 569.329C98.0235 565.78 95.7524 549.261 96.0008 544.489C96.2492 539.716 100.419 539.059 99.3188 533.346C98.2187 527.633 94.3862 528.626 92.4699 523.552C90.5537 518.477 90.4827 506.536 90.1278 503.644C89.773 500.752 82.6225 502.632 82.6225 502.632Z" fill="#939960"/>
<path d="M224.995 390.316C218.907 385.376 222.288 379.217 222.616 372.054C222.944 364.891 230.821 351.026 230.378 337.473C230.246 333.62 220.286 336.189 221.73 335.283C225.176 333.142 232.134 328.103 230.525 327.049C228.917 325.995 224.29 318.009 224.29 318.009V306.844C214.756 306.152 210.407 303.55 210.407 303.55L226.275 300.125C228.195 295.3 234.48 283.148 231.74 284.3C213.295 287.742 197.903 289.455 198.641 291.513C201.562 296.453 197.312 311.274 195.244 315.308C193.177 319.343 189.468 318.239 188.254 323.542C187.039 328.844 190.633 329.421 190.354 334.443C190.075 339.466 181.969 357.925 181.181 360.511C180.393 363.096 187.138 364.183 187.138 364.183C190.19 364.842 192.061 364.397 193.538 362.964C193.538 363.771 193.144 367.262 192.799 369.798C191.618 378.394 189.091 379.382 187.039 387.912C187.039 388.933 201.808 394.499 201.808 394.499C201.808 394.499 189.238 393.248 184.824 394.499C180.41 395.751 179.048 408.578 170.564 429.377C169.875 430.743 165.116 411.987 163.081 405.861C162.064 402.107 151.2 415.396 151.2 415.396C151.2 415.396 159.012 399.719 159.405 398.698C159.799 397.677 157.403 380.222 150.675 376.813C150.675 375.792 147.475 367.229 147.787 359.16C148.066 352.277 151.381 347.073 148.23 346.118C144.768 345.081 130.458 352.079 127.833 357.365C124.42 364.199 122.45 373.849 124.124 380.189L129.211 390.3L126.947 412.827L133.297 422.378C133.297 422.378 128.374 434.185 131.033 440.492C133.691 446.799 143.718 450.027 143.718 450.027C143.718 450.027 141.896 462.311 143.718 466.84C145.539 471.368 146.425 488.247 142.356 500.482C138.286 512.717 144.161 506.838 147.787 516.389C151.414 525.94 150.954 548.649 148.247 556.833C145.539 565.017 149.149 572.74 146.425 585.453C143.701 598.166 136.464 597.276 148.247 620.907C161.818 617.729 166.297 610.006 169.071 590.92C169.071 590.92 171.335 607.733 170.433 615.456C169.53 623.179 156.845 629.552 150.052 632.269C150.052 632.269 145.129 652.722 144.62 662.273C144.111 671.824 151.857 686.348 151.857 694.532C151.857 702.716 161.818 703.161 161.818 716.351C161.752 720.592 160.482 724.725 158.157 728.266C155.831 731.808 152.547 734.609 148.69 736.342C146.885 736.803 140.994 742.254 140.994 742.254C140.994 742.254 144.62 756.333 140.994 760.368C137.367 764.402 131.935 777.181 131.033 791.656C138.011 789.758 145.155 788.539 152.366 788.016C144.983 792.617 137.862 797.625 131.033 803.018C132.395 809.374 134.659 813.919 137.367 829.366C137.367 829.366 155.024 834.306 153.678 824.821C152.333 815.336 150.954 812.091 153.678 808.452C156.402 804.813 152.759 801.635 155.024 794.373C157.288 787.111 169.973 770.281 172.238 756.646C172.238 756.646 174.962 782.088 173.6 794.373C181.132 794.249 188.606 793.023 195.786 790.733C195.786 786.189 202.136 775.271 202.136 768.799C202.136 762.328 195.786 754.835 195.343 746.651C195.343 746.651 203.548 743.917 205.304 736.655C207.408 725.695 207.408 714.433 205.304 703.474C202.924 692.902 209.373 682.346 209.373 678.246C209.373 674.145 203.597 664.282 202.924 660.527C201.406 653.233 200.495 645.824 200.2 638.379C200.2 638.379 202.58 646.892 211.687 665.632C211.687 665.632 217.808 653.71 220.187 650.301C222.567 646.892 218.546 622.685 218.825 615.539C218.136 612.476 195.72 614.847 187.236 610.088C193.341 607.354 199.806 604.967 199.806 604.967C199.806 604.967 203.876 603.32 202.859 584.514C203.531 590.311 211.063 605.658 219.843 610.088C220.187 605.312 224.257 601.212 224.257 601.212C223.813 597.405 222.412 593.773 220.187 590.657C216.79 586.556 222.55 584.514 223.239 581.451C223.929 578.389 222.288 550.048 216.511 541.815C210.735 533.581 205.976 517.954 204.286 517.624C202.596 517.295 195.458 513.195 196.475 506.097C197.493 499 203.942 489.729 206.321 483.949C208.7 478.169 214.805 457.7 214.805 449.516C214.805 441.332 213.164 438.944 208.356 436.902C203.548 434.86 208.356 431.106 209.045 426.33C209.045 426.33 218.202 427.022 222.961 427.022L224.601 404.857C224.601 404.857 231.083 395.257 224.995 390.316Z" fill="#939960"/>
<path d="M202.401 -122.52C196.879 -127.214 200.087 -132.875 200.53 -139.506C200.974 -146.137 208.461 -158.907 208.291 -171.485C208.238 -175.066 199.015 -172.855 200.362 -173.67C203.559 -175.599 210.074 -180.156 208.611 -181.163C207.148 -182.17 203.025 -189.668 203.025 -189.668L203.221 -200.037C194.434 -200.846 190.488 -203.338 190.488 -203.338L205.231 -206.317C207.085 -210.749 213.09 -221.94 210.545 -220.918C193.49 -218.044 179.277 -216.722 179.921 -214.798C182.525 -210.159 178.333 -196.47 176.372 -192.759C174.411 -189.048 170.983 -190.138 169.771 -185.235C168.559 -180.332 171.875 -179.734 171.529 -175.074C171.184 -170.415 163.39 -153.444 162.604 -151.072C161.818 -148.7 168.013 -147.558 168.013 -147.558C170.813 -146.893 172.545 -147.273 173.931 -148.578C173.916 -147.828 173.507 -144.577 173.145 -142.244C171.905 -134.281 169.544 -133.408 167.519 -125.522C167.501 -124.574 181.011 -119.147 181.011 -119.147C181.011 -119.147 169.451 -120.529 165.362 -119.444C161.272 -118.359 159.791 -106.469 151.593 -87.3028C150.949 -86.0453 146.895 -103.547 145.128 -109.272C144.257 -112.776 133.998 -100.625 133.998 -100.625C133.998 -100.625 141.486 -115.047 141.852 -115.989C142.218 -116.93 140.316 -133.06 134.101 -136.345C134.119 -137.293 131.321 -145.301 131.751 -152.789C132.114 -159.177 135.275 -163.952 132.389 -164.894C129.217 -165.918 115.894 -159.669 113.382 -154.805C110.132 -148.533 108.207 -139.529 109.638 -133.673L114.147 -124.194L111.664 -103.313L117.332 -94.3323C117.332 -94.3323 112.587 -83.438 114.926 -77.5496C117.265 -71.6613 126.446 -68.4733 126.446 -68.4733C126.446 -68.4733 124.566 -57.0963 126.149 -52.8439C127.732 -48.5915 128.282 -32.9155 124.302 -21.6396C120.322 -10.3637 125.868 -15.7047 129.041 -6.77141C132.214 2.16188 131.391 23.2428 128.737 30.7957C126.083 38.3487 129.288 45.5845 126.569 57.3433C123.851 69.1021 117.183 68.1495 127.608 90.3005C140.183 87.5865 144.432 80.4921 147.338 62.8164C147.338 62.8164 149.129 78.4701 148.161 85.6267C147.193 92.7833 135.393 98.4799 129.086 100.884C129.086 100.884 124.19 119.792 123.538 128.653C122.886 137.514 129.796 151.138 129.652 158.739C129.508 166.339 138.678 166.926 138.445 179.176C138.311 183.113 137.068 186.929 134.863 190.178C132.658 193.426 129.582 195.97 125.997 197.512C124.311 197.908 118.802 202.868 118.802 202.868C118.802 202.868 121.88 216.006 118.483 219.69C115.086 223.373 109.841 235.145 108.739 248.572C115.202 246.932 121.806 245.925 128.459 245.565C121.575 249.707 114.925 254.234 108.539 259.124C109.682 265.051 111.688 269.311 113.926 283.704C113.926 283.704 130.108 288.6 129.02 279.768C127.932 270.935 126.749 267.899 129.308 264.567C131.867 261.234 128.597 258.219 130.811 251.515C133.026 244.81 145.01 229.403 147.337 216.78C147.337 216.78 149.383 240.47 147.927 251.84C154.869 251.855 161.777 250.847 168.433 248.848C168.513 244.627 174.541 234.614 174.655 228.588C174.77 222.563 169.065 215.509 168.786 207.9C168.786 207.9 176.394 205.505 178.155 198.792C180.279 188.65 180.477 178.192 178.74 167.977C176.733 158.117 182.862 148.427 182.934 144.619C183.006 140.811 177.858 131.55 177.304 128.051C176.026 121.252 175.317 114.355 175.184 107.435C175.184 107.435 177.227 115.383 185.288 132.961C185.288 132.961 191.123 121.98 193.375 118.856C195.627 115.732 192.349 93.1963 192.732 86.5488C192.167 83.6925 171.471 85.5029 163.738 80.9349C169.411 78.503 175.395 76.3982 175.395 76.3982C175.395 76.3982 179.189 74.9404 178.583 57.4581C179.1 62.8529 185.77 77.2376 193.781 81.5049C194.168 77.0757 198.004 73.3544 198.004 73.3544C197.654 69.8053 196.423 66.4035 194.426 63.465C191.368 59.6129 196.726 57.8023 197.415 54.9699C198.104 52.1374 197.021 25.5129 191.858 17.8116C186.696 10.1104 182.572 -4.53195 181.005 -4.86765C179.439 -5.20334 172.949 -9.13576 174.011 -15.7092C175.074 -22.2827 181.194 -30.7796 183.474 -36.1061C185.753 -41.4326 191.871 -60.1948 192.015 -67.7954C192.16 -75.396 190.69 -77.6421 186.296 -79.6225C181.902 -81.6029 186.398 -85.0056 187.102 -89.4135C187.102 -89.4135 195.542 -88.6261 199.926 -88.5429L201.828 -109.083C201.828 -109.083 207.924 -117.841 202.401 -122.52Z" fill="#939960"/>
<path d="M-19.7617 477.939C-17.9874 484.912 -20.3295 485.871 -20.3295 491.744C-20.3295 497.617 -13.6226 505.335 -9.94971 506.08C-5.83605 507.188 -1.78979 508.533 2.16888 510.108C2.16888 510.108 -9.94971 508.333 -10.2513 513.781C-10.553 519.228 -17.8809 529.945 -21.1102 535.463C-24.3394 540.981 -23.7539 553.898 -25.9541 558.227C-28.2351 562.214 -30.8152 566.022 -33.6724 569.618L-27.4268 578.064C-27.4268 578.064 -17.1357 551.982 -12.7354 548.681C-8.33509 545.381 -8.31734 557.855 -8.31734 559.7C-8.31734 561.545 12.9745 559.327 12.9745 559.327C12.9745 559.327 -6.8624 563.728 -8.31734 567.046C-9.77228 570.364 -9.41742 581.364 -10.3401 585.41C-11.2627 589.455 4.90134 587.983 4.90134 587.983L16.2747 577.337L9.30165 591.673L19.2201 607.82C19.2201 607.82 11.8744 596.446 4.90134 596.074C-2.07174 595.701 -9.06255 592.028 -10.1626 593.873C-11.2627 595.719 -11.937 619.211 -7.21726 626.184C-2.49757 633.157 -2.81695 646.393 -3.91703 650.066C-5.01711 653.739 7.82897 657.767 7.82897 657.767C7.82897 657.767 -2.81695 656.667 -3.18956 661.439C-3.56216 666.212 -8.31734 685.677 2.32857 685.677C12.9745 685.677 13.5423 691.124 13.8971 698.097C14.252 705.07 12.4422 713.516 12.4422 720.861C12.4422 728.207 13.8971 736.28 13.8971 740.379C13.8971 744.478 15.6715 753.473 9.74523 764.74C3.819 776.007 15.6182 791.657 14.6424 796.98C13.6665 802.303 31.7823 801.877 31.7823 801.877C32.2613 795.01 33.255 777.391 31.7823 773.488C36.1826 789.652 39.607 806.295 41.5765 813.641C52.8257 819.514 75.2886 808.318 75.2886 808.318C74.7918 797.068 73.8159 786.281 75.2886 777.959C76.7613 769.638 65.4943 740.698 65.4943 740.698C65.4943 740.698 56.6227 741.674 54.2274 736.777C51.8321 731.88 49.3303 710.819 49.3303 710.819C41.5055 712.291 27.7901 710.34 27.7901 710.34C42.9605 705.443 49.8271 707.394 49.8271 703.97C47.3785 693.2 31.1435 677.586 31.6403 664.367C32.1371 651.148 33.5921 651.61 34.0889 644.033C34.5857 636.457 32.1194 614.899 36.0406 612.947C39.9619 610.996 37.0165 593.43 35.5616 589.881C34.1066 586.333 28.2869 584.061 28.2869 584.061L35.1357 575.74C35.1357 575.74 35.1357 557.127 37.5843 547.83C40.0329 538.532 42.5169 513.053 41.6652 506.595C38.1166 502.035 32.3323 500.491 28.9788 486.953C27.4529 480.778 25.927 464.579 25.927 464.579L4.8836 460.161H26.4238C23.5781 452.286 21.9042 444.036 21.4557 435.675C20.9234 416.495 19.6814 416.974 17.0909 412.999C13.5423 407.676 19.4685 392.666 18.2087 382.357C17.0199 372.492 17.0199 364.152 12.9745 356.86C9.97589 351.537 -2.47983 350.632 -12.1676 347.758C-19.3713 345.628 -24.4814 345.646 -23.4168 351.306C-21.9796 358.847 -13.0548 364.489 -11.8128 377.584C-11.5289 380.547 -13.5871 390.323 -13.7645 393.269C-13.9419 396.214 -1.06038 400.011 -3.54442 400.455C-8.01571 401.253 -16.6744 401.661 -17.4373 402.531C-20.8618 406.452 -12.7886 416.832 -12.7886 420.274C-12.7886 423.716 -17.3309 434.202 -17.9341 436.775C-21.2876 451.254 -14.2258 470.044 -14.2258 470.044L-19.7617 477.939Z" fill="#939960"/>
<path d="M94.7703 437.857C95.3381 428.986 100.856 398.308 100.856 398.308C91.4523 398.024 89.1457 393.89 89.1457 393.89L82.3323 409.095V386.97C82.3323 383.102 85.6503 375.348 84.2663 374.248C82.8824 373.148 78.2514 363.726 78.2514 363.726C78.2514 363.726 86.2713 370.646 86.2713 367.275C86.2713 363.904 82.9534 357.037 85.4374 350.685C87.9215 344.333 85.4374 339.897 89.5893 337.963C93.7412 336.029 99.5432 340.979 99.2061 334.13C98.869 327.282 92.5702 311.739 92.5702 308.421C92.5702 305.103 86.4842 306.203 86.4842 306.203C86.4842 306.203 91.4523 303.151 92.8363 299.567C94.2203 295.983 86.2004 272.171 86.2004 266.085C86.2004 259.999 85.1003 241.759 85.1003 241.759H70.4444C70.4444 241.759 81.4984 240.091 81.2323 235.673C80.9661 231.255 85.1003 217.682 80.9484 217.132C76.7965 216.582 37.2469 212.714 33.645 212.98C30.0432 213.246 33.3789 240.642 33.645 250.045C33.9112 259.449 41.3988 278.878 41.9488 280.475C42.4989 282.072 51.6366 282.427 51.6366 282.427C51.6366 282.427 44.4506 284.361 44.1845 291.298C43.9183 298.236 51.6366 300.436 52.7544 313.974C53.8723 327.512 54.9723 342.186 51.0866 352.157C47.2008 362.129 54.9723 382.019 55.5224 385.87C56.0724 389.72 73.2656 385.302 73.2656 385.302C73.2656 385.302 55.5224 393.889 55.5224 398.024C55.5224 402.158 64.0923 410.444 61.3244 419.049C58.5565 427.655 61.0583 442.559 61.0583 442.559C61.0583 442.559 88.6844 442.293 94.7703 437.857Z" fill="#939960"/>
<path d="M90.3714 -21.5435C87.1776 -21.7387 76.7269 -23.1227 76.7269 -18.403C76.7269 -8.50228 78.5012 3.29694 69.1328 7.09399C70.7652 16.6221 73.3557 25.192 73.3025 28.3858C73.2492 31.5796 86.6276 27.2148 89.4133 26.2744C85.1727 31.5973 75.6801 36.3702 75.6801 36.3702C77.1173 41.2674 82.9193 48.0275 84.9065 49.5889C86.8937 51.1503 95.0911 42.7223 97.3267 41.4271C99.5624 40.1318 97.9123 32.1829 98.072 29.8053C98.2316 27.4277 102.792 15.7172 102.792 15.7172C102.792 15.7172 91.3118 -16.5222 90.3714 -21.5435Z" fill="#939960"/>
<path d="M252.751 440.813C252.751 444.362 255.643 455.682 253.656 461.164C260.469 463.134 266.821 464.447 266.821 464.447C259.813 465.991 252.627 464.89 252.432 465.778C251.03 469.717 251.58 477.63 251.952 480.788C252.272 483.503 250.302 486.519 258.163 484.869C266.023 483.219 286.339 477.328 290.721 475.998C292.034 469.841 284.174 461.306 284.174 461.306C278.603 457.474 279.064 454.333 277.858 450.66C283.66 446.917 281.619 440.298 280.838 434.869C279.956 429.794 278.729 424.784 277.166 419.876C277.166 419.876 265.189 420.657 263.113 430.078C262.634 432.207 252.751 440.813 252.751 440.813Z" fill="#939960"/>
<path d="M279.77 579.119C292.084 571.365 302.481 561.375 302.215 555.893C301.949 550.41 296.644 545.371 299.11 541.698C301.577 538.025 305.214 533.448 303.298 532.259C301.381 531.07 296.2 527.362 296.2 527.362L291.356 516.343C281.633 519.892 276.168 519.147 276.168 519.147L290.363 508.802C290.168 503.213 291.002 488.504 288.837 490.811C272.123 502.308 257.662 510.754 259.294 512.457C264.369 516.006 266.64 532.507 266.392 537.298C266.143 542.089 261.974 542.727 263.074 548.423C264.174 554.118 268.006 553.16 269.923 558.217C271.839 563.274 271.945 575.109 272.3 578.001C272.655 580.893 279.77 579.119 279.77 579.119Z" fill="#939960"/>
<path d="M328.139 -97.4721C327.867 -104.591 325.585 -115.664 324.943 -122.126C324.3 -128.588 330.136 -126.952 328.473 -132.168C326.81 -137.383 320.245 -145.504 320.012 -148.731C325.621 -158.404 331.489 -165.399 329.724 -169.98C327.959 -174.561 314.3 -182.941 312.188 -192.406C299.196 -196.259 292.207 -197.561 292.207 -197.561C303.807 -198.271 311.61 -200.162 311.671 -201.421C311.809 -210.74 307.439 -226.694 306.895 -228.639C300.736 -227.662 296.606 -222.038 295.253 -220.541C295.137 -231.206 297.237 -234.904 295.543 -239.482C293.848 -244.059 263.469 -232.421 261.399 -211.596C260.549 -202.951 257.111 -183.205 259.937 -181.788C262.763 -180.37 262.98 -169.203 263.468 -163.957C258.355 -168.364 251.77 -178.973 251.77 -178.973C249.654 -168.791 249.14 -151.798 250.339 -149.803C251.538 -147.808 256.743 -142.738 253.907 -137.424C251.07 -132.109 249.341 -128.001 248.024 -126.147C246.708 -124.293 247.061 -118.094 247.537 -116.205C248.56 -112.087 238.568 -106.466 237.817 -99.1308C237.07 -92.5945 242.389 -92.0139 242.491 -85.7735C242.555 -80.9207 238.317 -77.096 239.561 -73.4821C240.792 -70.4324 241.279 -67.1336 240.982 -63.8584C240.686 -60.5832 239.614 -57.4256 237.856 -54.6465C234.605 -49.3434 233.577 -42.9718 234.997 -36.9156C236.4 -29.3146 245.947 -16.0559 245.947 -16.0559C245.947 -16.0559 236.559 -11.187 238.652 -9.30792C240.745 -7.42882 244.264 3.40249 244.264 3.40249C244.264 3.40249 265.641 -0.34548 264.343 -4.67261C263.045 -8.99975 260.75 -19.0605 261.625 -21.6823C262.499 -24.304 265.776 -27.0034 264.809 -34.8139C264.809 -34.8139 259.622 -37.7152 244.202 -39.8749C244.202 -39.8749 248.725 -42.2822 263.522 -42.2671L264.763 -49.4542L250.786 -57.8495C250.786 -57.8495 252.075 -57.6974 254.101 -57.3494C260.824 -52.8094 269.6 -51.0111 270.759 -56.5323C271.896 -57.9539 272.716 -59.602 273.164 -61.3662C273.612 -63.1304 273.678 -64.9699 273.357 -66.7616C272.518 -73.1691 273.044 -79.6815 274.898 -85.8717C275.505 -88.0981 273.068 -91.2909 273.996 -93.5547C275.156 -95.873 275.517 -98.5099 275.021 -101.054L280.127 -99.0275C281.913 -101.764 279.461 -105.74 279.01 -108.497C277.777 -115.948 281.687 -116.716 279.883 -122.666C278.079 -128.617 273.61 -133.135 276.207 -140.078C278.804 -147.021 286.836 -160.128 284.064 -175.684C287.766 -153.012 283.445 -150.009 285.142 -141.878C286.839 -133.748 290.589 -131.965 292.651 -128.009C292.786 -117.717 292.232 -110.052 292.232 -110.052C297.673 -109.785 300.325 -102.638 300.552 -100.761C301.437 -93.3863 301.477 -85.9342 300.671 -78.55C299.938 -70.13 328.43 -90.3521 328.139 -97.4721Z" fill="#939960"/>
<path d="M17.5447 280.968C16.143 275.645 17.0834 258.434 16.143 241.294C15.2026 224.154 7.75051 228.075 7.75051 228.075C7.75051 228.075 7.75051 223.675 4.94708 210.935C2.14366 198.196 -2.98413 197.22 -6.49728 191.844C-10.0104 186.467 -8.55549 150.857 -11.146 150.857C-10.7372 148.316 -10.6834 145.73 -10.9863 143.174C-12.7606 134.728 -14.5349 128.855 -11.3412 124.828C-7.62369 119.884 -5.91816 113.715 -6.56825 107.563C-7.04732 99.8452 -14.4995 85.5264 -14.4995 85.5264C-14.4995 85.5264 -5.04234 81.8536 -6.78117 79.6534C-8.52 77.4533 -10.6314 66.417 -10.6314 66.417C-10.6314 66.417 -31.3023 67.5348 -30.6103 71.9351C-29.9183 76.3354 -28.836 86.6265 -29.9006 89.1993C-30.9651 91.772 -34.4606 93.9722 -34.4606 101.85C-34.4606 101.85 -29.9005 105.399 -15.5463 109.391C-15.5463 109.391 -20.1063 111.165 -34.1057 109.391L-36.2171 116.364L-23.9566 126.478C-29.0392 125.111 -33.9681 123.227 -38.6657 120.853C-40.7771 120.108 -46.7211 124.899 -46.3662 132.599C-46.0114 140.3 -49.5245 154.264 -57.2428 166.027C-58.6288 169.032 -59.6819 172.18 -60.3834 175.413C-62.8142 184.746 -61.7673 199.562 -59.993 205.577C-58.1122 211.947 -44.929 216.72 -44.929 216.72C-44.929 216.72 -52.9844 224.189 -50.6423 228.111C-48.3002 232.032 -45.692 244.275 -45.692 244.275C-38.0269 244.275 -30.0957 244.275 -27.2923 247.202C-24.4889 250.13 -24.9502 255.524 -26.3874 259.357C-28.2637 262.954 -30.3985 266.412 -32.7749 269.701C-12.1574 268.246 -8.89261 269.701 -8.89261 269.701C-8.89261 269.701 -34.2299 275.521 -32.7749 279.069C-31.3023 285.918 -24.7018 297.717 -24.7018 297.717C-24.7018 297.717 -5.48592 306.802 2.33883 321.404C6.49074 329.158 17.5447 301.124 17.5447 301.124C17.5447 301.124 18.9465 286.344 17.5447 280.968Z" fill="#939960"/>
<path d="M262.827 228.037C267.542 225.981 273.153 223.23 276.595 222.812C278.832 232.844 292.084 248.78 292.084 251.375C292.084 255.468 287.093 273.425 292.084 275.01C297.076 276.595 302.049 285.077 302.049 288.857C302.049 292.636 310.345 295.824 310.345 295.824C312.066 300.247 291.981 304.027 286.577 307.493C295.002 308.788 303.572 308.788 311.997 307.493C311.997 314.46 314.493 327.958 314.183 331.424C313.873 334.89 305.784 338.669 305.784 341.195C305.784 343.72 309.312 351.645 310.345 352.847C311.377 354.048 318.847 371.744 315.732 376.795C312.617 381.846 312.135 406.264 309.725 408.145C307.058 410.235 293.22 399.437 287.902 397.33C282.584 395.222 286.044 382.299 285.803 378.537C285.562 374.775 281.207 375.785 274.237 370.629C270.072 367.529 281.861 359.744 283.41 358.803C275.201 360.754 269.642 361.625 269.642 355.982C269.642 350.339 270.502 350.06 271.191 343.372C271.879 336.684 271.656 337.084 269.332 332.12C267.009 327.157 267.25 326.443 269.332 322.454C271.415 318.466 271.053 304.602 263.842 294.726C256.631 284.851 254.703 283.039 253.516 280.392C251.881 276.717 252.483 273.425 255.787 267.834C259.092 262.244 243.465 245.767 239.919 236.571C237.596 230.51 237.062 215.671 241.434 208.025C248.163 196.268 261.123 183.467 265.529 177.231C266.923 185.94 270.984 208.913 273.428 213.424C274.736 215.793 271.673 219.015 262.827 228.037Z" fill="#939960"/>
</mask>
<g mask="url(#mask0_403_177)">
<rect y="-0.000488281" width="465" height="720" fill="#939960"/>
</g>
</g>
<defs>
<clipPath id="clip0_403_177">
<rect width="385" height="720" fill="white"/>
</clipPath>
</defs>
</svg>
