<svg xmlns="http://www.w3.org/2000/svg" xmlns:xlink="http://www.w3.org/1999/xlink" viewBox="0 0 798.75 145.35">
  <defs>
    <style>
      .cls-1 {
        fill: none;
      }

      .cls-2 {
        clip-path: url(#clip-path);
      }

      .cls-3 {
        fill: #fffaf1;
      }
    </style>
    <clipPath id="clip-path" transform="translate(0 0)">
      <rect class="cls-1" width="798.75" height="145.35"/>
    </clipPath>
  </defs>
  <g id="Livello_2" data-name="Livello 2">
    <g id="Livello_1-2" data-name="Livello 1">
      <g id="bianco">
        <g class="cls-2">
          <g class="cls-2">
            <path class="cls-3" d="M91,65.6c0-24.2-9.62-36.85-25.85-36.85-15.4,0-30.52,11.82-31.34,42.35v71.22H0V3.17H33.83V26.55C41.25,9.5,56.92.15,74.8.15,92.12.15,109.17,7,118.25,26.27,129.25,4,148.77.15,163.9.15c36,0,51.7,25,51.7,65.17v77H181.77V65.6c0-24.2-9.62-36.85-25.85-36.85-15.4,0-30.52,11.82-31.35,42.35v71.22H91Z" transform="translate(0 0)"/>
            <path class="cls-3" d="M317.9.15c40.7,0,75.62,32.72,75.62,72.6,0,40.15-34.92,72.6-75.62,72.6-40.15,0-75.35-32.18-75.35-72.6,0-40.15,35.2-72.6,75.35-72.6m0,116.32c23.65,0,41.52-19.25,41.52-43.72,0-24.2-17.87-43.73-41.52-43.73-23.38,0-41.25,19.25-41.25,43.73s17.87,43.72,41.25,43.72" transform="translate(0 0)"/>
            <path class="cls-3" d="M455.67,34C460.34,10.32,478.77.15,493.62.15c4.67,0,7.42.82,11.55,1.92V35.35a49.78,49.78,0,0,0-15.95-2.75c-12.38,0-33,6.87-33,45.37v64.35H422.4V3.17h33.27Z" transform="translate(0 0)"/>
            <path class="cls-3" d="M742,0H716.65c0,30.34,17.44,52.77,23.61,58.94h-.52C692.92,58.94,683,13.83,683,0H657.65c0,30.34,17.44,52.77,23.61,58.94h-.52C633.92,58.94,624,13.83,624,0H598.64c0,30.34,17.44,52.77,23.61,58.94h-75.5v26h75.5c-6.17,6.17-23.61,28.6-23.61,58.94H624c0-13.83,9.94-58.94,56.76-58.94h.52c-6.17,6.17-23.61,28.6-23.61,58.94H683c0-13.83,9.93-58.94,56.75-58.94h.52c-6.17,6.17-23.61,28.6-23.61,58.94H742c0-13.83,9.94-58.94,56.76-58.94v-26C751.93,58.94,742,13.83,742,0" transform="translate(0 0)"/>
          </g>
        </g>
      </g>
    </g>
  </g>
</svg>
