<svg width="450" height="720" viewBox="0 0 450 720" fill="none" xmlns="http://www.w3.org/2000/svg">
<mask id="mask0_412_386" style="mask-type:alpha" maskUnits="userSpaceOnUse" x="0" y="0" width="450" height="720">
<rect width="450" height="720" fill="#E5B76E"/>
</mask>
<g mask="url(#mask0_412_386)">
<path d="M348.675 153.623C351.253 146.609 359.922 137.733 362.392 133.73C364.863 129.728 372.92 113.683 372.309 109.785C371.698 105.886 364.464 108.617 360.109 110.95C355.754 113.283 360.622 100.354 362.499 95.957C364.376 91.5605 359.573 75.5749 361.29 70.9001C363.006 66.2253 383.985 50.9634 388.783 49.7993C393.581 48.6351 395.412 43.8762 395.887 34.5545C396.363 25.2327 403.537 12.8064 407.004 6.38629C410.472 -0.0338375 402.086 -7.88611 405.649 -19.8801C409.212 -31.8741 397.863 -19.5166 392.725 -15.9937C387.588 -12.4709 373.593 -8.49859 366.24 -4.53642C358.888 -0.57426 363.557 11.8929 362.772 16.2322C361.988 20.5715 356.895 19.9068 352.584 22.9514C348.274 25.996 351.837 28.3505 349.96 32.7471C348.082 37.1437 327.293 45.6061 324.632 52.9253C321.972 60.2445 321.745 78.0491 318.778 83.9035C315.812 89.758 319.595 103.026 325.17 112.219C330.745 121.412 335.882 132.238 335.261 135.221C334.639 138.204 345.575 151.507 348.675 153.623Z" fill="#E5B76E"/>
<path d="M299.654 -128.101C292.106 -118.764 285.747 -108.151 287.734 -98.8138C289.721 -89.4761 283.628 -70.7951 281.774 -66.5502C279.92 -62.3053 258.105 -60.6096 257.087 -55.7994C256.069 -50.9892 264.281 -47.027 267.203 -41.9453C270.125 -36.8636 270.379 -22.1338 269.057 -18.7423C275.941 -13.9322 275.144 -3.45844 271.442 0.503842C267.74 4.46613 264.552 20.0271 269.057 22.2937C273.562 24.5602 275.698 31.0661 274.884 33.3271C274.071 35.5881 265.875 48.8937 268.526 56.8127C271.176 64.7317 264.751 71.2819 262.632 73.6648C260.512 76.0477 262.261 82.8474 267.059 81.4232C271.857 79.999 284.214 84.5376 285.559 86.516C286.904 88.4943 291.962 79.7274 292.493 73.7702C293.025 67.8129 288.686 58.7744 290.545 55.66C292.405 52.5456 301.669 49.4367 305.642 45.4744C309.615 41.5121 308.824 36.702 308.824 33.8702C308.824 31.0384 304.585 24.9038 306.439 20.0493C308.293 15.1948 316.771 20.6589 320.744 20.0493C324.718 19.4397 321.01 -0.936978 322.864 -4.88818C324.718 -8.83938 344.192 -2.90426 346.975 -11.3941C349.759 -19.8839 348.564 -34.7411 346.975 -44.5055C345.387 -54.2699 348.636 -63.602 348.636 -63.602C341.796 -63.1809 324.286 -68.6948 319.942 -78.4592C329.903 -73.7932 343.544 -72.0918 348.636 -72.5185C347.363 -85.6744 348.359 -87.7969 348.636 -91.7592C348.912 -95.7215 355.442 -112.978 356.344 -117.511C357.761 -124.588 354.369 -130.811 345.747 -127.165C340.999 -125.164 330.185 -119.49 325.238 -119.301C320.29 -119.113 303.085 -132.535 299.654 -128.101Z" fill="#E5B76E"/>
<path d="M482.034 559.297C485.056 555.015 484.15 545.295 482.034 540.849C479.918 536.404 477.198 527.507 478.105 525.696C479.012 523.885 482.792 514.661 482.792 514.661C475.538 515.981 468.889 507.581 467.982 504.783C467.075 501.984 457.855 493.912 454.376 491.277C450.898 488.642 446.518 500.005 443.045 503.627C439.571 507.249 429.136 513.674 428.988 516.472C428.839 519.271 440.627 519.603 440.324 522.898C440.022 526.192 432.159 528.991 432.917 533.273C433.675 537.555 443.322 542.333 443.322 545.791C443.322 549.249 455.56 549.413 460.55 554.023C465.539 558.632 470.093 563.43 482.034 559.297Z" fill="#E5B76E"/>
<path d="M389.877 443.901C388.311 436.687 389.559 432.807 384.253 429.755C378.946 426.704 371.623 416.656 371.509 412.602C371.395 408.549 371.509 397.439 369.656 395.356C367.803 393.272 361.233 387.481 358.537 387.556C355.842 387.63 354.048 397.296 351.383 399.295C348.717 401.295 354.222 403.483 354.544 406.678C354.866 409.874 347.914 413.064 346.616 415.237C345.318 417.41 347.746 439.123 347.399 442.765C347.052 446.407 344.649 449.89 344.074 453.541C343.499 457.193 348.989 466.854 351.596 470.625C354.202 474.396 352.26 478.067 352.131 481.501C352.002 484.934 366.044 491.786 369.106 495.756C372.168 499.725 371.762 501.214 369.814 504.687C367.867 508.16 370.013 511.539 371.42 513.196C372.827 514.853 368.536 523.516 366.985 524.841C371.539 533.276 372.931 543.2 373.07 547.169C373.209 551.138 381.493 551.749 385.179 553.257C388.866 554.765 389.262 558.769 390.238 561.305C391.214 563.84 396.818 567.051 399.434 553.257C401.228 543.795 409.671 537.082 411.073 534.705C413.888 529.927 410.013 526.598 408.541 522.797C407.07 518.996 412.713 508.721 412.713 508.721C406.832 505.461 403.542 502.548 404.622 500.623C406.351 497.547 412.357 493.419 408.809 488.393C405.261 483.366 394.336 484.964 393.508 479.863C392.681 474.763 400.698 468.799 399.866 464.036C399.033 459.272 392.19 453.447 389.877 443.901Z" fill="#E5B76E"/>
<path d="M367.161 603.006C368.851 598.456 379.855 590.73 379.855 590.73C376.229 582.623 371.393 579.661 366.354 579.815C361.315 579.968 355.453 578.371 354.462 573.93C353.471 569.489 356.479 557.988 354.462 554.153C352.445 550.317 348.62 545.881 348.62 543.237C348.62 540.592 352.247 529.92 350.835 522.05C347.024 520.014 344.005 516.758 342.258 512.802C339.785 520.077 337.73 527.489 336.104 535C335.302 538.831 331.07 541.252 329.054 543.674C327.037 546.095 328.246 552.555 328.063 558.306C327.879 564.056 314.759 567.286 314.155 572.129C313.55 576.972 310.934 595.335 307.307 599.775C303.68 604.216 307.911 612.889 309.522 617.141C311.132 621.394 305.875 630.861 305.875 630.861C308.516 635.703 311.538 641.558 311.538 641.558C312.529 638.328 316.572 632.677 317.781 631.669C318.99 630.662 326.447 637.321 323.628 641.558C320.809 645.795 318.138 655.024 316.473 657.902C314.809 660.78 310.879 664.714 310.879 668.818C310.879 672.921 312.544 678.657 315.116 677.898C317.687 677.138 322.216 671.695 325.521 670.331C328.826 668.966 340.668 669.726 342.863 669.726C345.058 669.726 343.829 660.189 344.736 659.738C345.642 659.286 355.77 665.196 358.639 662.616C361.508 660.035 367.409 647.631 367.255 644.302C367.102 640.973 360.755 636.884 360.908 634.006C361.062 631.129 367.845 629.164 366.8 625.532C365.754 621.9 365.397 607.744 367.161 603.006Z" fill="#E5B76E"/>
<path d="M205.378 631.714C202.98 624.217 204.684 618.213 200.279 607.654C198.629 603.685 186.193 598.867 181.813 596.893C177.433 594.918 182.15 587.614 183.864 587.073C185.578 586.533 188.844 589.877 192.357 592.427C192.357 592.427 189.666 578.797 189.8 575.17C189.934 571.543 195.959 562.87 196.479 560.285C196.999 557.7 195.126 556.604 193.769 553.12C192.411 549.637 196.628 539.501 200.616 534.598C206.721 539.977 216.105 538.111 218.325 537.352C220.545 536.593 226.748 532.887 227.843 531.294C230.534 527.374 232.684 535.482 232.431 540.046C232.179 544.611 226.451 551.528 227.432 557.105C228.413 562.682 234.824 559.883 237.287 564.19C239.75 568.497 227.323 572.521 226.129 572.987C222.566 574.376 227.159 578.361 231.054 577.09C236.415 575.339 238.1 580.564 237.936 583.248C237.773 585.932 233.72 587.713 234.468 590.998C235.216 594.283 237.074 597.18 239.779 601.234C238.858 605.809 237.163 607.972 234.473 610.249C228.671 615.166 231.247 619.25 230.4 621.661C228.235 627.789 218.592 625.527 216.819 629.6C215.045 633.674 207.692 638.943 205.378 631.714Z" fill="#E5B76E"/>
<path d="M486.34 477.857C487.331 470.365 494.208 448.171 498.063 446.052C501.918 443.934 507.972 440.302 508.255 435.762C508.537 431.222 504.786 422.747 504.786 417.9C504.786 413.052 508.547 396.435 509.702 389.777C510.856 383.118 509.365 372.818 508.503 367.37C507.64 361.922 520.89 358.592 522.034 353.144C523.179 347.696 518.566 343.459 522.034 337.709C525.503 331.958 522.901 321.97 526.355 315.609C529.808 309.248 521.459 316.214 513.685 319.241C505.911 322.268 503.672 320.457 498.885 316.82C494.099 313.183 493.529 305.621 489.208 302.292C484.888 298.963 472.758 295.742 469.85 288.771C465.514 278.352 457.23 266.766 453.791 274.878C449.332 285.372 460.792 305.671 456.472 311.099C452.151 316.527 454.079 334.374 455.228 340.125C456.378 345.875 466.173 352.385 468.477 357.228C470.781 362.071 465.009 361.311 464.444 366.759C463.879 372.207 471.212 384.319 470.207 396.718C469.835 401.263 461.853 400.057 459.836 403.387C458.766 405.153 457.101 411.559 463.438 416.704C464.375 417.468 458.588 418.52 459.192 421.71C459.98 425.863 461.174 429.495 463.295 430.934C469.052 434.869 472.213 434.869 472.506 441.527C472.798 448.186 464.732 459.082 464.157 464.227C463.582 469.372 480.86 478.15 482.296 482.089C483.733 486.029 485.814 481.732 486.34 477.857Z" fill="#E5B76E"/>
<path d="M497.433 681.073C499.133 676.513 505.629 665.121 506.258 663.211C506.887 661.301 502.249 658.656 501.843 656.761C501.437 654.866 507.511 647.646 511.282 646.317C515.053 644.987 517.198 633.59 517.803 630.935C518.407 628.281 512.541 629.412 507.615 625.428C502.69 621.443 502.066 613.083 502.274 608.523C502.482 603.963 496.987 599.592 497.433 597.508C497.879 595.424 499.554 586.687 499.762 585.168C499.97 583.65 496.199 583.457 495.362 578.138C494.525 572.819 492.013 570.402 488.871 571.732C485.73 573.062 472.481 576.525 469.339 573.677C466.198 570.829 462.269 568.835 460.069 567.411C457.869 565.987 456.6 572.581 456.6 575.285C456.6 577.989 452.111 586.067 452.582 591.341C453.053 596.615 461.005 597.295 462.581 599.458C464.157 601.621 461.952 608.002 459.44 611.421C456.928 614.839 454.098 624.817 455.828 628.37C457.557 631.923 457.71 634.21 456.14 634.637C454.569 635.063 448.598 640.62 449.698 643.325C450.798 646.029 461.481 652.156 462.427 656.855C463.374 661.554 462.11 663.975 463.681 667.275C465.252 670.574 471.381 671.686 476.564 671.83C481.746 671.973 485.834 677.952 486.775 679.947C492.885 680.503 497.433 681.073 497.433 681.073Z" fill="#E5B76E"/>
<path d="M355.048 226.407C358.07 222.125 357.163 212.41 355.048 207.964C352.932 203.519 350.212 194.622 351.119 192.811C352.025 191 355.806 181.776 355.806 181.776C348.552 183.096 341.903 174.696 340.996 171.893C340.089 169.089 330.868 161.027 327.39 158.392C323.912 155.757 319.532 167.12 316.058 170.742C312.585 174.364 302.15 180.789 302.001 183.587C301.853 186.386 313.64 186.718 313.338 190.013C313.036 193.307 305.172 196.106 305.931 200.388C306.689 204.67 316.336 209.443 316.336 212.906C316.336 216.369 328.574 216.528 333.564 221.138C338.553 225.747 343.107 230.525 355.048 226.407Z" fill="#E5B76E"/>
<path d="M434.281 304.707C429.569 298.202 428.117 296.158 426.848 292C425.58 287.842 427.121 276.535 429.227 273.061C431.332 269.588 427.463 262.592 425.07 259.759C422.676 256.926 426.437 243.266 428.31 242.616C430.183 241.966 436.857 232.197 437.893 227.007C438.928 221.817 428.939 220.393 427.488 217.436C426.036 214.479 426.561 207.84 424.723 205.662C422.885 203.483 420.521 203.9 412.588 207.493C404.656 211.085 392.209 219.773 388.83 219.088C385.451 218.403 381.249 215.421 377.801 217.967C374.352 220.512 371.359 222.695 372.598 227.052C373.837 231.408 374.302 250.481 371.424 255.909C368.545 261.337 375.16 269.385 373.901 274.763C372.643 280.142 368.986 292.576 371.513 296.228C380.184 296.545 387.482 289.008 391.134 286.394C387.948 295.568 379.242 300.718 376.522 301.705C373.802 302.693 372.137 312.864 371.473 316.055C370.809 319.245 376.815 315.062 380.164 318.6C383.513 322.138 388.904 327.779 387.413 332.989C385.922 338.199 385.01 341.92 386.719 346.906C388.429 351.893 391.139 359.42 391.139 359.42C395.717 349.928 401.073 340.198 404.274 340.01C407.475 339.821 405.994 335.748 406.127 334.09C406.261 332.433 411.394 321.771 414.332 319.28C417.271 316.789 419.704 316.69 422.335 315.995C424.966 315.3 433.473 314.472 434.281 304.707Z" fill="#E5B76E"/>
<path d="M433.968 479.767C438.065 477.257 448.56 452.324 448.56 448.692C448.56 445.06 441.648 439.21 439.919 435.98C438.189 432.75 440.112 419.229 441.261 417.012C442.411 414.794 440.112 414.794 439.919 412.367C439.725 409.941 446.063 389.568 448.56 388.358C451.057 387.147 451.037 372.614 446.256 369.007C441.474 365.4 443.565 357.302 442.991 355.084C442.416 352.867 436.847 343.38 436.653 341.564C429.553 349.636 420.53 352.698 420.53 357.441C420.53 362.185 421.353 371.448 417.007 372.659C412.662 373.869 393.269 373.874 392.501 378.31C391.733 382.746 398.645 396.877 398.833 401.134C399.021 405.391 395.186 409.405 396.722 414.451C398.258 419.497 416.21 432.209 415.873 436.65C415.536 441.091 414.48 449.967 415.873 454.204C417.265 458.442 418.177 459.856 422.904 463.488C427.631 467.12 425.52 477.009 425.52 477.009C425.52 477.009 429.34 482.595 433.968 479.767Z" fill="#E5B76E"/>
<path d="M327.605 464.252C330.692 475.852 330.508 483.171 327.605 484.183C324.701 485.195 321.803 476.74 319.266 476.393C316.729 476.046 322.531 495.793 321.441 500.15C320.351 504.506 314.192 509.577 309.475 511.621C304.758 513.665 309.475 521.108 308.028 527.206C306.581 533.304 293.164 544.14 292.435 550.238C291.707 556.336 292.802 563.183 291.94 568.924C290.761 576.694 282.654 579.031 279.394 572.253C276.134 565.475 257.167 582.896 252.846 578.703C245.335 571.444 256.81 565.589 256.265 558.941C255.457 549.335 247.495 553.875 252.564 537.69C254.144 532.649 251.305 519.396 252.296 516.355C253.287 513.313 263.801 511.274 264.044 508.336C264.287 505.399 252.202 507.885 248.818 505.176C245.434 502.467 244.705 492.98 248.818 492.528C252.93 492.077 260.66 483.721 261.626 478.983C262.592 474.245 270.089 471.982 273.23 468.821C276.372 465.661 278.79 458.898 275.648 450.959C272.507 443.021 276.491 432.67 276.144 427.247C275.797 421.824 274.697 411.33 274.33 407.941C273.964 404.552 277.234 405.907 283.398 409.633C289.561 413.359 300.799 415.731 305.516 415.056C310.233 414.382 309.48 422.499 309.866 426.91C310.253 431.321 325.093 423.184 326.544 428.602C327.996 434.02 326.024 458.298 327.605 464.252Z" fill="#E5B76E"/>
<path d="M128.471 753.588C130.406 750.727 137.437 732.893 135.891 728.456C134.345 724.019 125.052 717.916 125.052 717.916C125.052 717.916 127.705 694.486 128.09 690.696C128.475 686.906 122.37 672.121 118.955 667.724C115.539 663.326 118.13 655.666 125.422 654.766C132.715 653.866 120.773 636.567 117.751 629.467C136.926 632.57 139.956 626.364 146.57 629.959C153.184 633.554 147.027 639.448 154.66 640.641C162.293 641.834 171.597 631.539 171.783 625.019C180.715 629.342 188.879 641.863 188.498 645.962C188.116 650.06 180.911 654.034 182.965 657.939C185.018 661.845 187.145 661.706 188.009 665.855C188.872 670.003 179.94 683.301 179.316 688.378C178.693 693.454 176.689 715.309 175.616 719.05C174.542 722.791 171.919 721.056 170.272 718.105C168.625 715.154 163.581 721.556 162.793 726.666C162.004 731.777 162.334 743.253 158.216 747.202C154.099 751.151 145.396 749.947 142.38 753.181C134.974 761.098 122.639 762.212 128.471 753.588Z" fill="#E5B76E"/>
<path d="M299.978 398.308C305.284 396.248 306.854 390.868 308.076 385.95C309.297 381.032 314.716 377.832 314.716 377.832C310.737 368.533 306.384 359.16 299.228 356.205C311.146 358.541 319.647 370.062 322.753 371.707C327.576 368.904 333.266 367.994 338.719 369.154C341.828 369.935 342.843 367.383 342.992 362.245C343.14 357.107 347.233 345.886 350.007 343.997C352.78 342.109 353.645 325.436 353.645 325.436C341.74 326.541 340.35 317.405 340.739 315.419C341.128 313.432 346.502 303.119 346.343 299.994C346.183 296.868 343.21 291.633 342.022 285.975C340.833 280.317 343.396 266.885 342.216 263.165C341.037 259.445 334.185 258.88 330.693 260.906C327.2 262.932 328.81 268.859 325.869 272.839C322.928 276.818 317.805 263.517 317.988 260.6C318.171 257.683 317.12 239.27 315.419 236.227C313.719 233.183 305.512 227.939 302.824 224.419C299.268 219.763 289.564 226.77 286.424 230.811C283.284 234.852 284.709 238.863 288.475 243.99C290.436 246.66 291.894 254.165 290.683 257.715C289.472 261.265 291.487 271.388 292.182 275.827C292.877 280.266 283.245 288.965 280.785 294.505C278.326 300.045 281.111 304.899 280.175 311.425C279.239 317.951 260.33 323.158 259.115 325.671C257.901 328.183 249.802 338.796 251.625 340.028C253.449 341.26 261.087 339.977 262.05 342.072C263.013 344.166 250.205 350.777 249.916 357.607C249.628 364.437 260.18 369.256 264.619 371.157C269.058 373.059 269.319 380.512 270.485 383.324C271.65 386.137 286.801 386.017 290.019 388.013C293.238 390.009 299.953 395.81 299.978 398.308Z" fill="#E5B76E"/>
<path d="M244.7 125.173C245.825 133.352 231.995 134.764 234.223 140.779C236.451 146.793 225.478 151.108 222.82 152.18C231.599 165.016 233.6 169.348 238.46 172.694C243.319 176.041 244.122 189.622 241.42 194.206C238.719 198.79 238.551 205.487 238.621 209.69C238.692 213.893 242.544 213.849 247.592 214.841C252.64 215.833 252.196 225.378 250.12 228.12C248.044 230.863 256.809 246.158 261.094 244.166C265.379 242.173 266.224 232.917 267.159 225.775C268.094 218.633 273.605 207.685 274.946 204.691C276.287 201.697 266.286 197.806 267.47 186.06C268.655 174.314 278.159 171.993 279.578 167.036C280.996 162.078 280.73 147.369 286.64 144.447C292.55 141.525 289.834 124.416 288.056 121.64C286.277 118.865 272.328 121.972 267.085 122.093C261.842 122.214 258.735 114.936 254.559 115.158C250.383 115.38 243.831 118.857 244.7 125.173Z" fill="#E5B76E"/>
<path d="M424.269 184.2C424.269 175.945 438.163 176.431 436.775 170.169C435.388 163.907 446.847 161.128 449.626 160.429C442.679 146.515 441.287 141.952 436.93 137.974C432.572 133.996 433.628 120.432 436.93 116.259C440.231 112.086 441.31 105.474 441.813 101.301C442.317 97.1283 438.494 96.647 433.628 94.9759C428.763 93.3048 430.504 83.9097 432.935 81.4758C435.365 79.0418 428.767 62.6945 424.251 64.084C419.734 65.4735 417.635 74.5281 415.735 81.4758C413.835 88.4234 406.883 98.5178 405.146 101.301C403.41 104.085 412.787 109.302 410.012 120.777C407.237 132.252 397.506 133.256 395.424 137.974C393.343 142.692 391.601 157.3 385.348 159.389C379.095 161.478 379.453 178.797 380.836 181.789C382.219 184.782 396.463 183.606 401.673 184.2C406.883 184.795 408.969 192.429 413.136 192.778C417.304 193.128 424.269 190.576 424.269 184.2Z" fill="#E5B76E"/>
<path d="M427.928 572.739C425.52 574.724 417.831 587.094 416.82 589.252C415.809 591.41 417.811 594.035 417.811 596.045C417.811 598.054 410.453 605.303 409.011 606.231C407.569 607.159 399.973 604.946 396.317 607.824C392.66 610.701 389.008 616.879 392.085 623.468C395.162 630.057 391.506 642.764 391.124 647.284C390.743 651.804 392.556 652.697 393.136 656.404C393.715 660.11 381.383 669.245 377.161 671.1C372.94 672.956 373.777 687.315 378.727 688.441C380.709 688.893 382.379 685.812 385.842 686.015C389.306 686.219 390.827 688.551 389.311 693.899C387.794 699.248 381.18 699.437 379.51 702.87C375.739 710.62 381.754 714.585 382.522 718.748C383.29 722.91 380.268 729.787 381.269 733.186C383.281 740.028 391.773 741.294 392.254 745.506C393.205 753.906 398.873 756.203 401.752 753.117C404.631 750.031 406.568 741.998 410.027 740.356C413.485 738.713 416.76 730.671 418.301 729.132C419.842 727.594 431.377 724.454 431.184 718.306C430.991 712.158 421.834 710.819 421.646 705.058C421.457 699.298 432.7 698.424 434.033 694.926C435.366 691.428 442.01 682.115 438.74 679.853C435.47 677.59 443.026 669.974 440.573 664.015C436.743 654.697 429.137 658.741 428.186 655.655C427.235 652.568 430.168 637.46 431.337 635.401C424.415 630.464 413.644 622.421 413.644 622.421C423.836 625.095 431.025 627.537 432.373 627.333C434.295 621.568 438.725 606.494 436.03 604.46C433.334 602.425 431.531 598.342 431.531 595.256C431.531 592.17 435.569 573.424 434.801 568.914C434.033 564.404 430.723 570.422 427.928 572.739Z" fill="#E5B76E"/>
<path d="M335.817 698.499C340.717 701.63 340.127 713.726 343.219 715.939C346.192 717.975 349.533 719.411 353.054 720.167C356.438 720.98 359.193 728.631 359.134 732.873C359.074 737.116 355.869 749.872 356.845 756.987C357.821 764.102 361.492 765.353 363.088 768.895C364.683 772.438 356.84 783.056 357.395 785.616C359.292 794.359 370.56 775.693 375.916 783.339C382.823 793.218 374.662 810.281 370.466 816.086C366.269 821.891 369.475 839.203 369.475 839.203C362.974 839.813 354.853 844.626 359.07 845.291C363.286 845.956 370.089 845.787 369.921 850.61C369.752 855.433 366.229 866.76 361.958 870.541C357.687 874.322 365.035 882.861 364.292 885.039C363.549 887.217 355.482 887.123 353.485 891.648C351.489 896.173 344.849 901.333 345.25 904.593C345.652 907.853 355.061 907.793 354.739 915.975C354.362 925.631 345.057 940.288 340.32 941.816C335.584 943.344 325.515 932.984 325.515 932.984C326.155 929.178 322.612 918.545 320.095 916.774C317.578 915.003 305.696 911.599 303.883 908.255C302.069 904.911 308.253 896.124 308.476 892.497C308.699 888.87 296.688 894.754 293.889 887.907C289.504 877.165 301.063 857.417 301.227 849.846C301.39 842.274 301.722 838.32 298.7 834.772C296.356 832.033 289.127 831.413 285.991 824.888C282.76 818.17 284.504 798.591 287.185 794.741C292.496 787.184 303.144 788.752 303.883 783.329C304.621 777.906 292.888 777.583 296.421 764.073C298.953 754.402 305.879 754.402 309.957 741.542C311.33 737.205 301.227 729.887 301.227 729.887C307.049 722.583 316.547 714.009 317.419 710.888C320.065 701.451 332.056 696.092 335.817 698.499Z" fill="#E5B76E"/>
<path d="M446.379 887.098C453.137 878.738 458.831 869.236 457.052 860.876C455.273 852.515 460.728 835.794 462.388 831.994C464.048 828.193 483.58 826.675 484.492 822.368C485.403 818.061 478.05 814.514 475.434 809.964C472.818 805.414 472.59 792.226 473.774 789.184C467.61 784.877 468.324 775.505 471.639 771.957C474.954 768.409 477.808 754.477 473.774 752.448C469.741 750.418 467.828 744.593 468.557 742.569C469.285 740.544 476.623 728.602 474.25 721.526C471.877 714.451 477.629 708.571 479.527 706.443C481.425 704.314 479.859 698.216 475.563 699.496C471.267 700.776 460.203 696.708 458.999 694.936C457.795 693.165 453.266 701.015 452.791 706.348C452.315 711.682 456.199 719.78 454.535 722.563C452.87 725.347 444.575 728.14 441.018 731.688C437.46 735.235 438.169 739.542 438.169 742.073C438.169 744.603 441.964 750.106 440.304 754.452C438.645 758.799 431.054 753.906 427.496 754.452C423.939 754.998 427.258 773.237 425.598 776.78C423.939 780.322 406.503 775.008 404.01 782.61C401.518 790.211 402.588 803.508 404.01 812.251C405.432 820.994 402.524 829.354 402.524 829.354C408.648 828.972 424.325 833.914 428.215 842.656C419.296 838.474 407.082 836.955 402.524 837.332C403.663 849.116 402.772 851.017 402.524 854.564C402.276 858.112 396.429 873.563 395.622 877.621C394.353 883.953 397.391 889.53 405.11 886.265C409.361 884.469 419.043 879.393 423.473 879.224C427.902 879.055 443.307 891.102 446.379 887.098Z" fill="#E5B76E"/>
<path d="M210.956 -29.3723C209.697 -22.8009 203.328 -13.6997 201.727 -9.80483C200.125 -5.90994 195.337 9.436 196.444 12.7916C197.55 16.1472 203.545 12.683 207.053 9.98936C210.562 7.29576 208.139 19.4259 207.119 23.5829C206.1 27.7398 212.666 41.1651 211.828 45.5446C210.99 49.924 194.673 66.4552 190.603 68.1807C186.533 69.9062 185.607 74.3766 186.541 82.6812C187.475 90.9859 182.943 103.006 180.812 109.182C178.681 115.358 187.23 121.077 185.825 132.191C184.419 143.305 192.65 130.739 196.678 126.88C200.705 123.022 212.493 117.479 218.413 112.911C224.333 108.342 218.397 98.0058 218.46 94.0581C218.522 90.1104 223.118 89.9578 226.484 86.6418C229.85 83.3258 226.361 81.7631 227.38 77.6062C228.4 73.4492 245.538 62.9527 246.825 56.0999C248.112 49.247 245.727 33.484 247.497 27.8807C249.268 22.2775 243.997 11.1047 237.737 3.79266C231.476 -3.51938 225.365 -12.3374 225.48 -15.0632C225.596 -17.789 214.002 -27.9534 210.956 -29.3723Z" fill="#E5B76E"/>
<path d="M281.408 608.474C276.349 604.757 263.778 603.621 263.362 609.154C262.178 624.689 255.667 622.818 249.865 624.039C244.063 625.259 242.096 640.412 242.205 644.139C242.275 646.659 234.377 648.822 227.603 654.062C224.293 656.632 230.576 663.142 229.139 665.687C226.83 669.795 215.573 663.564 214.845 668.436C214.2 672.733 215.518 686.601 214.28 690.327C211.634 698.266 201.07 698.965 198.741 708.785C196.413 718.604 201.149 720.926 204.306 730.482C206.288 736.506 207.279 750.408 205.49 759.052C204.449 764.108 199.881 761.458 198.058 767.685C193.147 784.614 201.858 780.585 207.596 787.656C212.58 793.784 218.08 801.881 225.052 802.099C233.326 802.352 231.428 780.556 235.065 779.861C242.795 778.372 250.782 786.907 257.857 786.197C264.933 785.488 271.235 762.808 271.235 762.808C265.711 753.966 252.818 743.214 250.123 736.917C261.519 745.586 272.514 753.142 273.589 753.112C275.987 743.983 276.265 728.225 281.314 718.51C283.791 713.756 291.971 712.188 293.205 710.179C296.981 704.051 298.16 695.765 292.71 693.309C287.259 690.853 278.534 687.767 278.737 682.458C278.94 677.149 285.991 672.336 285.555 657.223C285.119 642.109 275.705 622.52 281.408 608.474Z" fill="#E5B76E"/>
<path d="M423.118 -46.8921C428.381 -39.627 430.002 -37.3439 431.419 -32.6999C432.836 -28.056 431.115 -15.4266 428.763 -11.5474C426.411 -7.66828 430.733 0.145489 433.406 3.30978C436.079 6.47406 431.878 21.7302 429.787 22.4562C427.695 23.1822 420.241 34.0937 419.084 39.8902C417.927 45.6868 429.084 47.2773 430.705 50.5801C432.327 53.8829 431.74 61.2977 433.793 63.7305C435.846 66.1633 438.486 65.6977 447.346 61.6856C456.206 57.6734 470.107 47.97 473.881 48.7347C477.655 49.4995 482.348 52.83 486.2 49.9872C490.052 47.1443 493.394 44.706 492.011 39.8404C490.627 34.9748 490.107 13.6726 493.322 7.61007C496.537 1.5475 489.15 -7.44107 490.555 -13.4482C491.961 -19.4554 496.045 -33.3428 493.223 -37.4214C483.538 -37.7761 475.387 -29.3583 471.308 -26.4379C474.866 -36.6844 484.59 -42.4366 487.628 -43.5394C490.666 -44.6422 492.525 -56.0026 493.267 -59.5659C494.008 -63.1292 487.301 -58.4576 483.56 -62.4088C479.819 -66.36 473.798 -72.6608 475.464 -78.4796C477.13 -84.2983 478.148 -88.4546 476.239 -94.0239C474.33 -99.5933 471.302 -108 471.302 -108C466.189 -97.3988 460.207 -86.5316 456.632 -86.321C453.057 -86.1105 454.712 -81.5608 454.562 -79.7098C454.413 -77.8589 448.68 -65.9499 445.398 -63.168C442.116 -60.3861 439.399 -60.2752 436.461 -59.4994C433.522 -58.7236 424.02 -57.7981 423.118 -46.8921Z" fill="#E5B76E"/>
</g>
</svg>
