<svg width="450" height="720" viewBox="0 0 450 720" fill="none" xmlns="http://www.w3.org/2000/svg">
<g clip-path="url(#clip0_412_386)">
<mask id="mask0_412_386" style="mask-type:alpha" maskUnits="userSpaceOnUse" x="-399" y="-275" width="775" height="1255">
<path d="M93.3714 886.484C92.5535 884.57 89.2152 883.005 89.067 879.866C88.9187 876.727 87.57 876.392 87.1539 873.526C86.7378 870.659 88.1774 874.21 88.6557 872.913C89.1339 871.616 86.8143 869.707 86.7426 868.128C86.6709 866.548 88.7178 866.151 87.967 861.514C87.2161 856.877 83.8108 852.24 82.7873 849.446C81.7638 846.651 75.972 840.038 75.135 838.128C74.2981 836.219 74.9342 837.377 74.7955 835.128C74.6568 832.879 72.6815 831.094 72.2368 828.428C72.1549 827.191 71.9089 825.969 71.505 824.796C69.1424 817.704 67.258 811.704 63.5658 800.429C59.8736 789.155 55.5118 778.063 48.9691 768.97C42.4264 759.878 41.6994 759.151 41.1542 753.519C40.609 747.886 37.8829 748.255 37.1559 746.79C36.4289 745.326 33.1576 733.698 31.3402 729.333C29.5228 724.969 22.9801 722.787 21.8896 719.514C17.9678 707.742 12.1378 691.496 10.8034 689.146C9.46903 686.796 6.07812 688.419 5.54246 689.146C8.62728 699.846 1.52025 688.285 -0.0341201 681.346C-2.02371 672.469 -0.124998 665.98 -2.59764 661.549C-5.47632 656.332 -7.86206 650.858 -9.72381 645.197C-13.9039 644.652 -14.4491 643.379 -15.8121 647.016C-16.7113 649.408 -18.4235 658.084 -19.16 664.348C-20.9535 673.512 -24.8992 679.728 -25.7123 685.715C-26.7501 693.304 -33.8428 694.75 -34.718 699.975C-35.2393 703.148 -32.2693 702.846 -35.6746 715.183C-36.4924 718.131 -45.2399 720.925 -47.7125 728.013C-49.8839 734.296 -45.8808 728.836 -45.2016 737.665C-45.039 739.746 -47.1673 744.623 -47.6456 747.929C-48.4395 753.447 -42.0212 745.154 -40.1942 739.373C-39.1133 735.956 -32.518 731.425 -30.1219 725.692C-28.4671 721.725 -26.6258 715.408 -26.3818 712.618C-25.6788 704.665 -17.773 708.646 -17.1178 701.497C-16.6395 696.439 -15.5156 683.284 -15.0421 678.652C-13.7891 688.366 -8.76727 689.596 -6.49072 694.496C-4.12808 699.588 -3.53025 708.417 -4.6207 712.417C-5.71114 716.418 -10.2547 717.872 -8.9825 721.146C-7.71031 724.419 -4.98419 728.056 -2.98503 724.601C-0.985877 721.146 -1.34935 715.872 0.841116 718.782C3.03158 721.691 1.38632 727.692 3.9307 731.147C6.47508 734.602 12.2908 744.422 10.6551 751.695C9.01946 758.969 2.65851 769.511 -0.976321 772.784C-4.61115 776.058 -4.97462 775.512 -4.97462 779.331C-4.97462 783.149 -6.79203 787.15 -9.33641 787.15C-11.8808 787.15 -12.9712 797.333 -14.7887 802.061C-16.6061 806.789 -19.7148 818.102 -22.9862 821.92C-26.2575 825.739 -24.1483 839.521 -21.7857 844.411C-19.4231 849.302 -18.1413 846.622 -17.5148 841.32C-16.3861 831.807 -14.7886 826.773 -14.516 822.954C-14.2434 819.135 -9.88163 813.407 -6.86377 806.315C-3.84591 799.223 -2.7746 791.859 2.4959 784.585C7.7664 777.311 13.2187 772.583 14.6726 767.836C16.1265 763.089 17.9439 754.916 16.49 749.111C21.397 761.654 27.3945 774.564 31.0293 777.292C34.6641 780.02 37.7537 785.293 41.5512 791.294C45.3486 797.295 51.7287 812.933 52.6374 816.57C52.757 817.049 52.9196 817.628 53.1157 818.226C53.7805 822.729 53.4409 831.333 52.4174 835.348C51.1356 840.382 42.876 858.394 41.1064 861.94C39.3368 865.486 38.6529 877.622 36.3237 882.67C33.9946 887.719 26.5097 893.581 28.1453 896.443C29.781 899.304 28.8293 895.763 32.2345 893.715C35.6398 891.667 39.1885 895.079 43.9568 882.943C48.7252 870.807 46.1378 870.123 49.9543 867.941C53.7709 865.759 52.4078 869.712 54.1822 870.53C55.9566 871.348 53.3644 868.075 56.3631 861.533C59.3618 854.992 60.9066 845.302 61.4519 840.392C61.8659 836.559 62.04 832.704 61.9731 828.85V828.85C65.7228 832.118 66.3589 834.936 66.9041 836.664C67.4493 838.391 68.8172 837.937 70.4433 840.937C72.0694 843.938 76.259 851.121 77.4403 853.303C73.8103 850.848 71.1702 849.029 73.7194 854.121C76.2685 859.213 77.8038 859.122 78.2581 861.486C78.7125 863.85 77.9855 865.032 79.2577 866.749C80.5299 868.467 80.6925 870.932 80.439 874.205C80.1856 877.478 83.4186 880.818 85.1213 882.933C86.8239 885.049 89.9039 888.197 91.0518 889.633C92.1996 891.069 94.1892 888.394 93.3714 886.484Z" fill="#ED824C"/>
<path d="M-39.8548 158.398C-38.3817 168.165 -34.6751 175.582 -34.6751 181.583C-34.6751 187.584 -32.7621 194.403 -27.8598 206.132C-22.9576 217.861 -13.4114 234.227 -12.8662 237.768C-12.3209 241.309 -10.6853 256.589 -8.23176 259.044C-5.77825 261.499 -2.77952 265.863 -2.49256 267.772C-2.2056 269.682 3.77752 271.864 4.59535 270.773C8.95715 276.515 17.3172 298.049 18.7233 305.414C20.1294 312.778 22.0425 314.415 24.496 314.415C26.9495 314.415 30.7661 322.871 33.4922 332.963C36.2183 343.055 41.6706 366.786 40.0349 373.878C38.3992 380.97 51.7572 382.061 52.8477 377.706C53.9381 373.351 57.2095 372.002 56.9369 366.805C56.6643 361.608 53.1107 350.43 51.4846 346.065C56.3916 352.884 59.9356 357.521 60.7534 361.067C61.5713 364.613 65.3878 359.976 62.6665 350.43C59.9452 340.883 56.1238 337.064 51.762 328.608C47.4002 320.153 42.7658 314.697 42.1967 308.696C41.6275 302.696 43.5597 301.332 39.7432 293.967C35.9266 286.603 31.9283 275.328 34.4822 266.963C37.0362 258.599 39.7432 253.871 42.2971 250.961C44.8511 248.052 42.2971 245.506 38.844 247.506C35.3909 249.506 31.5744 255.507 31.5744 258.034C31.5744 260.561 29.3935 269.327 29.3935 269.327C23.2143 264.035 22.3056 259.307 19.5795 253.306C16.8533 247.305 9.94716 244.578 7.94801 239.304C5.94885 234.031 3.76796 224.948 3.40447 223.67C3.04099 222.393 1.22358 228.934 1.22358 228.934C-0.957317 216.387 -2.60256 214.932 -4.59215 210.75C-6.58173 206.568 -8.04523 208.386 -8.41828 202.749C-8.79133 197.112 -18.2323 189.828 -22.5941 187.474C-26.9559 185.12 -26.0472 176.2 -28.5916 169.29C-31.136 162.38 -34.2256 158.015 -35.316 155.651C-36.4065 153.287 -40.4095 154.776 -39.8548 158.398Z" fill="#ED824C"/>
<path d="M60.816 227.845C58.8168 231.343 54.1203 236.458 55.7703 239.985C57.4203 243.512 57.1716 249.532 55.4499 252.394C53.7281 255.255 49.1081 266.927 47.6159 268.238C44.9806 270.554 51.4755 272.578 54.4073 267.802C57.339 263.027 55.2251 261.395 57.9512 258.806C60.6773 256.217 63.8147 253.351 65.723 246.12C67.6313 238.889 68.7217 236.549 66.7417 232.687C64.7617 228.826 65.6321 227.524 65.6321 225.821C65.6321 224.117 62.3369 225.198 60.816 227.845Z" fill="#ED824C"/>
<path d="M242.072 414.616C241.087 418.522 237.937 424.712 240.474 427.665C243.011 430.619 244.389 436.484 243.5 439.703C242.61 442.922 241.297 455.406 240.212 457.07C238.296 460.009 245.096 460.214 246.636 454.826C248.177 449.438 245.702 448.434 247.632 445.208C249.563 441.982 251.814 438.378 251.71 430.9C251.605 423.423 252.026 420.876 249.081 417.688C246.136 414.5 246.625 413.013 246.167 411.372C245.71 409.731 242.826 411.658 242.072 414.616Z" fill="#ED824C"/>
<path d="M60.3349 399.994C60.6649 404.985 56.3031 413.829 59.4932 424.399C60.8945 429.041 67.5759 439.756 67.1072 443.708C66.6385 447.661 70.125 447.331 70.6129 449.929C72.7507 461.376 70.455 471.315 63.9171 479.01C57.3792 486.705 56.6331 493.576 57.1209 496.285C57.6088 498.993 63.1375 493.414 64.2949 488.839C65.4524 484.264 70.6033 482.388 72.942 480.517C75.2808 478.646 78.0786 471.358 79.7143 465.74C81.35 460.122 76.9116 451.8 76.9116 451.8C83.6887 461.371 89.997 468.449 90.4657 475.105C90.9344 481.761 95.588 478.555 92.551 466.697C89.514 454.839 80.8621 445.163 78.7721 441.603C76.6821 438.042 72.1672 419.801 72.6503 414.805C73.4681 406.349 72.0046 408.191 69.202 404.234C66.3993 400.276 66.3993 396.434 65.3471 393.228C64.295 390.021 59.8949 393.381 60.3349 399.994Z" fill="#ED824C"/>
<path d="M87.9756 258.337C92.9378 257.421 96.9087 256.446 99.3472 255.411C101.786 254.376 101.745 257.023 102.977 259.005C104.21 260.986 100.912 261.912 101.361 264.199C101.81 266.486 106.077 276.893 108.72 277.623C111.364 278.352 114.276 279.033 115.788 281.794C117.3 284.555 116.498 286.102 115.848 287.064C119.708 286.862 118.23 285.762 121.185 290.185C124.139 294.608 123.244 297.149 123.511 298.507C123.778 299.864 126.65 304.561 128.43 307.27C130.209 309.978 132.287 312.764 133.032 313.73C133.778 314.695 133.866 313.01 133.708 310.817C133.55 308.624 135.883 308.439 137.045 312.249C138.208 316.058 138.794 316.909 140.263 318.703C141.731 320.497 144.543 320.642 145.941 323.567C147.339 326.491 146.194 327.686 147.018 329.051C147.842 330.416 150.514 331.29 151.043 333.264C151.572 335.238 151.024 338.827 151.628 341.903C152.232 344.979 152.439 346.747 149.181 345.719C145.923 344.691 145.982 335.785 141.869 334.651C137.757 333.518 132.936 335.153 131.327 330.607C129.717 326.06 129.828 322.976 127.303 317.913C124.778 312.849 119.455 315.426 119.455 315.426C118.456 310.34 115.629 300.191 114.169 296.308C112.71 292.425 112.189 289.748 110.316 290.116C108.444 290.483 104.909 291.597 102.704 287.441C100.499 283.285 100.965 280.697 97.7516 274.237C93.9266 282.357 91.2515 282.883 91.0273 285.984C90.8031 289.086 91.9287 296.926 92.3972 300.726C92.8657 304.526 91.2246 307.486 89.8252 310.263C93.5797 309.526 92.36 311.852 91.6482 316.02C90.9364 320.188 91.5012 328.002 92.132 331.214C92.7629 334.426 89.2544 337.061 88.9377 339.766C88.621 342.472 90.4495 343.22 91.0591 344.909C91.6688 346.599 91.2865 352.667 91.8399 355.733C92.3934 358.799 93.9577 365.325 97.6053 369.056C101.253 372.787 106.34 371.09 107.408 372.982C108.477 374.875 107.551 377.261 110.065 378.02C112.578 378.78 114.72 384.748 115.167 387.025C115.614 389.303 119.115 390.151 122.23 392.587C125.346 395.023 129.555 397.225 131.396 399.497C133.236 401.769 134.142 402.859 134.64 405.395C135.138 407.93 136.398 407.273 139.064 408.832C141.729 410.391 144.153 415.635 144.544 417.626C144.935 419.617 146.042 424.559 147.585 427.451C149.127 430.342 147.922 429.886 144.905 429.367C141.888 428.848 140.782 430.04 137.957 428.508C136.068 427.593 134.599 425.993 133.846 424.034C129.672 424.717 131.706 424.454 128.668 421.715C125.63 418.976 123.074 415.864 119.579 412.937C116.085 410.01 113.411 402.751 112.136 400.5C110.86 398.249 108.536 398.427 106.155 398.339C103.773 398.251 99.727 394.598 94.6635 389.341C91.6964 386.305 89.2679 382.786 87.4823 378.935C83.3647 379.188 83.6538 379.965 85.6505 375.266C87.6473 370.568 87.4933 369.759 87.6819 367.22C87.8705 364.682 84.4116 361.191 83.0885 357.979C81.7654 354.767 79.3595 346.066 80.6796 342.885C81.9997 339.705 81.4801 330.707 81.0199 328.364C77.5599 327.722 75.9863 326.782 75.5261 324.439C75.0658 322.096 76.8072 321.408 77.7865 318.577C78.7659 315.747 79.3336 311.738 78.7744 308.42C78.2152 305.101 77.241 297.139 78.4081 293.154C79.5751 289.17 82.0092 289.155 82.633 286.624C83.2568 284.092 83.8268 282.775 82.8217 278.155C81.8166 273.534 82.6955 273.268 85.168 269.354C87.6405 265.44 87.158 265.813 87.0591 263.423C86.9601 261.034 84.9806 258.896 87.9756 258.337Z" fill="#ED824C"/>
<path d="M172.113 772.593C164.537 774.328 161.675 768.503 162.633 761.207C163.59 753.911 168.366 748.074 165.773 743.879C163.179 739.684 162.791 737.751 159.905 733.128C157.02 728.505 157.783 728.401 159.069 721.305C160.354 714.209 163.631 695.806 163.631 695.806C155.86 699.986 154.896 690.926 155.588 687.112C156.279 683.298 157.222 671.924 158.566 670.679C159.909 669.434 158.222 643.796 156.616 642.386C155.01 640.976 156.929 607.802 157.128 602.6C147.999 607.754 139.594 618.545 138.352 625.396C137.111 632.247 144.241 647.079 134.317 647.206C127.37 647.294 121.55 660.742 119.804 667.482C111.963 697.74 110.177 701.453 107.961 705.443C103.728 713.061 100.165 711.481 101.406 704.63C102.648 697.779 103.947 681.703 100.83 676.319C97.7136 670.934 92.2605 671.522 89.8306 668.489C87.4006 665.457 93.5311 653.836 96.734 649.572C98.8421 646.764 101.151 654.701 102.327 649.744C102.932 647.179 99.1747 641.066 99.7775 639.269C100.538 636.975 103.529 635.275 107.173 632.682C112.006 629.244 126.462 626.85 129.929 617.08C136.016 599.931 137.091 587.832 145.119 582.585C149.057 580.006 151.944 575.686 157.496 570.88C158.977 569.597 163.177 572.576 164.531 571.323C168.447 567.714 172.061 559.708 173.275 557.671C176.481 552.295 181.139 559.471 181.568 563.274C181.997 567.077 175.247 591.075 179.657 593.615C185.074 596.736 182.64 599.442 183.236 604.389C183.831 609.336 174.784 609.938 173.019 619.676C171.254 629.413 179.12 635.308 179.025 641.997C178.931 648.687 176.505 649.735 175.525 655.145C174.544 660.556 184.008 677.668 186.479 681.758C188.951 685.849 191.26 686.681 192.313 693.768C193.367 700.855 195.906 719.538 197.289 724.754C198.672 729.97 195.633 733.893 194.508 731.866C193.383 729.838 194.061 728.969 192.785 724.934C191.508 720.9 191.475 719.396 188.371 715.522C185.267 711.647 186.376 701.587 182.816 695.806C177.882 707.663 176.282 718.452 176.49 724.462C176.699 730.472 178.273 736.539 177.313 741.832C176.354 747.124 174.203 749.876 174.277 754.028C174.351 758.18 178.38 771.161 172.113 772.593Z" fill="#ED824C"/>
<path d="M-36.5673 51.3114C-36.5004 55.6852 -42.7848 54.9195 -41.6943 61.9444C-41.393 63.8873 -39.676 65.2559 -39.4943 67.438C-39.3126 69.6201 -46.1135 74.64 -44.8413 77.1858C-43.5691 79.7316 -41.0152 78.2768 -38.1169 81.3682C-35.2186 84.4595 -34.4821 90.0967 -34.1186 92.0969C-33.7551 94.0972 -32.3012 105.735 -31.5742 108.281C-30.8473 110.827 -29.2116 111.832 -27.7481 112.784C-26.6576 120.101 -24.295 123.192 -21.9324 127.011C-19.5697 130.83 -13.8879 145.468 -13.2757 145.468C-12.6636 145.468 -11.0279 144.444 -11.0279 144.444C-11.3005 147.444 -8.43569 154.809 -8.30177 156.173C-8.16786 157.537 -9.45918 159.379 -8.30177 161.767C-7.14437 164.155 -6.38871 166.222 -3.99738 168.562C-1.60604 170.902 -1.47692 171.912 -1.47692 173.424C-1.47692 174.936 -1.81649 174.788 0.0917965 176.903C2.00008 179.018 2.88487 186.837 4.3388 189.201C5.79273 191.565 9.33669 194.02 10.1545 195.929C10.9724 197.839 12.9093 199.839 13.8037 198.021C16.3337 199.566 16.6972 200.748 16.7881 201.476C17.3333 196.293 15.5446 194.748 13.8037 192.111C12.0628 189.474 10.8815 184.382 10.4271 181.382C9.97279 178.382 7.4284 177.109 6.42883 173.381C8.51885 175.017 10.9724 175.745 9.15495 171.199C7.33754 166.653 7.33754 168.5 6.70144 163.542C6.06535 158.585 4.88402 152.029 4.06619 149.301C3.24835 146.573 -0.568209 136.381 -1.38604 134.572C-2.20388 132.763 -4.56652 135.663 -6.11132 131.844C-7.65612 128.025 -9.11005 124.479 -13.2853 123.843C-6.92437 123.934 -5.83392 128.116 -5.19783 129.662C-4.56173 131.208 -1.84996 130.935 -0.472554 130.935C0.904853 130.935 2.70792 133.572 4.16185 135.936C5.61578 138.299 7.61493 137.936 7.7058 136.39C7.79667 134.844 6.34274 131.887 7.52406 129.887C8.70538 127.887 9.02581 127.389 9.02581 127.389C6.84491 124.57 2.88966 121.843 2.25357 119.206C1.61748 116.569 1.89009 115.028 2.07183 112.798C2.25357 110.568 -0.290821 111.387 -2.1991 111.478C-4.10739 111.569 -7.56046 104.84 -8.46917 98.6577C-9.37788 92.475 -10.2866 92.475 -13.1944 91.2021C-16.1023 89.9292 -22.8506 84.2777 -23.0419 79.9134C-23.2185 76.8114 -22.9234 73.7006 -22.1667 70.6873C-21.588 76.2766 -21.2102 80.0953 -19.5889 81.3682C-17.9675 82.6411 -17.9532 76.8221 -17.5897 72.6397C-17.2262 68.4573 -19.0245 65.5478 -19.4071 62.4565C-19.7897 59.3651 -20.9232 49.0001 -22.1667 45.1814C-18.6802 40.8171 -18.1062 36.7926 -19.5602 34.2468C-21.0141 31.701 -26.0359 39.5394 -26.3994 34.0841C-26.7629 28.6288 -26.7629 28.6288 -27.1742 23.5564C-27.3703 21.0919 -37.1843 27.3416 -37.4282 31.9834C-37.7438 38.1708 -36.6343 46.5595 -36.5673 51.3114Z" fill="#ED824C"/>
<path d="M375.392 662.558C374.12 657.295 372.121 654.376 370.849 645.81C370.849 645.81 364.851 642.718 358.309 642.355C359.217 644.355 362.135 652.356 361.111 652.174C360.088 651.992 357.582 655.084 359.036 658.721C360.49 662.357 362.125 663.449 360.308 667.631C358.49 671.813 352.656 680.178 353.402 684.724C354.148 689.27 353.947 694.362 349.155 708.335C344.903 700.487 343.951 705.818 343.951 708.335C343.951 710.852 343.406 719.911 339.317 722.959C338.728 723.399 338.131 723.83 337.552 724.285C336.729 722.471 336.055 720.849 335.859 719.547C335.404 716.547 336.313 707.455 335.132 705.091C333.951 702.727 332.224 702.999 330.407 705.363C325.59 701.454 324.5 689.725 321.592 682.451C318.684 675.177 318.321 670.268 314.504 666.267C310.688 662.267 304.327 660.448 307.78 657.902C311.233 655.357 309.052 647.901 307.598 640.991C312.505 637.9 311.96 641.173 309.033 632.808C306.106 624.443 305.761 618.811 307.034 615.356C308.306 611.901 306.67 604.244 299.764 598.253C292.858 592.262 293.408 579.169 292.863 576.896C288.592 574.805 287.501 579.442 286.047 582.806C284.593 586.17 284.134 586.715 283.23 587.261C284.034 584.203 284.461 581.058 284.502 577.896C284.593 574.714 285.32 568.325 285.411 565.985C285.502 563.645 281.322 565.985 280.05 567.713C278.778 569.44 276.506 571.441 275.688 574.35C273.718 581.437 264.329 586.098 267.28 590.482C270.231 594.865 268.28 596.903 266.668 601.196C265.056 605.488 252.454 616.031 248.819 619.304C245.184 622.577 246.82 627.85 248.819 630.942C250.818 634.033 248.455 636.942 248.092 643.671C248.092 643.915 248.054 644.149 248.03 644.374C247.289 644.47 243.568 644.704 242.525 644.853C238.163 645.398 235.576 648.068 233.758 649.705C231.941 651.342 237.828 657.29 237.828 659.955C237.828 662.621 236.121 668.354 234.304 672.172C232.486 675.991 233.452 681.331 233.825 685.696C234.198 690.06 228 691.189 228 692.826C228 694.462 236.303 700.253 237.03 706.253C237.757 712.254 237.393 717.71 236.484 720.074C235.576 722.438 234.849 726.074 238.665 724.801C242.482 723.529 242.491 722.074 242.491 722.801C244.491 727.347 249.819 735.545 249.273 739C248.728 742.455 247.839 751.183 250.182 751.92C252.526 752.657 254.544 755.38 254.907 758.017C255.271 760.653 257.997 768.831 257.633 773.378C257.27 777.924 261.995 781.379 264.358 786.298C266.72 791.217 267.156 793.572 267.304 796.118C267.452 798.663 263.994 801.573 263.086 804.301C262.177 807.028 265.448 806.119 265.448 809.938C265.448 813.756 266.175 817.211 264.176 820.121C262.177 823.03 266.611 828.581 267.304 834.262C267.997 839.942 268.294 844.579 267.304 852.762C266.314 860.945 264.128 860.26 264.128 861.763C264.128 863.266 265.023 865.036 267.304 865.988C269.585 866.941 268.701 874.856 267.304 877.172C265.907 879.488 265.63 883.039 264.946 886.857C264.262 890.676 264.946 891.643 265.219 894.902C265.491 898.16 265.085 900.223 265.219 902.812C261.675 906.224 261.393 908.951 261.675 913.316C261.957 917.68 260.996 920.589 259.762 922.953C258.528 925.317 256.356 924.188 256.356 926.781C256.356 929.375 256.902 934.85 255.266 937.577C253.63 940.305 250.086 940.578 248.857 944.937C247.628 949.297 249.541 949.167 249.675 952.986C249.809 956.805 250.359 961.987 247.222 963.758C249.402 969.079 249.948 974.535 248.178 979.578C251.813 974.85 254.357 971.213 255.084 965.395C255.811 959.576 256.356 955.211 259.083 950.665C261.809 946.119 261.99 946.301 261.99 950.665C261.99 955.029 258.719 960.848 261.99 959.576C265.262 958.303 267.251 953.211 269.805 945.033C272.359 936.855 274.349 936.486 276.53 933.759C278.711 931.031 281.791 922.666 281.437 920.484C281.083 918.302 275.803 918.527 275.348 918.302C279.117 917.072 281.346 917.211 283.001 917.393C284.656 917.574 287.09 912.756 288.362 910.483C289.634 908.21 288.907 908.3 288.907 906.755C288.907 905.209 289.18 904.209 291.452 902.482C293.723 900.754 293.451 894.614 294.264 891.207C295.077 887.8 296.45 880.569 297.808 877.296C299.166 874.023 300.534 867.338 299.989 865.701C299.444 864.065 296.856 863.931 295.354 865.701C293.853 867.472 292.485 877.023 291.949 879.067C291.413 881.11 289.768 882.34 289.768 878.794C289.768 875.248 291.131 862.974 290.041 860.246C288.95 857.518 288.816 859.428 287.453 854.504C286.09 849.579 288.18 841.913 288.362 836.094C288.544 830.275 287.635 821.001 287.272 818.819C286.908 816.637 284.909 820.255 276.549 818.819C283.637 817.183 285.272 816.273 286.181 813.364C287.09 810.454 287.09 810.048 285.636 805.43C284.182 800.812 283.637 794.089 284.364 788.815C285.091 783.542 283.819 783.724 282.001 780.268C280.184 776.813 274.617 769.822 272.436 760.84C270.255 751.858 271.618 750.748 271.891 744.747C272.163 738.746 269.71 741.201 265.893 736.837C262.077 732.472 262.067 726.749 261.531 717.748C261.187 712.082 260.733 707.474 259.833 704.167C259.835 704.159 259.835 704.151 259.833 704.143C257.265 694.525 257.265 685.533 264.774 692.941C269.786 697.726 275.908 703.732 277.075 706.818C278.711 711.182 277.075 718.547 279.801 720.456C282.527 722.366 286.344 721.547 286.616 731.367C286.889 741.187 289.343 745.819 291.069 745C293.442 743.78 295.43 741.922 296.808 739.636C298.171 737.181 296.45 735.908 295.632 732.181C294.814 728.453 295.153 721.82 294.814 719.093C294.474 716.365 287.64 715.547 285.363 715.092C290.27 713.819 291.815 713.91 293.633 714.183C295.45 714.456 292.542 704.091 291.452 701.181C290.361 698.272 289.089 699.544 285.999 697.908C282.91 696.271 283.063 693.367 282.341 690.27C281.619 687.174 272.842 684.073 272.163 682.011C271.8 680.925 269.49 677.575 267.065 674.225C267.294 668.607 267.997 664.793 268.347 661.654C268.892 656.744 272.618 655.29 274.98 653.289C277.343 651.289 273.435 640.651 275.071 636.105C276.707 631.559 281.977 607.197 281.614 602.129C289.108 616.901 287.975 635.22 286.875 639.402C285.775 643.585 283.646 642.493 287.353 648.676C291.06 654.859 293.967 667.224 294.149 671.588C294.331 675.953 298.688 688.864 302.504 689.045C307.048 700.32 308.684 706.684 310.501 708.665C312.318 710.646 311.41 713.35 315.91 713.623C320.411 713.896 324.089 716.896 322.453 718.667C320.817 720.437 324.892 728.079 324.629 732.032C324.366 735.985 319.225 756.217 319.952 759.581C320.679 762.946 323.859 768.401 327.857 771.038C331.856 773.674 330.765 770.219 329.039 768.128C327.312 766.037 327.403 764.218 327.403 764.218C329.493 762.855 331.97 765.855 330.598 756.308C329.225 746.761 333.037 744.943 333.764 741.579C333.836 741.23 333.889 740.877 333.922 740.521C336.466 737.794 341.038 736.578 345.582 733.123C350.125 729.668 358.495 718.767 359.394 714.03C360.293 709.292 360.485 709.302 365.755 708.364C371.026 707.426 364.847 702.574 364.483 696.936C364.12 691.299 366.301 686.571 370.844 683.844C375.388 681.116 376.665 667.832 375.392 662.558Z" fill="#ED824C"/>
<path d="M99.2128 50.0702C106.358 53.128 110.213 47.9072 110.572 40.5617C110.93 33.2162 107.272 26.6124 110.572 22.9468C113.872 19.2812 114.599 17.4484 118.262 13.4192C121.926 9.38991 121.194 9.14107 121.194 1.93434C121.194 -5.2724 121.251 -23.9688 121.251 -23.9688C128.153 -18.4704 130.716 -27.1941 130.716 -31.0894C130.716 -34.9846 131.816 -46.3259 130.716 -47.795C129.616 -49.2641 135.867 -74.1862 137.68 -75.2821C139.492 -76.3779 143.539 -109.373 144.27 -114.522C152.334 -107.822 158.68 -95.7059 158.68 -88.7432C158.68 -81.7806 149.019 -68.4629 158.762 -66.5632C165.582 -65.2376 168.911 -50.9677 169.427 -44.0242C171.737 -12.838 172.842 -8.8662 174.31 -4.54024C177.118 3.70492 180.906 2.79092 180.906 -4.17655C180.906 -11.144 182.493 -27.1845 186.52 -31.9316C190.547 -36.6786 195.808 -35.1282 198.74 -37.674C201.672 -40.2198 197.712 -52.7526 195.32 -57.5141C193.747 -60.6532 190.06 -53.2551 189.787 -58.3419C189.648 -60.9787 194.436 -66.3191 194.163 -68.195C193.824 -70.5637 191.183 -72.7937 188.06 -75.9951C183.919 -80.2397 170.121 -85.1734 168.451 -95.4045C165.52 -113.364 166.62 -125.461 159.656 -132.06C156.241 -135.295 154.17 -140.061 149.565 -145.785C148.336 -147.311 143.672 -145.124 142.563 -146.598C139.354 -150.848 137.225 -159.375 136.393 -161.591C134.198 -167.457 128.334 -161.222 127.234 -157.561C126.134 -153.901 128.497 -129.079 123.705 -127.361C117.817 -125.255 119.73 -122.164 118.262 -117.398C116.794 -112.632 125.589 -110.43 125.589 -100.534C125.589 -90.6382 116.799 -86.2405 115.699 -79.6415C114.599 -73.0425 116.799 -71.5782 116.799 -66.0798C116.799 -60.5815 104.435 -45.4741 101.274 -41.8899C98.1128 -38.3057 95.6927 -37.8845 93.3923 -31.0894C91.0918 -24.2942 85.2617 -6.37303 82.9709 -1.48719C80.68 3.39866 82.9708 7.79639 84.4391 6.00667C85.9074 4.21695 85.3956 3.23596 87.3709 -0.51097C89.3461 -4.2579 89.6474 -5.72222 93.3923 -8.98105C97.1371 -12.2399 97.8401 -22.337 102.374 -27.3903C105.115 -14.8479 104.765 -3.94207 103.488 1.93434C102.212 7.81075 99.581 13.5005 99.581 18.8745C99.581 24.2484 101.207 27.3493 100.394 31.4217C99.581 35.494 93.3014 47.5483 99.2128 50.0702Z" fill="#ED824C"/>
<path d="M202.938 440.015C199.973 441.37 195.067 445.678 200.499 453.872C198.609 453.426 193.561 454.482 189.66 463.023C185.758 471.565 175.525 486.057 176.042 491.159C176.56 496.26 179.476 500.118 176.869 502.297C174.261 504.476 167.903 506.615 170.355 513.018C172.808 519.421 176.949 519.545 178.451 529.357C178.709 531.023 184.147 541.044 184.466 538.499C185.52 530.1 183.724 521.738 184.482 519.719C185.24 517.701 187.197 505.901 189.717 492.662C189.717 492.662 194.809 499.172 199.42 515.309C201.113 521.274 207.434 527.878 209.428 534.581C210.25 537.345 214.052 542.95 215.327 547.976C217.142 555.152 222.488 556.627 229.498 563.087C233.531 566.806 230.744 556.287 227.253 551.73C227.253 551.73 222.913 549.691 217.93 540.775C213.094 532.128 212.111 525.825 211.197 521.091C209.498 512.329 205.413 513.65 204.929 506.589C204.545 500.985 202.334 491.332 203.981 489.133C205.628 486.933 211.284 486.713 210.041 483.479C208.799 480.245 206.242 474.559 207.777 471.427C209.312 468.295 219.113 461.205 219.648 450.621C218.601 443.388 224.429 437.625 227.032 436.435C229.634 435.244 227.608 429.949 225.098 427.387C222.587 424.825 224.613 404.66 224.404 401.61C220.413 395.7 219.881 390.816 218.209 392.441C216.538 394.067 218.395 399.417 218.635 403.046C218.874 406.675 216.195 415.142 213.548 417.722C210.901 420.302 210.919 436.355 202.938 440.015Z" fill="#ED824C"/>
<path d="M167.336 156.537C168.896 158.343 171.5 168.844 172.684 170.645C177.243 177.584 181.029 177.14 181.31 176.464C181.592 175.787 176.588 167.447 175.923 162.235C175.758 160.91 177.945 153.302 178.207 151.731C178.468 150.16 165.871 146.202 163.88 140.683C151.297 105.806 153.716 122.435 150.178 114.602C147.629 108.969 147.292 103.842 146.124 101.861C143.334 97.1214 138.164 98.4857 135.766 95.7616C133.367 93.0374 129.894 85.7986 129.894 85.7986C131.382 83.7802 129.963 80.4852 128.632 78.626C126.473 75.2542 124.57 71.7244 122.941 68.0665C121.882 65.45 119.01 67.4581 117.608 67.8164C116.207 68.1747 111.195 72.924 110.68 74.0878C110.165 75.2517 114.78 79.8981 115.739 83.7183C112.132 79.7707 110.284 77.436 108.435 78.0334C106.587 78.6308 107.285 82.7584 107.68 84.4501C108.074 86.1417 110.824 87.6308 111.467 89.8412C112.109 92.0517 112.016 96.7846 113.335 98.5441C114.653 100.304 116.377 102.022 117.24 105.613C118.103 109.204 118.522 116.998 118.254 120.33C117.986 123.662 120.923 125.22 121.652 123.344C122.382 121.469 123.239 119.573 123.188 119.164C124.746 128.316 123.318 135.641 123.441 138.784C123.564 141.928 125.116 143.398 125.588 144.978C124.204 152.573 126.011 157.156 128.361 160.575C130.711 163.995 132.148 171.098 131.964 172.905C131.78 174.712 134.364 185.525 135.007 188.468C135.649 191.412 137.152 193.563 134.601 194.017C132.05 194.47 127.348 195.337 127.177 196.319C127.005 197.3 127.276 198.235 129.559 198.914C131.842 199.594 130.525 203.327 128.105 207.068C127.23 208.439 126.653 209.979 126.412 211.587C126.171 213.196 126.272 214.838 126.707 216.405C127.203 218.176 124.667 219.134 123.551 219.731C122.435 220.329 118.693 224.095 118.693 224.095C118.693 224.095 120.891 228.494 120.631 230.084C120.372 231.674 117.918 235.37 116.258 236.128C114.598 236.885 112.234 236.905 111.016 236.3C109.798 235.695 109.301 236.881 110.337 238.579C111.373 240.277 113.294 245.926 111.818 248.43C116.654 247.551 123.619 248.33 123.773 244.043C123.927 239.756 122.658 239.326 125.347 236.656C128.035 233.986 129.456 234.359 130.318 232.462C131.18 230.565 130.369 228.472 131.362 226.544C136.758 226.835 140.288 229.827 142.472 219.799C144.656 209.77 145.435 205.776 146.1 201.57C146.765 197.363 147.554 199.281 146.776 193.055C145.999 186.83 145.266 173.636 144.973 168.358C144.68 163.08 144.094 159.854 141.637 154.847C139.18 149.839 140.713 145.983 140.127 141.291C139.857 139.126 138.81 134.261 137.641 129.411C136.278 123.75 134.745 118.116 134.094 116.833C137.337 121.38 140.695 126.348 146.496 130.426C148.264 131.652 157.786 154.942 159.086 156.434C163.797 161.893 166.406 155.462 167.336 156.537Z" fill="#ED824C"/>
<path d="M-9.33173 601.723C-4.76906 592.004 -4.90299 590.449 -4.90299 590.449C0.27664 593.722 -0.866424 590.645 -0.3212 587.376C0.224024 584.108 3.27539 583.017 4.36584 582.199C5.45628 581.38 2.11798 574.638 8.93328 570.269C15.7486 565.9 25.8352 557.99 26.9257 543.806C25.29 563.172 30.4696 571.901 34.8314 574.489C39.1932 577.078 50.0977 576.81 53.369 587.721C56.6404 598.632 57.1952 611.169 56.0951 615.543C54.9951 619.917 45.0376 634.684 45.0376 638.513C45.0376 642.341 46.6733 644.255 46.6733 644.255C44.2198 651.912 40.4271 658.448 40.4271 662.54C40.4271 666.631 39.791 671.359 37.8827 675.46C35.9745 679.561 39.2458 685.553 41.9719 691.008C47.7111 683.098 54.1486 684.916 54.1486 681.097C54.1486 677.279 52.7855 665.55 52.7855 660.095C56.0569 668.55 59.0556 664.459 59.0556 658.458C59.0556 652.457 61.6669 648.887 61.1217 643.174C60.5765 637.46 74.0828 622.941 75.1732 617.759C76.2636 612.576 76.8089 607.121 81.1707 600.574C85.5324 594.028 103.525 579.854 109.522 570.302C115.52 560.751 119.882 559.387 118.791 552.841C117.701 546.294 117.973 548.204 123.426 549.012C128.878 549.821 132.991 542.739 132.149 537.829C131.307 532.919 135.148 518.209 137.329 508.098C139.51 497.986 140.327 485.185 140.327 480.003C140.327 474.82 141.963 470.729 138.964 469.365C135.966 468.001 134.057 465.819 132.422 460.909C130.786 456 130.509 453.253 125.726 453.956C120.943 454.66 117.548 450.271 117.548 450.271C117.548 450.271 110.852 452.047 112.287 454.502C113.721 456.957 116.314 465.546 116.452 468.547C112.091 471.002 112.77 470.868 113.999 478.093C115.228 485.319 114.955 498.962 114.678 502.37C114.401 505.777 116.591 506.873 119.585 505.643C120.542 513.826 116.405 524.827 115.678 527.177C114.951 529.526 104.046 529.177 103.501 531.723C102.956 534.269 104.591 534.45 103.683 538.997C102.774 543.543 95.5043 546.27 93.8686 548.816C92.233 551.362 86.599 559.526 86.0538 567.718C85.5085 575.911 84.2363 580.457 79.1476 583.73C74.0588 587.003 73.5136 597.368 68.6257 602.46C68.0805 588.276 60.9735 579.366 58.8117 577.002C56.6499 574.638 43.7272 571.709 40.8193 567.718C37.9114 563.727 35.9123 550.998 35.9123 549.725C40.0923 551.907 42.455 551.544 42.2732 546.634C42.0915 541.724 41.5463 539.906 39.9106 535.542C38.2749 531.177 35.5488 532.996 34.6497 530.632C33.7505 528.268 31.8423 524.631 33.3344 521.176C34.8266 517.721 33.3344 509.902 33.3344 509.902C29.03 511.337 22.473 513.73 21.2008 514.63C19.9286 515.529 24.1087 521.358 24.1087 523.722C24.1087 526.086 18.3695 528.632 18.6995 530.814C19.0295 532.996 17.7429 539.178 15.7486 542.815C13.7542 546.452 3.75364 561.363 -0.789892 565.182C-5.33342 569.001 -6.24212 576.093 -6.96909 581.548C-7.69605 587.003 -11.1491 591.731 -13.1483 594.468C-15.1475 597.206 -11.9431 607.288 -9.33173 601.723Z" fill="#ED824C"/>
<path d="M13.739 409.051C10.0267 414.397 8.23759 415.71 7.89276 421.09C7.54793 426.47 17.6249 437.8 17.3817 445.884C17.1384 453.968 21.9456 455.375 23.0527 451.509C25.817 459.166 24.4114 468.015 24.1684 473.201C24.0415 476.134 27.1811 480.41 26.3265 485.909C25.6703 490.14 21.0334 495.929 20.6529 497.264C19.7821 500.342 24.1463 500.478 27.4764 495.165C30.8065 489.853 35.2434 479.716 43.5767 476.692C49.6416 474.532 36.4482 466.679 35.1471 456.259C33.846 445.839 35.841 438.7 34.7072 434.306C33.5733 429.911 22.3831 436.117 22.3831 436.117C29.0899 431.078 30.796 430.718 31.6347 429.142C30.4459 424.243 27.2827 423.048 27.6052 418.164C27.9277 413.279 28.5278 404.249 26.8106 402.581C25.0933 400.913 27.6699 393.714 29.1727 389.441C30.6754 385.169 21.6851 385.467 19.6306 392.21C17.576 398.954 15.9592 405.867 13.739 409.051Z" fill="#ED824C"/>
<path d="M191.316 88.9068C193.804 86.7998 197.365 81.3228 189.912 74.9073C191.853 74.8246 196.431 72.4398 197.869 63.1625C199.307 53.8851 205.239 37.162 203.359 32.3911C201.48 27.6201 197.629 24.6957 199.548 21.8923C201.468 19.0888 207.01 15.3081 202.915 9.80824C198.821 4.30834 194.801 5.31041 190.698 -3.72789C189.999 -5.2617 182.055 -13.4379 182.432 -10.9C183.692 -2.52921 187.685 5.0342 187.502 7.18263C187.318 9.33106 188.63 21.2197 189.793 34.6445C189.793 34.6445 183.124 29.758 174.321 15.4715C171.071 10.1887 163.198 5.54359 159.464 -0.3694C157.924 -2.8075 152.746 -7.17402 150.162 -11.6685C146.468 -18.0833 140.922 -18.0561 132.424 -22.3765C127.535 -24.8647 133.067 -15.4928 137.666 -12.0526C137.666 -12.0526 142.39 -11.2636 149.602 -4.03035C156.598 2.98493 159.251 8.78564 161.413 13.0951C165.421 21.0699 168.996 18.6922 171.374 25.3583C173.261 30.6497 178.003 39.3433 177.013 41.9065C176.023 44.4697 170.638 46.213 172.71 48.9896C174.782 51.7663 178.783 56.5477 178.153 59.9783C177.523 63.4088 170.008 72.8879 172.359 83.2217C175.331 89.8891 171.282 97.0139 169.098 98.8648C166.915 100.716 170.3 105.265 173.41 107.051C176.52 108.838 180.03 128.798 181.058 131.678C186.5 136.285 188.334 140.844 189.508 138.825C190.681 136.806 187.435 132.161 186.222 128.733C185.009 125.304 185.3 116.426 187.145 113.227C188.99 110.029 184.625 94.591 191.316 88.9068Z" fill="#ED824C"/>
<path d="M-28.7581 24.416C-27.3615 35.0571 -27.9615 36.4982 -27.9615 36.4982C-22.0324 34.9529 -24.0561 37.5373 -24.5308 40.8215C-25.0055 44.1056 -22.4282 46.0674 -21.6378 47.1782C-20.8474 48.2891 -26.0745 53.6946 -20.9082 59.9272C-15.7419 66.1599 -8.53435 76.76 -11.8035 90.6049C-7.47971 71.6567 0.082289 64.9262 5.04838 63.772C10.0145 62.6179 20.2984 66.1977 26.7291 56.7961C33.1598 47.3946 37.4965 35.6178 37.7754 31.1211C38.0544 26.6243 33.0542 9.52544 34.2169 5.87802C35.3797 2.23059 37.5195 0.903689 37.5195 0.903689C37.5074 -7.13636 35.8794 -14.5163 37.1221 -18.4145C38.3648 -22.3126 39.1948 -27.0104 38.6223 -31.4973C38.0498 -35.9842 42.9864 -40.6988 47.2406 -45.0684C50.3061 -35.7887 56.9918 -35.566 55.8319 -31.9277C54.672 -28.2894 49.8022 -17.5012 48.1453 -12.3037C53.8303 -19.3663 55.4447 -14.5573 53.622 -8.83996C51.7994 -3.12263 53.2031 1.07174 50.9481 6.34991C48.6932 11.6281 57.1501 29.5678 56.615 34.8367C56.0798 40.1056 54.9423 45.4688 57.1111 53.0261C59.28 60.5835 72.1157 79.5575 74.9287 90.4794C77.7417 101.401 81.4832 104.026 78.4559 109.931C75.4287 115.837 76.2683 114.101 81.7086 114.987C87.1489 115.872 88.9166 123.869 86.6233 128.291C84.3301 132.713 83.5211 147.895 82.5278 158.191C81.5345 168.487 78.4257 180.932 76.8516 185.87C75.2775 190.807 75.5932 195.202 72.3219 195.591C69.0506 195.979 66.5697 197.479 63.52 201.66C60.4703 205.841 59.3718 208.374 55.0287 206.251C50.6856 204.128 46.1175 207.277 46.1175 207.277C46.1175 207.277 40.2774 203.552 42.39 201.649C44.5026 199.746 49.5814 192.349 50.6248 189.533C47.2147 185.869 47.8211 186.203 51.1869 179.692C54.5527 173.181 58.4354 160.104 59.2074 156.769C59.9794 153.434 62.3964 153.064 64.8768 155.141C68.2736 147.635 67.6735 135.897 67.6946 133.437C67.7156 130.978 57.2202 127.999 57.4739 125.407C57.7277 122.816 59.3414 123.14 59.8564 118.533C60.3714 113.925 54.2736 109.118 53.4885 106.196C52.7033 103.274 49.8152 93.7844 51.784 85.8133C53.7529 77.8422 53.9216 73.1245 50.0674 68.4603C46.2133 63.7961 48.842 53.7551 45.7301 47.424C40.904 60.7675 31.4263 67.0983 28.6487 68.694C25.871 70.2896 12.6692 69.1548 8.68657 72.0741C4.70389 74.9933 -1.06705 86.5138 -1.45367 87.7265C3.19169 86.9171 5.33223 87.9812 3.66782 92.6038C2.00341 97.2265 0.931647 98.7934 -1.95231 102.455C-4.83628 106.116 -6.88128 103.555 -8.45596 105.535C-10.0306 107.514 -12.9462 110.376 -12.5904 114.126C-12.2347 117.876 -16.0148 124.868 -16.0148 124.868C-19.6798 122.193 -25.2003 117.921 -26.1392 116.678C-27.078 115.434 -21.3251 111.151 -20.6071 108.898C-19.8891 106.646 -24.5839 102.477 -23.6067 100.499C-22.6295 98.5198 -21.9774 92.2385 -22.7729 88.1677C-23.5684 84.0969 -28.5509 66.8479 -31.717 61.8205C-34.8832 56.793 -33.5978 49.7693 -32.6335 44.3509C-31.6691 38.9325 -33.5231 33.3792 -34.5964 30.1641C-35.6697 26.9489 -29.5528 18.3113 -28.7581 24.416Z" fill="#ED824C"/>
<path d="M356.392 -177.442C355.12 -182.705 353.121 -185.624 351.849 -194.19C351.849 -194.19 345.851 -197.282 339.309 -197.645C340.217 -195.645 343.135 -187.644 342.111 -187.826C341.088 -188.008 338.582 -184.916 340.036 -181.279C341.49 -177.643 343.125 -176.551 341.308 -172.369C339.49 -168.187 333.656 -159.822 334.402 -155.276C335.148 -150.73 334.947 -145.638 330.155 -131.665C325.903 -139.513 324.951 -134.182 324.951 -131.665C324.951 -129.148 324.406 -120.089 320.317 -117.041C319.728 -116.601 319.131 -116.17 318.552 -115.715C317.729 -117.529 317.055 -119.151 316.859 -120.453C316.404 -123.453 317.313 -132.545 316.132 -134.909C314.951 -137.273 313.224 -137.001 311.407 -134.637C306.59 -138.546 305.5 -150.275 302.592 -157.549C299.684 -164.823 299.321 -169.732 295.504 -173.733C291.688 -177.733 285.327 -179.552 288.78 -182.098C292.233 -184.643 290.052 -192.099 288.598 -199.009C293.505 -202.1 292.96 -198.827 290.033 -207.192C287.106 -215.557 286.761 -221.189 288.034 -224.644C289.306 -228.099 287.67 -235.756 280.764 -241.747C273.858 -247.738 274.408 -260.831 273.863 -263.104C269.592 -265.195 268.501 -260.558 267.047 -257.194C265.593 -253.83 265.134 -253.285 264.23 -252.739C265.034 -255.797 265.461 -258.942 265.502 -262.104C265.593 -265.286 266.32 -271.675 266.411 -274.015C266.502 -276.355 262.322 -274.015 261.05 -272.287C259.778 -270.56 257.506 -268.559 256.688 -265.65C254.718 -258.563 245.329 -253.902 248.28 -249.518C251.231 -245.135 249.28 -243.097 247.668 -238.804C246.056 -234.512 233.454 -223.969 229.819 -220.696C226.184 -217.423 227.82 -212.15 229.819 -209.058C231.818 -205.967 229.455 -203.058 229.092 -196.329C229.092 -196.085 229.054 -195.851 229.03 -195.626C228.289 -195.53 224.568 -195.296 223.525 -195.147C219.163 -194.602 216.576 -191.932 214.758 -190.295C212.941 -188.658 218.828 -182.71 218.828 -180.045C218.828 -177.379 217.121 -171.646 215.304 -167.828C213.486 -164.009 214.452 -158.669 214.825 -154.304C215.198 -149.94 209 -148.811 209 -147.174C209 -145.538 217.303 -139.747 218.03 -133.747C218.757 -127.746 218.393 -122.29 217.484 -119.926C216.576 -117.562 215.849 -113.926 219.665 -115.199C223.482 -116.471 223.491 -117.926 223.491 -117.199C225.491 -112.653 230.819 -104.455 230.273 -101C229.728 -97.5453 228.839 -88.8169 231.182 -88.0799C233.526 -87.343 235.544 -84.6201 235.907 -81.9834C236.271 -79.3467 238.997 -71.1685 238.633 -66.6224C238.27 -62.0763 242.995 -58.6213 245.358 -53.702C247.721 -48.7826 248.156 -46.4283 248.304 -43.8824C248.452 -41.3366 244.994 -38.4271 244.086 -35.6995C243.177 -32.9718 246.448 -33.8811 246.448 -30.0624C246.448 -26.2436 247.175 -22.7886 245.176 -19.8791C243.177 -16.9696 247.611 -11.4186 248.304 -5.73842C248.997 -0.0582108 249.294 4.57878 248.304 12.7617C247.314 20.9447 245.128 20.2604 245.128 21.763C245.128 23.2656 246.023 25.0362 248.304 25.9884C250.585 26.9407 249.701 34.8557 248.304 37.1718C246.907 39.4879 246.63 43.0386 245.946 46.8573C245.262 50.676 245.946 51.6427 246.219 54.9015C246.491 58.1603 246.085 60.2228 246.219 62.8117C242.675 66.2237 242.393 68.9513 242.675 73.3156C242.957 77.6798 241.996 80.5893 240.762 82.9532C239.528 85.3172 237.356 84.1878 237.356 86.7815C237.356 89.3752 237.902 94.8496 236.266 97.5773C234.63 100.305 231.086 100.578 229.857 104.937C228.628 109.297 230.541 109.167 230.675 112.986C230.809 116.805 231.359 121.987 228.222 123.758C230.402 129.079 230.948 134.535 229.178 139.578C232.813 134.85 235.357 131.213 236.084 125.395C236.811 119.576 237.356 115.211 240.083 110.665C242.809 106.119 242.99 106.301 242.99 110.665C242.99 115.029 239.719 120.848 242.99 119.576C246.262 118.303 248.251 113.211 250.805 105.033C253.359 96.8547 255.349 96.4862 257.53 93.7585C259.711 91.0309 262.791 82.6661 262.437 80.484C262.083 78.3019 256.803 78.5268 256.348 78.3019C260.117 77.072 262.346 77.2108 264.001 77.3926C265.656 77.5745 268.09 72.7556 269.362 70.4826C270.634 68.2096 269.907 68.3005 269.907 66.7548C269.907 65.2092 270.18 64.209 272.452 62.4815C274.723 60.754 274.451 54.6144 275.264 51.2072C276.077 47.8001 277.45 40.5694 278.808 37.2962C280.166 34.023 281.534 27.3379 280.989 25.7013C280.444 24.0647 277.856 23.9307 276.354 25.7013C274.853 27.4719 273.485 37.0235 272.949 39.0668C272.413 41.1101 270.768 42.34 270.768 38.794C270.768 35.2481 272.131 22.9737 271.041 20.246C269.95 17.5184 269.816 19.4277 268.453 14.5036C267.09 9.57948 269.18 1.91336 269.362 -3.90562C269.544 -9.72461 268.635 -18.9986 268.272 -21.1808C267.908 -23.3629 265.909 -19.7451 257.549 -21.1808C264.637 -22.8173 266.272 -23.7265 267.181 -26.636C268.09 -29.5455 268.09 -29.9523 266.636 -34.5702C265.182 -39.188 264.637 -45.9114 265.364 -51.1849C266.091 -56.4583 264.819 -56.2765 263.001 -59.7315C261.184 -63.1865 255.617 -70.1779 253.436 -79.16C251.255 -88.1421 252.618 -89.2523 252.891 -95.2532C253.163 -101.254 250.71 -98.7991 246.893 -103.163C243.077 -107.528 243.067 -113.251 242.531 -122.252C242.187 -127.918 241.733 -132.526 240.833 -135.833C240.835 -135.841 240.835 -135.849 240.833 -135.857C238.265 -145.475 238.265 -154.467 245.774 -147.059C250.786 -142.274 256.908 -136.268 258.075 -133.182C259.711 -128.818 258.075 -121.453 260.801 -119.544C263.527 -117.634 267.344 -118.453 267.616 -108.633C267.889 -98.8135 270.343 -94.1813 272.069 -94.9996C274.442 -96.2205 276.43 -98.0778 277.808 -100.364C279.171 -102.819 277.45 -104.092 276.632 -107.819C275.814 -111.547 276.153 -118.18 275.814 -120.907C275.474 -123.635 268.64 -124.453 266.363 -124.908C271.27 -126.181 272.815 -126.09 274.633 -125.817C276.45 -125.544 273.542 -135.909 272.452 -138.819C271.361 -141.728 270.089 -140.456 266.999 -142.092C263.91 -143.729 264.063 -146.633 263.341 -149.73C262.619 -152.826 253.842 -155.927 253.163 -157.989C252.8 -159.075 250.49 -162.425 248.065 -165.775C248.294 -171.393 248.997 -175.207 249.347 -178.346C249.892 -183.256 253.618 -184.71 255.98 -186.711C258.343 -188.711 254.435 -199.349 256.071 -203.895C257.707 -208.441 262.977 -232.803 262.614 -237.871C270.108 -223.099 268.975 -204.78 267.875 -200.598C266.775 -196.415 264.646 -197.507 268.353 -191.324C272.06 -185.141 274.967 -172.776 275.149 -168.412C275.331 -164.047 279.688 -151.136 283.504 -150.955C288.048 -139.68 289.684 -133.316 291.501 -131.335C293.318 -129.354 292.41 -126.65 296.91 -126.377C301.411 -126.104 305.089 -123.104 303.453 -121.333C301.817 -119.563 305.892 -111.921 305.629 -107.968C305.366 -104.015 300.225 -83.7827 300.952 -80.4186C301.679 -77.0545 304.859 -71.5992 308.857 -68.9625C312.856 -66.3257 311.765 -69.7808 310.039 -71.872C308.312 -73.9631 308.403 -75.7816 308.403 -75.7816C310.493 -77.1454 312.97 -74.145 311.598 -83.6918C310.225 -93.2385 314.037 -95.057 314.764 -98.4211C314.836 -98.7704 314.889 -99.1235 314.922 -99.4786C317.466 -102.206 322.038 -103.422 326.582 -106.877C331.126 -110.332 339.495 -121.233 340.394 -125.97C341.293 -130.708 341.485 -130.698 346.755 -131.636C352.026 -132.574 345.847 -137.426 345.483 -143.064C345.12 -148.701 347.3 -153.429 351.844 -156.156C356.388 -158.884 357.665 -172.168 356.392 -177.442Z" fill="#ED824C"/>
</mask>
<g mask="url(#mask0_412_386)">
<rect width="450" height="720" fill="#ED824C"/>
</g>
</g>
<defs>
<clipPath id="clip0_412_386">
<rect width="450" height="720" fill="white"/>
</clipPath>
</defs>
</svg>
