<svg width="450" height="720" viewBox="0 0 450 720" fill="none" xmlns="http://www.w3.org/2000/svg">
<mask id="mask0_412_386" style="mask-type:alpha" maskUnits="userSpaceOnUse" x="0" y="0" width="450" height="720">
<rect width="450" height="720" fill="#E5B76E"/>
</mask>
<g mask="url(#mask0_412_386)">
<path d="M372.936 476.428C373.512 470.114 372.292 469.994 368.883 468.524C365.473 467.053 362.341 466.78 358.194 466.11C354.047 465.44 349.444 464.905 349.444 468.924L349.444 476.409C349.444 480.152 346.772 485.519 354.601 483.778C362.431 482.038 362.341 479.759 364.276 479.759C366.211 479.759 372.618 479.924 372.936 476.428Z" fill="#E5B76E"/>
<path d="M341.554 481.388C341.678 477.896 341.288 475.49 341.554 472.005C341.82 468.521 343.163 465.441 339.814 465.04C336.464 464.64 329.095 467.316 326.951 468.783C324.806 470.25 318.642 467.308 313.148 467.847C307.654 468.386 302.564 469.187 300.955 472.267C299.345 475.348 298.544 476.822 308.994 480.576C319.443 484.33 323.736 486.336 326.681 484.861C329.627 483.387 332.98 483.798 334.72 484.113C336.46 484.427 341.498 483.529 341.554 481.388Z" fill="#E5B76E"/>
<path d="M419.246 703.39C417.592 708.439 424.665 710.015 429.081 714.431C433.498 718.847 436.308 720.853 442.33 718.847C448.352 716.841 454.175 709.21 449.557 702.185C444.939 695.16 422.857 692.35 419.246 703.39Z" fill="#E5B76E"/>
<path d="M251.725 702.366C250.958 707.979 255.468 716.752 265.386 716.123C275.304 715.495 277.175 709.866 275.835 702.366C274.495 694.865 272.351 696.205 269.675 692.455C266.999 688.705 262.975 691.115 261.1 692.455C259.225 693.795 252.53 696.475 251.725 702.366Z" fill="#E5B76E"/>
<path d="M169.075 121.074C168.308 126.687 172.817 135.46 182.735 134.831C192.653 134.203 194.524 128.574 193.185 121.074C191.845 113.573 189.7 114.913 187.024 111.163C184.348 107.413 180.325 109.823 178.45 111.163C176.575 112.503 169.879 115.183 169.075 121.074Z" fill="#E5B76E"/>
<path d="M313.261 702.57C311.487 706.796 316.978 706.863 322.064 709.472C327.15 712.08 337.322 712.552 347.689 711.152C358.056 709.752 359.033 707.784 361.185 705.538C363.337 703.293 368.034 703.019 365.489 699.846C362.944 696.672 358.839 695.276 348.079 695.089C337.319 694.902 331.649 693.693 325.387 696.395C319.126 699.097 314.433 699.775 313.261 702.57Z" fill="#E5B76E"/>
<path d="M222.34 120.912C220.566 125.138 226.057 125.205 231.143 127.814C236.229 130.422 246.402 130.894 256.769 129.494C267.135 128.094 268.112 126.126 270.264 123.88C272.416 121.634 277.113 121.361 274.568 118.188C272.023 115.014 267.918 113.618 257.158 113.431C246.398 113.244 240.728 112.035 234.466 114.737C228.205 117.439 223.512 118.116 222.34 120.912Z" fill="#E5B76E"/>
<path d="M204.883 209.01C203.678 212.783 207.413 212.842 210.871 215.178C214.33 217.513 221.265 217.929 228.327 216.675C235.389 215.421 236.055 213.681 237.522 211.675C238.99 209.669 242.186 209.429 240.453 206.589C238.72 203.748 235.928 202.505 228.6 202.341C221.272 202.176 217.41 201.087 213.143 203.505C208.877 205.922 205.684 206.506 204.883 209.01Z" fill="#E5B76E"/>
<path d="M187.361 295.957C185.489 299.883 191.249 299.943 196.575 302.372C201.901 304.801 212.545 305.231 223.398 303.933C234.252 302.634 235.273 300.811 237.526 298.731C239.779 296.65 244.69 296.391 242.017 293.442C239.345 290.493 235.067 289.194 223.806 289.022C212.545 288.85 206.59 287.724 200.056 290.235C193.521 292.746 188.588 293.367 187.361 295.957Z" fill="#E5B76E"/>
<path d="M249.984 506.571C251.107 501.668 244.958 499.681 242.907 499.311C240.856 498.94 239.186 498.379 232.667 497.065C226.147 495.751 218.89 494.644 218.333 500.231C217.775 505.819 216.656 514.378 227.27 515.868C237.884 517.357 238.992 514.371 241.118 513.076C243.243 511.781 249.052 510.688 249.984 506.571Z" fill="#E5B76E"/>
<path d="M172.03 9.56357C172.478 4.53158 165.584 4.56766 160.548 1.4187C155.513 -1.73026 152.472 -2.99573 147.316 0.151578C142.16 3.29888 138.385 11.618 144.167 17.1513C149.95 22.6845 171.032 20.5779 172.03 9.56357Z" fill="#E5B76E"/>
<path d="M199.417 663.076C197.243 667.406 203.972 667.478 210.211 670.154C216.45 672.829 228.924 673.312 241.649 671.875C254.373 670.438 255.56 668.432 258.198 666.138C260.837 663.844 266.593 663.555 263.475 660.303C260.358 657.051 255.32 655.617 242.143 655.438C228.965 655.258 221.993 654.004 214.317 656.777C206.64 659.551 200.854 660.206 199.417 663.076Z" fill="#E5B76E"/>
<path d="M116.417 72.42C114.243 76.7502 120.972 76.8213 127.211 79.4973C133.45 82.1732 145.924 82.656 158.649 81.2188C171.373 79.7817 172.56 77.7757 175.198 75.4815C177.837 73.1873 183.593 72.8991 180.475 69.6468C177.358 66.3945 172.32 64.9611 159.143 64.7814C145.965 64.6018 138.993 63.348 131.317 66.1212C123.64 68.8945 117.854 69.5494 116.417 72.42Z" fill="#E5B76E"/>
<path d="M401.683 215.79C399.73 220.094 401.904 224.859 408.982 226.85C416.059 228.841 420.483 227.954 424.465 226.85C428.447 225.746 430.453 221.984 429.992 217.34C429.532 212.695 425.569 209.6 420.703 210.042C415.838 210.483 403.895 210.925 401.683 215.79Z" fill="#E5B76E"/>
<path d="M348.906 210.395C348.18 215.717 352.454 223.999 361.825 223.404C371.197 222.809 372.974 217.487 371.706 210.395C370.437 203.303 368.412 204.568 365.878 201.038C363.345 197.509 359.546 199.773 357.772 201.038C355.998 202.303 349.665 204.818 348.906 210.395Z" fill="#E5B76E"/>
<path d="M363.221 277.825C362.443 281.725 364.857 281.785 367.095 284.187C369.333 286.59 373.809 287.028 378.371 285.737C382.934 284.446 383.364 282.638 384.311 280.572C385.258 278.506 387.324 278.248 386.205 275.332C385.086 272.417 383.278 271.114 378.544 270.942C373.809 270.77 371.313 269.651 368.558 272.147C365.804 274.644 363.738 275.243 363.221 277.825Z" fill="#E5B76E"/>
<path d="M323.554 383.703C321.458 388.232 327.944 388.303 333.954 391.106C339.965 393.909 351.982 394.403 364.232 392.906C376.481 391.409 377.634 389.306 380.179 386.918C382.724 384.53 388.267 384.22 385.261 380.818C382.256 377.416 377.402 375.919 364.677 375.716C351.952 375.514 345.264 374.219 337.865 377.116C330.466 380.013 324.938 380.702 323.554 383.703Z" fill="#E5B76E"/>
<path d="M386.065 666.229C385.657 670.455 387.128 670.545 391.645 671.982C396.163 673.419 399.879 674.085 399.879 672.644C399.879 671.203 402.27 671.207 405.725 671.982C409.179 672.756 413.7 671.761 417.42 671.095C421.141 670.429 418.483 668.774 421.807 668.662C425.13 668.55 430.71 669.216 434.565 669.216C438.42 669.216 438.551 668 438.551 665.122C438.551 662.244 435.104 658.834 430.441 658.928C425.778 659.021 420.074 658.815 417.02 658.153C413.966 657.49 414.89 659.148 415.025 659.923C415.16 660.698 413.697 662.023 409.842 661.473C405.987 660.922 395.489 659.481 393.494 660.919C391.499 662.356 386.331 663.464 386.065 666.229Z" fill="#E5B76E"/>
<path d="M115.426 692.374C114.752 695.039 114.572 695.933 117.241 696.63C119.909 697.326 125.561 698.276 130.254 699.32C134.947 700.365 135.265 700.013 136.119 699.32C136.972 698.628 136.972 698.71 141.452 699.058C145.932 699.407 151.269 699.231 152.44 701.577C153.611 703.924 157.56 704.44 161.186 702.27C164.813 700.099 163.642 699.493 165.24 699.32C166.838 699.148 168.234 700.443 172.919 699.755C177.605 699.066 181.134 698.972 180.708 694.283C180.281 689.593 169.72 685.256 163.118 684.215C156.516 683.175 151.171 682.651 148.825 683.257C146.478 683.864 146.478 684.56 145.625 684.908C144.771 685.256 143.813 684.736 142.211 684.65C140.61 684.563 135.385 684.822 130.797 685.342C126.208 685.862 119.704 687.513 119.49 687.962C119.277 688.411 115.972 690.207 115.426 692.374Z" fill="#E5B76E"/>
<path d="M308.684 623.247C307.752 627.161 309.144 628.595 310.031 629.849C310.918 631.102 312.954 630.792 314.448 630.896C315.941 631.001 315.818 631.439 316.585 633.142C317.352 634.845 318.883 634.639 321.304 635.668C323.87 636.685 326.553 637.378 329.291 637.73C330.788 637.835 330.986 637.281 332.236 638.771C333.486 640.26 334.152 639.92 337.278 639.28C340.403 638.64 341.739 637.959 343.393 636.802C345.047 635.646 350.055 635.971 353.621 635.953C357.188 635.934 359.512 637.513 363.285 635.923C367.057 634.332 366.616 634.729 370.59 634.123C374.565 633.516 374.299 635.829 377.671 634.834C381.043 633.838 380.557 631.986 380.336 629.362C380.115 626.738 377.132 623.449 374.954 623.071C372.776 622.693 370.332 623.606 367.589 623.037C364.845 622.468 364.445 619.983 360.104 620.357C355.762 620.732 354.213 620.84 349.774 620.208C345.335 619.575 341.484 617.693 340.253 619.893C339.022 622.094 340.653 623.917 340.653 623.917C337.386 623.864 335.088 619.8 332.42 619.545C329.751 619.291 326.529 620.028 323.812 620.586C321.095 621.143 320.544 621.046 317.449 620.758C314.354 620.47 309.025 621.809 308.684 623.247Z" fill="#E5B76E"/>
<path d="M426.711 336.266C426.532 340.009 427.086 342.599 426.711 346.341C426.337 350.084 424.354 353.396 429.264 353.826C434.174 354.257 444.983 351.379 448.104 349.796C451.225 348.212 460.275 351.379 468.314 350.802C476.353 350.226 483.823 349.365 486.177 346.053C488.531 342.741 489.71 341.158 474.399 337.127C459.089 333.096 452.808 330.937 448.49 332.524C444.171 334.11 439.264 333.665 436.715 333.309C434.167 332.954 426.82 333.961 426.711 336.266Z" fill="#E5B76E"/>
<path d="M368.809 435.41C367.686 440.275 373.813 442.266 375.853 442.637C377.892 443.007 379.558 443.561 386.044 444.86C392.53 446.159 399.753 447.266 400.31 441.709C400.868 436.151 401.976 427.629 391.414 426.147C380.853 424.665 379.749 427.644 377.615 428.924C375.482 430.204 369.737 431.334 368.809 435.41Z" fill="#E5B76E"/>
<path d="M441.086 424.358C440.315 429.744 440.798 429.224 447.096 432.09C453.395 434.957 450.839 432.379 459.125 434.954C467.411 437.528 473.156 435.957 478.587 434.954C484.017 433.95 493.183 434.096 495.054 427.94C496.925 421.783 491.618 420.208 482.883 420.923C474.148 421.637 469.713 420.208 463.126 419.635C456.539 419.062 441.658 420.35 441.086 424.358Z" fill="#E5B76E"/>
<path d="M367.035 325.71C364.718 329.977 367.297 334.692 375.68 336.676C384.063 338.659 389.303 337.772 394.019 336.676C398.734 335.579 401.092 331.848 400.568 327.244C400.044 322.641 395.329 319.568 389.565 320.006C383.802 320.444 369.655 320.882 367.035 325.71Z" fill="#E5B76E"/>
<path d="M412.792 473.33C410.696 477.937 413.028 483.038 420.607 485.171C428.185 487.305 432.92 486.354 437.183 485.171C441.445 483.989 443.579 479.962 443.103 474.988C442.628 470.014 438.369 466.698 433.159 467.173C427.95 467.648 415.161 468.12 412.792 473.33Z" fill="#E5B76E"/>
<path d="M423.105 618.261C422.143 622.64 427.813 629.444 440.253 628.954C452.693 628.464 455.044 624.089 453.352 618.261C451.661 612.434 448.981 613.475 445.62 610.559C442.259 607.644 437.214 609.519 434.86 610.559C432.506 611.6 424.115 613.681 423.105 618.261Z" fill="#E5B76E"/>
<path d="M419.491 294.816C418.56 299.55 424.054 306.916 436.109 306.384C448.163 305.853 450.443 301.122 448.833 294.816C447.224 288.51 444.578 289.625 441.322 286.481C438.066 283.338 433.174 285.359 430.895 286.481C428.616 287.604 420.472 289.861 419.491 294.816Z" fill="#E5B76E"/>
<path d="M427.403 384.609C426.826 389.399 428.263 390.75 429.019 392.259C429.775 393.767 433.758 396.132 440.004 396.132C446.25 396.132 450.019 393.658 451.958 391.289C453.896 388.92 453.036 388.804 453.683 386.559C454.331 384.313 455.513 383.759 451.31 379.773C447.107 375.788 443.559 375.252 438.604 376.974C433.649 378.696 427.724 381.918 427.403 384.609Z" fill="#E5B76E"/>
<path d="M379.015 577.032C376.979 581.28 379.723 584.566 379.723 585.981C379.723 587.396 381.448 590.379 385.688 592.261C389.929 594.144 396.051 593.676 403.278 592.261C410.505 590.846 412.698 587.239 411.913 583.47C411.127 579.701 410.812 579.858 408.144 574.989C405.475 570.12 401.549 569.023 396.684 569.967C391.819 570.91 391.029 573.107 388.989 574.675C386.949 576.243 380.823 573.264 379.015 577.032Z" fill="#E5B76E"/>
<path d="M239.757 255.193C237.886 260.257 242.946 263.053 251.879 264.03C260.813 265.006 267.576 266.039 266.939 257.619C266.303 249.198 255.337 250.852 252.134 251.746C248.93 252.641 240.648 252.772 239.757 255.193Z" fill="#E5B76E"/>
<path d="M315.387 126.104C313.515 131.167 318.575 133.963 327.509 134.94C336.443 135.917 343.205 136.95 342.569 128.529C341.933 120.108 330.967 121.762 327.764 122.657C324.56 123.551 316.278 123.682 315.387 126.104Z" fill="#E5B76E"/>
<path d="M275.143 211.749C273.62 215.118 275.316 218.808 280.825 220.357C286.334 221.907 289.777 221.218 292.876 220.357C295.975 219.496 297.524 216.57 297.18 212.954C296.835 209.339 293.737 206.914 289.949 207.288C286.162 207.662 276.865 207.962 275.143 211.749Z" fill="#E5B76E"/>
<path d="M246.084 170.921C245.316 176.535 249.826 185.307 259.744 184.675C269.662 184.042 271.533 178.421 270.193 170.921C268.854 163.42 266.709 164.745 264.033 161.003C261.357 157.26 257.334 159.663 255.459 161.003C253.584 162.343 246.888 165.026 246.084 170.921Z" fill="#E5B76E"/>
<path d="M294.34 176.895C292.566 181.116 298.057 181.184 303.143 183.796C308.229 186.408 318.402 186.876 328.769 185.477C339.135 184.077 340.112 182.116 342.272 179.87C344.431 177.625 349.121 177.355 346.576 174.181C344.031 171.008 339.918 169.619 329.173 169.432C318.428 169.245 312.743 168.032 306.481 170.738C300.22 173.444 295.512 174.095 294.34 176.895Z" fill="#E5B76E"/>
<path d="M283.613 294.233C282.689 298.747 286.521 302.957 289.912 303.807C293.303 304.656 299.366 304.046 303.243 303.807C307.12 303.567 313.666 302.411 313.546 297.564C313.427 292.717 308.486 291.176 307.274 288.129C306.061 285.083 301.787 283.466 297.169 283.466C292.55 283.466 284.702 288.9 283.613 294.233Z" fill="#E5B76E"/>
<path d="M292.115 250.08C291.457 252.64 291.281 253.501 293.897 254.167C296.513 254.833 302.067 255.75 306.674 256.753C311.281 257.756 311.595 257.419 312.434 256.753C313.272 256.087 313.272 256.169 317.673 256.502C322.075 256.835 327.307 256.671 328.46 258.92C329.612 261.169 333.486 261.675 337.067 259.586C340.649 257.498 339.474 256.918 341.046 256.753C342.618 256.588 343.976 257.835 348.587 257.168C353.198 256.502 356.649 256.42 356.23 251.929C355.81 247.438 345.443 243.257 338.95 242.254C332.457 241.251 327.221 240.757 324.919 241.337C322.617 241.917 322.614 242.591 321.775 242.924C320.937 243.257 319.998 242.756 318.407 242.673C316.816 242.591 311.704 242.838 307.202 243.34C302.699 243.841 296.311 245.424 296.101 245.843C295.892 246.263 292.654 247.999 292.115 250.08Z" fill="#E5B76E"/>
<path d="M372.416 120.99C371.757 123.55 371.581 124.411 374.197 125.077C376.814 125.743 382.368 126.66 386.975 127.663C391.582 128.666 391.896 128.329 392.735 127.663C393.573 126.997 393.573 127.079 397.974 127.412C402.375 127.746 407.608 127.581 408.76 129.83C409.913 132.079 413.787 132.585 417.368 130.496C420.95 128.408 419.775 127.828 421.347 127.663C422.919 127.499 424.277 128.745 428.888 128.079C433.499 127.412 436.95 127.33 436.53 122.839C436.111 118.348 425.744 114.167 419.251 113.164C412.757 112.161 407.522 111.667 405.22 112.247C402.918 112.828 402.914 113.501 402.076 113.834C401.238 114.167 400.298 113.666 398.708 113.584C397.117 113.501 392.005 113.748 387.502 114.25C383 114.751 376.611 116.334 376.402 116.754C376.192 117.173 372.955 118.909 372.416 120.99Z" fill="#E5B76E"/>
<path d="M289.217 420.2C288.615 425.938 288.993 425.388 293.937 428.434C298.881 431.481 296.86 428.737 303.375 431.484C309.891 434.231 314.386 432.551 318.656 431.484C322.927 430.418 330.116 430.567 331.58 423.999C333.043 417.431 328.881 415.765 322.028 416.514C315.176 417.262 311.691 415.765 306.523 415.14C301.354 414.515 289.666 415.938 289.217 420.2Z" fill="#E5B76E"/>
<path d="M302.31 667.211C301.936 671.545 302.175 671.129 305.098 673.435C308.021 675.74 306.827 673.667 310.679 675.74C314.53 677.814 317.187 676.545 319.713 675.74C322.239 674.936 326.487 675.048 327.352 670.093C328.216 665.138 325.758 663.869 321.704 664.445C317.651 665.022 315.593 663.869 312.539 663.408C309.485 662.948 302.576 663.985 302.31 667.211Z" fill="#E5B76E"/>
<path d="M218.136 65.9063C217.762 70.2402 218.001 69.8248 220.924 72.1302C223.847 74.4356 222.653 72.3622 226.504 74.4356C230.355 76.509 233.013 75.2403 235.539 74.4356C238.065 73.631 242.313 73.7432 243.178 68.788C244.042 63.8328 241.583 62.5641 237.53 63.1405C233.477 63.7168 231.418 62.5641 228.364 62.1038C225.31 61.6434 218.402 62.6801 218.136 65.9063Z" fill="#E5B76E"/>
<path d="M258.098 382.458C257.199 386.927 262.499 393.862 274.123 393.36C285.748 392.859 287.952 388.401 286.38 382.458C284.808 376.515 282.293 377.593 279.153 374.599C276.013 371.605 271.294 373.539 269.097 374.599C266.9 375.658 259.041 377.784 258.098 382.458Z" fill="#E5B76E"/>
<path d="M166.062 720.364C165.358 729.159 170.781 729.522 176.055 729.803C181.328 730.083 179.662 727.58 184.663 728.137C189.663 728.695 195.486 731.745 201.313 731.745C207.141 731.745 208.798 724.806 213.248 723.972C217.698 723.137 221.299 712.594 211.583 711.483C201.867 710.371 199.094 706.767 190.49 708.432C181.886 710.098 166.619 713.425 166.062 720.364Z" fill="#E5B76E"/>
<path d="M299.889 343.328C299.04 346.266 302.554 349.009 305.664 349.563C308.774 350.117 314.332 349.72 317.887 349.563C321.443 349.406 327.442 348.653 327.33 345.498C327.217 342.343 322.693 341.337 321.581 339.342C320.47 337.347 316.551 336.303 312.329 336.303C308.108 336.303 300.888 339.854 299.889 343.328Z" fill="#E5B76E"/>
<path d="M249.6 604.181C248.313 608.65 253.653 612.819 258.384 613.661C263.115 614.503 271.562 613.901 276.966 613.661C282.37 613.422 291.491 612.28 291.322 607.482C291.154 602.684 284.271 601.157 282.583 598.126C280.896 595.094 274.937 593.522 268.519 593.522C262.1 593.522 251.12 598.904 249.6 604.181Z" fill="#E5B76E"/>
<path d="M428.246 251.398C426.592 256.45 433.665 258.022 438.081 262.439C442.498 266.855 445.308 268.865 451.33 266.859C457.352 264.853 463.175 257.221 458.557 250.185C453.939 243.149 431.857 240.357 428.246 251.398Z" fill="#E5B76E"/>
<path d="M383.246 166.398C381.592 171.45 388.665 173.022 393.081 177.439C397.498 181.855 400.308 183.865 406.33 181.859C412.352 179.853 418.175 172.221 413.557 165.185C408.939 158.149 386.857 155.357 383.246 166.398Z" fill="#E5B76E"/>
<path d="M193.195 21.6589C191.907 26.1275 197.248 30.2968 201.979 31.1389C206.709 31.981 215.156 31.3784 220.561 31.1389C225.965 30.8994 235.086 29.7579 234.917 24.9599C234.749 20.1619 227.866 18.6349 226.178 15.6034C224.49 12.5719 218.532 11 212.114 11C205.695 11 194.714 16.3818 193.195 21.6589Z" fill="#E5B76E"/>
<path d="M290.679 566.499C287.213 569.452 291.88 571.739 291.88 572.719C291.88 573.7 294.822 575.773 302.041 577.083C309.261 578.393 319.684 578.067 331.982 577.083C344.28 576.099 348.023 573.591 346.687 570.971C345.351 568.352 344.816 568.464 340.272 565.081C335.729 561.697 329.044 560.934 320.754 561.585C312.465 562.236 311.132 563.771 307.655 564.86C304.178 565.949 293.752 563.879 290.679 566.499Z" fill="#E5B76E"/>
<path d="M335.137 29.9197C334.561 36.2334 335.781 36.3532 339.19 37.824C342.6 39.2949 345.732 39.5681 349.879 40.238C354.026 40.9079 358.629 41.4431 358.629 37.4236V29.9384C358.629 26.1958 361.302 20.8289 353.472 22.5692C345.643 24.3095 345.732 26.5888 343.797 26.5888C341.863 26.5888 335.455 26.4241 335.137 29.9197Z" fill="#E5B76E"/>
<path d="M366.519 24.9596C366.395 28.4514 366.784 30.8579 366.519 34.3423C366.253 37.8266 364.909 40.9068 368.259 41.3072C371.609 41.7077 378.978 39.0317 381.122 37.5646C383.267 36.0975 389.431 39.0392 394.925 38.5003C400.419 37.9614 405.509 37.1604 407.118 34.0803C408.728 31.0001 409.528 29.5256 399.079 25.7717C388.63 22.0179 384.337 20.0119 381.392 21.4865C378.446 22.961 375.093 22.5494 373.353 22.235C371.612 21.9206 366.575 22.8188 366.519 24.9596Z" fill="#E5B76E"/>
<path d="M267.232 27.9761C265.671 32.7367 272.341 34.2225 276.506 38.3843C280.672 42.546 283.318 44.4435 288.999 42.5498C294.68 40.656 300.163 33.4628 295.81 26.8309C291.458 20.199 270.638 17.5643 267.232 27.9761Z" fill="#E5B76E"/>
<path d="M445.097 169.071C444.674 172.608 445.737 173.607 446.291 174.722C446.845 175.838 449.794 177.585 454.409 177.585C459.023 177.585 461.808 175.755 463.241 174.004C464.675 172.252 464.035 172.174 464.514 170.504C464.993 168.835 465.865 168.435 462.762 165.493C459.659 162.551 457.032 162.151 453.376 163.423C449.719 164.696 445.337 167.087 445.097 169.071Z" fill="#E5B76E"/>
<path d="M382.549 522.789C379.675 530.589 387.463 534.878 401.221 536.401C414.979 537.924 425.394 539.492 424.425 526.52C423.456 513.549 406.539 516.112 401.636 517.49C396.734 518.867 383.941 519.046 382.549 522.789Z" fill="#E5B76E"/>
<path d="M388.549 71.5214C385.675 79.321 393.463 83.61 407.221 85.1332C420.979 86.6565 431.394 88.2246 430.425 75.2528C429.456 62.281 412.539 64.8447 407.636 66.2219C402.734 67.5992 389.941 67.7788 388.549 71.5214Z" fill="#E5B76E"/>
<path d="M443.074 540.331C442.393 543.797 446.412 549.186 455.23 548.797C464.047 548.407 465.709 544.949 464.527 540.331C463.344 535.713 461.428 536.54 459.044 534.234C456.66 531.929 453.085 533.407 451.416 534.234C449.747 535.061 443.789 536.704 443.074 540.331Z" fill="#E5B76E"/>
<path d="M449.074 89.0633C448.393 92.5289 452.412 97.9183 461.23 97.529C470.047 97.1398 471.709 93.6817 470.527 89.0633C469.344 84.4449 467.428 85.2721 465.044 82.9666C462.66 80.6612 459.085 82.1395 457.416 82.9666C455.747 83.7937 449.789 85.4367 449.074 89.0633Z" fill="#E5B76E"/>
<path d="M360.914 522.82C361.767 527.285 360.117 528.808 359.043 530.193C357.969 531.578 355.674 531.095 353.979 531.132C352.284 531.17 352.396 531.668 351.438 533.531C350.48 535.395 348.754 535.077 345.955 536.121C343.155 537.165 338.47 537.974 336.785 537.992C335.101 538.011 336.909 533.224 336.557 530.795C336.205 528.367 335.258 531.653 334.787 533.524C334.315 535.395 334.884 537.412 333.391 539.025C331.898 540.638 331.145 540.216 327.642 539.325C324.139 538.434 322.65 537.588 320.831 536.192C319.012 534.796 313.319 534.89 309.27 534.673C305.22 534.456 302.507 536.11 298.308 534.111C294.109 532.113 294.591 532.584 290.112 531.682C285.632 530.781 285.815 533.4 282.043 532.094C278.27 530.788 278.914 528.726 279.299 525.777C279.685 522.827 283.24 519.302 285.729 518.98C288.218 518.658 290.946 519.833 294.086 519.354C297.226 518.875 297.829 516.083 302.717 516.735C307.604 517.386 309.375 517.603 314.442 517.131C319.51 516.66 323.978 514.747 325.262 517.3C326.546 519.852 324.6 521.813 324.6 521.813C328.312 521.933 331.127 517.498 334.184 517.322C337.242 517.146 340.842 518.19 343.915 518.965C346.988 519.74 347.602 519.665 351.138 519.508C354.675 519.351 360.6 521.173 360.914 522.82Z" fill="#E5B76E"/>
<path d="M366.914 71.5524C367.767 76.0174 366.117 77.5406 365.043 78.9253C363.969 80.3101 361.674 79.8273 359.979 79.8647C358.284 79.9021 358.396 80.3999 357.438 82.2637C356.48 84.1275 354.754 83.8094 351.955 84.8536C349.155 85.8978 344.47 86.7062 342.785 86.7249C341.101 86.7436 342.909 81.9568 342.557 79.5279C342.205 77.099 341.258 80.3849 340.787 82.2562C340.315 84.1275 340.884 86.1448 339.391 87.7579C337.898 89.3709 337.145 88.948 333.642 88.0573C330.139 87.1665 328.65 86.3207 326.831 84.9247C325.012 83.5287 319.319 83.6223 315.27 83.4052C311.22 83.1881 308.507 84.8424 304.308 82.8438C300.109 80.8453 300.591 81.3169 296.112 80.4149C291.632 79.5129 291.815 82.1327 288.043 80.8266C284.27 79.5204 284.914 77.4582 285.299 74.5091C285.685 71.5599 289.24 68.0344 291.729 67.7125C294.218 67.3907 296.946 68.5659 300.086 68.0868C303.226 67.6078 303.829 64.8158 308.717 65.467C313.604 66.1182 315.375 66.3353 320.442 65.8637C325.51 65.3921 329.978 63.4797 331.262 66.0321C332.546 68.5846 330.6 70.5457 330.6 70.5457C334.312 70.6655 337.127 66.2305 340.184 66.0546C343.242 65.8787 346.842 66.9228 349.915 67.6976C352.988 68.4723 353.602 68.3974 357.138 68.2402C360.675 68.0831 366.6 69.9057 366.914 71.5524Z" fill="#E5B76E"/>
</g>
</svg>
