<svg width="450" height="720" viewBox="0 0 450 720" fill="none" xmlns="http://www.w3.org/2000/svg">
<g clip-path="url(#clip0_412_386)">
<mask id="mask0_412_386" style="mask-type:alpha" maskUnits="userSpaceOnUse" x="-156" y="-31" width="477" height="768">
<path d="M166.459 193.485C165.752 199.395 171.208 199.642 176.512 199.848C181.815 200.054 180.142 198.351 185.172 198.725C190.202 199.099 196.063 201.146 201.928 201.146C207.792 201.146 209.469 196.483 213.938 195.907C218.406 195.33 222.037 188.257 212.261 187.512C202.485 186.767 199.693 184.342 191.037 185.461C182.38 186.58 167.017 188.822 166.459 193.485Z" fill="#E5B76E"/>
<path d="M120.232 15.0597C119.023 18.8322 122.762 18.8921 126.22 21.2275C129.678 23.5628 136.613 23.9783 143.676 22.7245C150.738 21.4707 151.404 19.7304 152.867 17.7244C154.331 15.7184 157.531 15.4788 155.798 12.6382C154.065 9.79758 151.269 8.5513 143.941 8.38663C136.613 8.22195 132.747 7.13286 128.485 9.55057C124.222 11.9683 121.029 12.5559 120.232 15.0597Z" fill="#E5B76E"/>
<path d="M160.197 597.01C158.988 600.782 162.727 600.842 166.185 603.178C169.643 605.513 176.578 605.928 183.641 604.675C190.703 603.421 191.369 601.681 192.832 599.675C194.296 597.669 197.496 597.429 195.763 594.588C194.03 591.748 191.234 590.501 183.906 590.337C176.578 590.172 172.712 589.083 168.449 591.501C164.187 593.918 160.994 594.506 160.197 597.01Z" fill="#E5B76E"/>
<path d="M142.671 683.957C140.818 687.883 146.563 687.943 151.885 690.372C157.207 692.801 167.858 693.231 178.708 691.933C189.558 690.634 190.584 688.811 192.837 686.731C195.09 684.65 200.004 684.391 197.328 681.442C194.652 678.493 190.366 677.194 179.105 677.022C167.844 676.85 161.889 675.724 155.351 678.235C148.812 680.746 143.902 681.367 142.671 683.957Z" fill="#E5B76E"/>
<path d="M56.9114 509.083C55.2572 514.132 62.3307 515.707 66.7469 520.123C71.1632 524.54 73.9739 526.546 79.9957 524.54C86.0175 522.534 91.841 514.903 87.2226 507.878C82.6043 500.853 60.523 498.042 56.9114 509.083Z" fill="#E5B76E"/>
<path d="M-29.7387 507.57C-31.5127 511.796 -26.0223 511.863 -20.9361 514.472C-15.8499 517.08 -5.67756 517.552 4.68942 516.152C15.0564 514.752 16.0332 512.784 18.1852 510.538C20.3372 508.293 25.0341 508.019 22.4892 504.846C19.9442 501.672 15.8386 500.276 5.07864 500.089C-5.68131 499.902 -11.3513 498.693 -17.6127 501.395C-23.874 504.097 -28.5672 504.775 -29.7387 507.57Z" fill="#E5B76E"/>
<path d="M203.231 641.056C202.026 644.828 205.761 644.888 209.219 647.224C212.677 649.559 219.612 649.975 226.675 648.721C233.737 647.467 234.403 645.727 235.87 643.721C237.337 641.715 240.533 641.475 238.801 638.634C237.068 635.794 234.276 634.551 226.948 634.387C219.62 634.222 215.757 633.133 211.491 635.551C207.224 637.968 204.032 638.552 203.231 641.056Z" fill="#E5B76E"/>
<path d="M194.361 727.957C192.489 731.883 198.249 731.943 203.575 734.372C208.901 736.801 219.545 737.231 230.398 735.933C241.252 734.634 242.273 732.811 244.526 730.731C246.779 728.65 251.69 728.391 249.017 725.442C246.345 722.493 242.067 721.194 230.806 721.022C219.545 720.85 213.59 719.724 207.056 722.235C200.521 724.746 195.588 725.367 194.361 727.957Z" fill="#E5B76E"/>
<path d="M161.068 53.2192C160.488 60.4835 164.968 60.7867 169.325 61.015C173.681 61.2433 172.319 59.1811 176.436 59.6415C180.552 60.1018 185.38 62.6355 190.197 62.6355C195.014 62.6355 196.387 56.8944 200.059 56.1983C203.73 55.5022 206.709 46.7969 198.682 45.88C190.654 44.963 188.363 41.9802 181.252 43.3575C174.141 44.7347 161.529 47.4855 161.068 53.2192Z" fill="#E5B76E"/>
<path d="M92.0711 562.191C91.2627 568.015 97.4867 568.258 103.542 568.441C109.598 568.625 107.681 566.97 113.419 567.337C119.156 567.704 125.844 569.729 132.532 569.729C139.22 569.729 141.14 565.133 146.234 564.583C151.328 564.033 155.474 557.045 144.321 556.308C133.168 555.571 129.984 553.183 120.107 554.287C110.23 555.391 92.7036 557.595 92.0711 562.191Z" fill="#E5B76E"/>
<path d="M15.1272 561.321C13.473 566.373 20.5465 567.945 24.9628 572.361C29.379 576.778 32.1897 578.787 38.2115 576.781C44.2333 574.775 50.0568 567.144 45.4385 560.108C40.8201 553.072 18.7388 550.28 15.1272 561.321Z" fill="#E5B76E"/>
<path d="M42.6835 30.686C40.7299 34.99 42.9043 39.7543 49.9815 41.7453C57.0588 43.7364 61.4825 42.8494 65.4646 41.7453C69.4467 40.6413 71.4528 36.88 70.9924 32.2354C70.5321 27.5909 66.5687 24.4957 61.7033 24.9374C56.838 25.379 44.8954 25.8206 42.6835 30.686Z" fill="#E5B76E"/>
<path d="M-14.5221 613.686C-16.4757 617.99 -14.3013 622.754 -7.22403 624.745C-0.146792 626.736 4.27695 625.849 8.25906 624.745C12.2412 623.641 14.2472 619.88 13.7869 615.235C13.3265 610.591 9.36313 607.496 4.49777 607.937C-0.367602 608.379 -12.3102 608.821 -14.5221 613.686Z" fill="#E5B76E"/>
<path d="M-10.921 6.24552C-11.647 11.5675 -7.37299 19.8498 1.99845 19.2548C11.3699 18.6597 13.1476 13.3377 11.8789 6.24552C10.6102 -0.846688 8.58541 0.418308 6.05167 -3.11095C3.51794 -6.64022 -0.280791 -4.37595 -2.05478 -3.11095C-3.82877 -1.84596 -10.1612 0.669062 -10.921 6.24552Z" fill="#E5B76E"/>
<path d="M20.2214 82.825C19.443 86.7247 21.8569 86.7846 24.095 89.1874C26.3331 91.5901 30.8092 92.028 35.3714 90.7368C39.9336 89.4456 40.364 87.6379 41.3109 85.572C42.2578 83.5061 44.3237 83.2479 43.2047 80.3324C42.0856 77.4169 40.2779 76.1145 35.5436 75.9423C30.8092 75.7702 28.3129 74.6511 25.5583 77.1474C22.8038 79.6437 20.7379 80.2426 20.2214 82.825Z" fill="#E5B76E"/>
<path d="M107.097 59.0709C106.674 62.6077 107.737 63.6069 108.291 64.7222C108.845 65.8375 111.794 67.5853 116.409 67.5853C121.023 67.5853 123.808 65.7552 125.241 64.0036C126.675 62.2521 126.035 62.1735 126.514 60.5043C126.993 58.8351 127.865 58.4347 124.762 55.493C121.659 52.5513 119.032 52.1509 115.376 53.4233C111.719 54.6958 107.337 57.0873 107.097 59.0709Z" fill="#E5B76E"/>
<path d="M54.0795 642.071C53.6566 645.608 54.7195 646.607 55.2734 647.722C55.8273 648.838 58.7764 650.585 63.391 650.585C68.0057 650.585 70.7901 648.755 72.2236 647.004C73.657 645.252 73.017 645.174 73.496 643.504C73.9751 641.835 74.8471 641.435 71.7445 638.493C68.6419 635.551 66.0146 635.151 62.3581 636.423C58.7016 637.696 54.319 640.087 54.0795 642.071Z" fill="#E5B76E"/>
<path d="M-19.4464 188.703C-21.5423 193.232 -15.0564 193.303 -9.04576 196.106C-3.03516 198.909 8.9823 199.403 21.2318 197.906C33.4813 196.409 34.634 194.306 37.179 191.918C39.7239 189.53 45.2667 189.22 42.2614 185.818C39.2561 182.416 34.402 180.919 21.6772 180.716C8.95236 180.514 2.26436 179.219 -5.13475 182.116C-12.5338 185.013 -18.0617 185.702 -19.4464 188.703Z" fill="#E5B76E"/>
<path d="M39.065 473.229C38.6571 477.455 40.1279 477.545 44.6452 478.982C49.1625 480.419 52.8789 481.085 52.8789 479.644C52.8789 478.203 55.2704 478.207 58.7248 478.982C62.1793 479.756 66.7003 478.761 70.4204 478.095C74.1406 477.429 71.4833 475.774 74.8067 475.662C78.1302 475.55 83.7104 476.216 87.5652 476.216C91.4201 476.216 91.5511 475 91.5511 472.122C91.5511 469.244 88.1042 465.834 83.4409 465.928C78.7776 466.021 73.0739 465.815 70.02 465.153C66.966 464.49 67.8904 466.148 68.0252 466.923C68.1599 467.698 66.6966 469.023 62.8417 468.473C58.9868 467.922 48.4889 466.481 46.4941 467.919C44.4993 469.356 39.3307 470.464 39.065 473.229Z" fill="#E5B76E"/>
<path d="M54.3309 601.322C53.747 606.472 55.8504 606.562 62.3138 608.332C68.7773 610.102 74.103 610.896 74.103 609.14C74.103 607.385 77.5237 607.389 82.4677 608.332C87.4116 609.275 93.8714 608.063 99.1971 607.254C104.523 606.446 100.717 604.421 105.47 604.286C110.223 604.152 118.194 604.96 123.722 604.96C129.25 604.96 129.426 603.463 129.426 599.971C129.426 596.479 124.482 592.288 117.824 592.422C111.166 592.557 103 592.295 98.6394 591.475C94.2793 590.656 95.6004 592.692 95.7876 593.635C95.9747 594.578 93.8863 596.195 88.3735 595.506C82.8607 594.818 67.8417 593.081 64.9898 594.833C62.1379 596.584 54.7089 597.95 54.3309 601.322Z" fill="#E5B76E"/>
<path d="M-34.3158 428.247C-35.2477 432.161 -33.8555 433.595 -32.9685 434.849C-32.0815 436.102 -30.0455 435.792 -28.5523 435.896C-27.059 436.001 -27.1825 436.439 -26.4152 438.142C-25.648 439.845 -24.1173 439.639 -21.6958 440.668C-19.1297 441.685 -16.4467 442.378 -13.7091 442.73C-12.2121 442.835 -12.0137 442.281 -10.7637 443.771C-9.5137 445.26 -8.84752 444.92 -5.72246 444.28C-2.59739 443.64 -1.26129 442.959 0.392935 441.802C2.04716 440.646 7.05474 440.971 10.6214 440.953C14.1881 440.934 16.5123 442.513 20.2848 440.923C24.0573 439.332 23.6157 439.729 27.5903 439.123C31.565 438.516 31.2992 440.829 34.6713 439.834C38.0434 438.838 37.5568 436.986 37.336 434.362C37.1152 431.738 34.1324 428.449 31.9542 428.071C29.776 427.693 27.3321 428.606 24.5888 428.037C21.8455 427.468 21.445 424.983 17.1036 425.357C12.7622 425.732 11.2128 425.84 6.77405 425.208C2.33533 424.575 -1.51579 422.693 -2.7471 424.893C-3.97842 427.094 -2.34664 428.917 -2.34664 428.917C-5.61392 428.864 -7.91187 424.8 -10.5803 424.545C-13.2488 424.291 -16.4712 425.028 -19.1883 425.586C-21.9054 426.143 -22.4556 426.046 -25.5507 425.758C-28.6458 425.47 -33.9753 426.809 -34.3158 428.247Z" fill="#E5B76E"/>
<path d="M124.538 300.187C123.962 306.501 125.182 306.621 128.591 308.092C132.001 309.562 135.133 309.836 139.28 310.506C143.427 311.175 148.03 311.711 148.03 307.691V300.206C148.03 296.463 150.702 291.096 142.873 292.837C135.043 294.577 135.133 296.856 133.198 296.856C131.263 296.856 124.856 296.692 124.538 300.187Z" fill="#E5B76E"/>
<path d="M155.92 295.227C155.796 298.719 156.186 301.126 155.92 304.61C155.654 308.094 154.311 311.174 157.66 311.575C161.01 311.975 168.379 309.299 170.524 307.832C172.668 306.365 178.832 309.307 184.326 308.768C189.82 308.229 194.91 307.428 196.52 304.348C198.129 301.268 198.93 299.793 188.481 296.039C178.031 292.285 173.738 290.279 170.793 291.754C167.848 293.229 164.494 292.817 162.754 292.503C161.014 292.188 155.976 293.086 155.92 295.227Z" fill="#E5B76E"/>
<path d="M62.7114 138.266C62.5318 142.009 63.0857 144.599 62.7114 148.341C62.3371 152.084 60.3536 155.396 65.2638 155.826C70.1741 156.257 80.9827 153.379 84.104 151.796C87.2254 150.212 96.2749 153.379 104.314 152.802C112.353 152.226 119.823 151.365 122.177 148.053C124.531 144.741 125.71 143.158 110.399 139.127C95.0885 135.096 88.8085 132.937 84.4895 134.524C80.1706 136.11 75.264 135.665 72.7153 135.309C70.1666 134.954 62.8199 135.961 62.7114 138.266Z" fill="#E5B76E"/>
<path d="M25.8091 240.41C24.6863 245.275 30.8129 247.266 32.8526 247.637C34.8924 248.007 36.5578 248.561 43.0437 249.86C49.5296 251.159 56.7528 252.266 57.3105 246.709C57.8681 241.151 58.9759 232.629 48.4143 231.147C37.8527 229.665 36.7487 232.644 34.6154 233.924C32.4821 235.204 26.7372 236.334 25.8091 240.41Z" fill="#E5B76E"/>
<path d="M162.134 527.519C161.011 532.317 167.239 534.256 169.32 534.63C171.401 535.004 173.1 535.539 179.717 536.815C186.334 538.092 193.707 539.188 194.272 533.717C194.837 528.245 195.975 519.869 185.2 518.402C174.425 516.935 173.295 519.861 171.12 521.138C168.946 522.414 163.081 523.507 162.134 527.519Z" fill="#E5B76E"/>
<path d="M146.152 105.161C144.943 110.472 151.594 112.62 153.809 113.021C156.025 113.421 157.844 114.027 164.899 115.438C171.953 116.849 179.817 118.058 180.423 112.014C181.029 105.97 182.238 96.6918 170.745 95.0787C159.251 93.4657 158.053 96.6918 155.729 98.1028C153.405 99.5137 147.159 100.726 146.152 105.161Z" fill="#E5B76E"/>
<path d="M73.152 688.161C71.9431 693.472 78.5937 695.62 80.8093 696.021C83.0249 696.421 84.8438 697.027 91.8986 698.438C98.9534 699.849 106.817 701.058 107.423 695.014C108.029 688.97 109.238 679.692 97.7445 678.079C86.251 676.466 85.0534 679.692 82.7292 681.103C80.4051 682.514 74.1587 683.726 73.152 688.161Z" fill="#E5B76E"/>
<path d="M98.0858 229.358C97.3149 234.744 97.7977 234.224 104.096 237.09C110.395 239.957 107.839 237.379 116.125 239.954C124.411 242.528 130.156 240.957 135.587 239.954C141.017 238.95 150.183 239.096 152.054 232.94C153.925 226.783 148.618 225.208 139.883 225.923C131.148 226.637 126.713 225.208 120.126 224.635C113.539 224.062 98.6584 225.35 98.0858 229.358Z" fill="#E5B76E"/>
<path d="M27.5492 327.789C24.6749 335.589 32.4632 339.878 46.221 341.401C59.9788 342.924 70.3944 344.492 69.4251 331.52C68.4557 318.549 51.5392 321.112 46.6364 322.49C41.7336 323.867 28.9415 324.046 27.5492 327.789Z" fill="#E5B76E"/>
<path d="M-3.96529 130.71C-6.28195 134.977 -3.70331 139.692 4.68009 141.676C13.0635 143.659 18.3031 142.772 23.0188 141.676C27.7344 140.579 30.0923 136.848 29.5683 132.244C29.0444 127.641 24.3287 124.568 18.5651 125.006C12.8015 125.444 -1.34548 125.882 -3.96529 130.71Z" fill="#E5B76E"/>
<path d="M69.7922 278.33C67.6963 282.937 70.0279 288.038 77.6067 290.171C85.1854 292.305 89.9198 291.354 94.1826 290.171C98.4454 288.989 100.579 284.962 100.103 279.988C99.6281 275.014 95.369 271.698 90.1593 272.173C84.9496 272.648 72.1612 273.12 69.7922 278.33Z" fill="#E5B76E"/>
<path d="M190.739 147.238C188.628 151.879 190.975 157.014 198.599 159.158C206.222 161.303 211.002 160.352 215.291 159.158C219.58 157.964 221.732 153.918 221.252 148.907C220.773 143.896 216.484 140.557 211.237 141.048C205.99 141.538 193.134 141.991 190.739 147.238Z" fill="#E5B76E"/>
<path d="M80.6041 430.089C79.6422 434.467 85.3123 441.271 97.7526 440.781C110.193 440.291 112.543 435.916 110.852 430.089C109.16 424.261 106.48 425.302 103.119 422.386C99.7586 419.471 94.7136 421.346 92.3595 422.386C90.0055 423.427 81.6146 425.508 80.6041 430.089Z" fill="#E5B76E"/>
<path d="M76.4914 99.8161C75.5595 104.55 81.0536 111.916 93.1085 111.384C105.163 110.853 107.443 106.122 105.833 99.8161C104.224 93.5098 101.578 94.6251 98.322 91.4814C95.0659 88.3376 90.1743 90.3586 87.8951 91.4814C85.6159 92.6041 77.472 94.8609 76.4914 99.8161Z" fill="#E5B76E"/>
<path d="M3.49144 682.816C2.55954 687.55 8.05365 694.916 20.1085 694.384C32.1634 693.853 34.4426 689.122 32.8333 682.816C31.224 676.51 28.578 677.625 25.322 674.481C22.0659 671.338 17.1743 673.359 14.8951 674.481C12.6159 675.604 4.472 677.861 3.49144 682.816Z" fill="#E5B76E"/>
<path d="M102.566 345.861C101.885 349.327 105.904 354.716 114.722 354.327C123.539 353.938 125.201 350.48 124.018 345.861C122.836 341.243 120.919 342.07 118.535 339.764C116.151 337.459 112.577 338.937 110.908 339.764C109.239 340.592 103.281 342.235 102.566 345.861Z" fill="#E5B76E"/>
<path d="M84.4031 189.609C83.8267 194.399 85.2639 195.75 86.0199 197.259C86.7759 198.767 90.758 201.132 97.0044 201.132C103.251 201.132 107.02 198.658 108.958 196.289C110.897 193.92 110.036 193.804 110.684 191.559C111.331 189.313 112.514 188.759 108.311 184.773C104.108 180.788 100.56 180.252 95.6047 181.974C90.6495 183.696 84.7249 186.918 84.4031 189.609Z" fill="#E5B76E"/>
<path d="M36.0152 382.032C33.9792 386.28 36.7225 389.566 36.7225 390.981C36.7225 392.396 38.4478 395.379 42.6882 397.261C46.9286 399.144 53.0514 398.676 60.2784 397.261C67.5053 395.846 69.6985 392.239 68.9125 388.47C68.1266 384.701 67.8122 384.858 65.1437 379.989C62.4753 375.12 58.5493 374.023 53.6839 374.967C48.8186 375.91 48.0289 378.107 45.9892 379.675C43.9494 381.243 37.8228 378.264 36.0152 382.032Z" fill="#E5B76E"/>
<path d="M218.752 712.374C216.716 716.622 219.459 719.908 219.459 721.323C219.459 722.738 221.185 725.72 225.425 727.603C229.665 729.485 235.788 729.018 243.015 727.603C250.242 726.188 252.435 722.58 251.649 718.812C250.863 715.043 250.549 715.2 247.881 710.331C245.212 705.462 241.286 704.365 236.421 705.308C231.555 706.251 230.766 708.448 228.726 710.016C226.686 711.585 220.56 708.605 218.752 712.374Z" fill="#E5B76E"/>
<path d="M112.88 496.515C110.5 498.543 113.703 500.112 113.703 500.785C113.703 501.459 115.72 502.881 120.676 503.779C125.631 504.677 132.787 504.453 141.226 503.779C149.666 503.106 152.233 501.384 151.331 499.588C150.429 497.791 150.047 497.862 146.926 495.542C143.805 493.221 139.22 492.697 133.535 493.147C127.85 493.596 126.929 494.644 124.553 495.392C122.176 496.141 114.987 494.718 112.88 496.515Z" fill="#E5B76E"/>
<path d="M216.358 19.2735C214.487 24.3372 219.547 27.1329 228.48 28.1097C237.414 29.0866 244.177 30.1195 243.54 21.6987C242.904 13.2779 231.938 14.9321 228.735 15.8266C225.531 16.721 217.249 16.852 216.358 19.2735Z" fill="#E5B76E"/>
<path d="M221.084 568.921C220.316 574.535 224.826 583.307 234.744 582.675C244.662 582.042 246.533 576.421 245.193 568.921C243.854 561.42 241.709 562.745 239.033 559.003C236.357 555.26 232.334 557.663 230.459 559.003C228.584 560.343 221.888 563.026 221.084 568.921Z" fill="#E5B76E"/>
<path d="M44.1399 722.767C43.2155 727.281 47.0479 731.491 50.4387 732.341C53.8295 733.191 59.8925 732.581 63.7698 732.341C67.6471 732.101 74.1929 730.945 74.0732 726.098C73.9534 721.252 69.0132 719.71 67.8006 716.663C66.588 713.617 62.3139 712 57.6956 712C53.0772 712 45.229 717.434 44.1399 722.767Z" fill="#E5B76E"/>
<path d="M-50.8843 55.08C-51.543 57.64 -51.7189 58.5007 -49.1028 59.1669C-46.4867 59.8331 -40.9327 60.75 -36.3256 61.7531C-31.7185 62.7561 -31.4041 62.4192 -30.5657 61.7531C-29.7274 61.0869 -29.7274 61.1692 -25.3261 61.5023C-20.9248 61.8354 -15.6927 61.6707 -14.54 63.92C-13.3873 66.1693 -9.51367 66.6746 -5.93201 64.5862C-2.35036 62.4978 -3.52553 61.9177 -1.95364 61.7531C-0.381751 61.5884 0.976807 62.8347 5.58768 62.1685C10.1985 61.5023 13.6492 61.42 13.23 56.9289C12.8109 52.4378 2.4439 48.2573 -4.04949 47.2543C-10.5429 46.2513 -15.7788 45.7572 -18.0805 46.3373C-20.3822 46.9174 -20.3859 47.5911 -21.2242 47.9242C-22.0626 48.2573 -23.002 47.7558 -24.5926 47.6734C-26.1832 47.5911 -31.2955 47.8381 -35.7979 48.3396C-40.3002 48.8411 -46.6888 50.4242 -46.8984 50.8434C-47.108 51.2626 -50.3453 52.9991 -50.8843 55.08Z" fill="#E5B76E"/>
<path d="M-42.272 284.079C-44.6411 287.87 -37.2981 287.93 -30.4941 290.277C-23.69 292.623 -10.0782 293.042 3.7918 291.774C17.6618 290.505 18.9717 288.757 21.8498 286.747C24.7278 284.738 31.0117 284.502 27.6096 281.639C24.2076 278.776 18.7098 277.522 4.31577 277.365C-10.0782 277.208 -17.6682 276.107 -26.0441 278.536C-34.42 280.965 -40.7001 281.564 -42.272 284.079Z" fill="#E5B76E"/>
<path d="M-52.3211 371.499C-55.7867 374.452 -51.1197 376.739 -51.1197 377.719C-51.1197 378.7 -48.178 380.773 -40.9586 382.083C-33.7391 383.393 -23.316 383.067 -11.0178 382.083C1.28032 381.099 5.0229 378.591 3.6868 375.971C2.3507 373.352 1.81551 373.464 -2.72799 370.081C-7.2715 366.697 -13.9558 365.934 -22.2456 366.585C-30.5354 367.236 -31.8678 368.771 -35.3447 369.86C-38.8215 370.949 -49.2484 368.879 -52.3211 371.499Z" fill="#E5B76E"/>
<path d="M204.093 105.037C203.509 110.187 205.613 110.277 212.076 112.047C218.539 113.817 223.865 114.611 223.865 112.855C223.865 111.1 227.286 111.104 232.23 112.047C237.174 112.99 243.634 111.777 248.959 110.969C254.285 110.161 250.479 108.136 255.232 108.001C259.985 107.866 267.957 108.675 273.484 108.675C279.012 108.675 279.188 107.178 279.188 103.686C279.188 100.194 274.244 96.0024 267.586 96.1372C260.928 96.2719 252.762 96.0099 248.402 95.1903C244.042 94.3707 245.363 96.4066 245.55 97.3498C245.737 98.2929 243.649 99.9097 238.136 99.2211C232.623 98.5324 217.604 96.7959 214.752 98.5474C211.9 100.299 204.471 101.665 204.093 105.037Z" fill="#E5B76E"/>
<path d="M114.051 644.219C113.471 651.484 117.951 651.787 122.307 652.015C126.663 652.243 125.301 650.181 129.418 650.641C133.535 651.102 138.363 653.636 143.179 653.636C147.996 653.636 149.37 647.894 153.041 647.198C156.713 646.502 159.692 637.797 151.664 636.88C143.636 635.963 141.346 632.98 134.235 634.357C127.124 635.735 114.511 638.486 114.051 644.219Z" fill="#E5B76E"/>
<path d="M278.022 10.2895C277.442 17.5539 281.922 17.857 286.278 18.0853C290.635 18.3136 289.272 16.2514 293.389 16.7118C297.506 17.1721 302.334 19.7059 307.151 19.7059C311.967 19.7059 313.341 13.9647 317.012 13.2686C320.684 12.5725 323.663 3.86721 315.635 2.95028C307.607 2.03334 305.317 -0.949501 298.206 0.427772C291.095 1.80504 278.482 4.55585 278.022 10.2895Z" fill="#E5B76E"/>
</mask>
<g mask="url(#mask0_412_386)">
<rect x="-8" width="450" height="720" fill="#E5B76E"/>
</g>
</g>
<defs>
<clipPath id="clip0_412_386">
<rect width="450" height="720" fill="white"/>
</clipPath>
</defs>
</svg>
