<svg width="450" height="720" viewBox="0 0 450 720" fill="none" xmlns="http://www.w3.org/2000/svg">
<g clip-path="url(#clip0_412_386)">
<mask id="mask0_412_386" style="mask-type:alpha" maskUnits="userSpaceOnUse" x="13" y="0" width="450" height="720">
<rect x="13" width="450" height="720" fill="#ED824C"/>
</mask>
<g mask="url(#mask0_412_386)">
<path d="M388.937 269.217C389.056 277.132 388.391 287.492 391.935 289.947C395.479 292.402 396.57 297.857 396.57 301.13C396.57 304.404 398.205 312.314 398.205 315.86C398.205 319.406 400.118 317.774 403.658 322.133C407.197 326.493 403.112 327.043 403.658 331.407C404.203 335.772 409.923 346.137 414.012 355.683C418.101 365.23 418.101 370.686 418.919 376.959C419.737 383.233 420.555 385.96 424.099 385.96C421.645 391.416 417.283 399.599 420.01 403.666C422.736 407.734 423.281 407.179 423.008 411.016C422.736 414.854 424.371 419.487 424.099 422.501C423.826 425.516 421.645 427.138 420.555 428.502C419.464 429.866 420.464 433.139 421.191 433.139C415.193 439.14 411.559 445.686 411.559 449.687C411.559 453.687 412.104 456.233 411.195 460.416C410.286 464.598 404.203 471.867 404.203 475.413C404.203 478.959 398.464 492.597 396.551 497.507C394.638 502.417 395.46 509.509 393.824 515.509C384.556 499.689 391.371 488.233 388.917 483.323C386.464 478.413 381.557 478.959 379.352 473.752C377.147 468.546 380.17 458.755 380.443 453.027C380.715 447.299 381.04 447.845 378.563 439.934C376.086 432.024 382.351 410.203 383.987 404.202C385.622 398.201 379.075 397.383 377.989 400.374C377.716 389.19 379.075 384.826 377.989 378.28C376.903 371.734 378.807 366.278 380.17 360.005C381.533 353.731 380.337 349.64 377.664 344.457C374.99 339.274 374.718 339.193 375.536 333.369C376.353 327.546 375.172 319.454 373.536 314.907C371.901 310.361 373.173 305.452 371.901 299.451C368.075 315.635 362.814 320.181 362.268 323.09C361.723 326 367.175 331.273 367.175 331.273C363.904 330.728 361.178 328.909 360.996 329.838C360.269 335.269 360.269 340.773 360.996 346.204C361.646 350.984 361.462 355.842 360.451 360.56C359.542 364.388 354.817 373.652 354.999 380.017C355.18 386.381 356.634 392.564 356.816 395.11C356.998 397.656 358.815 398.656 358.997 392.334C359.179 386.013 360.269 378.199 362.268 374.38C364.813 384.199 364.631 396.641 363.904 401.331C363.177 406.021 361.541 418.386 360.633 423.114C359.724 427.842 357.361 435.297 360.451 436.934C358.088 441.662 358.452 448.754 358.815 454.209C359.179 459.664 364.492 460.258 364.861 463.153C365.229 466.048 362.861 473.513 365.042 478.605C367.223 483.696 369.222 496.789 373.584 495.698C371.949 502.244 374.129 503.154 376.856 505.154C379.582 507.154 381.763 512.064 381.399 515.519C381.036 518.974 389.396 531.885 390.486 534.613C389.051 538.795 388.124 540.977 387.942 543.705C387.76 546.432 392.485 548.433 396.484 546.25C400.482 544.068 404.299 540.613 408.297 539.34C412.295 538.068 413.199 536.976 412.472 532.43C411.745 527.884 411.037 518.247 411.927 515.337C412.816 512.428 412.836 514.428 415.198 507.882C417.561 501.335 416.633 495.516 416.834 492.243C417.035 488.97 417.379 485.333 417.379 485.333C421.559 480.969 421.741 479.514 421.559 474.805C421.377 470.096 420.287 470.441 420.287 466.081C420.287 461.722 424.831 459.899 426.83 454.807C428.829 449.716 427.557 452.625 429.011 446.442C430.465 440.26 430.646 440.987 432.282 436.987C433.918 432.986 433.478 424.803 433.717 420.984C436.481 421.53 437.026 421.53 437.39 413.165C437.753 404.8 438.48 401.891 437.39 398.436C436.299 394.981 438.346 388.071 437.969 382.797C437.591 377.524 437.132 374.978 433.717 370.25C430.302 365.522 428.848 363.522 428.848 363.522C434.3 366.068 435.209 366.431 437.208 369.159C439.207 371.887 440.843 372.25 441.206 370.25C441.57 368.25 441.933 364.249 438.662 363.158C435.391 362.067 435.314 363.704 433.717 358.794C432.119 353.884 431.392 354.966 428.666 350.793C425.94 346.62 420.306 341.155 419.579 336.437C418.852 331.718 420.124 324.253 419.216 321.344C418.307 318.434 414.49 316.979 412.673 315.707C410.856 314.434 410.492 315.888 410.856 311.161C411.219 306.433 408.134 304.069 406.499 299.341C404.863 294.613 406.499 286.42 405.772 285.157C405.045 283.894 397.048 284.066 397.048 284.066C401.955 283.157 404.7 281.735 404.7 281.735C401.974 278.792 395.522 274.701 394.432 268.566C393.341 262.431 391.84 262.292 390.606 262.02C389.372 261.747 388.86 264.312 388.937 269.217Z" fill="#ED824C"/>
<path d="M501.002 658.409C499.414 653.232 497.242 650.439 495.454 641.965C495.454 641.965 489.281 639.242 482.728 639.274C483.756 641.216 487.152 649.026 486.119 648.907C485.087 648.787 482.772 652.024 484.443 655.566C486.114 659.109 487.812 660.099 486.251 664.384C484.69 668.668 479.371 677.37 480.39 681.863C481.41 686.356 481.517 691.45 477.578 705.687C472.859 698.111 472.231 703.489 472.384 706.002C472.536 708.514 472.539 717.589 468.641 720.879C468.081 721.354 467.51 721.82 466.96 722.309C466.029 720.548 465.258 718.97 464.984 717.682C464.349 714.715 464.706 705.584 463.384 703.296C462.062 701.008 460.356 701.384 458.684 703.854C453.641 700.242 451.844 688.606 448.502 681.521C445.16 674.436 444.5 669.557 440.449 665.795C436.398 662.032 429.939 660.601 433.231 657.851C436.524 655.102 433.897 647.791 432.028 640.982C436.74 637.6 436.393 640.9 432.966 632.727C429.539 624.554 428.855 618.948 429.916 615.423C430.977 611.897 428.882 604.353 421.626 598.79C414.371 593.227 414.128 580.125 413.447 577.889C409.057 576.06 408.249 580.754 407.001 584.2C405.753 587.646 405.328 588.218 404.458 588.817C405.076 585.716 405.312 582.551 405.162 579.393C405.061 576.211 405.401 569.79 405.35 567.449C405.299 565.108 401.268 567.696 400.103 569.497C398.937 571.298 396.79 573.432 396.15 576.386C394.591 583.561 385.501 588.781 388.725 592.958C391.948 597.135 390.111 599.313 388.761 603.69C387.411 608.067 375.469 619.356 372.039 622.843C368.609 626.33 370.56 631.495 372.742 634.46C374.924 637.425 372.742 640.471 372.786 647.209C372.801 647.458 372.776 647.689 372.766 647.915C372.032 648.056 368.332 648.514 367.3 648.725C362.979 649.534 360.558 652.35 358.842 654.094C357.127 655.837 363.363 661.419 363.525 664.084C363.686 666.75 362.348 672.584 360.765 676.515C359.182 680.446 360.468 685.704 361.104 690.037C361.74 694.371 355.619 695.911 355.719 697.555C355.818 699.198 364.455 704.466 365.543 710.412C366.631 716.358 366.598 721.825 365.834 724.24C365.07 726.654 364.564 730.329 368.296 728.827C372.029 727.326 371.951 725.874 371.995 726.6C374.265 731.017 380.079 738.882 379.743 742.364C379.408 745.845 379.047 754.611 381.431 755.205C383.815 755.799 385.993 758.391 386.516 761.001C387.038 763.611 390.253 771.614 390.165 776.174C390.077 780.733 395.002 783.897 397.658 788.664C400.313 793.432 400.89 795.751 401.192 798.283C401.493 800.815 398.218 803.928 397.475 806.706C396.733 809.483 399.944 808.378 400.174 812.19C400.405 816.002 401.339 819.406 399.52 822.431C397.7 825.456 402.461 830.729 403.496 836.357C404.532 841.985 405.108 846.596 404.614 854.824C404.12 863.051 401.898 862.505 401.988 864C402.079 865.495 403.079 867.214 405.414 868.031C407.749 868.848 407.343 876.793 406.089 879.194C404.835 881.595 404.773 885.146 404.321 888.999C403.869 892.853 404.61 893.776 405.079 897.017C405.548 900.258 405.267 902.332 405.557 904.908C402.225 908.528 402.108 911.268 402.655 915.631C403.202 919.994 402.417 922.932 401.328 925.367C400.239 927.801 398.004 926.805 398.16 929.394C398.317 931.983 399.192 937.409 397.724 940.231C396.256 943.052 392.735 943.539 391.772 947.969C390.808 952.4 392.71 952.146 393.074 955.949C393.438 959.753 394.301 964.893 391.276 966.854C393.774 972.029 394.648 977.442 393.187 982.588C396.529 977.649 398.849 973.865 399.223 968.013C399.597 962.161 399.878 957.771 402.324 953.069C404.771 948.366 404.963 948.537 405.227 952.893C405.491 957.25 402.577 963.256 405.765 961.787C408.954 960.319 410.632 955.117 412.687 946.794C414.742 938.472 416.706 937.989 418.718 935.134C420.73 932.28 423.299 923.744 422.814 921.587C422.329 919.431 417.072 919.974 416.605 919.777C420.292 918.322 422.525 918.326 424.188 918.407C425.851 918.489 427.99 913.532 429.122 911.186C430.255 908.84 429.535 908.975 429.441 907.432C429.348 905.889 429.56 904.874 431.723 903.013C433.886 901.151 433.243 895.044 433.849 891.589C434.454 888.134 435.388 880.839 436.546 877.489C437.704 874.14 438.665 867.389 438.022 865.789C437.379 864.188 434.788 864.206 433.396 866.069C432.005 867.932 431.216 877.539 430.805 879.616C430.394 881.692 428.826 883.015 428.612 879.475C428.397 875.936 429.016 863.601 427.763 860.944C426.51 858.288 426.491 860.202 424.833 855.369C423.175 850.536 424.798 842.753 424.628 836.934C424.458 831.114 422.99 821.912 422.496 819.756C422.001 817.6 420.224 821.332 411.792 820.404C418.769 818.342 420.346 817.336 421.078 814.376C421.809 811.417 421.784 811.011 420.054 806.494C418.324 801.978 417.373 795.29 417.78 789.982C418.187 784.674 416.929 784.938 414.906 781.599C412.883 778.26 406.927 771.607 404.206 762.753C401.485 753.9 402.78 752.729 402.69 746.723C402.599 740.716 400.298 743.315 396.225 739.189C392.152 735.064 391.796 729.347 390.718 720.394C390.032 714.76 389.3 710.187 388.203 706.946C385.058 697.495 384.514 688.52 392.457 695.46C397.749 699.934 404.223 705.559 405.574 708.569C407.47 712.827 406.283 720.277 409.119 722.018C411.956 723.759 415.716 722.712 416.581 732.497C417.447 742.282 420.176 746.762 421.85 745.841C424.145 744.479 426.016 742.505 427.254 740.14C428.467 737.607 426.671 736.44 425.63 732.769C424.588 729.097 424.526 722.452 424.022 719.749C423.518 717.047 416.647 716.643 414.347 716.327C419.168 714.76 420.716 714.758 422.546 714.92C424.377 715.082 420.848 704.912 419.584 702.074C418.32 699.235 417.127 700.583 413.944 699.136C410.761 697.689 410.767 694.774 409.853 691.713C408.939 688.652 399.998 686.101 399.195 684.083C398.767 683.021 396.257 679.798 393.635 676.615C393.525 670.994 393.997 667.149 394.156 663.994C394.403 659.061 398.034 657.383 400.272 655.244C402.509 653.105 397.966 642.722 399.324 638.086C400.682 633.449 404.471 608.808 403.8 603.748C412.173 618.04 412.149 636.399 411.304 640.64C410.459 644.881 408.268 643.921 412.342 649.868C416.415 655.815 420.065 667.982 420.51 672.328C420.955 676.673 426.084 689.297 429.904 689.248C435.121 700.222 437.138 706.476 439.072 708.349C441.006 710.221 440.262 712.97 444.771 712.971C449.28 712.971 453.132 715.744 451.606 717.61C450.081 719.476 454.61 726.858 454.586 730.819C454.562 734.781 450.653 755.287 451.582 758.601C452.51 761.915 456.015 767.168 460.165 769.559C464.315 771.949 463.018 768.566 461.168 766.583C459.319 764.6 459.3 762.779 459.3 762.779C461.303 761.292 463.958 764.137 462.011 754.691C460.064 745.244 463.759 743.199 464.281 739.797C464.332 739.445 464.363 739.091 464.375 738.736C466.75 735.86 471.24 734.366 475.566 730.643C479.893 726.919 487.589 715.533 488.2 710.749C488.811 705.966 489.003 705.964 494.207 704.71C499.411 703.455 492.95 698.985 492.247 693.38C491.543 687.775 493.434 682.924 497.805 679.927C502.175 676.93 502.591 663.615 501.002 658.409Z" fill="#ED824C"/>
<path d="M357.522 569.019C356.679 563.599 354.285 552.581 351.622 548.013C348.96 543.445 346.121 536.817 346.226 532.456C346.331 528.096 343.134 528.61 341.897 525.971C340.66 523.332 332.128 499.503 338.284 490.461C344.44 481.418 343.379 474.975 342.597 472.065C341.815 469.154 340.236 473.554 339.468 478.683C338.701 483.813 334.431 489.425 332.149 491.698C329.868 493.972 331.868 503.271 330.722 509.573C329.576 515.876 335.068 524.537 335.068 524.537C322.939 518.152 331.539 532.167 334.118 535.853C336.698 539.539 341.848 552.697 342.479 558.128C343.111 563.56 344.377 561.164 347.731 565.217C351.085 569.271 351.471 573.474 352.906 576.894C354.342 580.313 358.641 576.199 357.522 569.019Z" fill="#ED824C"/>
<path d="M298.297 440.972C295.147 441.81 289.583 445.234 293.57 454.223C291.781 453.467 286.623 453.661 281.35 461.428C276.076 469.196 263.553 481.766 263.209 486.883C262.864 491.999 265.091 496.291 262.156 498.002C259.22 499.713 252.593 500.756 253.937 507.48C255.282 514.203 259.343 515.019 259.179 524.944C259.155 526.629 262.831 537.42 263.577 534.965C266.024 526.862 265.655 518.317 266.741 516.454C267.827 514.591 271.734 503.287 276.433 490.657C276.433 490.657 280.366 497.929 282.202 514.609C282.876 520.775 288 528.344 288.842 535.287C289.189 538.15 291.998 544.313 292.408 549.481C292.999 556.86 298.022 559.211 303.85 566.755C307.202 571.097 306.218 560.259 303.536 555.181C303.536 555.181 299.604 552.444 296.186 542.819C292.868 533.483 292.955 527.105 292.848 522.285C292.642 513.362 288.393 513.98 289.1 506.938C289.66 501.348 289.099 491.461 291.092 489.569C293.084 487.677 298.697 488.408 298.014 485.011C297.331 481.615 295.763 475.58 297.802 472.75C299.84 469.92 310.691 464.573 312.993 454.228C313.163 446.93 319.874 442.227 322.639 441.489C325.405 440.752 324.295 435.192 322.249 432.245C320.204 429.299 325.581 409.759 325.887 406.716C322.943 400.222 323.238 395.317 321.312 396.639C319.387 397.961 320.331 403.548 319.958 407.165C319.586 410.783 315.52 418.681 312.483 420.781C309.446 422.881 306.778 438.701 298.297 440.972Z" fill="#ED824C"/>
<path d="M374.992 198.341C369.132 201.175 366.929 201.44 363.986 205.957C361.044 210.474 364.257 225.292 360.075 232.215C355.893 239.137 359.389 242.724 362.252 239.9C360.9 247.928 355.329 254.945 352.571 259.344C351.019 261.836 351.654 267.103 348.209 271.473C345.56 274.836 338.677 277.602 337.69 278.578C335.42 280.831 339.155 283.093 344.665 280.101C350.175 277.109 359.018 270.458 367.762 271.916C374.106 273.014 366.47 259.693 370.455 249.978C374.439 240.262 379.683 235.023 380.854 230.638C382.024 226.253 369.228 226.163 369.228 226.163C377.545 225.068 379.209 225.592 380.713 224.631C382.084 219.78 379.915 217.186 382.595 213.089C385.275 208.992 390.233 201.421 389.556 199.125C388.879 196.829 394.659 191.823 398.067 188.839C401.474 185.856 393.496 181.7 388.395 186.565C383.293 191.43 378.49 196.658 374.992 198.341Z" fill="#ED824C"/>
<path d="M302.87 184.538C302.868 188.899 304.726 191.559 308.041 196.142C311.355 200.725 315.904 207.083 315.961 209.475C316.018 211.867 316.707 219.686 317.782 222.217C318.856 224.747 315.706 227.226 315.053 228.146C314.4 229.066 314.127 231.839 313.725 236.028C313.322 240.216 308.822 250.098 304.531 254.111C300.24 258.125 301.226 262.758 301.201 265.918C301.121 269.149 300.825 272.37 300.317 275.561C299.878 278.443 297.645 283.896 297.735 287.656C297.825 291.416 298.608 294.552 301.804 291.168C305 287.784 303.261 285.868 305.035 282.216C306.809 278.565 307.496 279.286 310.8 276.215C314.104 273.144 313.307 268.018 313.917 265.313C318.294 264.907 317.891 266.836 318.853 258.862C319.816 250.889 323.669 249.59 326.987 247.108C330.306 244.626 331.866 232.253 331.73 226.546C331.594 220.839 335.201 216.234 336.949 211.683C338.696 207.132 341.914 200.435 341.959 195.322C342.004 190.209 341.9 178.632 343.144 174.232C340.85 169.926 340.586 173.092 339.267 174.325C337.947 175.558 335.409 175.47 333.197 174.771C332.159 180.813 330.047 184.32 328.381 185.264C326.715 186.209 327.272 188.297 327.297 189.349C327.322 190.402 325.028 193.314 323.526 194.101C322.023 194.889 324.084 203.259 322.168 207.967C317.772 200.553 317.493 195.897 316.082 193.528C314.672 191.158 312.737 191.276 310.916 189.137C309.095 186.998 309.061 185.797 308.428 183.931C307.795 182.065 305.563 184.148 305.148 180.999C304.733 177.849 302.866 181.005 302.87 184.538Z" fill="#ED824C"/>
<path d="M216.227 83.34C215.785 81.3059 212.802 79.1432 213.249 76.0326C213.697 72.9219 212.437 72.3334 212.569 69.4447C212.701 66.556 213.445 70.3054 214.159 69.127C214.873 67.9485 212.957 65.6306 213.185 64.0664C213.413 62.5021 215.498 62.4988 215.636 57.8034C215.775 53.108 213.307 47.9112 212.83 44.9735C212.353 42.0359 207.916 34.4427 207.455 32.4096C206.993 30.3765 207.398 31.6386 207.688 29.3991C207.978 27.1595 206.373 25.043 206.441 22.3368C206.594 21.1074 206.583 19.863 206.408 18.6366C205.428 11.226 204.711 4.97728 203.215 -6.79153C201.719 -18.5603 199.566 -30.251 194.859 -40.4156C190.151 -50.5801 189.575 -51.4317 190.105 -57.0703C190.634 -62.7089 187.887 -62.8574 187.449 -64.4327C187.012 -66.008 185.997 -78.045 185.036 -82.674C184.076 -87.303 178.064 -90.6819 177.611 -94.1022C175.988 -106.373 173.327 -123.454 172.461 -126.013C171.594 -128.572 167.958 -127.62 167.295 -127.007C168.303 -115.921 163.508 -128.613 163.293 -135.725C163.016 -144.813 166.107 -150.831 164.515 -155.645C162.674 -161.312 161.365 -167.138 160.606 -173.048C156.605 -174.374 156.31 -175.727 154.284 -172.413C152.949 -170.233 149.63 -162.042 147.722 -156.025C144.229 -147.365 139.181 -142.011 137.251 -136.281C134.799 -129.029 127.56 -128.945 125.714 -123.983C124.602 -120.962 127.576 -120.701 121.901 -109.226C120.541 -106.485 111.423 -105.394 107.656 -98.9013C104.338 -93.1462 109.299 -97.747 108.298 -88.9487C108.065 -86.8785 105.053 -82.4874 103.96 -79.3354C102.138 -74.0672 110.006 -80.9936 112.893 -86.325C114.6 -89.4761 121.933 -92.6849 125.369 -97.8618C127.743 -101.44 130.745 -107.3 131.511 -109.989C133.704 -117.666 140.715 -112.263 142.709 -119.159C144.134 -124.036 147.724 -136.746 149.063 -141.201C148.435 -131.43 153.123 -129.29 154.444 -124.031C155.802 -118.585 154.721 -109.802 152.895 -106.079C151.068 -102.357 146.331 -101.787 146.962 -98.3321C147.593 -94.8775 149.583 -90.7911 152.199 -93.8062C154.815 -96.8213 155.454 -102.068 157.056 -98.7976C158.657 -95.5266 155.908 -89.9447 157.754 -86.0712C159.599 -82.1977 163.427 -71.4617 160.465 -64.6243C157.504 -57.787 149.25 -48.6542 145.058 -46.1078C140.867 -43.5615 140.617 -44.1847 139.895 -40.4347C139.174 -36.6848 136.633 -33.0996 134.135 -33.5803C131.636 -34.061 128.641 -24.2672 125.964 -19.9678C123.286 -15.6683 118.097 -5.15151 114.163 -2.0196C110.229 1.1123 109.695 15.0491 111.088 20.3168C112.48 25.5845 114.249 23.1764 115.866 18.088C118.773 8.95462 121.291 4.31757 122.28 0.619133C123.27 -3.0793 128.635 -7.88018 132.938 -14.2742C137.242 -20.6682 139.685 -27.6979 146.235 -33.8449C152.785 -39.9919 159.032 -43.6046 161.357 -47.9915C163.681 -52.3784 167.01 -60.0613 166.68 -66.0407C169.128 -52.7924 172.578 -38.981 175.632 -35.6158C178.686 -32.2505 180.724 -26.4883 183.319 -19.8782C185.915 -13.268 189.225 3.2943 189.431 7.03735C189.458 7.52986 189.508 8.12918 189.587 8.75362C189.39 13.3011 187.431 21.6861 185.668 25.4306C183.457 30.1367 171.943 46.264 169.536 49.4117C167.128 52.5595 164.164 64.3474 160.923 68.865C157.682 73.3826 149.224 77.725 150.29 80.8441C151.355 83.9632 151.09 80.3061 154.821 78.9382C158.552 77.5702 161.392 81.5912 168.367 70.5749C175.342 59.5587 172.931 58.3979 177.091 56.9761C181.251 55.5543 179.165 59.1783 180.753 60.3171C182.341 61.4559 180.414 57.7519 184.595 51.89C188.777 46.028 192.123 36.8135 193.586 32.0951C194.717 28.408 195.617 24.6538 196.279 20.8545V20.8545C199.343 24.7771 199.435 27.6651 199.644 29.4645C199.853 31.2639 201.282 31.0759 202.312 34.3295C203.342 37.5831 206.099 45.4281 206.847 47.7941C203.746 44.6976 201.497 42.4132 203.039 47.8947C204.58 53.3762 206.092 53.5939 206.115 56.0057C206.138 58.4174 205.177 59.4363 206.102 61.3636C207.027 63.291 206.721 65.7418 205.853 68.9081C204.986 72.0745 207.53 75.9653 208.802 78.364C210.075 80.7627 212.504 84.4367 213.36 86.0633C214.216 87.6899 216.669 85.3695 216.227 83.34Z" fill="#ED824C"/>
<path d="M302.173 390.904C302.934 385.961 309.112 378.275 308.292 367.263C307.931 362.428 303.735 350.519 305.05 346.762C306.366 343.006 302.891 342.571 302.978 339.929C303.376 328.291 307.774 319.087 315.826 312.995C323.878 306.902 326.098 300.356 326.21 297.606C326.322 294.857 319.714 299.103 317.591 303.318C315.468 307.532 310.033 308.246 307.344 309.564C304.655 310.883 300.342 317.39 297.526 322.519C294.71 327.649 297.236 336.735 297.236 336.735C292.698 325.922 288.076 317.644 289.063 311.044C290.05 304.445 284.812 306.565 285.203 318.799C285.593 331.034 291.939 342.357 293.206 346.286C294.474 350.215 294.922 369.002 293.366 373.774C290.732 381.85 292.561 380.37 294.438 384.841C296.315 389.312 295.481 393.064 295.812 396.422C296.143 399.78 301.167 397.456 302.173 390.904Z" fill="#ED824C"/>
<path d="M185.306 553.414C183.734 551.617 181.064 541.133 179.869 539.34C175.266 532.43 171.483 532.897 171.206 533.576C170.928 534.254 175.984 542.562 176.683 547.77C176.857 549.094 174.717 556.716 174.466 558.289C174.214 559.861 186.836 563.739 188.861 569.246C201.666 604.042 199.141 587.428 202.729 595.239C205.314 600.856 205.683 605.981 206.863 607.955C209.683 612.676 214.844 611.279 217.26 613.988C219.675 616.697 223.194 623.914 223.194 623.914C221.719 625.941 223.159 629.227 224.502 631.078C226.683 634.436 228.607 637.954 230.259 641.601C231.335 644.211 234.195 642.185 235.594 641.818C236.993 641.451 241.975 636.67 242.482 635.503C242.99 634.335 238.346 629.718 237.363 625.904C240.994 629.829 242.857 632.152 244.702 631.543C246.547 630.934 245.822 626.811 245.417 625.122C245.012 623.432 242.252 621.961 241.596 619.754C240.939 617.548 241.003 612.815 239.673 611.064C238.343 609.312 236.609 607.605 235.723 604.019C234.837 600.434 234.369 592.643 234.616 589.309C234.863 585.975 231.916 584.436 231.198 586.317C230.481 588.197 229.635 590.098 229.689 590.506C228.074 581.365 229.455 574.031 229.312 570.888C229.169 567.745 227.608 566.285 227.125 564.708C228.462 557.104 226.626 552.533 224.254 549.129C221.883 545.724 220.401 538.63 220.574 536.822C220.746 535.013 218.093 524.218 217.432 521.278C216.771 518.339 215.255 516.197 217.803 515.727C220.351 515.258 225.047 514.361 225.213 513.379C225.378 512.397 225.101 511.463 222.814 510.798C220.527 510.133 221.82 506.392 224.216 502.636C225.083 501.259 225.65 499.716 225.88 498.105C226.111 496.495 226 494.854 225.555 493.29C225.048 491.522 227.578 490.548 228.69 489.943C229.802 489.339 233.52 485.549 233.52 485.549C233.52 485.549 231.295 481.165 231.544 479.573C231.793 477.981 234.224 474.269 235.879 473.501C237.534 472.734 239.898 472.698 241.119 473.296C242.341 473.893 242.831 472.704 241.784 471.012C240.737 469.321 238.781 463.684 240.241 461.171C235.411 462.081 228.441 461.346 228.314 465.634C228.188 469.922 229.459 470.343 226.787 473.03C224.115 475.717 222.693 475.354 221.843 477.256C220.993 479.158 221.817 481.246 220.836 483.18C215.439 482.924 211.889 479.954 209.768 489.996C207.648 500.038 206.895 504.037 206.257 508.247C205.618 512.458 204.817 510.546 205.634 516.766C206.451 522.986 207.267 536.176 207.593 541.452C207.919 546.727 208.526 549.949 211.015 554.941C213.503 559.933 211.995 563.799 212.61 568.487C212.895 570.65 213.972 575.509 215.172 580.352C216.57 586.003 218.139 591.627 218.799 592.907C215.527 588.38 212.137 583.434 206.31 579.392C204.535 578.177 194.866 554.948 193.556 553.465C188.811 548.035 186.242 554.483 185.306 553.414Z" fill="#ED824C"/>
<path d="M480.205 610.197C475.406 612.167 480.55 617.385 474.243 621.03C472.513 622.029 469.142 616.864 468.238 621.172C467.306 625.595 465.116 628.547 461.646 631.434C458.175 634.321 453.575 632.852 455.203 629.397C456.831 625.943 460.732 622.581 461.825 617.065C462.918 611.55 459.149 611.424 460.2 604.079C461.251 596.734 462.956 593.015 461.594 590.363C460.232 587.71 456.033 588.947 455.835 584.633C455.638 580.318 455.93 563.971 454.388 557.415C452.019 556.901 447.167 558.243 446.016 557.701C444.865 557.158 447.29 549.456 447.982 544.555C448.674 539.655 451.442 525.279 452.295 523.47C453.148 521.66 453.982 519.038 451.509 514.053C449.037 509.068 459.544 495.727 461.187 485.847C458.752 482.488 461.097 478.366 461.332 474.456C461.568 470.547 460.274 467.324 459.551 464.169C458.828 461.013 460.738 455.682 462.758 451.396C464.778 447.111 469.215 435.141 471.841 429.142C470.749 427.622 469.885 425.574 470.929 421.273C471.441 419.166 474.112 419.208 477.335 418.765C480.558 418.321 482.75 415.588 485.156 411.447C487.563 407.307 487.51 409.674 488.412 414.49C489.315 419.306 491.873 424.411 490.357 427.315C488.84 430.218 488.907 430.705 488.856 433.696C488.805 436.687 490.311 436.038 490.404 440.002C490.497 443.966 485.897 450.844 484.385 454.051C482.873 457.259 476.781 465.698 478.879 466.687C480.977 467.676 481.94 467.225 483.763 469.438C485.585 471.652 482.386 473.313 480.061 475.687C477.737 478.062 477.603 477.391 476.744 479.853C475.885 482.316 475.59 490.614 478.146 496.062C480.702 501.509 477.532 498.317 474.614 501.312C471.696 504.306 467.78 506.836 468.715 509.99C469.65 513.145 468.54 520.917 468.11 523.423C467.68 525.928 468.637 527.744 469.483 530.101C470.329 532.457 474.657 537.666 474.581 540.386C474.504 543.106 471.756 546.704 473.767 554.587C474.719 550.963 476.958 550.06 478.646 551.909C480.334 553.757 482.112 554.146 482.201 558.108C482.29 562.07 481.124 572.227 481.453 575.398C481.783 578.569 483.762 580.719 485.869 582.003C487.977 583.287 486.899 586.191 487.717 588.482C490.626 596.513 483.034 592.495 482.783 597.503C482.532 602.511 482.865 609.107 480.205 610.197Z" fill="#ED824C"/>
<path d="M282.028 596.923C274.286 597.607 273.357 604.03 276.521 610.674C279.684 617.318 286.017 621.404 284.847 626.192C283.676 630.98 283.893 632.943 282.572 638.23C281.252 643.517 282.014 643.379 285.423 649.734C288.833 656.088 297.615 672.588 297.615 672.588C288.934 671.006 290.809 679.922 292.641 683.338C294.474 686.753 298.876 697.284 300.537 698.054C302.199 698.824 308.497 723.733 307.403 725.569C306.31 727.405 318.352 758.377 320.144 763.265C309.875 761.171 298.55 753.498 295.258 747.362C291.966 741.227 294.185 724.918 284.704 727.854C278.064 729.912 268.388 718.91 264.65 713.035C247.868 686.664 245.025 683.682 241.684 680.571C235.314 674.627 232.411 677.227 235.703 683.362C238.995 689.498 245.184 704.391 243.873 710.476C242.563 716.561 237.202 717.678 235.825 721.311C234.447 724.945 243.856 734.114 248.216 737.184C251.087 739.206 250.838 730.944 253.488 735.295C254.85 737.551 253.163 744.522 254.29 746.046C255.721 747.994 259.086 748.692 263.355 750.034C269.012 751.816 283.503 749.64 289.811 757.866C300.885 772.305 305.636 783.485 314.885 786.006C319.43 787.244 323.508 790.465 330.271 793.326C332.075 794.09 335.153 789.963 336.827 790.737C341.66 792.966 347.569 799.468 349.348 801.033C354.058 805.158 356.275 796.898 355.511 793.148C354.747 789.398 340.937 768.645 344.349 764.87C348.542 760.231 345.392 758.407 344.431 753.519C343.469 748.632 334.684 750.842 330.005 742.122C325.327 733.401 330.994 725.37 328.843 719.035C326.692 712.7 324.061 712.45 321.462 707.605C318.862 702.76 322.589 683.567 323.68 678.914C324.771 674.261 326.728 672.739 325.521 665.675C324.315 658.61 321 640.051 320.709 634.663C320.418 629.274 316.317 626.478 315.876 628.751C315.435 631.024 316.343 631.645 316.372 635.876C316.401 640.108 316.828 641.551 315.069 646.193C313.31 650.835 317.468 660.063 315.862 666.659C307.511 656.901 302.644 647.141 301.016 641.346C299.388 635.551 298.99 629.307 296.447 624.567C293.904 619.828 291.006 617.875 289.801 613.9C288.596 609.924 288.423 596.359 282.028 596.923Z" fill="#ED824C"/>
<path d="M418.354 238.338C416.905 239.617 421.417 243.031 421.859 245.89C422.301 248.749 420.746 250.018 420.666 252.246C420.586 254.475 423.225 257.669 423.343 260.567C423.46 263.464 429.177 268.57 431.578 272.762C433.269 275.871 434.717 279.106 435.909 282.439C433.218 283 432.55 285.414 433.497 287.257C434.443 289.1 436.545 291.798 441.465 292.135C446.385 292.473 447.059 300.72 447.52 302.334C447.981 303.948 449.784 303.629 452.986 300.539C456.188 297.448 459.486 295.446 458.055 291.851C456.624 288.257 455.042 280.358 454.287 277.126C452.691 270.304 441.306 273.694 436.946 259.465C435.93 256.144 436.319 254.644 435.076 253.418C433.833 252.192 431.06 247.274 430.681 245.859C430.303 244.444 432.447 238.681 432.447 238.681C432.577 233.41 428.711 230.441 427.295 222.997C425.88 215.552 424.316 226.64 424.251 230.444C424.186 234.247 420.995 235.997 418.354 238.338Z" fill="#ED824C"/>
<path d="M291.51 153.673C287.486 156.946 293.918 160.454 288.934 165.767C287.567 167.224 282.847 163.253 283.226 167.639C283.613 172.143 282.37 175.601 279.882 179.368C277.394 183.136 272.566 183.058 273.126 179.281C273.686 175.503 276.448 171.158 275.9 165.561C275.352 159.965 271.708 160.934 270.591 153.599C269.474 146.264 270.031 142.21 267.961 140.065C265.891 137.92 262.228 140.318 260.792 136.244C259.355 132.171 254.91 116.438 251.539 110.607C249.122 110.8 244.865 113.487 243.607 113.3C242.348 113.114 242.443 105.039 241.689 100.148C240.935 95.2564 239.429 80.6943 239.723 78.7156C240.016 76.737 240.057 73.9855 236.249 69.9281C232.441 65.8706 238.644 50.0617 237.361 40.1283C234.059 37.6165 235.112 32.9931 234.207 29.1823C233.302 25.3715 231.132 22.6599 229.528 19.8484C227.924 17.0369 228.212 11.3807 228.907 6.69448C229.602 2.00823 230.389 -10.7336 231.169 -17.2358C229.685 -18.3751 228.265 -20.0853 228.021 -24.5044C227.902 -26.6699 230.472 -27.4016 233.429 -28.7579C236.386 -30.1141 237.695 -33.3645 238.801 -38.0235C239.908 -42.6826 240.542 -40.402 242.798 -36.0522C245.054 -31.7024 248.979 -27.555 248.366 -24.3369C247.754 -21.1187 247.958 -20.6723 248.774 -17.7939C249.59 -14.9155 250.844 -15.9727 252.079 -12.2049C253.314 -8.43702 250.898 -0.52286 250.378 2.98473C249.858 6.49231 246.464 16.3321 248.759 16.6723C251.053 17.0126 251.845 16.3028 254.23 17.8948C256.614 19.4869 254.032 22.0017 252.493 24.9469C250.953 27.8922 250.632 27.2882 250.521 29.8938C250.41 32.4994 252.527 40.5293 256.548 45.0055C260.569 49.4816 256.613 47.3419 254.684 51.0519C252.756 54.7619 249.739 58.3153 251.546 61.065C253.353 63.8146 254.537 71.5757 254.85 74.099C255.162 76.6222 256.604 78.084 258.094 80.095C259.585 82.106 265.234 85.8415 265.947 88.4677C266.66 91.0938 265.069 95.3328 269.273 102.298C269.137 98.5532 271.019 97.0424 273.169 98.3239C275.319 99.6054 277.134 99.4634 278.365 103.231C279.595 106.998 281.415 117.059 282.647 119.999C283.879 122.939 286.395 124.425 288.784 125.045C291.172 125.666 290.979 128.757 292.425 130.713C297.531 137.561 289.102 135.91 290.309 140.776C291.517 145.643 293.742 151.861 291.51 153.673Z" fill="#ED824C"/>
<path d="M415.723 153.213C414.905 151.299 411.567 149.734 411.419 146.595C411.27 143.455 409.922 143.12 409.505 140.254C409.089 137.388 410.529 140.938 411.007 139.641C411.485 138.345 409.166 136.435 409.094 134.856C409.022 133.277 411.069 132.88 410.319 128.243C409.568 123.606 406.162 118.969 405.139 116.174C404.115 113.379 398.324 106.766 397.487 104.857C396.65 102.947 397.286 104.106 397.147 101.856C397.008 99.6073 395.033 97.8223 394.588 95.1569C394.507 93.9191 394.26 92.6976 393.857 91.5248C391.494 84.4329 389.61 78.4321 385.917 67.1578C382.225 55.8835 377.863 44.7911 371.321 35.6989C364.778 26.6068 364.051 25.8794 363.506 20.247C362.961 14.6147 360.234 14.9831 359.507 13.5188C358.781 12.0545 355.509 0.426078 353.692 -3.93816C351.874 -8.3024 345.332 -10.4845 344.241 -13.7577C340.319 -25.5297 334.489 -41.7759 333.155 -44.1255C331.821 -46.4751 328.43 -44.8529 327.894 -44.1255C330.979 -33.4255 323.872 -44.9869 322.317 -51.9257C320.328 -60.8025 322.227 -67.2914 319.754 -71.7227C316.875 -76.9395 314.49 -82.4137 312.628 -88.0742C308.448 -88.6197 307.902 -89.8926 306.539 -86.2558C305.64 -83.8631 303.928 -75.1872 303.192 -68.9232C301.398 -59.7592 297.452 -53.5431 296.639 -47.5566C295.601 -39.9671 288.509 -38.5219 287.634 -33.2963C287.112 -30.1236 290.082 -30.425 286.677 -18.0884C285.859 -15.1406 277.112 -12.346 274.639 -5.25892C272.468 1.02424 276.471 -4.43582 277.15 4.39315C277.313 6.47478 275.184 11.351 274.706 14.6577C273.912 20.1752 280.33 11.8822 282.157 6.10149C283.238 2.68475 289.834 -1.84696 292.23 -7.57981C293.884 -11.5469 295.726 -17.8635 295.97 -20.6534C296.673 -28.6066 304.579 -24.6252 305.234 -31.7745C305.712 -36.8326 306.836 -49.9876 307.309 -54.6198C308.562 -44.9056 313.584 -43.6757 315.861 -38.7755C318.223 -33.6839 318.821 -24.8549 317.731 -20.8544C316.64 -16.8538 312.097 -15.3991 313.369 -12.1259C314.641 -8.85271 317.367 -5.21586 319.367 -8.67088C321.366 -12.1259 321.002 -17.3993 323.193 -14.4898C325.383 -11.5803 323.738 -5.57952 326.282 -2.12449C328.827 1.33053 334.642 11.15 333.007 18.4238C331.371 25.6975 325.01 36.2397 321.375 39.5128C317.74 42.786 317.377 42.2405 317.377 46.0592C317.377 49.8779 315.56 53.8785 313.015 53.8785C310.471 53.8785 309.38 64.0617 307.563 68.7896C305.745 73.5175 302.637 84.8301 299.365 88.6488C296.094 92.4675 298.203 106.249 300.566 111.14C302.929 116.031 304.21 113.351 304.837 108.049C305.965 98.5353 307.563 93.5011 307.836 89.6824C308.108 85.8637 312.47 80.1357 315.488 73.0438C318.506 65.9519 319.577 58.5873 324.847 51.3135C330.118 44.0398 335.57 39.3119 337.024 34.5648C338.478 29.8177 340.295 21.6444 338.842 15.8397C343.749 28.3821 349.746 41.293 353.381 44.0206C357.016 46.7483 360.105 52.0217 363.903 58.0225C367.7 64.0234 374.08 79.6619 374.989 83.2988C375.109 83.7773 375.271 84.3563 375.467 84.9545C376.132 89.4575 375.792 98.0616 374.769 102.077C373.487 107.111 365.228 125.123 363.458 128.669C361.688 132.215 361.004 144.35 358.675 149.399C356.346 154.447 348.861 160.309 350.497 163.171C352.133 166.033 351.181 162.492 354.586 160.443C357.991 158.395 361.54 161.807 366.308 149.672C371.077 137.536 368.489 136.852 372.306 134.67C376.122 132.487 374.759 136.44 376.534 137.258C378.308 138.077 375.716 134.803 378.715 128.262C381.713 121.72 383.258 112.03 383.803 107.12C384.217 103.287 384.392 99.4325 384.325 95.578V95.578C388.074 98.8464 388.71 101.665 389.256 103.392C389.801 105.12 391.169 104.665 392.795 107.666C394.421 110.666 398.611 117.849 399.792 120.031C396.162 117.576 393.522 115.758 396.071 120.849C398.62 125.941 400.155 125.85 400.61 128.214C401.064 130.578 400.337 131.76 401.609 133.478C402.881 135.196 403.044 137.66 402.791 140.934C402.537 144.207 405.77 147.547 407.473 149.662C409.175 151.777 412.256 154.926 413.403 156.361C414.551 157.797 416.541 155.122 415.723 153.213Z" fill="#ED824C"/>
<path d="M390.442 62.4514C395.005 52.7324 394.871 51.1771 394.871 51.1771C400.051 54.4503 398.908 51.3733 399.453 48.1049C399.998 44.8365 403.049 43.7455 404.14 42.9272C405.23 42.1089 401.892 35.3663 408.707 30.9973C415.523 26.6283 425.609 18.7181 426.7 4.53438C425.064 23.9007 430.244 32.6291 434.605 35.218C438.967 37.8069 449.872 37.5389 453.143 48.4495C456.414 59.3601 456.969 71.8977 455.869 76.2715C454.769 80.6453 444.812 95.4129 444.812 99.2412C444.812 103.069 446.447 104.984 446.447 104.984C443.994 112.64 440.201 119.177 440.201 123.268C440.201 127.36 439.565 132.088 437.657 136.189C435.748 140.29 439.02 146.281 441.746 151.736C447.485 143.826 453.923 145.645 453.923 141.826C453.923 138.007 452.559 126.278 452.559 120.823C455.831 129.279 458.83 125.187 458.83 119.186C458.83 113.186 461.441 109.616 460.896 103.902C460.35 98.1884 473.857 83.6696 474.947 78.4871C476.038 73.3045 476.583 67.8493 480.945 61.3029C485.306 54.7566 503.299 40.5824 509.296 31.0308C515.294 21.4793 519.655 20.1155 518.565 13.5691C517.475 7.02276 517.747 8.93211 523.199 9.74084C528.652 10.5496 532.765 3.46725 531.923 -1.44251C531.081 -6.35228 534.922 -21.0624 537.103 -31.1739C539.284 -41.2853 540.101 -54.0861 540.101 -59.2687C540.101 -64.4512 541.737 -68.5426 538.738 -69.9065C535.74 -71.2703 533.831 -73.4524 532.196 -78.3622C530.56 -83.272 530.283 -86.0187 525.5 -85.3153C520.717 -84.6118 517.322 -89 517.322 -89C517.322 -89 510.626 -87.2246 512.061 -84.7697C513.495 -82.3149 516.088 -73.7252 516.226 -70.7248C511.865 -68.2699 512.544 -68.4039 513.773 -61.178C515.002 -53.9521 514.729 -40.3091 514.452 -36.9019C514.175 -33.4947 516.365 -32.3989 519.359 -33.6288C520.315 -25.4458 516.178 -14.4443 515.452 -12.0947C514.725 -9.74509 503.82 -10.0944 503.275 -7.54862C502.73 -5.00281 504.365 -4.821 503.457 -0.274917C502.548 4.27116 495.278 6.99882 493.643 9.54462C492.007 12.0904 486.373 20.2542 485.828 28.4467C485.282 36.6393 484.01 41.1853 478.922 44.4585C473.833 47.7317 473.288 58.0967 468.4 63.1883C467.854 49.0046 460.747 40.0943 458.586 37.7303C456.424 35.3664 443.501 32.4377 440.593 28.4467C437.685 24.4558 435.686 11.7268 435.686 10.4538C439.866 12.636 442.229 12.2723 442.047 7.36254C441.865 2.45277 441.32 0.634313 439.685 -3.72992C438.049 -8.09416 435.323 -6.27573 434.424 -8.63969C433.524 -11.0037 431.616 -14.6405 433.108 -18.0955C434.601 -21.5506 433.108 -29.3698 433.108 -29.3698C428.804 -27.9342 422.247 -25.5415 420.975 -24.6419C419.703 -23.7422 423.883 -17.9137 423.883 -15.5497C423.883 -13.1857 418.143 -10.64 418.473 -8.45785C418.803 -6.27573 417.517 -0.0930827 415.523 3.54378C413.528 7.18064 403.528 22.0918 398.984 25.9105C394.441 29.7292 393.532 36.8211 392.805 42.2764C392.078 47.7317 388.625 52.4596 386.626 55.1968C384.626 57.9341 387.831 68.0168 390.442 62.4514Z" fill="#ED824C"/>
</g>
</g>
<defs>
<clipPath id="clip0_412_386">
<rect width="450" height="720" fill="white"/>
</clipPath>
</defs>
</svg>
