<svg width="450" height="720" viewBox="0 0 450 720" fill="none" xmlns="http://www.w3.org/2000/svg">
<g clip-path="url(#clip0_412_386)">
<mask id="mask0_412_386" style="mask-type:alpha" maskUnits="userSpaceOnUse" x="92" y="-2" width="361" height="720">
<mask id="mask1_412_386" style="mask-type:alpha" maskUnits="userSpaceOnUse" x="92" y="-42" width="638" height="790">
<path d="M530.746 108.281C528.132 107.695 500.985 102.296 496.631 102.296C492.276 102.296 484.011 98.0085 482.849 96.5558C481.688 95.1031 471.543 92.5066 467.31 91.4162C463.076 90.3258 453.042 90.7058 451.592 90.4501C450.143 90.1944 450.623 94.7976 450.985 98.0618C451.347 101.326 446.392 104.835 444.457 109.307C442.521 113.779 444.577 104.835 445.668 103.141C446.758 101.447 449.053 100.481 447.962 97.5788C446.872 94.6769 446.996 91.8069 446.996 90.9118C446.996 90.0168 438.774 89.7255 433.211 89.1359C427.649 88.5463 423.298 87.0758 419.547 89.3774C416.674 91.1534 408.909 87.5624 401.894 88.0454C394.879 88.5285 394.521 91.5974 383.638 94.6911C372.755 97.7848 363.868 97.9552 357.709 101.585C351.55 105.215 340.66 107.027 336.124 106.846C331.588 106.664 317.441 110.834 313.814 113.193C310.188 115.551 311.584 117.228 321.796 117.001C332.671 116.748 340.567 127.759 349.646 127.887C352.367 127.926 365.423 127.177 368.506 127.887C371.59 128.597 386.916 132.711 390.173 133.073C393.43 133.435 394.616 124.804 394.435 122.268C394.254 119.732 394.528 113.992 396.808 112.266C399.088 110.54 396.826 113.804 396.808 116.706C396.79 119.608 397.163 120.815 398.005 122.63C398.847 124.445 397.067 129.507 397.295 131.684C397.522 133.861 395.963 133.858 402.622 133.496C409.282 133.133 417.615 132.409 421.121 132.785C424.626 133.162 428.257 133.268 430.434 131.212C432.611 129.155 432.004 127.706 435.875 128.555C439.747 129.404 445.018 131.158 457.35 129.102C463.033 128.157 463.697 126.019 470.108 125.415C476.52 124.811 478.743 124.9 484.526 123.689C490.308 122.478 494.418 118.716 502.058 118.112C507.03 117.714 516.585 113.314 527.227 113.072C532.437 112.937 537.999 109.914 530.746 108.281Z" fill="#939960"/>
<path d="M291.139 78.9812C298.57 78.839 309.702 78.849 314.717 77.5026C319.733 76.1563 328.625 74.0636 329.955 73.3C331.286 72.5365 330.198 63.0413 330.951 60.3276C331.704 57.6139 336.407 53.2405 338.252 52.919C340.097 52.5974 336.592 55.5631 335.462 57.6707C334.331 59.7783 334.119 60.9163 334.61 62.4572C335.101 63.9982 333.809 64.9571 334.044 68.256C334.279 71.555 333.461 74.2673 339.589 71.845C345.717 69.4226 357.462 69.6543 360.624 69.5406C363.785 69.427 371.795 69.3577 371.919 66.2502C372.044 63.1427 374.974 62.7905 374.842 64.5117C374.71 66.2329 373.984 67.7945 377.421 67.2496C380.858 66.7047 388.804 64.3114 392.308 64.4734C395.811 64.6354 399.995 67.0263 402.753 65.8522C405.512 64.6781 412.796 64.5425 418.935 65.1312C425.074 65.7199 432.31 66.2716 432.803 64.5781C433.297 62.8847 427.348 61.388 424.103 61.0214C420.857 60.6547 415.892 57.3918 409.997 55.2045C404.102 53.0172 396.969 52.705 394.833 52.078C392.698 51.451 390.715 53.6108 389.852 55.3934C388.988 57.1759 387.405 60.3995 386.605 59.7752C385.805 59.151 387.206 56.5903 387.7 53.3936C388.195 50.197 388.69 49.7755 384.317 48.503C379.944 47.2305 375.405 47.705 369.083 46.2937C362.762 44.8823 357.82 41.265 353.672 40.1308C349.523 38.9967 342.327 36.2571 338.182 36.5161C334.037 36.7751 325.745 32.6726 321.802 31.7929C317.858 30.9131 309.074 31.7423 306.83 34.11C304.585 36.4777 303.093 38.5577 302.083 39.2887C301.072 40.0198 301.315 38.1897 301.869 35.71C302.423 33.2304 303.288 33.0474 299.437 32.6343C295.586 32.2212 290.099 34.2296 287.291 34.4737C284.483 34.7177 279.415 32.9288 277.103 32.7514C274.79 32.5739 264.994 35.6338 262.339 37.2789C259.683 38.9239 259.122 44.4203 259.677 46.6573C260.232 48.8943 259.605 58.0869 258.367 58.6688C257.129 59.2506 258.172 56.5769 258.192 54.9612C258.234 53.7152 257.952 52.4796 257.374 51.3752C256.851 50.2949 258.102 47.4163 256.743 44.9751C256.118 43.8335 257.057 38.1845 256.24 37.6017C255.423 37.0189 256.122 35.9789 248.723 37.6055C241.324 39.232 242.483 40.0121 238.394 40.9701C234.306 41.9281 235.328 41.4258 231.779 41.8482C228.231 42.2705 225.24 46.1091 222.017 47.0161C218.795 47.923 206.164 46.6081 202.001 47.0973C197.839 47.5865 194.339 52.0665 189.921 52.5361C185.503 53.0057 178.474 53.1573 175.598 52.7051C172.722 52.2528 165.135 51.5459 164.762 53.2592C164.388 54.9725 165.216 56.8564 169.393 57.8895C173.571 58.9226 181.217 58.6828 182.318 60.1532C183.42 61.6235 181.845 63.5794 184.36 63.7724C186.874 63.9654 189.95 63.3928 193.851 64.7324C197.752 66.0719 200.86 69.773 203.803 70.9251C206.746 72.0772 216.684 70.1788 219.435 70.6785C222.186 71.1781 222.934 67.8014 223.122 66.1415C223.309 64.4816 225.219 64.4821 226.101 61.6643C226.984 58.8465 225.965 56.3424 226.649 56.1063C227.333 55.8703 227.668 58.2329 227.862 60.4422C228.056 62.6515 227.945 64.0109 227.182 64.6648C226.407 65.3188 225.735 66.0849 225.187 66.9377C224.506 67.9256 224.562 71.136 224.38 71.9272C224.198 72.7183 228.241 72.2234 231.219 72.9151C234.197 73.6068 237.679 75.6338 242.101 75.0219C246.522 74.4101 250.351 71.0241 250.812 72.1281C251.272 73.2321 251.862 75.8922 252.933 76.1489C254.003 76.4056 259.497 76.7203 261.932 75.7708C264.366 74.8213 269.642 73.705 272.677 74.458C275.711 75.211 283.762 79.1097 291.139 78.9812Z" fill="#939960"/>
<path d="M455.929 50.8166C464.72 53.2035 467.54 58.6308 471.167 59.16C474.793 59.6893 478.981 60.2469 478.981 54.9901C478.981 49.7333 481.513 41.7486 482.966 43.3825C484.419 45.0164 482.693 47.6448 482.33 48.9128C481.968 50.1808 481.698 52.5393 482.33 53.8855C482.963 55.2316 483.474 59.6893 483.538 61.8666C483.602 64.0439 488.511 67.6704 491.672 68.3062C494.833 68.942 503.191 67.8515 505.276 65.6742C507.087 67.7627 507.087 69.8477 511.261 69.3043C515.434 68.7608 522.325 67.3685 524.136 65.3119C525.948 63.2554 530.75 62.1685 532.703 61.927C534.657 61.6854 539.374 62.41 541.065 59.1458C542.755 55.8816 542.88 53.1076 543.966 51.2855C545.053 49.4634 541.64 43.9117 541.732 41.8268C541.825 39.7418 542.638 42.6402 543.181 43.4571C543.725 44.274 545.54 44.1675 546.265 45.7232C546.989 47.2789 546.446 48.6251 546.265 50.259C546.083 51.8928 545.721 54.1412 545.721 55.2316C545.721 56.3221 545.011 57.6896 544.815 59.3199C544.62 60.9502 552.068 60.833 555.698 59.6218C559.328 58.4106 564.038 54.1803 565.974 53.9387C567.91 53.6972 573.231 54.5426 575.163 54.2939C577.095 54.0453 575.77 50.6674 576.374 50.0636C576.978 49.4598 576.978 53.2071 578.672 53.2071C580.366 53.2071 585.563 52.6032 589.189 49.8221C592.816 47.041 595.227 47.1617 601.585 46.2702C607.943 45.3787 616.034 44.0645 615.438 41.0844C614.841 38.1044 611.808 38.1079 608.423 36.5344C605.038 34.961 600.14 33.3022 596.513 32.2118C592.887 31.1214 588.894 30.3968 587.687 30.7626C586.479 31.1285 586.717 28.4929 584.181 27.4061C581.645 26.3192 580.984 28.0099 578.317 28.1164C575.649 28.223 567.555 29.388 564.773 27.8145C561.992 26.2411 561.751 24.0673 558.607 23.9465C555.464 23.8258 553.407 26.3654 550.868 26.4861C548.328 26.6069 541.192 26.7277 537.566 24.9126C533.939 23.0976 530.554 21.5277 528.256 22.1315C525.958 22.7353 522.332 22.6146 522.332 25.1542C522.332 27.6938 521.977 32.5315 521.362 33.9806C520.748 35.4298 521.153 31.0184 520.609 28.841C520.066 26.6637 520.336 24.1277 518.432 23.5842C516.528 23.0408 514.077 25.3957 514.077 25.3957C510.27 24.8523 504.263 25.4987 500.935 26.5465C495.536 28.2408 493.078 29.5692 488.66 29.7432C486.12 29.8462 484.042 28.8233 475.784 29.7432C471.408 30.2618 463.988 33.7675 462.791 34.6022C461.594 35.4369 458.803 34.4211 457.35 34.4211C455.897 34.4211 455.265 36.5984 453.635 37.0495C452.004 37.5006 451.578 39.4683 443.657 40.4593C439.413 40.9885 427.908 42.6721 428.001 45.0306C428.093 47.389 437.431 48.206 440.24 48.3871C445.543 48.6251 450.803 49.4398 455.929 50.8166V50.8166Z" fill="#939960"/>
<path d="M297.474 6.93101C302.3 7.84743 313.609 7.84472 315.521 6.97097C317.432 6.09723 322.72 2.61215 323.49 3.96656C324.261 5.32096 324.109 6.79073 326.999 7.08934C329.889 7.38796 341.238 6.89305 345.172 7.66729C349.106 8.44152 351.198 7.5758 353.008 4.19202C354.818 0.808243 356.906 -3.53241 357.496 -2.19309C358.086 -0.853777 356.166 1.86166 355.999 3.48688C355.831 5.1121 354.839 9.08032 354.855 9.95687C354.872 10.8334 362.067 12.0019 363.833 12.5021C365.599 13.0024 369.593 13.3686 371.458 13.8363C373.324 14.3041 375.812 15.8359 378.018 17.4314C380.224 19.027 387.157 18.8328 388.983 18.6536C390.808 18.4745 397.524 16.8938 398.033 19.0139C398.542 21.134 401.661 23.8844 404.519 25.6401C407.376 27.3958 415.713 26.7146 419.796 26.0403C423.879 25.366 426.832 22.6359 426.957 21.4241C427.083 20.2122 426.386 17.555 426.622 15.2691C426.858 12.9832 428.017 5.50065 427.852 3.36257C427.563 -0.334541 429.899 2.94554 429.65 5.35157C429.402 7.75761 430.766 11.6265 430.799 12.4798C430.832 13.3331 429.266 14.3889 429.776 16.509C430.285 18.6292 429.782 21.1517 431.827 21.3631C433.873 21.5744 437.333 21.0214 439.694 19.3193C442.055 17.6172 445.695 16.5363 452.851 17.2971C456.677 17.6925 458.667 12.1849 459.27 12.1257C462.337 13.7209 465.111 15.1003 470.111 14.3385C475.11 13.5767 481.91 10.455 484.998 10.2241C488.085 9.99326 497.12 11.4766 501.822 11.4161C506.523 11.3556 506.755 9.80131 503.574 8.28346C500.392 6.76561 492.832 4.24551 488.638 1.18762C484.444 -1.87027 480.464 -2.15657 478.66 -2.46433C476.856 -2.7721 478.045 -5.57017 473.072 -7.93013C468.099 -10.2901 451.411 -12.9 448.132 -14.0958C444.852 -15.2916 438.678 -16.8402 435.786 -16.9497C432.894 -17.0593 428.537 -15.9133 426.481 -16.1258C424.425 -16.3382 423.074 -17.7098 418.896 -18.1914C414.718 -18.6731 410.016 -18.6518 407.638 -19.4796C405.26 -20.3074 404.9 -19.2413 404.307 -17.7528C403.714 -16.2643 402.465 -13.751 401.949 -11.5261C401.434 -9.30117 402.106 -6.1287 401.219 -6.22033C400.332 -6.31196 400.201 -9.60706 400.204 -11.4314C400.207 -13.2558 400.091 -14.7247 400.24 -16.1697C400.389 -17.6148 402.112 -17.5261 402.57 -19.2998C403.029 -21.0736 403.049 -21.0679 400.006 -22.1251C396.962 -23.1823 394.557 -24.6877 391.012 -26.4216C387.467 -28.1556 383.224 -27.0764 381.477 -26.5177C378.207 -25.4558 375.394 -19.4868 370.353 -20.0078C366.562 -20.3995 360.663 -16.8061 359.436 -15.5438C356.782 -12.8079 345.493 -15.5848 341.813 -14.326C338.134 -13.0672 336.704 -9.29052 336.704 -9.29052C331.656 -8.81234 327.964 -7.94764 325.478 -6.83687C322.992 -5.7261 317.556 -2.74197 312.666 -2.24382C307.776 -1.74568 301.596 -0.409571 298.252 -0.390892C294.908 -0.372213 289.539 2.55453 291.482 4.03366C293.425 5.5128 293.272 6.13256 297.474 6.93101Z" fill="#939960"/>
<path d="M107.947 119.803C115.6 118.468 118.584 119.44 124.862 121.367C131.14 123.293 131.451 125.975 136.818 127.686C138.536 128.242 140.988 128.089 145.275 128.925C149.562 129.761 153.433 136.518 157.908 138.362C162.383 140.205 170.563 140.337 173.316 141.988C176.069 143.639 177.669 142.123 179.839 137.434C182.009 132.746 178.959 122.794 179.409 118.834C179.859 114.875 182.625 107.031 184.362 106.16C186.098 105.289 184 111.399 183.674 113.233C183.349 115.066 184.977 118.262 184.884 119.59C184.792 120.918 182.976 122.215 183.27 126.828C183.523 130.655 183.307 139.782 182.216 142.784C180.934 146.318 183.546 146.759 186.875 148.663C188.993 149.878 194.386 152.603 199.683 152.385C204.98 152.167 212.731 146.8 214.42 145.316C216.109 143.832 219.602 138.88 222.22 138.508C224.838 138.137 225.157 142.44 231.887 141.482C238.617 140.524 243.257 135.735 245.386 134.682C247.514 133.629 248.482 129.08 248.012 126.009C247.543 122.937 249.349 120.301 249.774 122.857C250.199 125.412 251.021 125.804 251.182 128.229C251.343 130.654 249.098 133.942 252.066 133.614C255.034 133.286 264.054 129.092 265.384 128.707C266.808 130.61 269.507 131.582 272.722 130.077C275.937 128.572 282.851 124.394 286.61 124.304C290.369 124.213 289.811 120.588 287.741 120.252C285.671 119.916 282.756 120.088 279.692 119.236C276.628 118.384 271.503 113.093 267.611 110.542C263.719 107.992 262.354 109.646 259.938 109.271C257.521 108.895 249.886 103.243 244.272 99.831C238.658 96.4192 229.995 95.3298 229.478 95.2712C225.866 90.7487 222.879 90.0062 220.127 89.4919C217.376 88.9776 215.804 93.5149 215.775 97.5225C215.746 101.53 214.388 106.692 213.877 104.929C213.365 103.166 214.438 100.781 213.975 98.0193C213.511 95.2579 213.438 91.9401 214.066 89.5042C214.693 87.0683 210.494 87.2491 206.778 87.9562C202.379 88.8085 200.845 90.0443 196.553 89.9555C192.26 89.8667 186.377 87.5574 185.335 87.4389C184.292 87.3204 181.94 87.9558 180.866 90.4381C179.793 92.9205 178.594 89.5791 175.745 89.1364C172.896 88.6938 164.529 90.4692 160.496 93.5178C156.462 96.5665 146.904 102.617 144.04 103.877C141.177 105.138 138.51 104.396 135.964 104.312C133.418 104.227 128.344 105.686 125.976 108.759C123.608 111.831 117.609 112.775 113.422 113.303C109.234 113.83 101.677 120.892 107.947 119.803Z" fill="#939960"/>
<path d="M317.456 611.988C326.335 613.138 330.647 620.867 342.074 621.599C353.5 622.331 350.662 617.806 354.836 618.711C359.009 619.617 358.629 621.965 369.874 625.591C381.12 629.218 386.213 629.765 389.825 630.308C393.438 630.852 395.448 625.229 395.448 620.878C395.448 616.527 395.569 615.195 395.931 613.749C396.293 612.304 397.38 613.394 398.229 617.497C399.078 621.599 399.558 621.904 399.437 624.927C399.316 627.95 396.986 630.834 397.139 632.667C397.292 634.499 402.822 635.789 406.594 636.67C410.366 637.551 413.222 641.191 425.373 637.927C437.524 634.663 435.169 629.047 437.89 627.044C440.61 625.041 441.335 630.127 448.588 628.674C455.841 627.222 458.565 621.965 463.826 618.701C469.086 615.436 477.611 616.523 480.52 615.799C483.429 615.074 489.399 611.082 495.21 609.633C501.021 608.183 515.342 606.887 519.878 606.081C524.414 605.274 522.78 601.818 516.248 602.195C509.716 602.571 503.674 600.742 499.803 599.293C495.931 597.844 487.229 593.255 483.109 592.523C478.989 591.791 474.766 592.878 473.796 596.029C465.332 594.697 460.135 588.772 455.781 587.323C451.426 585.874 445.501 584.784 443.931 586.716C442.362 588.648 441.754 592.278 441.754 595.546C441.754 598.814 442.962 600.217 441.513 600.579C440.063 600.941 439.215 598.931 439.094 595.059C438.973 591.188 439.577 586.567 439.577 585.675C439.577 584.784 434.622 582.834 431.113 582.244C427.603 581.654 415.033 580.429 411.282 580.55C407.532 580.67 407.294 582.848 404.513 583.693C401.731 584.538 401.817 581.083 398.346 578.617C394.876 576.152 389.424 576.611 382.097 582.329C374.769 588.048 372.833 589.135 367.633 590.346C362.433 591.557 359.773 591.312 355.663 592.885C351.554 594.459 349.625 597.478 347.561 599.535C345.498 601.591 332.327 605.484 320.716 606.138C309.105 606.791 310.529 611.075 317.456 611.988Z" fill="#939960"/>
<path d="M423.474 427.699C430.673 426.499 444.277 415.545 446.749 415.545C449.221 415.545 454.99 415.339 459.728 413.058C464.466 410.778 468.171 407.908 472.703 406.466C477.235 405.024 494.33 399.465 498.039 400.073C501.747 400.68 502.159 401.717 505.853 401.717C509.547 401.717 512.246 400.893 515.738 402.747C519.229 404.601 523.772 406.249 528.304 404.395C532.836 402.541 539.635 400.389 544.369 400.023C549.104 399.657 556.112 397.917 562.91 400.023C569.709 402.129 576.091 406.661 581.242 406.661C586.392 406.661 593.396 411.989 600.809 413.335C608.222 414.682 617.702 420.052 622.44 421.505C627.178 422.957 618.732 422.947 614.406 423.771C610.08 424.595 607.195 427.479 600.809 429.33C594.423 431.18 585.362 432.008 578.787 434.892C572.213 437.776 559.632 444.574 556.766 444.368C553.899 444.162 551.409 434.48 549.555 432.42C547.701 430.36 549.761 433.656 549.967 436.952C550.173 440.248 554.087 445.192 548.731 446.016C543.375 446.84 535.138 449.107 530.617 449.923C526.095 450.74 520.934 455.482 519.904 449.923C518.874 444.365 521.758 444.155 519.492 436.739C517.226 429.322 514.963 425.018 515.375 422.116C515.787 419.214 511.823 424.176 512.672 427.678C513.521 431.18 517.645 436.739 515.578 439.417C513.511 442.095 520.316 451.778 511.255 449.923C502.194 448.069 498.277 446.627 490.036 443.743C481.796 440.859 466.761 434.885 456.464 433.855C446.167 432.825 443.897 434.679 437.099 434.061C430.3 433.443 417.531 431.383 417.531 429.528C417.531 427.674 418.547 428.52 423.474 427.699Z" fill="#939960"/>
<path d="M388.942 170.699C396.142 169.499 409.746 158.545 412.218 158.545C414.69 158.545 420.458 158.339 425.197 156.058C429.935 153.778 433.639 150.908 438.172 149.466C442.704 148.024 459.799 142.465 463.507 143.073C467.215 143.68 467.627 144.717 471.321 144.717C475.015 144.717 477.715 143.893 481.206 145.747C484.698 147.601 489.241 149.249 493.773 147.395C498.305 145.541 505.104 143.389 509.838 143.023C514.573 142.657 521.581 140.917 528.379 143.023C535.177 145.129 541.56 149.661 546.71 149.661C551.861 149.661 558.865 154.989 566.278 156.335C573.691 157.682 583.171 163.052 587.909 164.505C592.647 165.957 584.201 165.947 579.875 166.771C575.548 167.595 572.664 170.479 566.278 172.33C559.892 174.18 550.831 175.008 544.256 177.892C537.682 180.776 525.101 187.574 522.234 187.368C519.368 187.162 516.878 177.48 515.024 175.42C513.17 173.36 515.23 176.656 515.436 179.952C515.642 183.248 519.556 188.192 514.2 189.016C508.844 189.84 500.607 192.107 496.085 192.923C491.564 193.74 486.403 198.482 485.373 192.923C484.343 187.365 487.227 187.155 484.961 179.739C482.695 172.322 480.432 168.018 480.844 165.116C481.256 162.214 477.292 167.176 478.141 170.678C478.99 174.18 483.114 179.739 481.047 182.417C478.979 185.095 485.785 194.778 476.724 192.923C467.663 191.069 463.745 189.627 455.505 186.743C447.264 183.859 432.229 177.885 421.932 176.855C411.635 175.825 409.366 177.679 402.567 177.061C395.769 176.443 383 174.383 383 172.528C383 170.674 384.016 171.52 388.942 170.699Z" fill="#939960"/>
<path d="M325.472 324.395C328.086 324.981 355.233 330.38 359.588 330.38C363.942 330.38 372.207 334.667 373.369 336.12C374.53 337.573 384.675 340.169 388.908 341.26C393.142 342.35 403.176 341.97 404.626 342.226C406.075 342.481 405.595 337.878 405.233 334.614C404.871 331.35 409.826 327.841 411.761 323.369C413.697 318.897 411.641 327.841 410.55 329.535C409.46 331.229 407.165 332.195 408.256 335.097C409.346 337.999 409.222 340.869 409.222 341.764C409.222 342.659 417.444 342.95 423.007 343.54C428.569 344.129 432.92 345.6 436.671 343.298C439.544 341.522 447.309 345.113 454.324 344.63C461.339 344.147 461.697 341.078 472.58 337.985C483.463 334.891 492.35 334.721 498.509 331.09C504.668 327.46 515.558 325.649 520.094 325.83C524.63 326.011 538.777 321.841 542.404 319.483C546.03 317.124 544.634 315.448 534.422 315.675C523.547 315.927 515.651 304.917 506.572 304.789C503.851 304.75 490.795 305.499 487.712 304.789C484.628 304.078 469.302 299.965 466.045 299.603C462.788 299.241 461.602 307.872 461.783 310.408C461.964 312.944 461.69 318.684 459.41 320.41C457.13 322.136 459.392 318.872 459.41 315.97C459.428 313.068 459.055 311.861 458.213 310.046C457.371 308.23 459.151 303.169 458.923 300.992C458.696 298.814 460.255 298.818 453.596 299.18C446.936 299.543 438.603 300.267 435.097 299.891C431.592 299.514 427.962 299.408 425.784 301.464C423.607 303.521 424.214 304.97 420.343 304.121C416.471 303.272 411.2 301.517 398.868 303.574C393.185 304.519 392.521 306.657 386.11 307.261C379.698 307.865 377.475 307.776 371.692 308.987C365.91 310.198 361.8 313.96 354.16 314.564C349.188 314.961 339.633 319.362 328.991 319.604C323.781 319.739 318.219 322.761 325.472 324.395Z" fill="#939960"/>
<path d="M301.009 301.519C308.408 300.808 319.507 299.967 324.405 298.24C329.304 296.514 338.009 293.747 339.277 292.884C340.545 292.021 338.734 282.637 339.277 279.874C339.821 277.11 344.175 272.39 345.99 271.928C347.805 271.466 344.538 274.691 343.572 276.879C342.605 279.067 342.481 280.218 343.088 281.717C343.696 283.216 342.481 284.271 342.968 287.542C343.454 290.813 342.847 293.58 348.772 290.696C354.696 287.812 366.424 287.144 369.568 286.789C372.711 286.434 380.692 285.752 380.579 282.644C380.465 279.536 383.36 278.961 383.36 280.687C383.36 282.413 382.756 284.026 386.141 283.219C389.526 282.413 397.266 279.419 400.771 279.312C404.277 279.206 408.632 281.27 411.292 279.888C413.952 278.506 421.205 277.814 427.371 277.931C433.538 278.048 440.794 278.044 441.156 276.318C441.519 274.592 435.473 273.555 432.209 273.438C428.945 273.32 423.745 270.447 417.7 268.717C411.654 266.987 404.519 267.222 402.341 266.76C400.164 266.298 398.352 268.603 397.628 270.447C396.903 272.29 395.571 275.626 394.726 275.064C393.881 274.503 395.081 271.843 395.33 268.618C395.578 265.393 396.04 264.934 391.583 264C387.125 263.066 382.635 263.887 376.224 262.963C369.813 262.04 364.609 258.811 360.386 257.997C356.163 257.184 348.779 255.003 344.666 255.579C340.552 256.154 331.971 252.698 327.972 252.123C323.972 251.547 315.277 253.046 313.221 255.579C311.164 258.111 309.836 260.299 308.884 261.105C307.932 261.912 308.035 260.068 308.397 257.553C308.759 255.039 309.608 254.79 305.737 254.673C301.865 254.556 296.548 256.978 293.767 257.436C290.986 257.894 285.796 256.499 283.477 256.499C281.158 256.499 271.624 260.299 269.102 262.143C266.581 263.986 266.442 269.509 267.167 271.697C267.891 273.885 267.969 283.099 266.78 283.774C265.59 284.448 266.424 281.703 266.321 280.09C266.268 278.845 265.892 277.634 265.231 276.577C264.627 275.54 265.654 272.574 264.112 270.244C263.402 269.154 263.906 263.45 263.046 262.931C262.187 262.412 262.805 261.322 255.552 263.51C248.299 265.698 249.514 266.387 245.511 267.655C241.508 268.923 242.488 268.344 238.982 269.037C235.477 269.729 232.788 273.786 229.644 274.936C226.501 276.087 213.807 275.743 209.693 276.549C205.58 277.355 202.433 282.09 198.065 282.896C193.696 283.703 186.698 284.392 183.797 284.161C180.895 283.93 173.276 283.806 173.034 285.542C172.793 287.279 173.762 289.094 178.007 289.805C182.251 290.515 189.856 289.691 191.067 291.073C192.278 292.454 190.858 294.525 193.38 294.525C195.901 294.525 198.924 293.719 202.916 294.756C206.909 295.793 210.29 299.246 213.313 300.169C216.335 301.093 226.1 298.439 228.881 298.727C231.662 299.015 232.149 295.591 232.209 293.921C232.269 292.252 234.173 292.106 234.837 289.229C235.502 286.352 234.294 283.933 234.958 283.646C235.622 283.358 236.137 285.688 236.5 287.876C236.862 290.064 236.855 291.428 236.144 292.138C235.422 292.85 234.811 293.665 234.329 294.557C233.726 295.594 234.027 298.791 233.907 299.594C233.786 300.396 237.778 299.594 240.801 300.055C243.824 300.517 247.45 302.272 251.812 301.324C256.174 300.375 259.733 296.706 260.276 297.772C260.819 298.837 261.612 301.444 262.698 301.618C263.785 301.792 269.287 301.686 271.642 300.553C273.997 299.42 279.172 297.903 282.255 298.422C285.338 298.94 293.664 302.211 301.009 301.519Z" fill="#939960"/>
<path d="M275.455 225.739C280.095 226.494 290.914 226.221 292.72 225.345C294.527 224.469 299.498 221.03 300.269 222.298C301.041 223.567 300.932 224.968 303.704 225.182C306.477 225.397 317.321 224.655 321.104 225.297C324.886 225.938 326.867 225.065 328.513 221.806C330.16 218.547 332.048 214.371 332.646 215.63C333.244 216.889 331.476 219.515 331.356 221.064C331.236 222.613 330.387 226.408 330.425 227.241C330.462 228.074 337.376 229.012 339.077 229.445C340.779 229.878 344.609 230.131 346.405 230.531C348.202 230.931 350.62 232.327 352.771 233.791C354.921 235.254 361.549 234.904 363.291 234.69C365.032 234.476 371.417 232.813 371.958 234.816C372.498 236.818 375.551 239.358 378.328 240.958C381.106 242.558 389.064 241.711 392.953 240.973C396.843 240.234 399.599 237.569 399.689 236.414C399.778 235.259 399.045 232.75 399.214 230.572C399.382 228.393 400.303 221.254 400.092 219.226C399.723 215.719 402.039 218.78 401.862 221.073C401.684 223.366 403.086 227.01 403.139 227.821C403.193 228.631 401.721 229.672 402.261 231.675C402.802 233.678 402.383 236.087 404.346 236.239C406.308 236.391 409.604 235.783 411.82 234.108C414.037 232.434 417.491 231.32 424.356 231.871C428.026 232.156 429.792 226.873 430.367 226.803C433.341 228.245 436.03 229.49 440.794 228.646C445.557 227.802 451.984 224.673 454.932 224.379C457.88 224.086 466.56 225.279 471.056 225.109C475.553 224.939 475.736 223.456 472.654 222.09C469.572 220.723 462.277 218.509 458.188 215.703C454.099 212.897 450.284 212.72 448.551 212.471C446.818 212.222 447.885 209.534 443.068 207.41C438.252 205.286 422.222 203.205 419.054 202.147C415.887 201.089 409.941 199.765 407.172 199.73C404.403 199.695 400.264 200.889 398.291 200.736C396.319 200.583 394.992 199.312 390.983 198.954C386.974 198.596 382.477 198.729 380.181 197.999C377.885 197.269 377.567 198.291 377.037 199.72C376.507 201.149 375.376 203.568 374.938 205.695C374.501 207.822 375.223 210.821 374.373 210.755C373.522 210.689 373.314 207.561 373.271 205.827C373.228 204.093 373.08 202.699 373.187 201.322C373.294 199.945 374.944 199.988 375.338 198.292C375.732 196.595 375.752 196.6 372.813 195.668C369.875 194.736 367.537 193.362 364.102 191.799C360.667 190.236 356.635 191.363 354.978 191.936C351.876 193.024 349.335 198.764 344.499 198.39C340.863 198.108 335.309 201.665 334.168 202.894C331.698 205.558 320.828 203.189 317.339 204.474C313.851 205.758 312.578 209.382 312.578 209.382C307.761 209.957 304.25 210.867 301.9 211.983C299.55 213.098 294.424 216.064 289.759 216.655C285.093 217.245 279.215 218.663 276.016 218.761C272.817 218.859 267.754 221.769 269.65 223.129C271.546 224.488 271.415 225.081 275.455 225.739Z" fill="#939960"/>
<path d="M158.409 179.814C164.515 180.21 171.172 183.037 175.058 185.732C178.944 188.426 187.459 188.941 191.682 187.838C195.906 186.735 200.538 184.19 202.135 185.163C203.732 186.135 203.121 187.74 205.826 188.212C208.53 188.684 214.414 185.666 220.976 186.013C227.539 186.359 236.874 191.062 240.84 191.701C244.807 192.34 249.113 190.576 249.113 190.576C249.779 193.09 253.952 195.451 259.52 196.05C265.088 196.649 269.117 197.774 273.74 200.255C278.364 202.736 289.582 198.939 291.156 195.877C292.73 192.814 293.49 190.75 295.744 191.653C297.997 192.555 300.433 192.434 304.595 190.82C310.55 188.533 314.649 184.461 320.159 182.189C326.095 179.738 330.912 177.279 335.883 176.976C340.853 176.674 352.994 176.71 351.773 173.864C350.552 171.019 345.903 171.455 342.641 171.071C339.379 170.687 335.264 168.563 331.383 167.181C327.502 165.799 322.485 164.226 320.398 164.233C318.311 164.24 318.435 165.699 318.545 167.519C318.655 169.34 317.774 173.308 316.306 173.652C314.839 173.996 316.727 171.987 316.461 169.706C316.195 167.424 316.131 164.258 315.205 162.76C314.279 161.263 312.199 160.737 309.137 160.162C306.074 159.587 300.028 158.198 296.346 155.394C292.663 152.591 286.778 152.015 284.099 152.336C279.993 148.265 273.383 145.873 270.594 146.655C267.805 147.438 266.304 149.37 263.937 150.002C261.569 150.634 262.29 149.394 256.206 150.154C250.123 150.914 251.961 154.889 252.419 157.086C252.876 159.283 249.615 165.112 249.346 170.622C249.146 174.613 247.55 174.817 247.087 172.666C246.624 170.515 246.135 166.835 247.573 164.894C249.011 162.952 249.515 161.703 249.398 160.067C249.28 158.431 248.896 154.74 248.02 153.501C247.145 152.261 243.844 154.119 241.8 154.678C239.755 155.238 234.034 156.098 230.027 156.484C226.02 156.871 226.367 159.156 225.452 159.753C224.536 160.349 218.261 162.453 215.274 162.296C212.288 162.14 205.973 163.801 203.262 165.507C200.55 167.214 197.579 171.547 191.84 172.047C186.101 172.547 183.492 171.993 176.035 172.426C168.579 172.858 162.403 175.612 158.548 176.279C154.694 176.945 154.878 179.586 158.409 179.814Z" fill="#939960"/>
<path d="M383.973 555.172C386.928 552.182 389.301 550.91 393.691 549.287C397.413 547.909 399.516 541.899 401.693 540.436C403.871 538.972 407.916 538.059 409.625 539.75C412.068 535.456 413.176 533.502 420.618 532.852C428.059 532.202 430.407 530.394 435.621 528.427C440.835 526.459 445.168 525.432 448.344 525.305C451.519 525.177 451.214 530.508 451.306 533.243C451.398 535.978 449.566 543.387 449.566 547.344C449.566 551.301 450.848 551.887 450.848 549.642C450.848 547.397 451.491 542.872 452.496 540.691C453.501 538.511 454.148 537.051 453.412 534.706C452.677 532.362 453.952 527.191 453.728 524.946C453.505 522.701 459.703 519.579 463.859 519.448C468.014 519.316 471.918 521.01 473.996 524.264C476.073 527.517 478.148 526.214 478.879 524.655C479.611 523.095 482.431 523.61 485.6 526.605C488.768 529.599 493.172 529.517 497.815 529.091C502.457 528.665 507.462 528.025 512.228 530.629C516.995 533.232 521.754 537.267 526.272 537.136C530.79 537.005 537.283 536.095 544.472 538.308C551.661 540.521 555.1 545.291 562.306 546.637C572.078 548.459 573.065 551.145 566.459 551.454C559.852 551.763 553.672 555.844 550.337 557.616C547.001 559.389 542.384 556.448 542.384 556.448C541.407 560.87 537.734 560.824 532.918 561.996C528.102 563.168 522.973 561.996 519.801 563.946C516.629 565.896 512.747 568.766 508.435 569.629C504.123 570.492 502.887 570.623 501.686 567.011C500.486 563.399 502.599 553.159 502.418 550.029C502.237 546.9 501.104 548.403 500.923 549.834C500.741 551.265 499.576 555.105 498.965 557.186C498.355 559.268 498.202 562.425 498.937 565.743C499.672 569.06 500.873 570.559 496.699 571.959C492.526 573.358 489.319 575.017 481.622 575.308C473.925 575.599 472.742 573.532 471.452 571.11C470.163 568.687 469.677 569.689 468.522 570.819C467.368 571.948 456.886 573.454 451.391 571.884C445.897 570.314 442.231 565.636 439.056 564.727C435.88 563.818 432.094 566.418 423.175 565.832C414.256 565.246 411.937 561.214 403.512 559.52C395.087 557.826 390.26 558.291 387.205 558.611C380.982 559.271 382.755 556.409 383.973 555.172Z" fill="#939960"/>
<path d="M215.15 516.703C221.266 516.554 229.712 512.235 234.646 511.585C239.579 510.935 242.233 511.535 248.037 509.844C253.84 508.154 253.364 504.517 258.799 502.226C264.233 499.935 266.176 502.709 267.021 504.886C267.867 507.063 267.899 508.392 268.247 510.214C268.595 512.036 271.06 511.212 270.46 508.672C269.859 506.133 268.627 502.776 268.247 501.37C267.867 499.963 271.042 498.425 273.308 498.24C275.574 498.056 281.932 498.12 284.916 497.153C287.899 496.187 291.114 491.222 297.752 491.023C304.391 490.824 309.705 493.889 311.399 494.855C313.093 495.822 318.41 496.791 320.225 496.187C322.04 495.584 326.619 493.186 329.712 494.202C330.631 494.521 331.469 495.035 332.17 495.71C332.87 496.385 333.415 497.203 333.769 498.109C337.516 496.298 340.659 496.177 344.044 497.022C347.429 497.867 347.188 501.011 346.705 503.671C346.222 506.332 344.861 510.384 345.767 514.373C346.673 518.362 347.582 514.192 347.401 512.377C347.22 510.562 347.127 508.409 348.037 506.314C348.981 504.101 349.768 501.825 350.392 499.501C350.846 497.686 352.842 498.866 356.014 499.501C359.186 500.137 365.711 501.156 370.769 499.079C375.827 497.001 383.705 496.177 387.576 497.143C391.448 498.109 398.275 498.414 401.724 497.324C405.172 496.234 409.694 495.513 416.499 496.614C423.305 497.715 431.105 500.784 431.105 502.417C431.105 504.051 430.107 504.321 425.571 503.685C421.035 503.05 418.68 502.975 415.96 503.867C413.239 504.758 412.052 508.04 408.614 508.946C405.176 509.852 401.965 509.489 400.512 508.765C399.184 512.636 395.184 515.417 389.267 515.78C383.35 516.142 381.627 517.971 380.682 519.768C379.737 521.566 377.176 528.474 371.493 531.135C365.81 533.795 360.127 536.107 354.089 535.244C348.051 534.381 346.833 531.98 344.414 532.101C341.995 532.221 343.789 534.15 341.391 535.425C338.993 536.7 332.685 536.69 323.919 535.425C315.153 534.161 312.855 534.612 312.947 530.619C313.04 526.627 313.764 524.816 313.764 521.644C313.764 518.472 313.491 514.299 312.585 515.478C311.679 516.657 312.01 518.674 311.285 519.829C310.561 520.983 311.285 521.221 311.527 522.972C311.768 524.723 311.104 527.81 310.862 529.199C310.621 530.588 310.923 533.07 311.104 534.097C311.285 535.123 310.014 535.912 305.723 535.123C301.432 534.335 288.461 531.436 284.198 529.44C279.936 527.444 279.119 530.151 275.404 531.074C271.689 531.998 262.162 530.257 259.168 528.989C256.174 527.721 245.838 524.372 240.759 524.272C235.679 524.173 232.87 523.455 229.968 524.816C227.066 526.176 227.578 526.592 220.325 524.968C213.072 523.345 208.486 521.488 205.197 520.735C201.745 519.939 207.712 516.888 215.15 516.703Z" fill="#939960"/>
<path d="M161.189 582.159C161.035 584.54 161.828 585.588 169.635 585.732C177.442 585.877 183.305 587.891 190.103 590.967C196.901 594.042 197.879 597.646 210.239 597.845C222.6 598.043 225.59 594.694 230.277 593.657C234.963 592.62 232.32 582.35 232.214 578.541C232.107 574.731 233.986 570.511 235.065 570.207C236.144 569.903 234.449 573.582 235.26 577.187C236.071 580.792 237.354 585.756 236.764 590.207C236.174 594.658 236.789 594.019 242.057 593.691C247.324 593.362 258.057 594.089 262.291 596.451C266.525 598.813 274.824 603.453 287.983 602.464C301.141 601.474 300.269 592.246 300.269 592.246C305.759 593.905 310.648 593.264 311.826 590.036C313.005 586.809 310.929 577.625 308.671 574.774C306.413 571.924 310.294 574.487 311.888 577.346C313.514 580.435 314.493 583.823 314.767 587.303C314.975 590.442 318.164 589.341 321.293 587C324.422 584.66 328.468 579.786 332.311 578.708C336.154 577.631 341.861 578.562 348.958 576.794C356.054 575.025 359.017 568.77 366.482 567.474C373.946 566.179 374.432 561.922 367.651 561.756C360.87 561.591 356.175 562.319 351.906 560.985C347.637 559.65 340.279 556.111 335.046 555.287C329.814 554.463 325.72 554.943 324.476 558.485C313.198 557.471 304.772 554.132 297.832 553.217C290.892 552.302 289.139 553.545 284.468 555.25C279.797 556.954 278.462 552.675 269.94 550.454C261.417 548.233 252.945 546.664 247.125 547.811C241.305 548.958 237.183 551.127 233.904 554.967C230.625 558.808 228.611 556.295 224.755 556.523C220.899 556.752 210.611 561.154 205.665 566.007C200.72 570.861 195.328 572.738 186.998 573.333C178.668 573.928 161.44 578.318 161.189 582.159Z" fill="#939960"/>
<path d="M292.914 402.243C302.585 402.847 307.892 400.701 315.646 401.76C319.009 402.218 325.172 397.6 327.438 397.806C329.704 398.012 327.85 400.897 329.498 401.713C331.146 402.53 342.995 404.555 345.457 406.001C347.918 407.446 353.271 409.908 357.611 409.908C361.952 409.908 363.717 407.514 378.752 411.865C383.32 413.186 395.421 409.378 398.043 408.057C405.296 404.427 409.409 393.903 412.449 397.259C416.076 401.248 420.888 396.354 426.863 394.102C432.837 391.85 443.226 386.76 444.05 386.554C444.874 386.348 440.96 378.74 440.548 374.811C440.136 370.883 441.578 373.167 443.035 375.841C444.491 378.516 445.521 382.764 448.391 383.631C451.261 384.497 460.13 382.434 466.31 380.789C472.49 379.145 482.294 377.77 486.819 377.77C491.344 377.77 499.037 374.872 484.649 372.211C478.088 371 460.989 366.202 456.457 364.347C451.893 362.505 446.985 361.669 442.068 361.897C437.121 362.11 433.569 367.011 423.268 362.905C412.968 358.799 404.198 358.018 400.344 360.153C396.49 362.287 390.495 361.453 388.641 362.071C386.787 362.689 384.734 367.221 383.491 370.723C382.247 374.225 382.873 381.024 383.079 384.316C383.285 387.609 381.739 387.818 381.224 384.419C380.709 381.02 380.198 376.8 379.786 374.119C379.374 371.437 384.006 365.26 383.8 363.303C383.594 361.346 379.182 360.242 372.544 360.604C367.273 360.892 357.626 360.604 356.706 360.725C355.786 360.845 355.161 365.875 355.264 369.377C355.367 372.879 355.779 375.77 355.779 377.511C355.779 379.251 354.955 377.202 354.337 374.115C353.678 370.932 353.402 367.682 353.513 364.433C353.616 360.725 354.44 360.526 350.628 361.034C346.817 361.541 339.511 363.19 336.936 363.808C334.361 364.426 318.874 370.123 315.17 371.789C306.29 375.777 302.834 380.938 300.568 381.762C298.302 382.586 292.701 382.991 287.071 383.755C285.501 383.968 273.865 389.083 267.663 389.864C254.908 391.52 256.684 392.173 262.147 393.86C264.491 394.571 269.961 396.442 275.74 398.225C282.507 400.31 289.717 402.044 292.914 402.243Z" fill="#939960"/>
<path d="M237.614 448.36C242.739 446.012 254.613 441.022 259.536 441.427C264.459 441.832 267.642 446.129 270.171 441.402C272.7 436.674 277.552 433.058 283.821 429.325C291.308 424.843 295.688 424.843 301.829 424.722C307.753 424.591 315.06 425.869 315.788 428.771C316.516 431.673 314.878 436.752 315.788 441.466C316.697 446.179 318.143 450.9 320.132 453.968C322.121 457.037 320.842 452.48 320.132 449.326C319.421 446.172 318.207 442.18 318.533 438.915C318.86 435.651 320.615 430.178 322.639 429.105C324.664 428.032 331.274 430.743 337.493 431.925C343.713 433.108 350.056 432.852 353.122 431.982C356.187 431.112 357.839 435.104 360.936 436.376C364.033 437.647 373.09 434.199 380.343 434.199C387.596 434.199 390.14 440.908 390.14 443.629C390.14 446.35 389.11 455.236 389.475 458.987C389.841 462.738 391.528 465.516 392.011 463.338C392.494 461.161 391.045 457.172 391.166 455.357C391.287 453.542 392.253 449.916 392.86 447.742C393.468 445.568 393.826 440.365 392.86 438.187C391.894 436.01 397.332 438.187 400.234 439.761C403.136 441.334 412.449 445.625 415.17 445.444C417.891 445.263 419.159 442.18 425.325 443.629C431.491 445.078 430.596 448.673 442.019 449.312C453.441 449.951 460.336 448.332 466.139 450.147C471.943 451.962 471.581 452.86 464.871 453.954C458.162 455.048 453.807 456.856 447.112 460.845C440.417 464.834 430.194 470.229 425.232 467.803C419.904 473.362 409.021 479.347 399.229 478.075C389.436 476.804 384.901 476.082 381.825 477.169C378.749 478.256 376.685 480.554 366.527 481.098C356.368 481.641 349.499 479.894 342.587 477.652C335.675 475.411 328.077 474.811 323.723 475.521C319.368 476.232 317.684 478.91 313.205 478.547C308.727 478.185 305.707 475.887 304.621 474.072C303.534 472.257 302.784 472.495 298.561 473.362C294.338 474.228 285.153 473.848 277.413 470.222C269.673 466.595 261.451 461.271 256.375 458.145C251.299 455.02 243.254 452.889 238.236 452.523C234.24 452.242 234.666 449.706 237.614 448.36Z" fill="#939960"/>
<path d="M100.561 657.282C107.309 656.205 113.879 659.395 115.062 657.986C116.244 656.578 119.277 654.75 120.162 655.197C121.047 655.645 119.277 657.176 120.162 658.258C121.047 659.339 130.805 656.926 133.375 657.201C135.945 657.476 136.863 659.74 139.337 660.219C141.811 660.698 148.107 661.297 151.932 658.18C156.765 661.656 163.85 663.934 167.672 663.934C171.494 663.934 177.007 664.533 178.47 664.892C179.934 665.251 181.731 661.895 182.292 658.659C182.854 655.423 182.404 649.669 182.292 648.095C182.18 646.52 184.092 648.577 184.654 652.651C185.215 656.726 185.45 661.29 184.654 663.8C183.858 666.311 184.766 666.438 187.577 667.994C190.388 669.551 199.499 672.421 206.244 671.946C212.989 671.47 214.228 666.558 214.565 664.279C214.901 662.001 216.589 663.948 216.926 666.512C217.263 669.076 227.12 664.16 229.221 662.001C231.322 659.842 232.346 654.433 234.932 653.007C237.519 651.581 245.172 651.69 248.538 651.211C251.904 650.732 255.214 646.461 254.464 644.281C261.027 643.883 263.571 642.478 266.488 640.559C269.404 638.639 270.755 635.276 277.388 634.22C284.021 633.164 289.28 631.755 290.545 630.698C291.81 629.642 293.749 626.353 288.774 626.712C283.8 627.071 279.337 627.892 275.251 626.596C270.977 625.237 269.081 624.856 263.782 624.286C258.415 623.708 256.129 626.469 256.129 626.469C250.127 623.233 250.038 622.113 245.172 620.874C240.306 619.634 239.362 620.715 239.362 623.145C239.362 625.575 238.097 632.044 237.505 633.664C236.914 635.283 235.903 639.685 236.409 641.214C236.914 642.742 234.219 639.238 233.964 636.9C233.71 634.562 235.735 633.664 236.409 631.505C237.082 629.346 237.069 624.761 236.495 622.349C235.92 619.937 235.061 619.56 232.276 619.38C229.492 619.201 223.338 620.282 220.976 619.38C218.614 618.479 215.982 616.37 213.207 616.032C210.432 615.693 202.59 617.944 200.985 621.539C199.38 625.135 195.277 621.659 190.127 621.028C185.803 620.5 180.099 619.951 177.146 621.028C174.193 622.106 157.736 624.251 153.772 625.962C149.808 627.674 150.601 631.297 144.695 631.748C138.789 632.199 141.772 629.948 133.464 632.1C130.343 632.903 125.672 637.756 121.876 637.756C118.081 637.756 112.039 640.034 109.678 643.45C107.316 646.866 100.399 651.634 96.1841 653.162C91.9692 654.69 94.0833 658.317 100.561 657.282Z" fill="#939960"/>
<path d="M363.044 723.636C370.297 722.549 377.365 725.767 378.633 724.347C379.901 722.926 383.169 721.082 384.121 721.534C385.073 721.985 383.169 723.53 384.121 724.62C385.073 725.711 395.561 723.278 398.328 723.555C401.095 723.832 402.075 726.116 404.722 726.599C407.368 727.082 414.155 727.685 418.265 724.542C423.465 728.048 431.084 730.346 435.193 730.346C439.303 730.346 445.231 730.95 446.801 731.312C448.371 731.674 450.307 728.289 450.914 725.025C451.521 721.761 451.035 715.957 450.914 714.369C450.793 712.782 452.846 714.856 453.45 718.966C454.054 723.075 454.306 727.678 453.45 730.211C452.594 732.743 453.574 732.871 456.597 734.441C459.62 736.011 469.412 738.906 476.669 738.426C483.925 737.947 485.254 732.992 485.616 730.694C485.978 728.396 487.793 730.36 488.156 732.946C488.518 735.532 499.113 730.573 501.372 728.396C503.631 726.219 504.722 720.781 507.503 719.328C510.284 717.875 518.514 717.999 522.133 717.516C525.752 717.033 529.311 712.725 528.502 710.526C535.552 710.139 538.298 708.722 541.434 706.786C544.57 704.85 546.02 701.458 553.155 700.393C560.291 699.327 565.942 697.906 567.303 696.841C568.663 695.775 570.748 692.486 565.395 692.848C560.043 693.211 555.247 694.038 550.857 692.728C546.24 691.36 544.222 690.977 538.522 690.401C532.753 689.819 530.295 692.603 530.295 692.603C523.856 689.339 523.746 688.21 518.496 686.959C513.246 685.709 512.248 686.8 512.248 689.25C512.248 691.701 510.888 698.226 510.252 699.86C509.616 701.494 508.529 705.934 509.073 707.475C509.616 709.017 506.714 705.483 506.444 703.124C506.174 700.766 508.348 699.86 509.073 697.683C509.797 695.505 509.783 690.881 509.165 688.448C508.547 686.015 507.652 685.581 504.644 685.393C501.635 685.205 495.053 686.292 492.507 685.393C489.96 684.494 487.136 682.356 484.153 682.029C481.169 681.703 472.737 683.958 471.011 687.585C469.284 691.211 464.873 687.705 459.332 687.07C454.686 686.537 448.548 685.983 445.377 687.07C442.205 688.156 424.516 690.334 420.254 692.06C415.992 693.786 416.848 697.427 410.518 697.881C404.189 698.336 407.375 696.066 398.442 698.237C395.089 699.047 390.063 703.941 385.982 703.941C381.901 703.941 375.404 706.239 372.865 709.684C370.325 713.13 362.891 717.939 358.355 719.481C353.819 721.022 356.078 724.681 363.044 723.636Z" fill="#939960"/>
<path d="M235.868 681.62C244.802 682.229 249.576 689.681 261.026 689.716C272.476 689.751 269.367 685.403 273.588 686.057C277.809 686.711 277.573 689.074 289.018 692.009C300.463 694.945 305.58 695.177 309.219 695.503C312.858 695.83 314.522 690.091 314.257 685.745C313.992 681.398 314.032 680.065 314.306 678.604C314.58 677.142 315.731 678.161 316.828 682.204C317.925 686.247 318.422 686.523 318.485 689.547C318.548 692.572 316.398 695.592 316.662 697.409C316.926 699.225 322.525 700.183 326.343 700.833C330.162 701.482 333.234 704.939 345.164 700.942C357.094 696.944 354.401 691.475 357.002 689.313C359.603 687.151 360.629 692.181 367.78 690.293C374.931 688.405 377.324 682.993 382.375 679.411C387.427 675.829 396.003 676.402 398.862 675.499C401.721 674.595 407.438 670.254 413.143 668.454C418.848 666.654 433.064 664.485 437.549 663.408C442.035 662.33 440.201 658.976 433.69 659.75C427.178 660.524 421.051 659.065 417.098 657.854C413.146 656.643 404.18 652.592 400.023 652.109C395.866 651.626 391.717 652.971 390.941 656.175C382.423 655.381 376.875 649.766 372.44 648.581C368.005 647.396 362.024 646.661 360.576 648.699C359.127 650.738 358.741 654.384 358.94 657.642C359.138 660.9 360.429 662.234 359.005 662.684C357.58 663.134 356.611 661.175 356.255 657.322C355.899 653.468 356.22 648.815 356.166 647.925C356.112 647.036 351.047 645.391 347.509 645.016C343.97 644.641 331.348 644.182 327.612 644.531C323.875 644.88 323.77 647.068 321.039 648.092C318.308 649.116 318.19 645.65 314.576 643.397C310.962 641.144 305.554 641.919 298.588 648.083C291.623 654.248 289.756 655.44 284.639 656.962C279.523 658.483 276.853 658.408 272.846 660.225C268.84 662.042 267.099 665.18 265.164 667.358C263.23 669.537 250.32 674.22 238.77 675.579C227.22 676.938 228.901 681.148 235.868 681.62Z" fill="#939960"/>
<path d="M297.823 705.843C290.57 706.93 283.502 703.712 282.234 705.133C280.966 706.554 277.698 708.397 276.746 707.946C275.794 707.495 277.698 705.95 276.746 704.859C275.794 703.769 265.305 706.202 262.538 705.925C259.772 705.648 258.791 703.364 256.145 702.881C253.499 702.398 246.711 701.794 242.602 704.937C237.402 701.432 229.783 699.134 225.673 699.134C221.564 699.134 215.636 698.53 214.066 698.168C212.496 697.805 210.56 701.19 209.953 704.454C209.345 707.719 209.832 713.522 209.953 715.11C210.073 716.698 208.02 714.623 207.417 710.514C206.813 706.404 206.561 701.801 207.417 699.269C208.273 696.736 207.292 696.608 204.27 695.038C201.247 693.468 191.454 690.574 184.198 691.053C176.941 691.533 175.613 696.488 175.251 698.786C174.888 701.084 173.073 699.119 172.711 696.534C172.349 693.948 161.753 698.906 159.494 701.084C157.235 703.261 156.145 708.699 153.364 710.152C150.583 711.604 142.353 711.48 138.734 711.963C135.114 712.446 131.555 716.755 132.365 718.953C125.315 719.34 122.569 720.758 119.433 722.693C116.296 724.629 114.847 728.021 107.711 729.087C100.576 730.152 94.9245 731.573 93.5641 732.639C92.2037 733.704 90.1188 736.993 95.4715 736.631C100.824 736.269 105.619 735.441 110.009 736.752C114.627 738.119 116.644 738.503 122.345 739.078C128.113 739.661 130.571 736.876 130.571 736.876C137.011 740.14 137.121 741.27 142.371 742.52C147.62 743.77 148.619 742.68 148.619 740.229C148.619 737.778 149.979 731.253 150.615 729.62C151.25 727.986 152.337 723.546 151.794 722.004C151.25 720.463 154.152 723.997 154.422 726.355C154.692 728.714 152.519 729.62 151.794 731.797C151.069 733.974 151.084 738.599 151.702 741.032C152.32 743.465 153.215 743.898 156.223 744.086C159.232 744.275 165.813 743.188 168.36 744.086C170.907 744.985 173.73 747.123 176.714 747.45C179.698 747.777 188.13 745.521 189.856 741.895C191.582 738.268 195.994 741.774 201.535 742.41C206.181 742.943 212.318 743.497 215.49 742.41C218.662 741.323 236.35 739.146 240.613 737.42C244.875 735.693 244.019 732.053 250.348 731.598C256.678 731.143 253.492 733.413 262.425 731.243C265.778 730.433 270.804 725.538 274.885 725.538C278.966 725.538 285.462 723.24 288.002 719.795C290.542 716.35 297.976 711.54 302.512 709.999C307.047 708.457 304.788 704.799 297.823 705.843Z" fill="#939960"/>
<path d="M153.218 -23.7187C150.746 -23.7187 137.142 -12.7647 129.942 -11.5642C125.016 -10.7437 124 -11.589 124 -9.73494C124 -7.88084 136.769 -5.82074 143.567 -5.20271C150.366 -4.58468 152.635 -6.43878 162.932 -5.40873C173.229 -4.37868 188.264 1.59562 196.505 4.47976C204.745 7.3639 208.663 8.80596 217.724 10.66C226.785 12.5141 219.979 2.83168 222.047 0.153553C224.114 -2.52458 219.99 -8.08331 219.141 -11.5855C218.292 -15.0877 222.256 -20.0496 221.844 -17.1477C221.432 -14.2458 223.695 -9.94095 225.961 -2.52459C228.227 4.89177 225.343 5.10133 226.373 10.66C227.403 16.2188 232.564 11.477 237.085 10.66C241.607 9.84311 249.844 7.577 255.2 6.75296C260.556 5.92892 256.642 0.984699 256.436 -2.31146C256.23 -5.60762 256.862 -4.64419 250.838 -11.5642C244.814 -18.4842 253.676 -31.7181 250.838 -39.2405C248 -46.763 239.305 -36.7223 234.773 -34.8682C230.241 -33.0141 225.698 -34.6622 222.206 -36.5162C218.715 -38.3703 216.015 -37.5463 212.321 -37.5463C208.627 -37.5463 208.215 -38.5834 204.507 -39.1908C200.799 -39.7982 183.704 -34.2395 179.172 -32.7974C174.639 -31.3553 170.935 -28.4854 166.197 -26.2051C161.458 -23.9248 155.69 -23.7187 153.218 -23.7187Z" fill="#939960"/>
</mask>
<g mask="url(#mask1_412_386)">
<path d="M3 -2H453V718H3V-2Z" fill="#939960"/>
</g>
</mask>
<g mask="url(#mask0_412_386)">
<path d="M-1 -2H449V718H-1V-2Z" fill="#939960"/>
</g>
</g>
<defs>
<clipPath id="clip0_412_386">
<rect width="450" height="720" fill="white"/>
</clipPath>
</defs>
</svg>
