<svg width="450" height="720" viewBox="0 0 450 720" fill="none" xmlns="http://www.w3.org/2000/svg">
<g clip-path="url(#clip0_412_386)">
<mask id="mask0_412_386" style="mask-type:alpha" maskUnits="userSpaceOnUse" x="-190" y="-26" width="548" height="764">
<path d="M-115.413 256.613C-108.355 254.752 -95.8229 242.587 -93.3614 242.358C-90.8999 242.129 -85.1754 241.391 -80.6684 238.682C-76.1614 235.973 -72.7381 232.773 -68.3587 230.918C-63.9793 229.063 -47.4715 221.946 -43.723 222.208C-39.9746 222.47 -39.4684 223.465 -35.7902 223.123C-32.1121 222.781 -29.5004 221.711 -25.8524 223.234C-22.2044 224.757 -17.5285 225.978 -13.1872 223.713C-8.84593 221.448 -2.27585 218.675 2.40469 217.873C7.08524 217.071 13.9021 214.69 20.8661 216.158C27.8301 217.627 34.6047 221.549 39.7329 221.073C44.8611 220.596 52.3282 225.253 59.8337 225.908C67.3393 226.563 77.2754 231.034 82.1277 232.042C86.98 233.05 78.5688 233.821 74.3373 235.041C70.1059 236.262 67.5009 239.401 61.3132 241.834C55.1254 244.267 46.1799 245.929 39.9003 249.409C33.6207 252.889 21.7226 260.822 18.8495 260.882C15.9763 260.942 12.6015 251.531 10.5648 249.652C8.52815 247.772 10.8843 250.863 11.3943 254.126C11.9043 257.389 16.2591 261.95 11.002 263.266C5.7449 264.582 -2.24703 267.6 -6.67364 268.832C-11.1003 270.064 -15.8005 275.263 -17.3403 269.823C-18.88 264.383 -16.0276 263.908 -18.97 256.733C-21.9124 249.558 -24.5635 245.481 -24.4216 242.553C-24.2798 239.626 -27.7677 244.933 -26.5985 248.342C-25.4293 251.75 -20.8091 256.904 -22.6197 259.762C-24.4304 262.619 -16.7585 271.631 -25.952 270.623C-35.1456 269.615 -39.1799 268.541 -47.6517 266.432C-56.1236 264.322 -71.6469 259.764 -81.995 259.691C-92.3431 259.618 -94.4315 261.674 -101.258 261.687C-108.084 261.701 -120.989 260.831 -121.161 258.984C-121.332 257.138 -120.242 257.886 -115.413 256.613Z" fill="#939960"/>
<path d="M-169.062 153.02C-166.448 153.606 -139.301 159.005 -134.946 159.005C-130.592 159.005 -122.326 163.292 -121.165 164.745C-120.003 166.198 -109.859 168.794 -105.625 169.885C-101.391 170.975 -91.3573 170.595 -89.9081 170.851C-88.459 171.106 -88.9385 166.503 -89.3008 163.239C-89.6631 159.975 -84.7082 156.466 -82.7724 151.994C-80.8366 147.522 -82.8931 156.466 -83.9836 158.16C-85.074 159.854 -87.3685 160.82 -86.2781 163.722C-85.1877 166.624 -85.312 169.494 -85.312 170.389C-85.312 171.284 -77.0893 171.575 -71.5271 172.165C-65.9648 172.754 -61.6137 174.225 -57.8629 171.923C-54.9894 170.147 -47.225 173.738 -40.21 173.255C-33.195 172.772 -32.8363 169.703 -21.9533 166.61C-11.0702 163.516 -2.1834 163.346 3.97558 159.715C10.1346 156.085 21.0247 154.274 25.5605 154.455C30.0962 154.636 44.2434 150.466 47.8699 148.108C51.4964 145.749 50.1005 144.073 39.8888 144.3C29.0129 144.552 21.117 133.542 12.0384 133.414C9.31764 133.375 -3.73912 134.124 -6.82217 133.414C-9.90521 132.703 -25.2317 128.59 -28.4887 128.228C-31.7458 127.866 -32.9322 136.497 -32.751 139.033C-32.5699 141.569 -32.8434 147.309 -35.1237 149.035C-37.404 150.761 -35.1414 147.497 -35.1237 144.595C-35.1059 141.693 -35.4789 140.486 -36.3207 138.671C-37.1625 136.855 -35.383 131.794 -35.6103 129.617C-35.8376 127.439 -34.2783 127.443 -40.9381 127.805C-47.5979 128.168 -55.9307 128.892 -59.4364 128.516C-62.9421 128.139 -66.5722 128.033 -68.7495 130.089C-70.9268 132.146 -70.3194 133.595 -74.191 132.746C-78.0626 131.897 -83.3336 130.142 -95.6658 132.199C-101.349 133.144 -102.013 135.282 -108.424 135.886C-114.835 136.49 -117.059 136.401 -122.841 137.612C-128.624 138.823 -132.733 142.585 -140.373 143.189C-145.346 143.586 -154.901 147.987 -165.542 148.229C-170.753 148.364 -176.315 151.386 -169.062 153.02Z" fill="#939960"/>
<path d="M-48.3892 93.636C-39.5983 96.0228 -36.7781 101.45 -33.1516 101.979C-29.5251 102.509 -25.3374 103.066 -25.3374 97.8094C-25.3374 92.5526 -22.8049 84.568 -21.3522 86.2018C-19.8995 87.8357 -21.6257 90.4641 -21.988 91.7321C-22.3503 93.0002 -22.6202 95.3586 -21.988 96.7048C-21.3558 98.051 -20.8443 102.509 -20.7804 104.686C-20.7164 106.863 -15.8077 110.49 -12.6465 111.126C-9.48532 111.761 -1.12771 110.671 0.957253 108.494C2.76872 110.582 2.76873 112.667 6.94221 112.124C11.1157 111.58 18.0064 110.188 19.8178 108.131C21.6293 106.075 26.4315 104.988 28.385 104.746C30.3386 104.505 35.0555 105.229 36.7462 101.965C38.4369 98.701 38.5612 95.9269 39.6481 94.1048C40.7349 92.2827 37.3216 86.7311 37.4139 84.6461C37.5063 82.5611 38.3197 85.4595 38.8631 86.2764C39.4065 87.0934 41.2216 86.9868 41.9461 88.5425C42.6707 90.0983 42.1273 91.4444 41.9461 93.0783C41.765 94.7122 41.4027 96.9605 41.4027 98.051C41.4027 99.1414 40.6923 100.509 40.497 102.139C40.3016 103.77 47.7499 103.652 51.38 102.441C55.01 101.23 59.7198 96.9996 61.6556 96.7581C63.5914 96.5165 68.9121 97.3619 70.8444 97.1133C72.7766 96.8646 71.4517 93.4868 72.0556 92.883C72.6594 92.2791 72.6594 96.0264 74.3536 96.0264C76.0479 96.0264 81.2443 95.4226 84.8708 92.6414C88.4973 89.8603 90.909 89.9811 97.2669 89.0895C103.625 88.198 111.716 86.8838 111.119 83.9038C110.523 80.9237 107.489 80.9273 104.104 79.3538C100.719 77.7803 95.8213 76.1216 92.1948 75.0311C88.5683 73.9407 84.576 73.2161 83.3684 73.582C82.1607 73.9478 82.3987 71.3123 79.8626 70.2254C77.3266 69.1385 76.6659 70.8292 73.9985 70.9358C71.331 71.0423 63.2362 72.2074 60.4551 70.6339C57.6739 69.0604 57.4324 66.8866 54.289 66.7659C51.1456 66.6451 49.089 69.1847 46.5494 69.3055C44.0098 69.4262 36.874 69.547 33.2476 67.732C29.6211 65.917 26.2361 64.347 23.938 64.9508C21.64 65.5547 18.0135 65.4339 18.0135 67.9735C18.0135 70.5131 17.6583 75.3508 17.0438 76.8C16.4293 78.2491 16.8342 73.8377 16.2908 71.6604C15.7473 69.4831 16.0173 66.947 14.1135 66.4036C12.2097 65.8601 9.75886 68.215 9.75886 68.215C5.95123 67.6716 -0.055027 68.318 -3.38315 69.3659C-8.78204 71.0601 -11.2399 72.3885 -15.6585 72.5626C-18.1981 72.6656 -20.276 71.6426 -28.5341 72.5626C-32.9101 73.0811 -40.33 76.5869 -41.527 77.4216C-42.724 78.2562 -45.5158 77.2404 -46.9685 77.2404C-48.4212 77.2404 -49.0534 79.4177 -50.6838 79.8688C-52.3141 80.3199 -52.7403 82.2876 -60.661 83.2786C-64.9056 83.8079 -76.4102 85.4915 -76.3178 87.8499C-76.2255 90.2084 -66.8875 91.0253 -64.078 91.2065C-58.7757 91.4445 -53.5151 92.2591 -48.3892 93.636V93.636Z" fill="#939960"/>
<path d="M-11.4996 303.146C-3.79455 300.813 -0.589496 301.374 6.14624 302.436C12.882 303.498 13.5665 306.099 19.3306 307.071C21.1737 307.389 23.6794 306.913 28.214 307.166C32.7487 307.42 37.6643 313.56 42.5239 314.78C47.3835 316.001 55.8337 315.043 58.8965 316.303C61.9592 317.563 63.3993 315.857 64.9955 310.951C66.5917 306.045 62.0762 296.65 61.9967 292.69C61.9173 288.731 63.6912 280.638 65.3639 279.549C67.0367 278.46 65.71 284.757 65.6263 286.606C65.5426 288.456 67.6548 291.387 67.7416 292.707C67.8285 294.026 66.136 295.545 67.0754 300.049C67.8608 303.785 68.8872 312.802 68.175 315.903C67.3423 319.554 70.0902 319.641 73.7817 321.074C76.1341 321.989 82.0602 323.956 87.4915 323.037C92.9228 322.118 100.164 315.802 101.704 314.115C103.244 312.429 106.135 307.078 108.796 306.363C111.457 305.649 112.365 309.844 119.163 308.006C125.962 306.168 130.093 300.835 132.138 299.515C134.183 298.195 134.555 293.587 133.651 290.624C132.746 287.662 134.245 284.825 135.037 287.285C135.828 289.746 136.722 290.023 137.224 292.389C137.727 294.756 135.861 298.293 138.87 297.575C141.879 296.857 150.6 291.528 151.921 290.972C153.646 292.657 156.561 293.255 159.667 291.346C162.772 289.436 169.312 284.424 173.168 283.813C177.025 283.203 175.96 279.729 173.796 279.673C171.631 279.617 168.637 280.174 165.36 279.742C162.083 279.311 156.084 274.781 151.72 272.786C147.357 270.792 146.185 272.603 143.644 272.554C141.103 272.506 132.457 267.954 126.205 265.34C119.953 262.727 110.878 262.806 110.342 262.817C105.999 258.843 102.816 258.509 99.911 258.368C97.0057 258.228 96.0124 262.905 96.5286 266.856C97.0448 270.807 96.3582 276.071 95.5929 274.403C94.8276 272.734 95.5982 270.242 94.7456 267.584C93.8929 264.926 93.3551 261.669 93.6677 259.186C93.9802 256.704 89.6786 257.44 85.9474 258.631C81.5316 260.055 80.1213 261.476 75.6867 261.959C71.2521 262.442 64.8736 260.95 63.787 260.972C62.7003 260.994 60.3602 261.933 59.595 264.52C58.8298 267.108 57.1328 263.976 54.1403 263.919C51.1479 263.862 42.7678 266.723 39.0268 270.262C35.2859 273.8 26.2723 281.03 23.4947 282.652C20.7171 284.274 17.895 283.855 15.2711 284.103C12.6471 284.351 7.60584 286.47 5.58747 289.811C3.5691 293.152 -2.48188 294.879 -6.72342 295.955C-10.965 297.031 -17.8098 305.052 -11.4996 303.146Z" fill="#939960"/>
<path d="M-111.746 347.663C-108.791 344.672 -106.418 343.4 -102.028 341.777C-98.3056 340.399 -96.2028 334.389 -94.0255 332.926C-91.8482 331.463 -87.8026 330.55 -86.0941 332.24C-83.6504 327.946 -82.5423 325.993 -75.101 325.343C-67.6598 324.693 -65.312 322.885 -60.0978 320.917C-54.8836 318.949 -50.5503 317.923 -47.3749 317.795C-44.1995 317.667 -44.505 322.998 -44.4126 325.733C-44.3203 328.468 -46.1531 335.878 -46.1531 339.834C-46.1531 343.791 -44.8708 344.377 -44.8708 342.132C-44.8708 339.888 -44.2279 335.363 -43.2228 333.182C-42.2176 331.001 -41.5711 329.541 -42.3064 327.197C-43.0416 324.852 -41.7665 319.681 -41.9903 317.436C-42.214 315.191 -36.016 312.069 -31.8602 311.938C-27.7045 311.806 -23.801 313.501 -21.7231 316.754C-19.6453 320.008 -17.571 318.704 -16.8393 317.145C-16.1076 315.586 -13.2874 316.101 -10.1191 319.095C-6.95078 322.089 -2.54644 322.007 2.09588 321.581C6.73821 321.155 11.7428 320.516 16.5095 323.119C21.2761 325.723 26.0357 329.758 30.5537 329.626C35.0717 329.495 41.5646 328.586 48.7536 330.798C55.9427 333.011 59.3809 337.781 66.5877 339.128C76.3589 340.95 77.3464 343.635 70.7399 343.944C64.1333 344.253 57.953 348.334 54.6178 350.106C51.2825 351.879 46.6651 348.938 46.6651 348.938C45.6883 353.36 42.0157 353.314 37.1993 354.486C32.3829 355.658 27.254 354.486 24.0821 356.436C20.9103 358.386 17.0281 361.256 12.7161 362.119C8.40406 362.982 7.168 363.114 5.96746 359.501C4.76692 355.889 6.8803 345.649 6.69915 342.52C6.518 339.39 5.38494 340.893 5.20379 342.324C5.02265 343.756 3.85762 347.595 3.2467 349.677C2.63577 351.758 2.48305 354.916 3.2183 358.233C3.95354 361.551 5.15408 363.05 0.980605 364.449C-3.19287 365.848 -6.40024 367.507 -14.0972 367.798C-21.7942 368.09 -22.9769 366.022 -24.2663 363.6C-25.5556 361.178 -26.0422 362.179 -27.1966 363.309C-28.351 364.438 -38.8326 365.944 -44.3274 364.374C-49.8222 362.804 -53.4877 358.127 -56.6631 357.217C-59.8385 356.308 -63.6249 358.908 -72.5437 358.322C-81.4625 357.736 -83.7819 353.705 -92.207 352.01C-100.632 350.316 -105.459 350.781 -108.514 351.101C-114.737 351.762 -112.964 348.899 -111.746 347.663Z" fill="#939960"/>
<path d="M-125.038 11.0321C-120.527 11.0321 -115.48 14.4774 -110.401 14.8397C-105.322 15.202 -101.521 12.6624 -98.2498 12.9359C-94.9785 13.2094 -90.7269 16.1113 -83.3318 16.4878C-75.9368 16.8643 -71.7882 14.3566 -69.966 12.6162C-68.1439 10.8758 -65.0573 11.952 -63.427 15.2162C-61.7967 18.4804 -50.3987 20.3558 -49.294 18.0577C-48.1894 15.7596 -47.4648 10.066 -47.344 6.80886C-47.2233 3.55177 -43.3552 -2.4971 -42.5063 -2.85939C-41.6574 -3.22169 -43.7175 0.76709 -43.9591 2.58211C-44.2006 4.39713 -43.3552 6.48919 -43.7175 8.0982C-44.0798 9.70721 -45.6533 12.737 -46.1364 16.1255C-46.6194 19.514 -45.4864 19.2689 -42.3039 20.4766C-39.1214 21.6842 -34.0422 22.1353 -31.911 22.8812C-29.7799 23.6271 -23.9299 25.7795 -17.1565 22.5828C-10.383 19.3861 -8.89473 19.0309 -5.62699 18.1785C-2.35924 17.326 1.38445 17.3331 2.47133 14.9143C3.55821 12.4955 2.2298 8.02362 2.47133 5.60478C2.71286 3.18594 3.32023 4.74521 4.04482 6.80886C4.76941 8.87252 5.25246 12.0124 5.1317 13.8274C5.01093 15.6424 12.3669 14.2536 14.1819 13.6498C15.9969 13.046 21.4456 8.49247 23.5128 7.76788C25.58 7.04329 29.1958 7.14985 31.4939 6.79466C33.7919 6.43947 37.1769 3.89631 40.9242 2.32637C44.6714 0.756434 51.8498 0.0318461 56.4211 -0.394381C60.9924 -0.820609 67.6451 -1.8329 69.0978 -2.89846C70.5505 -3.96403 71.1543 -6.37933 68.2524 -6.62086C65.3505 -6.86238 64.7432 -6.37933 61.1167 -6.62086C57.4902 -6.86238 55.4337 -9.64352 50.8375 -10.9755C46.2413 -12.3074 43.4638 -10.2651 43.4638 -10.2651C39.1091 -12.4389 33.1846 -15.3408 29.3165 -16.3033C25.4485 -17.2659 18.6609 -20.5336 17.8297 -19.809C16.9986 -19.0845 18.224 -12.6875 16.8956 -10.6309C15.5672 -8.5744 15.6524 -4.21267 16.377 -2.27688C17.1016 -0.341099 15.3114 -2.07798 13.9937 -3.64791C12.6759 -5.21785 13.5355 -6.8091 14.324 -8.68451C15.1125 -10.5599 15.3505 -13.6572 14.8071 -16.3033C14.2636 -18.9495 14.3844 -20.7752 12.509 -21.3825C10.6336 -21.9899 0.961767 -23.915 -2.57592 -23.1585C-6.11361 -22.4019 -7.38164 -20.3454 -9.19666 -20.0754C-11.0117 -19.8055 -9.7401 -21.7768 -13.1037 -23.329C-16.4674 -24.8812 -24.8001 -25.5169 -27.8832 -25.5169C-30.9662 -25.5169 -39.8531 -26.6038 -41.9416 -25.5169C-44.0301 -24.4301 -44.4599 -21.6099 -47.6246 -20.42C-50.7894 -19.2301 -51.1765 -21.688 -57.8718 -20.0648C-64.5672 -18.4416 -67.3945 -15.8949 -68.5737 -14.808C-69.7529 -13.7211 -73.4682 -9.81756 -76.3701 -7.91019C-79.272 -6.00282 -84.44 -5.28179 -90.3362 -5.00829C-96.2323 -4.7348 -99.7665 -3.01568 -102.85 -1.29301C-105.933 0.429659 -107.929 2.61408 -113.463 4.24085C-118.996 5.86762 -122.342 6.05231 -125.614 6.86925C-128.885 7.68619 -133.144 11.0321 -125.038 11.0321Z" fill="#939960"/>
<path d="M154.633 70.707C163.587 70.7551 168.819 77.894 180.248 77.2124C191.678 76.5308 188.303 72.3862 192.557 72.7744C196.811 73.1626 196.723 75.5359 208.329 77.7493C219.935 79.9628 225.057 79.8746 228.709 79.9724C232.361 80.0702 233.663 74.2392 233.127 69.9177C232.59 65.5963 232.546 64.2631 232.728 62.7874C232.91 61.3117 234.123 62.2564 235.47 66.223C236.818 70.1896 237.332 70.4337 237.584 73.4482C237.837 76.4627 235.88 79.6119 236.257 81.4084C236.634 83.2049 242.282 83.8101 246.134 84.2196C249.985 84.629 253.268 87.8866 264.924 83.1503C276.58 78.414 273.551 73.1243 276.011 70.8038C278.472 68.4832 279.81 73.4389 286.829 71.1072C293.849 68.7755 295.897 63.224 300.715 59.3331C305.533 55.4422 314.127 55.4776 316.924 54.3967C319.721 53.3157 325.156 48.6252 330.737 46.4721C336.318 44.3189 350.37 41.2645 354.779 39.9082C359.189 38.552 357.148 35.3192 350.698 36.4993C344.248 37.6794 338.041 36.6067 334.021 35.6455C330 34.6843 320.799 31.2023 316.619 30.9803C312.44 30.7582 308.383 32.3606 307.809 35.6066C299.259 35.3474 293.37 30.0905 288.869 29.1854C284.369 28.2802 278.354 27.9209 277.036 30.0459C275.718 32.1709 275.561 35.834 275.963 39.0734C276.365 42.3127 277.737 43.5633 276.343 44.1013C274.95 44.6394 273.859 42.7454 273.263 38.9217C272.667 35.0981 272.696 30.4343 272.586 29.5496C272.477 28.6649 267.319 27.3402 263.764 27.1874C260.209 27.0346 247.583 27.3671 243.876 27.9491C240.169 28.531 240.201 30.721 237.539 31.914C234.878 33.107 234.542 29.6554 230.794 27.6331C227.046 25.6109 221.698 26.7223 215.132 33.3106C208.566 39.8989 206.777 41.2054 201.766 43.0445C196.754 44.8836 194.085 44.9751 190.2 47.0394C186.315 49.1037 184.774 52.3444 182.979 54.6396C181.185 56.9347 168.594 62.4169 157.152 64.496C145.709 66.575 147.65 70.6721 154.633 70.707Z" fill="#939960"/>
<path d="M162.417 140.757C169.819 140.047 180.919 139.205 185.817 137.479C190.715 135.753 199.417 132.986 200.689 132.122C201.96 131.259 200.145 121.875 200.689 119.112C201.232 116.349 205.587 111.628 207.398 111.166C209.21 110.705 205.949 113.93 204.98 116.118C204.01 118.306 203.893 119.456 204.496 120.955C205.1 122.454 203.893 123.509 204.376 126.78C204.859 130.052 204.255 132.819 210.18 129.935C216.104 127.05 227.832 126.383 230.979 126.027C234.126 125.672 242.1 124.99 241.99 121.882C241.88 118.774 244.771 118.199 244.771 119.925C244.771 121.652 244.168 123.264 247.553 122.458C250.938 121.651 258.677 118.657 262.186 118.551C265.696 118.444 270.043 120.508 272.704 119.126C275.364 117.744 282.62 117.052 288.787 117.169C294.953 117.286 302.209 117.283 302.571 115.556C302.934 113.83 296.888 112.793 293.624 112.676C290.36 112.559 285.16 109.685 279.111 107.955C273.062 106.226 265.934 106.46 263.756 105.998C261.579 105.537 259.739 107.828 259.029 109.671C258.318 111.514 256.976 114.85 256.127 114.288C255.278 113.727 256.482 111.067 256.734 107.842C256.986 104.617 257.445 104.158 252.983 103.224C248.522 102.29 244.036 103.111 237.629 102.187C231.221 101.264 225.996 98.0491 221.769 97.2358C217.543 96.4224 210.162 94.2415 206.052 94.8169C201.943 95.3923 193.354 91.9363 189.358 91.3609C185.362 90.7855 176.66 92.2844 174.607 94.8169C172.554 97.3494 171.222 99.5374 170.253 100.344C169.283 101.15 169.407 99.3065 169.77 96.7918C170.132 94.277 170.977 94.0284 167.109 93.9112C163.241 93.794 157.92 96.2164 155.139 96.6746C152.358 97.1328 147.197 95.7546 144.86 95.7546C142.523 95.7546 133.011 99.5551 130.471 101.399C127.932 103.242 127.811 108.765 128.536 110.953C129.26 113.141 129.338 122.355 128.152 123.03C126.966 123.704 127.797 120.959 127.69 119.346C127.638 118.101 127.263 116.891 126.603 115.833C126 114.796 127.026 111.83 125.485 109.5C124.774 108.41 125.275 102.706 124.419 102.187C123.563 101.669 124.177 100.578 116.921 102.766C109.664 104.954 110.883 105.643 106.883 106.911C102.884 108.179 103.861 107.6 100.355 108.293C96.8492 108.985 94.1781 113.038 91.0241 114.189C87.87 115.34 75.1826 114.995 71.0731 115.802C66.9635 116.608 63.813 121.328 59.4619 122.135C55.1108 122.941 48.0958 123.63 45.1939 123.399C42.292 123.168 34.6732 123.044 34.4317 124.781C34.1902 126.518 35.1421 128.333 39.4043 129.043C43.6666 129.753 51.2535 128.929 52.4611 130.311C53.6688 131.693 52.2551 133.763 54.777 133.763C57.2988 133.763 60.3215 132.957 64.3102 133.994C68.299 135.031 71.6875 138.484 74.7102 139.407C77.7329 140.331 87.497 137.678 90.2782 137.965C93.0593 138.253 93.5424 134.829 93.6027 133.16C93.6631 131.49 95.5669 131.345 96.2347 128.468C96.9024 125.591 95.6877 123.172 96.3555 122.884C97.0232 122.596 97.5347 124.926 97.897 127.114C98.2593 129.302 98.2522 130.666 97.5418 131.377C96.8175 132.086 96.2055 132.902 95.7268 133.795C95.1229 134.833 95.4249 138.029 95.3041 138.832C95.1833 139.635 99.1721 138.832 102.195 139.294C105.217 139.756 108.847 141.51 113.206 140.562C117.564 139.613 121.126 135.944 121.67 137.01C122.213 138.075 122.991 140.672 124.074 140.835C125.158 140.999 130.66 140.903 133.018 139.77C135.377 138.637 140.545 137.12 143.628 137.639C146.711 138.157 155.054 141.45 162.417 140.757Z" fill="#939960"/>
<path d="M-5.90827 41.6122C0.208095 41.7685 6.96737 44.333 10.9597 46.8726C14.952 49.4122 23.473 49.5933 27.6536 48.3253C31.8342 47.0573 36.3593 44.333 37.9896 45.2423C39.6199 46.1516 39.0801 47.7783 41.8008 48.1442C44.5216 48.51 50.2827 45.2636 56.8537 45.3524C63.4248 45.4412 72.9367 49.7745 76.9255 50.2575C80.9143 50.7406 85.1482 48.8084 85.1482 48.8084C85.9118 51.2947 90.1705 53.4898 95.7612 53.8698C101.352 54.2499 105.415 55.216 110.132 57.5141C114.849 59.8122 125.899 55.5783 127.355 52.4562C128.812 49.3341 129.486 47.242 131.774 48.0554C134.061 48.8688 136.498 48.6343 140.597 46.8726C146.457 44.3543 150.393 40.124 155.81 37.6377C161.642 34.956 166.359 32.3098 171.317 31.8125C176.276 31.3153 188.402 30.8748 187.073 28.0795C185.745 25.2842 181.11 25.9022 177.838 25.6465C174.567 25.3907 170.358 23.4514 166.433 22.2189C162.508 20.9864 157.426 19.6153 155.341 19.7041C153.256 19.7929 153.433 21.2457 153.618 23.0607C153.803 24.8757 153.071 28.8751 151.622 29.2765C150.173 29.6779 151.977 27.5964 151.622 25.3268C151.267 23.0571 151.071 19.8853 150.08 18.4361C149.089 16.9869 146.997 16.5323 143.914 16.0777C140.831 15.623 134.736 14.4722 130.946 11.8154C127.156 9.15856 121.282 8.79981 118.603 9.22604C114.341 5.31895 107.642 3.18781 104.89 4.07934C102.137 4.97086 100.709 6.95993 98.3648 7.68452C96.0205 8.4091 96.6989 7.14108 90.6465 8.13916C84.5941 9.13724 86.5902 13.0372 87.1372 15.2145C87.6842 17.3918 84.6509 23.3448 84.5976 28.8609C84.5514 32.8568 82.9637 33.1232 82.4203 30.9921C81.8769 28.8609 81.2411 25.2025 82.6014 23.2063C83.9618 21.2101 84.4165 19.9421 84.2353 18.3118C84.0542 16.6815 83.5072 13.0088 82.6014 11.8047C81.6957 10.6006 78.4528 12.5861 76.4318 13.2255C74.4108 13.8648 68.7277 14.9481 64.7354 15.4916C60.7431 16.035 61.1835 18.3047 60.292 18.9369C59.4004 19.5692 53.2166 21.917 50.2259 21.8779C47.2352 21.8388 40.991 23.7462 38.3448 25.5577C35.6987 27.3691 32.9033 31.8161 27.1919 32.5407C21.4804 33.2653 18.8485 32.8142 11.4108 33.5388C3.97311 34.2634 -2.08643 37.2576 -5.90827 38.0745C-9.73011 38.8915 -9.4282 41.5234 -5.90827 41.6122Z" fill="#939960"/>
<path d="M16.9948 387.729C16.7762 390.106 17.5457 391.173 25.3464 391.519C33.1471 391.864 38.9556 394.029 45.6722 397.279C52.3887 400.528 53.2738 404.157 65.6249 404.673C77.976 405.19 81.0485 401.919 85.7634 401.004C90.4784 400.088 88.0977 389.753 88.0895 385.942C88.0813 382.131 90.0684 377.96 91.1547 377.684C92.241 377.408 90.4516 381.042 91.1698 384.667C91.888 388.292 93.0389 393.287 92.3345 397.722C91.6301 402.156 92.2646 401.533 97.5387 401.34C102.813 401.148 113.524 402.151 117.692 404.622C121.86 407.092 130.044 411.944 143.22 411.294C156.396 410.644 155.776 401.396 155.776 401.396C161.221 403.196 166.125 402.681 167.383 399.485C168.641 396.289 166.809 387.055 164.626 384.147C162.442 381.239 166.255 383.902 167.775 386.8C169.319 389.931 170.211 393.343 170.396 396.829C170.524 399.972 173.74 398.953 176.924 396.694C180.109 394.435 184.287 389.667 188.153 388.689C192.018 387.711 197.704 388.789 204.843 387.204C211.983 385.618 215.106 379.442 222.584 378.339C230.062 377.236 230.674 372.994 223.903 372.653C217.133 372.313 212.417 372.919 208.18 371.476C203.943 370.032 196.682 366.304 191.473 365.346C186.264 364.387 182.162 364.762 180.824 368.271C169.575 366.966 161.235 363.411 154.324 362.318C147.413 361.224 145.622 362.422 140.912 364.005C136.202 365.589 134.975 361.276 126.509 358.836C118.043 356.397 109.621 354.61 103.77 355.607C97.9184 356.603 93.7457 358.665 90.3689 362.42C86.992 366.174 85.0436 363.611 81.1829 363.74C77.3223 363.869 66.949 368.011 61.8906 372.728C56.8322 377.446 51.3838 379.191 43.0412 379.571C34.6985 379.951 17.3453 383.896 16.9948 387.729Z" fill="#939960"/>
<path d="M-10.1508 187.81C-0.174996 189.417 11.3118 195.508 15.5128 197.791C19.7137 200.075 26.1837 203.959 30.0617 206.23C33.9397 208.5 51.7456 205.9 56.0318 205.091C60.318 204.281 66.463 205.904 70.4753 207.169C75.6571 208.801 76.4594 209.214 80.9843 211.606C85.5092 213.997 92.2279 213.369 97.4807 213.716C102.734 214.063 103.093 216.358 107.813 216.179C115.508 215.858 123.01 212.718 127.915 209.555C132.821 206.393 143.145 206.553 146.872 206.45C150.599 206.347 158.647 202.088 163.78 198.932C168.912 195.776 184.837 192.317 189.695 191.001C194.553 189.685 212.421 189.495 209.43 186.744C206.439 183.994 193.828 182.235 185.966 181.4C178.104 180.565 178.328 177.601 174.875 175.651C171.422 173.701 163.907 175.349 163.102 172.839C162.297 170.33 157.913 167.722 153.343 166.974C148.773 166.226 143.923 163.911 138.649 164.59C133.375 165.269 135.041 165.677 136.372 168.677C137.607 171.462 138.291 177.969 139.704 179.66C141.118 181.351 140.557 188.321 141.235 190.127C141.914 191.933 143.606 193.312 143.845 194.193C144.084 195.074 142.861 194.553 140.164 191.729C137.467 188.904 138.803 184.148 137.097 181.834C136.436 180.938 133.991 181.066 133.337 178.372C132.683 175.679 136.097 176.853 134.456 172.825C132.816 168.796 131.071 166.719 129.773 166.133C128.474 165.546 122.779 165.666 120.442 165.602C118.106 165.538 119.314 169.554 119.253 171.748C119.193 173.942 118.796 177.645 117.919 177.752C117.042 177.859 118.136 175.146 117.346 171.966C116.556 168.785 118.248 165.808 114.184 164.872C110.12 163.935 102.278 162.518 100.243 162.1C98.2077 161.681 93.3777 162.237 91.754 162.878C90.1303 163.519 82.6769 163.73 81.0758 163.547C79.4748 163.364 72.4618 163.583 69.8003 164.746C67.1389 165.91 64.1765 172.835 63.407 174.324C62.6376 175.813 62.8853 182.553 63.8145 185.325C64.7436 188.097 61.459 186.085 60.8335 182.223C60.208 178.361 60.6238 173.973 60.8413 171.368C61.0588 168.762 62.5899 166.196 56.6776 168.766C50.7652 171.335 44.5796 173.375 39.7121 175.167C34.8445 176.958 29.0491 175.285 23.338 176.226C17.6268 177.166 14.6017 180.696 6.95688 182.824C-0.687931 184.951 -8.46608 186.243 -12.1045 185.852C-15.7429 185.46 -16.5854 186.766 -10.1508 187.81Z" fill="#939960"/>
<path d="M-40.0621 717.018C-37.4479 717.604 -10.3008 723.003 -5.94618 723.003C-1.59156 723.003 6.67371 727.29 7.83518 728.743C8.99665 730.196 19.1409 732.792 23.3747 733.883C27.6086 734.973 37.6427 734.593 39.0919 734.849C40.541 735.104 40.0615 730.501 39.6992 727.237C39.3369 723.973 44.2918 720.464 46.2276 715.992C48.1634 711.52 46.1069 720.464 45.0164 722.158C43.926 723.852 41.6315 724.818 42.7219 727.72C43.8123 730.622 43.688 733.492 43.688 734.387C43.688 735.282 51.9107 735.573 57.4729 736.163C63.0352 736.753 67.3863 738.223 71.1371 735.921C74.0106 734.145 81.775 737.736 88.79 737.253C95.805 736.77 96.1637 733.701 107.047 730.608C117.93 727.514 126.817 727.344 132.976 723.714C139.135 720.083 150.025 718.272 154.56 718.453C159.096 718.634 173.243 714.464 176.87 712.106C180.496 709.747 179.101 708.071 168.889 708.298C158.013 708.55 150.117 697.54 141.038 697.412C138.318 697.373 125.261 698.122 122.178 697.412C119.095 696.701 103.768 692.588 100.511 692.226C97.2542 691.864 96.0678 700.495 96.249 703.031C96.4301 705.567 96.1566 711.307 93.8763 713.033C91.596 714.759 93.8586 711.495 93.8763 708.593C93.8941 705.691 93.5211 704.484 92.6793 702.669C91.8375 700.854 93.617 695.792 93.3897 693.615C93.1624 691.437 94.7217 691.441 88.0619 691.803C81.4021 692.166 73.0693 692.89 69.5636 692.514C66.0579 692.137 62.4278 692.031 60.2505 694.087C58.0732 696.144 58.6806 697.593 54.809 696.744C50.9374 695.895 45.6664 694.14 33.3342 696.197C27.6512 697.142 26.987 699.28 20.5758 699.884C14.1647 700.488 11.9412 700.399 6.15868 701.61C0.376197 702.821 -3.73335 706.583 -11.3735 707.187C-16.3461 707.584 -25.9007 711.985 -36.5422 712.227C-41.7528 712.362 -47.3151 715.384 -40.0621 717.018Z" fill="#939960"/>
<path d="M-61.9909 693.755C-54.5923 693.045 -43.4926 692.203 -38.5945 690.477C-33.6964 688.751 -24.9907 685.984 -23.7227 685.121C-22.4547 684.257 -24.2662 674.873 -23.7227 672.11C-23.1793 669.347 -18.8247 664.626 -17.0096 664.164C-15.1946 663.703 -18.4624 666.928 -19.4285 669.116C-20.3946 671.304 -20.5189 672.454 -19.9115 673.953C-19.3042 675.452 -20.5189 676.507 -20.0323 679.778C-19.5457 683.05 -20.1531 685.817 -14.2285 682.933C-8.30393 680.048 3.42442 679.381 6.56785 679.025C9.71128 678.67 17.6924 677.988 17.5787 674.88C17.4651 671.772 20.3599 671.197 20.3599 672.923C20.3599 674.65 19.7561 676.262 23.141 675.456C26.526 674.65 34.2656 671.655 37.7713 671.549C41.277 671.442 45.6316 673.506 48.292 672.124C50.9524 670.742 58.2053 670.05 64.3714 670.167C70.5375 670.284 77.794 670.281 78.1563 668.554C78.5186 666.828 72.4733 665.791 69.2091 665.674C65.9449 665.557 60.7449 662.683 54.6996 660.953C48.6543 659.224 41.5185 659.458 39.3412 658.996C37.1639 658.535 35.3524 660.84 34.6278 662.683C33.9033 664.527 32.5713 667.862 31.7259 667.301C30.8806 666.739 32.0811 664.079 32.3298 660.854C32.5784 657.629 33.0401 657.171 28.5825 656.237C24.1249 655.302 19.6353 656.123 13.2241 655.199C6.81293 654.276 1.60941 651.047 -2.61379 650.234C-6.837 649.42 -14.2214 647.24 -18.3345 647.815C-22.4476 648.39 -31.029 644.934 -35.0284 644.359C-39.0278 643.784 -47.7229 645.282 -49.7794 647.815C-51.836 650.347 -53.1644 652.535 -54.1163 653.342C-55.0682 654.148 -54.9652 652.305 -54.6029 649.79C-54.2406 647.275 -53.3917 647.026 -57.2633 646.909C-61.1348 646.792 -66.452 649.214 -69.2332 649.673C-72.0143 650.131 -77.2036 648.735 -79.523 648.735C-81.8424 648.735 -91.3757 652.535 -93.8976 654.379C-96.4194 656.222 -96.5579 661.746 -95.8333 663.933C-95.1087 666.121 -95.0306 675.335 -96.2205 676.01C-97.4104 676.685 -96.5757 673.939 -96.6787 672.327C-96.7322 671.081 -97.1079 669.871 -97.7691 668.814C-98.3729 667.777 -97.3464 664.811 -98.888 662.481C-99.5983 661.39 -99.094 655.686 -99.9535 655.167C-100.813 654.649 -100.195 653.558 -107.448 655.746C-114.701 657.934 -113.486 658.623 -117.489 659.891C-121.492 661.159 -120.512 660.58 -124.018 661.273C-127.523 661.966 -130.212 666.022 -133.356 667.173C-136.499 668.324 -149.193 667.979 -153.307 668.785C-157.42 669.592 -160.567 674.326 -164.935 675.133C-169.304 675.939 -176.302 676.628 -179.203 676.397C-182.105 676.166 -189.724 676.042 -189.966 677.779C-190.207 679.516 -189.238 681.331 -184.993 682.041C-180.749 682.751 -173.144 681.927 -171.933 683.309C-170.722 684.691 -172.142 686.762 -169.62 686.762C-167.099 686.762 -164.076 685.955 -160.084 686.992C-156.091 688.03 -152.71 691.482 -149.687 692.405C-146.665 693.329 -136.9 690.676 -134.119 690.963C-131.338 691.251 -130.851 687.827 -130.791 686.158C-130.731 684.488 -128.827 684.343 -128.163 681.466C-127.498 678.589 -128.706 676.17 -128.042 675.882C-127.378 675.594 -126.863 677.924 -126.5 680.112C-126.138 682.3 -126.145 683.664 -126.856 684.375C-127.578 685.086 -128.189 685.901 -128.671 686.793C-129.274 687.831 -128.973 691.027 -129.093 691.83C-129.214 692.633 -125.222 691.83 -122.199 692.292C-119.176 692.754 -115.55 694.508 -111.188 693.56C-106.826 692.611 -103.267 688.942 -102.724 690.008C-102.181 691.074 -101.388 693.681 -100.302 693.855C-99.2147 694.029 -93.7128 693.922 -91.3579 692.789C-89.003 691.656 -83.8279 690.139 -80.7449 690.658C-77.6618 691.177 -69.3362 694.448 -61.9909 693.755Z" fill="#939960"/>
<path d="M80.6108 646.634C89.4017 649.021 92.2219 654.448 95.8484 654.977C99.4749 655.507 103.663 656.064 103.663 650.807C103.663 645.551 106.195 637.566 107.648 639.2C109.101 640.834 107.374 643.462 107.012 644.73C106.65 645.998 106.38 648.357 107.012 649.703C107.644 651.049 108.156 655.507 108.22 657.684C108.284 659.861 113.192 663.488 116.353 664.124C119.515 664.759 127.872 663.669 129.957 661.492C131.769 663.58 131.769 665.665 135.942 665.122C140.116 664.578 147.006 663.186 148.818 661.129C150.629 659.073 155.431 657.986 157.385 657.744C159.339 657.503 164.055 658.227 165.746 654.963C167.437 651.699 167.561 648.925 168.648 647.103C169.735 645.281 166.322 639.729 166.414 637.644C166.506 635.559 167.32 638.458 167.863 639.274C168.407 640.091 170.222 639.985 170.946 641.541C171.671 643.096 171.127 644.442 170.946 646.076C170.765 647.71 170.403 649.959 170.403 651.049C170.403 652.139 169.692 653.507 169.497 655.137C169.302 656.768 176.75 656.65 180.38 655.439C184.01 654.228 188.72 649.998 190.656 649.756C192.591 649.515 197.912 650.36 199.844 650.111C201.777 649.863 200.452 646.485 201.056 645.881C201.659 645.277 201.659 649.024 203.354 649.024C205.048 649.024 210.244 648.421 213.871 645.639C217.497 642.858 219.909 642.979 226.267 642.088C232.625 641.196 240.716 639.882 240.119 636.902C239.523 633.922 236.489 633.925 233.104 632.352C229.719 630.778 224.821 629.12 221.195 628.029C217.568 626.939 213.576 626.214 212.368 626.58C211.161 626.946 211.399 624.31 208.863 623.223C206.327 622.137 205.666 623.827 202.998 623.934C200.331 624.04 192.236 625.205 189.455 623.632C186.674 622.058 186.432 619.885 183.289 619.764C180.146 619.643 178.089 622.183 175.549 622.304C173.01 622.424 165.874 622.545 162.248 620.73C158.621 618.915 155.236 617.345 152.938 617.949C150.64 618.553 147.013 618.432 147.013 620.972C147.013 623.511 146.658 628.349 146.044 629.798C145.429 631.247 145.834 626.836 145.291 624.658C144.747 622.481 145.017 619.945 143.113 619.402C141.21 618.858 138.759 621.213 138.759 621.213C134.951 620.67 128.945 621.316 125.617 622.364C120.218 624.058 117.76 625.387 113.341 625.561C110.802 625.664 108.724 624.641 100.466 625.561C96.0899 626.079 88.67 629.585 87.473 630.42C86.276 631.254 83.4842 630.238 82.0315 630.238C80.5788 630.238 79.9466 632.416 78.3162 632.867C76.6859 633.318 76.2597 635.286 68.339 636.277C64.0944 636.806 52.5898 638.49 52.6822 640.848C52.7745 643.206 62.1125 644.023 64.922 644.205C70.2243 644.443 75.4849 645.257 80.6108 646.634V646.634Z" fill="#939960"/>
<path d="M-89.3801 623.263C-84.4855 623.678 -73.2367 622.513 -71.4252 621.448C-69.6138 620.382 -64.7121 616.372 -63.8064 617.64C-62.9007 618.908 -62.9007 620.386 -59.9952 620.386C-57.0898 620.386 -45.8516 618.727 -41.8592 619.093C-37.8669 619.459 -35.8743 618.383 -34.4216 614.831C-32.9688 611.279 -31.3385 606.747 -30.6139 608.018C-29.8894 609.29 -31.5197 612.188 -31.5197 613.822C-31.5197 615.456 -32.0986 619.505 -31.9921 620.375C-31.8855 621.245 -24.6077 621.668 -22.7998 621.984C-20.9918 622.3 -16.9818 622.254 -15.0779 622.528C-13.1741 622.801 -10.5422 624.069 -8.18371 625.429C-5.82525 626.79 1.05122 625.884 2.84848 625.518C4.64574 625.152 11.1635 622.89 11.8881 624.946C12.6126 627.003 15.9976 629.418 19.0203 630.871C22.0429 632.324 30.2656 630.789 34.2579 629.699C38.2502 628.608 40.9071 625.589 40.9071 624.371C40.9071 623.153 39.9409 620.581 39.9409 618.283C39.9409 615.985 40.3245 608.423 39.9409 606.313C39.2732 602.665 41.9336 605.688 41.9336 608.107C41.9336 610.526 43.6882 614.234 43.809 615.079C43.9297 615.925 42.4805 617.136 43.2051 619.192C43.9297 621.249 43.6882 623.81 45.7447 623.81C47.8013 623.81 51.1862 622.904 53.36 620.968C55.5338 619.033 59.043 617.583 66.2392 617.605C70.0859 617.605 71.4995 611.922 72.0927 611.801C75.3072 613.072 78.2091 614.159 83.1036 612.888C87.9981 611.616 94.4412 607.812 97.4888 607.265C100.536 606.718 109.675 607.265 114.346 606.722C119.017 606.178 119.088 604.608 115.767 603.425C112.446 602.243 104.667 600.513 100.181 597.902C95.6951 595.292 91.7063 595.416 89.8806 595.295C88.0549 595.174 88.95 592.269 83.7607 590.433C78.5714 588.596 61.7034 587.715 58.3184 586.863C54.9335 586.011 48.6324 585.105 45.7447 585.293C42.857 585.481 38.6409 587.069 36.5737 587.069C34.5065 587.069 33.0218 585.844 28.8164 585.794C24.6109 585.744 19.9367 586.249 17.4858 585.67C15.035 585.091 14.7864 586.188 14.3495 587.73C13.9126 589.271 12.9288 591.9 12.6446 594.166C12.3605 596.432 13.355 599.518 12.4635 599.518C11.5719 599.518 11.1031 596.254 10.9184 594.439C10.7337 592.624 10.4673 591.175 10.4673 589.722C10.4673 588.27 12.19 588.181 12.4635 586.369C12.737 584.558 12.7583 584.561 9.62195 583.823C6.48563 583.084 3.93892 581.834 0.234292 580.473C-3.47034 579.113 -7.57989 580.622 -9.25994 581.358C-12.4034 582.75 -14.5878 588.976 -19.6563 588.976C-23.4675 588.976 -28.9659 593.157 -30.0563 594.539C-32.4147 597.533 -43.93 595.931 -47.4606 597.561C-50.9912 599.192 -52.0248 603.095 -52.0248 603.095C-56.9974 604.09 -60.5813 605.329 -62.9397 606.69C-65.2982 608.05 -70.3987 611.577 -75.2115 612.575C-80.0244 613.573 -86.0342 615.537 -89.3588 615.9C-92.6833 616.262 -97.7235 619.725 -95.6385 620.997C-93.5535 622.268 -93.6423 622.901 -89.3801 623.263Z" fill="#939960"/>
<path d="M-127.402 521.474C-119.652 519.297 -116.459 519.922 -109.746 521.119C-103.033 522.316 -102.4 524.93 -96.6569 526.017C-94.8205 526.372 -92.3058 525.946 -87.7771 526.29C-83.2485 526.635 -78.4569 532.872 -73.6228 534.19C-68.7887 535.507 -60.321 534.719 -57.2841 536.04C-54.2472 537.362 -52.7732 535.685 -51.0789 530.812C-49.3847 525.939 -53.7109 516.455 -53.7109 512.495C-53.7109 508.534 -51.7751 500.479 -50.0808 499.424C-48.3866 498.369 -49.8393 504.638 -49.9601 506.485C-50.0808 508.332 -48.0278 511.305 -47.9675 512.626C-47.9071 513.947 -49.6298 515.432 -48.7808 519.954C-48.0705 523.704 -47.2251 532.741 -47.9994 535.827C-48.9052 539.461 -46.1595 539.603 -42.4975 541.109C-40.1639 542.071 -34.2785 544.156 -28.8299 543.346C-23.3812 542.537 -16.0146 536.367 -14.4411 534.712C-12.8676 533.057 -9.86983 527.764 -7.19525 527.104C-4.52067 526.443 -3.69663 530.656 3.13722 528.954C9.97107 527.253 14.2085 522.003 16.2792 520.724C18.35 519.446 18.8153 514.846 17.9699 511.866C17.1246 508.886 18.6803 506.08 19.4227 508.556C20.165 511.031 21.053 511.326 21.5076 513.702C21.9623 516.079 20.0265 519.577 23.0491 518.92C26.0718 518.263 34.8983 513.109 36.2302 512.58C37.9209 514.299 40.8228 514.956 43.9663 513.109C47.1097 511.262 53.7482 506.382 57.6162 505.849C61.4842 505.316 60.4897 501.821 58.3266 501.722C56.1635 501.622 53.1586 502.12 49.8908 501.622C46.6231 501.125 40.7163 496.476 36.3936 494.394C32.071 492.313 30.8633 494.099 28.3237 494C25.7841 493.901 17.2311 489.177 11.0331 486.438C4.83503 483.699 -4.24007 483.596 -4.77641 483.596C-9.03868 479.537 -12.2141 479.139 -15.116 478.94C-18.0179 478.741 -19.1048 483.398 -18.6679 487.358C-18.231 491.318 -19.0231 496.568 -19.7548 494.884C-20.4864 493.201 -19.666 490.725 -20.4651 488.051C-21.2643 485.376 -21.7367 482.108 -21.3744 479.633C-21.0121 477.157 -25.3277 477.807 -29.082 478.922C-33.5255 480.258 -34.964 481.65 -39.4074 482.044C-43.8508 482.439 -50.1981 480.819 -51.2849 480.819C-52.3718 480.819 -54.7303 481.71 -55.5472 484.282C-56.3641 486.854 -57.998 483.689 -60.9887 483.572C-63.9794 483.454 -72.4152 486.147 -76.2264 489.61C-80.0375 493.073 -89.1943 500.12 -92.0039 501.686C-94.8134 503.253 -97.6265 502.777 -100.255 502.972C-102.883 503.167 -107.966 505.185 -110.051 508.485C-112.136 511.784 -118.22 513.39 -122.483 514.381C-126.745 515.372 -133.749 523.253 -127.402 521.474Z" fill="#939960"/>
<path d="M3.24748 555.206C7.75829 555.177 12.8277 558.59 17.9091 558.919C22.9906 559.249 26.7746 556.685 30.0476 556.937C33.3206 557.189 37.5909 560.064 44.9882 560.392C52.3856 560.721 56.5179 558.187 58.3287 556.434C60.1396 554.682 63.233 555.738 64.8844 558.992C66.5358 562.246 77.9457 564.047 79.0355 561.742C80.1253 559.437 80.813 553.739 80.9127 550.481C81.0124 547.223 84.8413 541.149 85.6878 540.782C86.5344 540.414 84.5001 544.416 84.2703 546.232C84.0405 548.049 84.8994 550.135 84.5475 551.747C84.1956 553.358 82.6417 556.398 82.1806 559.789C81.7194 563.181 82.8509 562.929 86.0411 564.116C89.2314 565.303 94.3134 565.721 96.4493 566.453C98.5852 567.185 104.449 569.3 111.202 566.059C117.954 562.819 119.44 562.454 122.702 561.581C125.965 560.707 129.708 560.69 130.779 558.264C131.851 555.838 130.493 551.375 130.719 548.955C130.945 546.534 131.563 548.09 132.301 550.149C133.038 552.208 133.542 555.344 133.433 557.16C133.324 558.976 140.671 557.539 142.482 556.924C144.293 556.308 149.712 551.72 151.774 550.982C153.837 550.244 157.453 550.327 159.749 549.957C162.045 549.587 165.413 547.022 169.15 545.428C172.887 543.834 180.061 543.063 184.629 542.607C189.198 542.151 195.844 541.096 197.289 540.021C198.735 538.946 199.323 536.527 196.42 536.304C193.517 536.081 192.912 536.568 189.284 536.35C185.656 536.132 183.582 533.364 178.977 532.062C174.373 530.76 171.608 532.82 171.608 532.82C167.24 530.675 161.296 527.811 157.422 526.874C153.548 525.936 146.739 522.712 145.913 523.442C145.087 524.172 146.353 530.561 145.038 532.626C143.723 534.691 143.837 539.052 144.574 540.983C145.311 542.914 143.509 541.189 142.182 539.628C140.854 538.066 141.703 536.47 142.479 534.589C143.256 532.709 143.474 529.61 142.913 526.967C142.353 524.325 142.462 522.498 140.582 521.903C138.703 521.308 129.019 519.445 125.486 520.225C121.953 521.004 120.699 523.069 118.886 523.351C117.072 523.632 118.331 521.653 114.957 520.122C111.584 518.592 103.247 518.01 100.164 518.03C97.0812 518.05 88.1875 517.02 86.1061 518.121C84.0246 519.221 83.6131 522.044 80.4561 523.254C77.2991 524.465 76.8961 522.009 70.2114 523.676C63.5267 525.342 60.7159 527.907 59.5437 529.002C58.3716 530.096 54.6816 534.024 51.7921 535.95C48.9026 537.876 43.7393 538.63 37.8451 538.942C31.9508 539.253 28.4279 540.995 25.356 542.738C22.2842 544.481 20.3022 546.678 14.779 548.34C9.25574 550.003 5.91112 550.209 2.64517 551.047C-0.620776 551.885 -4.85778 555.259 3.24748 555.206Z" fill="#939960"/>
<path d="M88.3889 497.16C94.7484 496.014 100.992 499.137 102.091 497.716C103.189 496.295 106.04 494.437 106.881 494.875C107.722 495.313 106.066 496.863 106.914 497.935C107.762 499.007 116.95 496.495 119.383 496.743C121.817 496.991 122.702 499.246 125.032 499.7C127.362 500.154 133.331 500.688 136.907 497.532C141.512 500.958 148.23 503.164 151.84 503.125C155.45 503.086 160.664 503.628 162.046 503.972C163.429 504.317 165.094 500.942 165.592 497.7C166.09 494.458 165.601 488.709 165.477 487.136C165.354 485.563 167.18 487.6 167.755 491.668C168.329 495.737 168.6 500.298 167.875 502.817C167.151 505.336 168.013 505.454 170.685 506.981C173.357 508.509 181.991 511.286 188.36 510.741C194.729 510.197 195.843 505.272 196.136 502.99C196.43 500.708 198.045 502.638 198.391 505.198C198.737 507.758 207.991 502.742 209.952 500.561C211.913 498.381 212.813 492.98 215.24 491.513C217.668 490.046 224.898 490.091 228.072 489.578C231.247 489.064 234.327 484.759 233.592 482.587C239.781 482.136 242.177 480.705 244.912 478.756C247.646 476.807 248.882 473.43 255.139 472.305C261.396 471.181 266.345 469.719 267.528 468.649C268.712 467.58 270.508 464.299 265.81 464.709C261.112 465.119 256.909 465.986 253.038 464.728C248.967 463.416 247.191 463.055 242.177 462.539C237.104 462.016 234.975 464.801 234.975 464.801C229.283 461.626 229.174 460.507 224.549 459.317C219.924 458.128 219.059 459.218 219.085 461.648C219.112 464.078 217.987 470.56 217.446 472.186C216.905 473.812 215.998 478.224 216.492 479.747C216.986 481.27 214.399 477.794 214.136 475.458C213.874 473.123 215.773 472.204 216.387 470.038C217 467.873 216.937 463.288 216.368 460.882C215.799 458.475 215.008 458.054 212.364 457.896C209.719 457.738 203.949 458.879 201.702 458.012C199.456 457.145 196.952 455.052 194.328 454.757C191.703 454.461 184.32 456.778 182.843 460.389C181.366 464.001 177.453 460.568 172.579 459.99C168.492 459.506 163.094 459.015 160.32 460.123C157.545 461.231 142.03 463.558 138.305 465.31C134.579 467.062 135.37 470.663 129.815 471.174C124.26 471.685 127.034 469.405 119.211 471.641C116.274 472.476 111.912 477.377 108.327 477.415C104.742 477.454 99.0598 479.795 96.866 483.235C94.6721 486.675 88.1935 491.513 84.2257 493.085C80.2579 494.656 82.2816 498.262 88.3889 497.16Z" fill="#939960"/>
<path d="M-44.6115 447.717C-35.7318 448.868 -31.4198 456.597 -19.9933 457.329C-8.56688 458.061 -11.4049 453.532 -7.23137 454.441C-3.05789 455.35 -3.43795 457.695 7.80736 461.321C19.0527 464.948 24.1461 465.491 27.7584 466.038C31.3706 466.585 33.381 460.959 33.381 456.604C33.381 452.25 33.5018 450.921 33.8641 449.479C34.2264 448.037 35.3132 449.124 36.1621 453.226C37.0111 457.329 37.4906 457.634 37.3698 460.657C37.249 463.68 34.919 466.564 35.0717 468.393C35.2244 470.222 40.7547 471.519 44.5269 472.4C48.299 473.28 51.1547 476.918 63.3057 473.653C75.4568 470.389 73.1019 464.767 75.8297 462.767C78.5576 460.767 79.2751 465.85 86.528 464.401C93.781 462.951 96.4982 457.695 101.759 454.427C107.019 451.159 115.543 452.253 118.452 451.525C121.361 450.797 127.332 446.812 133.136 445.362C138.94 443.913 153.261 442.613 157.804 441.811C162.347 441.008 160.72 437.548 154.174 437.925C147.628 438.301 141.6 436.472 137.729 435.023C133.857 433.574 125.155 428.985 121.035 428.249C116.915 427.514 112.691 428.605 111.722 431.755C103.268 430.445 98.0717 424.502 93.7171 423.049C89.3624 421.597 83.4379 420.499 81.868 422.446C80.298 424.392 79.6906 428.008 79.6906 431.272C79.6906 434.536 80.8983 435.946 79.4491 436.309C77.9999 436.671 77.151 434.657 77.0303 430.789C76.9095 426.921 77.5133 422.296 77.5133 421.405C77.5133 420.513 72.5584 418.563 69.0492 417.974C65.5399 417.384 52.9697 416.159 49.2189 416.28C45.4681 416.4 45.2301 418.578 42.4419 419.434C39.6537 420.29 39.746 416.823 36.2758 414.354C32.8056 411.886 27.3605 412.33 20.033 418.059C12.7054 423.788 10.7696 424.864 5.56966 426.072C0.369686 427.28 -2.29068 427.042 -6.40022 428.612C-10.5098 430.182 -12.4385 433.208 -14.5021 435.264C-16.5658 437.321 -29.7362 441.21 -41.3473 441.864C-52.9585 442.517 -51.5377 446.822 -44.6115 447.717Z" fill="#939960"/>
<path d="M123.092 588.61C129.208 588.767 135.967 591.331 139.96 593.871C143.952 596.41 152.473 596.591 156.654 595.323C160.834 594.055 165.359 591.331 166.99 592.24C168.62 593.15 168.08 594.776 170.801 595.142C173.522 595.508 179.283 592.262 185.854 592.35C192.425 592.439 201.937 596.773 205.926 597.256C209.914 597.739 214.148 595.806 214.148 595.806C214.912 598.293 219.171 600.488 224.761 600.868C230.352 601.248 234.415 602.214 239.132 604.512C243.849 606.81 254.899 602.576 256.355 599.454C257.812 596.332 258.486 594.24 260.774 595.053C263.061 595.867 265.498 595.632 269.597 593.871C275.457 591.352 279.393 587.122 284.81 584.636C290.642 581.954 295.359 579.308 300.317 578.811C305.276 578.313 317.402 577.873 316.073 575.078C314.745 572.282 310.11 572.9 306.838 572.645C303.567 572.389 299.358 570.449 295.433 569.217C291.508 567.984 286.426 566.613 284.341 566.702C282.256 566.791 282.433 568.244 282.618 570.059C282.803 571.874 282.071 575.873 280.622 576.275C279.173 576.676 280.977 574.594 280.622 572.325C280.267 570.055 280.071 566.883 279.08 565.434C278.089 563.985 275.997 563.53 272.914 563.076C269.831 562.621 263.736 561.47 259.946 558.813C256.156 556.157 250.282 555.798 247.603 556.224C243.341 552.317 236.642 550.186 233.89 551.077C231.137 551.969 229.709 553.958 227.365 554.683C225.021 555.407 225.699 554.139 219.646 555.137C213.594 556.135 215.59 560.035 216.137 562.213C216.684 564.39 213.651 570.343 213.598 575.859C213.551 579.855 211.964 580.121 211.42 577.99C210.877 575.859 210.241 572.201 211.601 570.204C212.962 568.208 213.416 566.94 213.235 565.31C213.054 563.68 212.507 560.007 211.601 558.803C210.696 557.599 207.453 559.584 205.432 560.224C203.411 560.863 197.728 561.946 193.735 562.49C189.743 563.033 190.184 565.303 189.292 565.935C188.4 566.567 182.217 568.915 179.226 568.876C176.235 568.837 169.991 570.744 167.345 572.556C164.699 574.367 161.903 578.814 156.192 579.539C150.48 580.263 147.848 579.812 140.411 580.537C132.973 581.261 126.914 584.256 123.092 585.073C119.27 585.89 119.572 588.521 123.092 588.61Z" fill="#939960"/>
<path d="M162.729 689.977C170.382 688.642 173.367 689.614 179.644 691.54C185.922 693.466 186.233 696.149 191.6 697.86C193.318 698.415 195.771 698.263 200.057 699.099C204.344 699.935 208.215 706.692 212.69 708.535C217.165 710.379 225.346 710.51 228.099 712.162C230.851 713.813 232.451 712.297 234.621 707.608C236.792 702.92 233.741 692.968 234.191 689.008C234.641 685.049 237.408 677.205 239.144 676.334C240.88 675.463 238.782 681.573 238.456 683.407C238.131 685.24 239.759 688.436 239.667 689.764C239.574 691.092 237.759 692.389 238.053 697.002C238.305 700.829 238.09 709.956 236.998 712.958C235.716 716.492 238.328 716.933 241.658 718.837C243.776 720.052 249.168 722.777 254.465 722.559C259.763 722.341 267.513 716.974 269.202 715.49C270.891 714.005 274.384 709.054 277.002 708.682C279.621 708.311 279.94 712.613 286.669 711.656C293.399 710.698 298.04 705.909 300.168 704.856C302.296 703.803 303.264 699.254 302.795 696.183C302.325 693.111 304.132 690.475 304.556 693.03C304.981 695.586 305.803 695.978 305.964 698.403C306.125 700.828 303.881 704.116 306.848 703.788C309.816 703.46 318.836 699.266 320.166 698.881C321.59 700.784 324.29 701.756 327.504 700.251C330.719 698.746 337.633 694.568 341.392 694.478C345.151 694.387 344.593 690.762 342.523 690.426C340.453 690.09 337.538 690.262 334.474 689.41C331.41 688.558 326.285 683.267 322.393 680.716C318.501 678.166 317.136 679.82 314.72 679.445C312.304 679.069 304.668 673.417 299.054 670.005C293.44 666.593 284.777 665.504 284.261 665.445C280.648 660.923 277.661 660.18 274.909 659.666C272.158 659.151 270.586 663.689 270.557 667.696C270.528 671.704 269.17 676.866 268.659 675.103C268.148 673.34 269.22 670.954 268.757 668.193C268.293 665.432 268.22 662.114 268.848 659.678C269.476 657.242 265.276 657.423 261.561 658.13C257.161 658.982 255.628 660.218 251.335 660.129C247.043 660.041 241.159 657.731 240.117 657.613C239.074 657.494 236.722 658.13 235.649 660.612C234.575 663.094 233.377 659.753 230.528 659.31C227.679 658.868 219.312 660.643 215.278 663.692C211.245 666.74 201.687 672.791 198.823 674.051C195.959 675.312 193.292 674.57 190.746 674.485C188.2 674.401 183.126 675.86 180.758 678.933C178.39 682.005 172.391 682.949 168.204 683.477C164.017 684.004 156.459 691.066 162.729 689.977Z" fill="#939960"/>
</mask>
<g mask="url(#mask0_412_386)">
<path d="M1.05176 0.930664H451.052V720.931H1.05176V0.930664Z" fill="#939960"/>
</g>
</g>
<defs>
<clipPath id="clip0_412_386">
<rect width="450" height="720" fill="white"/>
</clipPath>
</defs>
</svg>
