<svg width="450" height="720" viewBox="0 0 450 720" fill="none" xmlns="http://www.w3.org/2000/svg">
<mask id="mask0_412_386" style="mask-type:alpha" maskUnits="userSpaceOnUse" x="0" y="0" width="450" height="720">
<rect width="450" height="720" fill="#939960"/>
</mask>
<g mask="url(#mask0_412_386)">
<path d="M258.241 73.9566C258.968 84.5583 250.324 97.6205 247.907 105.193C245.491 112.766 246.568 128.113 246.568 128.113C239.126 138.835 238.016 158.399 239.208 162.559C240.4 166.72 232.434 180.132 228.043 187.519C223.653 194.906 226.441 211.845 226.02 221.09C225.599 230.336 226.567 237.307 228.087 245.662C229.607 254.016 220.979 263.377 220.979 263.377C214.358 253.984 214.287 246.706 211.34 238.095C208.393 229.483 203.685 219.095 206.419 211.517C209.153 203.938 204.073 171.997 205.949 165.627C207.824 159.257 214.91 164.331 213.232 152.324C212.215 145.052 218.902 111.35 223.434 107.79C229.793 102.793 235.425 85.969 236.201 77.1716C236.436 74.5362 241.877 54.1036 244.911 50.1505C247.946 46.1975 245.551 73.2841 258.241 73.9566Z" fill="#939960"/>
<path d="M419.827 704.953C422.736 697.725 427.717 691.284 424.616 683.454C421.516 675.625 429.122 668.932 431.096 663.071C433.069 657.21 433.911 644.984 436.164 637.974C438.417 630.965 447.143 622.31 451.933 619.795C456.722 617.28 462.917 615.606 461.228 607.219C459.538 598.832 465.449 580.975 459.817 582.095C454.185 583.216 452.78 574.834 455.596 569.81C458.412 564.785 459.817 549.984 457.849 544.659C455.88 539.333 442.922 552.942 427.717 550.892C428.559 566.529 432.594 573.976 430.248 584.025C429.401 587.656 439.543 594.633 435.038 598.821C430.532 603.009 426.869 603.851 424.901 612.222C422.932 620.593 425.18 631.211 419.827 639.309C414.474 647.406 408.848 665.006 409.127 670.578C409.405 676.149 403.659 700.36 400.493 706.664C397.327 712.968 411.379 707.304 419.827 704.953Z" fill="#939960"/>
<path d="M441.555 381.33C437.077 373.791 424.972 360.072 422.041 354.78C419.111 349.487 422.965 324.839 421.008 317.315C419.051 309.792 410.805 305.905 410.876 301.787C410.948 297.67 417.656 281.311 416.306 272.301C414.955 263.29 408.985 238.281 406.109 233.196C402.544 226.886 400.018 220.765 399.416 210.644C398.815 200.523 392.046 200.037 387.994 215.691C383.943 231.345 384.085 235.421 385.452 243.683C386.819 251.945 388.082 266.199 387.994 271.065C384.331 264.635 379.246 253.683 375.835 253.814C372.423 253.946 378.371 260.037 378.207 269.397C378.043 278.758 377.114 309.825 378.869 318.092C380.624 326.359 391.614 345.069 396.677 358.006C401.74 370.942 422.796 390.888 426.202 397.919C429.609 404.951 437.236 415.082 437.236 415.082C440.82 414.351 444.444 413.831 448.089 413.524C445.022 401.484 446.804 390.161 441.555 381.33Z" fill="#939960"/>
<path d="M355.462 211.75C357.349 218.114 348.896 224.654 350.405 234.387C345.087 243.482 345.872 258.494 347.381 267.838C348.891 277.182 345.495 280.173 344.741 289.162C343.986 298.151 348.896 309.759 350.405 319.868C351.914 329.978 343.981 337.091 337.939 330.35C331.897 323.608 326.233 304.887 325.101 295.526C323.969 286.166 322.083 251.342 323.16 243.108C324.237 234.874 329.251 220.688 326.233 210.207C323.215 199.725 317.186 177.593 325.101 171.621C333.015 165.65 347.064 191.171 357.179 188.599C367.295 186.027 353.576 205.386 355.462 211.75Z" fill="#939960"/>
<path d="M296.849 296.291C296.433 304.165 302.273 311.601 303.541 317.068C296.515 329.912 295.826 342.684 289.063 337.107C282.3 331.53 266.996 287.472 261.927 278.817C256.859 270.162 255.727 255.093 250.943 244.759C246.159 234.425 247.285 219.63 247.285 207.902C247.285 196.174 254.048 190.312 254.327 199.028C254.606 207.743 254.07 217.951 254.327 222.139C254.584 226.328 261.791 234.846 263.332 242.802C264.874 250.757 270.238 252.84 268.969 245.732C267.701 238.624 264.322 217.251 267.28 206.365C270.238 195.479 263.622 181.4 263.338 169.371C263.054 157.343 272.064 138.359 274.098 131.098C276.132 123.837 259.133 115.805 274.098 114.903C289.063 114.001 295.887 147.692 295.887 147.692C295.345 156.069 297.412 160.793 299.102 165.599C300.791 170.405 290.621 182.313 296.707 191.805C296.756 194.342 293.328 206.343 296.526 217.503C298.976 226.06 297.576 243.059 295.865 251.435C294.153 259.811 293.918 271.403 298.117 273.076C302.317 274.749 297.264 288.418 296.849 296.291Z" fill="#939960"/>
<path d="M323.756 419.53C325.867 410.656 329.705 406.829 327.37 403.477C325.036 400.125 309.677 395.101 306.796 390.491C303.914 385.882 296.533 381.278 287.97 380.863C279.408 380.447 288.282 367.877 285.324 363.689C282.366 359.501 270.441 360.758 263.098 346.1C255.755 331.441 252.803 324.322 248.997 313.841C245.192 303.359 235.678 277 235.678 277C229.565 281.609 223.234 283.703 224.076 290.822C224.918 297.941 229.144 315.109 230.413 322.228C224.076 332.698 227.843 344.427 235.678 350.709C243.513 356.991 251.955 381.278 259.561 390.491C267.166 399.704 285.127 406.468 287.992 411.044C290.857 415.62 286.615 423.997 290.42 428.606C294.225 433.215 303.477 430.033 308.124 439.246" fill="#939960"/>
<path d="M407.087 425.285C404.446 415.924 397.245 404.694 390.848 399.079C384.451 393.463 372.346 373.468 370.071 366.24C367.797 359.012 353.455 360.308 346.659 361.532C339.863 362.757 327.396 348.908 324.001 343.287C319.08 355.644 313.804 359.761 320.223 364.255C326.642 368.75 331.552 368.001 336.462 377.378C341.372 386.755 356.112 389.97 360.383 395.711C364.653 401.452 377.759 422.666 381.531 429.654C385.304 436.641 390.46 454.865 402.363 463.476C414.266 472.088 410.488 468.72 416.53 490.06C422.571 511.4 434.299 525.26 439.018 525.988C443.737 526.715 449.007 519.623 444.486 511.772C439.964 503.92 428.629 484.816 428.629 479.201C428.629 473.586 433.162 466.844 428.252 464.22C423.342 461.595 396.638 428.155 407.087 425.285Z" fill="#939960"/>
<path d="M424.069 784.675C430.302 773.74 455.748 759.693 462.085 753.411C468.422 747.129 462.665 741.688 465.333 737.5C468.001 733.312 473.07 731.218 475.175 723.257C477.28 715.296 482.354 696.127 486.58 690.451C490.806 684.776 490.38 678.887 486.58 678.051C482.78 677.214 476.853 681.402 471.156 688.937C465.459 696.471 463.348 701.922 459.969 703.596C456.59 705.269 462.659 682.862 465.327 677.947C467.996 673.032 477.285 646.235 476.864 642.872C476.443 639.51 469.685 636.508 463.742 638.853C457.798 641.199 454.873 648.006 453.605 661.566C452.336 675.126 450.226 685.17 446.847 693.125C443.468 701.08 442.62 714.903 444.31 716.581C445.999 718.26 446.185 722.278 442.511 723.279C434.813 725.379 436.081 736.549 434.813 742.416C433.544 748.282 425.758 753.613 418.153 765.281C410.547 776.949 412.663 804.632 424.069 784.675Z" fill="#939960"/>
<path d="M381.571 690.864C377.22 702.333 370.562 711.836 370.283 717.691C370.003 723.545 374.798 724.108 370.283 730.798C365.768 737.489 354.759 750.045 352.2 755.621C349.641 761.197 353.066 762.404 350.244 768.494C347.422 774.584 341.477 786.577 339.8 790.204C338.123 793.83 332.463 795.802 322.868 797.735C313.273 799.669 304.523 803.743 301.986 807.713C299.448 811.684 299.728 821.717 291.821 824.508C283.914 827.298 283.919 835.103 276.018 838.451C268.116 841.799 270.659 828.97 276.018 823.388C281.377 817.806 288.435 811.957 292.106 802.754C295.777 793.552 308.484 787.68 309.323 785.037C310.161 782.394 305.092 775.982 311.58 771.225C318.068 766.468 326.255 762.596 327.948 756.479C328.975 752.926 328.975 749.157 327.948 745.605C335.005 738.352 341.493 735.004 342.907 726.637C344.321 718.27 348.271 717.5 351.373 710.913C354.474 704.326 361.055 699.263 365.072 688.897C370.228 675.653 370.086 668.908 370.086 668.908C386.333 663.976 385.593 680.246 381.571 690.864Z" fill="#939960"/>
<path d="M393.641 640.609C398.458 635.836 399.557 623.299 399.557 614.911C399.557 606.524 407.726 593.959 407.726 593.959C400.405 579.443 404.91 569.109 402.936 560.454C400.962 551.799 397.02 545.937 402.657 540.634C408.294 535.33 403.204 533.094 397.868 523.323C392.531 513.553 387.731 496.242 387.731 492.333C387.731 488.423 375.702 480.884 372.711 477.816C369.72 474.749 366.325 459.385 360.978 447.662C355.63 435.94 341.688 423.643 343.377 438.652C345.067 453.66 349.583 452.408 350.485 459.106C351.387 465.804 346.625 477.953 350.485 482.562C354.345 487.171 359.846 491.775 362.804 500.567C365.762 509.359 363.219 525.581 367.047 534.865C370.874 544.149 375.073 552.105 377.184 560.476C379.294 568.847 373.805 585.189 375.494 597.333C377.184 609.477 375.735 624.671 372.728 630.554C369.72 636.437 369.447 647.586 369.447 647.586C376.467 645.634 390.825 643.398 393.641 640.609Z" fill="#939960"/>
<path d="M347.65 632.486C347.782 619.406 354.596 607.943 353.267 602.86C351.938 597.778 345.189 589.698 346.544 582.548C348.573 571.847 350.066 553.376 348.977 550.048C347.889 546.719 330.455 546.536 331.573 541.344C332.691 536.152 340.162 537.575 340.861 526.343C341.56 515.112 345.922 501.147 342.881 500.571C339.841 499.994 326.831 502.069 321.662 499.102C316.492 496.135 305.79 483.021 302.488 479.273C299.186 475.525 300.995 461.465 297.811 455.569C294.627 449.673 276.888 442.32 269.605 418.774C261.919 427.551 256.325 441.855 270.428 455.526C280.294 465.126 276.757 482.08 280.735 486.813C284.713 491.546 290.174 491.446 292.005 496.908C293.835 502.369 296.029 510.17 303.177 520.902C310.324 531.634 309.722 539.216 312.806 547.163C315.891 555.111 311.787 554.065 319.262 567.564C326.736 581.063 323.596 596.1 327.828 604.009C332.061 611.918 334.739 623.505 333.368 633.758C331.717 646.077 320.918 664.643 334.757 663.861C338.701 663.635 347.496 645.246 347.65 632.486Z" fill="#939960"/>
<path d="M281.656 747.194C290.169 739.682 299.085 736.474 299.753 726.389C300.422 716.303 310.334 713.304 316.406 702.404C322.478 691.505 323.909 682.819 323.133 680.996C322.357 679.173 311.071 676.468 307.621 678.45C304.171 680.433 304.295 684.908 297.57 686.691C290.844 688.474 297.528 674.012 298.997 667.593C300.466 661.174 296.863 644.033 299.887 636.041C302.911 628.049 289.102 628.73 286.64 638.537C284.177 648.345 289.184 651.699 284.526 667.047C279.868 682.395 267.835 701.796 267.676 707.998C267.517 714.2 259.344 732.672 253.766 737.12C248.188 741.568 253.702 744.462 262.592 744.11C271.482 743.757 275.231 743.735 281.656 747.194Z" fill="#939960"/>
<path d="M514.233 370.91C509.761 362.708 491.094 345.578 488.535 341.571C485.976 337.563 477.808 315.233 474.899 313.686C471.99 312.138 461.716 301.657 456.309 290.924C450.902 280.191 452.651 254.471 451.131 242.011C449.611 229.55 439.004 213.989 436.002 224.077C433.001 234.165 436.221 241.573 435.297 255.904C434.373 270.234 434.012 297.562 440.628 306.206C447.244 314.85 458.02 332.046 465.976 349.521C473.931 366.995 485.659 368.794 492.767 383.42C499.875 398.046 511.86 393.901 522.719 400.271C527.421 403.043 520.466 382.315 514.233 370.91Z" fill="#939960"/>
<path d="M193.556 103.958C191.866 117.359 190.74 123.505 184.54 132.439C178.624 132.996 173.856 136.124 169.35 140.848C164.845 145.572 158.935 148.656 158.935 141.941C158.935 135.227 169.919 111.498 169.072 103.121C168.224 94.7448 171.609 84.6899 178.367 75.6683C185.125 66.6467 194.135 61.5235 193.572 54.2625C193.009 47.0015 194.48 42.529 200.609 31.3641C206.738 20.1992 218.351 17.963 219.478 12.1017C220.604 6.24042 227.877 -11.9973 235.414 -14.2321C242.952 -16.467 242.102 12.1017 242.102 12.1017C235.929 20.1993 237.083 24.7866 229.172 29.1115C221.26 33.4364 213.403 53.2565 212.075 64.0551C210.746 74.8536 202.851 75.4824 202.78 84.6954C202.709 93.9083 195.245 90.5566 193.556 103.958Z" fill="#939960"/>
<path d="M252.475 574.382C247.815 584.208 247.707 590.455 248.227 603.952C248.747 617.45 240.837 615.361 242.27 624.462C243.704 633.563 236.017 635.472 236.468 646.342C236.919 657.213 232.402 678.05 225.302 683.608C218.203 689.166 207.631 695.846 202.862 704.843C200.282 709.747 191.769 719.23 189.066 744.433C188.354 751.151 174.747 759.481 174.496 762.222C173.965 768.256 183.944 764.865 188.58 762.802C201.44 757.089 202.89 742.473 206.941 734.161C210.992 725.849 229.702 718.049 232.38 715.239C235.058 712.43 237.498 704.772 237.653 698.806C237.808 692.839 248.901 688.738 253.125 676.717C257.349 664.696 258.072 660.054 256.331 652.982C254.591 645.911 262.645 639.386 267.839 629.377C273.033 619.368 274.733 608.906 272.53 600.78C270.327 592.655 277.292 567.451 276.196 560.826C275.101 554.202 269.773 558.209 266.098 563.605C262.424 569.001 258.22 572.866 252.475 574.382Z" fill="#939960"/>
<path d="M410.475 -151.598C405.815 -141.76 405.707 -135.506 406.227 -121.994C406.747 -108.482 398.837 -110.573 400.27 -101.461C401.704 -92.3501 394.017 -90.4392 394.468 -79.5564C394.919 -68.6735 390.402 -47.8135 383.302 -42.2492C376.203 -36.685 365.631 -29.9966 360.862 -20.9901C358.282 -16.0799 349.769 -6.58669 347.066 18.6445C346.354 25.3702 332.747 33.7098 332.496 36.4533C331.965 42.4944 341.944 39.0997 346.58 37.0339C359.44 31.3148 360.89 16.6827 364.941 8.36102C368.992 0.0393769 387.702 -7.76932 390.38 -10.5818C393.058 -13.3942 395.498 -21.0609 395.653 -27.0341C395.808 -33.0074 406.901 -37.1134 411.125 -49.1478C415.349 -61.1821 416.072 -65.8291 414.331 -72.9088C412.591 -79.9885 420.645 -86.5208 425.839 -96.5409C431.033 -106.561 432.733 -117.034 430.53 -125.169C428.327 -133.304 435.292 -158.537 434.196 -165.168C433.101 -171.8 427.773 -167.789 424.098 -162.387C420.424 -156.985 416.22 -153.115 410.475 -151.598Z" fill="#939960"/>
<path d="M270.03 -81.1115C260.427 -78.2919 244.663 -83.0279 242.244 -78.7857C239.824 -74.5436 224.173 -67.534 218.066 -66.8755C211.958 -66.217 206.695 -65.8226 196.31 -59.203C185.926 -52.5834 186.988 -46.0123 179.073 -42.6109C171.157 -39.2096 172.094 -49.6912 160.071 -40.1274C148.048 -30.5636 140.349 -20.2997 139.949 -17.5567C139.549 -14.8136 141.002 1.62516 135.915 6.78436C130.829 11.9436 124.648 29.6992 124.331 36.4737C124.013 43.2482 129.724 55.365 125.216 63.3596C120.708 71.3541 117.347 72.4444 114.897 80.0873C112.448 87.7302 115.844 88.2596 123.92 85.0934C131.995 81.9272 132.283 73.5494 138.319 64.1813C144.354 54.8132 156.523 40.5799 156.523 40.5799C152.36 27.8978 152.591 26.3335 160.203 18.7778C167.816 11.222 172.264 4.73945 173.931 -0.843276C175.598 -6.426 190.301 -16.5962 197.478 -20.4993C204.655 -24.4024 217.693 -30.4125 221.247 -32.8072C224.8 -35.2019 223.764 -38.1685 226.466 -42.9663C229.169 -47.7641 243.034 -52.1762 248.272 -54.1772C253.51 -56.1782 269.604 -64.1065 274.625 -67.3481C279.647 -70.5897 279.168 -83.778 270.03 -81.1115Z" fill="#939960"/>
<path d="M153.091 653.533C149.227 662.773 135.657 672.058 137.436 676.606C139.215 681.155 134.83 697.733 131.503 702.898C128.176 708.062 125.17 712.403 123.797 724.641C122.424 736.879 128.197 740.183 125.863 748.477C123.528 756.771 115.969 749.455 115.851 764.817C115.733 780.18 118.872 792.618 120.76 794.654C122.647 796.689 136.341 805.902 137.157 813.09C137.973 820.278 147.903 836.256 152.962 840.761C158.021 845.265 171.045 848.44 174.436 856.971C177.826 865.502 176.556 868.801 180.961 875.51C185.366 882.219 187.885 879.909 190.525 871.639C193.165 863.369 186.798 857.878 183.31 847.296C179.823 836.714 176.373 818.302 176.373 818.302C163.898 813.57 162.821 812.406 161.734 801.737C160.647 791.067 158.39 783.532 155.069 778.725C151.747 773.919 153.11 756.093 154.585 748.057C156.061 740.021 159.575 726.103 159.951 721.834C160.328 717.565 157.364 716.507 155.325 711.389C153.286 706.271 158.58 692.714 160.316 687.383C162.052 682.051 166 664.55 166.635 658.607C167.27 652.664 156.761 644.749 153.091 653.533Z" fill="#939960"/>
<path d="M311.091 -72.3586C307.227 -63.1079 293.657 -53.8123 295.436 -49.2589C297.215 -44.7055 292.83 -28.1083 289.503 -22.938C286.176 -17.7677 283.17 -13.4218 281.797 -1.1702C280.424 11.0814 286.197 14.3889 283.863 22.6923C281.528 30.9957 273.969 23.6714 273.851 39.0511C273.733 54.4307 276.872 66.8834 278.76 68.9212C280.647 70.959 294.341 80.1819 295.157 87.3782C295.973 94.5745 305.903 110.571 310.962 115.08C316.021 119.589 329.045 122.767 332.436 131.308C335.826 139.849 334.556 143.152 338.961 149.869C343.366 156.585 345.885 154.272 348.525 145.993C351.165 137.714 344.798 132.217 341.31 121.623C337.823 111.029 334.373 92.5959 334.373 92.5959C321.898 87.8582 320.821 86.6938 319.734 76.0122C318.647 65.3305 316.39 57.7868 313.069 52.9748C309.747 48.1628 311.11 30.3168 312.585 22.272C314.061 14.2272 317.575 0.293306 317.951 -3.98035C318.328 -8.25401 315.364 -9.31394 313.325 -14.4374C311.286 -19.5609 316.58 -33.1328 318.316 -38.4707C320.052 -43.8086 324 -61.3287 324.635 -67.2787C325.27 -73.2286 314.761 -81.152 311.091 -72.3586Z" fill="#939960"/>
<path d="M244.547 459.437C240.057 462.089 234.686 453.69 232.625 451.685C224.246 443.544 207.097 434.411 204.378 426.186C201.66 417.961 201.974 393.565 199.519 384.162C197.064 374.759 216.165 375.126 216.165 375.126C215.138 379.732 223.852 389.324 225.579 393.131C227.305 396.937 224.405 397.482 220.605 403.643C220.605 403.643 229.368 412.825 229.864 418.781C230.359 424.737 234.558 437.159 237.947 441.452C241.336 445.745 249.037 456.785 244.547 459.437Z" fill="#939960"/>
<path d="M392.426 19.6673C383.913 27.1797 374.998 30.3874 374.329 40.4726C373.66 50.5578 363.748 53.5577 357.676 64.4572C351.604 75.3567 350.173 84.0425 350.949 85.8653C351.725 87.6881 363.011 90.3936 366.461 88.4111C369.911 86.4286 369.787 81.9535 376.512 80.1705C383.238 78.3875 376.554 92.849 375.085 99.2679C373.616 105.687 377.219 122.828 374.195 130.821C371.171 138.813 384.98 138.131 387.443 128.324C389.905 118.517 384.898 115.163 389.556 99.8145C394.214 84.4664 406.247 65.0649 406.406 58.8632C406.565 52.6614 414.738 34.1891 420.316 29.7411C425.894 25.2931 420.38 22.399 411.49 22.7518C402.6 23.1046 398.851 23.1265 392.426 19.6673Z" fill="#939960"/>
<path d="M437.113 169.941C441.772 160.115 441.88 153.868 441.36 140.371C440.84 126.874 448.751 128.962 447.317 119.861C445.884 110.76 453.571 108.852 453.119 97.981C452.668 87.1103 457.185 66.2737 464.285 60.7157C471.385 55.1577 481.957 48.4768 486.725 39.4804C489.306 34.5758 497.818 25.0932 500.521 -0.109634C501.233 -6.82783 514.841 -15.1581 515.091 -17.8984C515.623 -23.9328 505.643 -20.5419 501.008 -18.4784C488.148 -12.7657 486.697 1.85001 482.646 10.1623C478.596 18.4746 459.885 26.2745 457.207 29.0838C454.53 31.8931 452.089 39.5512 451.934 45.5177C451.78 51.4842 440.687 55.5857 436.463 67.6065C432.239 79.6273 431.516 84.2691 433.256 91.3409C434.997 98.4126 426.943 104.938 421.749 114.946C416.554 124.955 414.854 135.417 417.057 143.543C419.26 151.669 412.295 176.873 413.391 183.497C414.487 190.121 419.815 186.114 423.489 180.718C427.163 175.322 431.367 171.457 437.113 169.941Z" fill="#939960"/>
</g>
</svg>
