<svg width="452" height="721" viewBox="0 0 452 721" fill="none" xmlns="http://www.w3.org/2000/svg">
<mask id="mask0_412_386" style="mask-type:alpha" maskUnits="userSpaceOnUse" x="-93" y="-106" width="479" height="943">
<path d="M89.9124 677.554C88.3659 687.828 86.4781 699.494 82.7266 701.716C78.9751 703.938 69.6653 704.111 72.5235 710.372C75.3817 716.634 66.3164 717.386 63.366 727.603C60.4155 737.819 52.9237 748.693 50.4571 753.89C47.9906 759.086 54.0715 768.845 52.6387 776.332C51.2059 783.82 43.0033 805.276 38.871 809.857C34.7386 814.438 30.0483 832.693 29.0378 836.269C43.4464 835.456 45.464 834.422 49.0108 823.404C52.5577 812.385 62.704 805.521 65.5354 798.359C68.3667 791.196 68.5769 792.885 67.6561 787.824C66.7353 782.763 80.3605 766.547 81.2817 757.785C82.2028 749.023 75.3996 743.153 85.0228 735.162C94.6461 727.172 105.826 708.913 108.049 702.722C110.272 696.53 113.04 687.691 113.04 687.691C106.162 679.891 95.1415 673.855 89.9124 677.554Z" fill="#939960"/>
<path d="M193.03 710.568C192.736 699.946 201.905 687.247 204.629 679.779C207.352 672.311 206.902 656.932 206.902 656.932C214.774 646.523 216.681 627.021 215.659 622.815C214.638 618.609 223.144 605.533 227.832 598.331C232.52 591.13 230.425 574.091 231.222 564.87C232.02 555.65 231.337 548.645 230.159 540.235C228.981 531.826 237.983 522.825 237.983 522.825C244.216 532.48 243.99 539.754 246.584 548.479C249.177 557.203 253.458 567.775 250.417 575.235C247.377 582.696 251.15 614.818 249.016 621.106C246.883 627.394 240.009 622.036 241.197 634.101C241.917 641.408 233.861 674.81 229.187 678.182C222.63 682.916 216.317 699.496 215.183 708.255C214.841 710.878 208.572 731.072 205.379 734.898C202.186 738.724 205.683 711.758 193.03 710.568Z" fill="#939960"/>
<path d="M275.469 53.8173C279.018 43.8007 292.144 35.2531 297.377 29.2681C302.611 23.283 307.716 8.76836 307.716 8.76836C318.807 1.88962 327.605 -15.6189 328.166 -19.9106C328.727 -24.2024 341.369 -33.3406 348.335 -38.3724C355.301 -43.4041 359.478 -60.0548 363.541 -68.3707C367.604 -76.6866 369.488 -83.4678 371.416 -91.7378C373.343 -100.008 384.982 -105.166 384.982 -105.166C387.322 -93.9138 384.493 -87.2083 383.778 -78.1328C383.062 -69.0574 383.246 -57.6558 377.724 -51.7897C372.202 -45.9236 364.156 -14.5981 359.902 -9.49932C355.649 -4.40057 351.17 -11.8717 347.93 -0.189651C345.972 6.88702 326.434 35.1512 320.865 36.6169C313.043 38.6736 301.186 51.8707 296.97 59.6317C295.712 61.9584 282.595 78.5427 278.234 80.9609C273.872 83.3792 286.841 59.4785 275.469 53.8173Z" fill="#939960"/>
<path d="M14.1546 401.97C18.3215 409.687 29.8575 423.887 32.5699 429.295C35.2824 434.702 30.4261 459.173 32.0752 466.77C33.7243 474.367 41.8041 478.587 41.5653 482.698C41.3264 486.809 33.9563 502.881 34.9383 511.939C35.9204 520.997 40.8665 546.229 43.5328 551.427C46.8375 557.876 48.4685 577.987 48.6568 588.124C48.8452 598.261 55.5887 599.023 60.275 583.547C64.9613 568.072 65.6288 550.101 64.5999 541.791C63.5709 533.48 62.89 519.186 63.1758 514.328C66.5739 520.902 71.2081 532.052 74.6224 532.06C78.0367 532.067 72.3412 525.739 72.8867 516.393C73.4322 507.047 75.6274 476.044 74.2108 467.712C72.7942 459.38 62.5761 440.237 58.0447 427.105C53.5132 413.973 33.2881 393.186 30.1712 386.021C27.0544 378.857 19.8464 368.423 19.8464 368.423C16.2354 369.007 12.5932 369.379 8.93867 369.537C11.5126 381.692 9.27003 392.934 14.1546 401.97Z" fill="#939960"/>
<path d="M44.6351 620.728C41.5069 631.544 40.6687 637.469 41.0002 642.758C41.3316 648.047 35.9673 668.07 31.8731 671.985C27.7788 675.9 15.0858 697.435 14.5229 704.526C13.9599 711.617 7.44908 726.881 1.8198 735.828C-3.80948 744.775 -21.4232 766.071 -20.7444 776.66C-20.0656 787.249 -12.7823 779.207 -7.50221 772.648C-2.22208 766.088 19.2555 743.708 24.2034 738.585C29.1513 733.463 29.9978 724.518 31.6039 716.134C33.2101 707.751 33.5154 703.889 38.2024 701.94C42.8895 699.992 54.5102 693.878 54.5102 693.878C55.9085 688.977 63.1787 649.737 63.014 642.239C62.8493 634.741 66.4713 617.722 67.1423 614.018C58.3835 619.33 46.4438 621.863 44.6351 620.728Z" fill="#939960"/>
<path d="M91.1042 520.207C92.2153 529.993 88.2579 543.698 89.8832 550.134C91.5085 556.57 89.6925 570.231 89.1067 578.957C88.2959 591.05 87.5167 594.991 86.9009 606.999C86.3441 617.965 91.8839 622.744 98.0733 619.248C103.988 622.488 114.59 630.204 114.59 630.204C117.719 618.441 122.016 614.774 121.469 609.143C120.921 603.512 116.552 599.952 118.253 586.155C119.954 572.358 123.377 562.379 120.788 551.783C118.2 541.188 124.263 515.574 125.675 507.39C127.087 499.207 126.622 464.335 125.873 454.936C125.123 445.538 120.227 426.601 114.465 419.619C108.703 412.636 100.486 419.421 101.582 429.583C102.677 439.746 107.11 451.544 105.99 460.495C104.869 469.445 101.355 472.295 102.482 481.693C103.609 491.091 98.5618 513.392 91.1042 520.207Z" fill="#939960"/>
<path d="M149.679 465.812C150.723 471.327 156.255 478.995 155.519 486.845C154.782 494.694 149.177 508.146 153.305 509.989C157.432 511.832 156.725 523.404 154.673 531.704C152.622 540.003 150.53 556.931 152.629 565.581C155.37 576.861 151.455 588.713 151.401 591.25C157.094 600.982 146.448 612.466 147.94 617.337C149.432 622.208 151.304 627.012 150.422 635.359C149.54 643.707 142.549 670.06 141.297 679.952C140.046 689.844 133.105 704.653 129.836 708.711C126.568 712.769 121.019 724.576 121.4 729.052C121.781 733.527 108.218 738.566 107.802 743.272C107.385 747.977 121.968 742.755 129.063 734.634C136.158 726.513 134.838 724.254 142.574 721.215C150.31 718.176 159.427 715.757 158.046 708.166C156.665 700.574 152.055 703.029 155.486 694.857C158.917 686.685 169.926 676.239 170.856 669.01C171.786 661.781 169.188 660 171.516 652.828C173.844 645.656 183.621 627.056 183.828 615.025C184.034 602.995 177.998 588.658 181.397 577.901C184.796 567.145 182.291 545.652 181.314 538.498C180.336 531.344 185.61 533.645 186.827 541.656C188.043 549.668 194.896 558.473 194.982 562.668C195.068 566.863 194.116 577.041 194.04 585.761C193.963 594.48 200.96 588.9 201.438 577.181C201.916 565.463 203.645 550.726 199.286 540.206C194.927 529.685 194.41 514.583 189.699 505.728C184.987 496.874 171.492 452.228 164.962 446.38C158.431 440.532 157.222 453.266 149.679 465.812Z" fill="#939960"/>
<path d="M144.75 348.334C141.147 356.714 136.708 359.825 138.433 363.528C140.158 367.231 154.425 374.818 156.473 379.853C158.52 384.889 165.001 390.692 173.365 392.571C181.729 394.451 170.828 405.31 173.023 409.944C175.218 414.578 187.182 415.387 191.899 431.089C196.616 446.79 198.303 454.31 200.252 465.29C202.201 476.269 207.048 503.87 207.048 503.87C213.861 500.379 220.458 499.403 220.851 492.245C221.244 485.088 220.028 467.449 220.001 460.218C228.041 450.991 226.344 438.79 219.703 431.256C213.063 423.721 208.917 398.345 203.006 387.963C197.095 377.581 180.562 367.835 178.525 362.834C176.489 357.834 182.107 350.31 179.149 345.116C176.191 339.922 166.531 341.469 163.535 331.595" fill="#939960"/>
<path d="M-63.7725 382.166C-59.6053 390.545 -41.4888 408.428 -39.0682 412.538C-36.6475 416.648 -29.3304 439.295 -26.4653 440.96C-23.6002 442.626 -13.6694 453.521 -8.65484 464.468C-3.64023 475.414 -6.45332 501.041 -5.43164 513.553C-4.40996 526.066 5.65237 542.05 9.08469 532.094C12.517 522.138 9.57397 514.603 11.0924 500.323C12.6108 486.042 14.0854 458.752 7.77284 449.843C1.46028 440.934 -8.69931 423.31 -16.0067 405.522C-23.3142 387.735 -35.052 385.456 -41.6233 370.55C-48.1946 355.644 -60.4424 359.292 -71.1253 352.481C-75.7543 349.518 -69.5956 370.514 -63.7725 382.166Z" fill="#939960"/>
<path d="M43.4595 285.258C42.8723 294.664 46.5279 307.777 51.3796 315.602C56.2314 323.427 61.9665 346.451 61.7674 353.821C61.5684 361.19 77.5519 366.558 85.3508 368.566C93.1498 370.574 101.535 388.372 103.139 394.841C113.005 386.237 120.224 385.019 114.936 378.167C109.649 371.315 104.064 369.745 102.204 359.296C100.344 348.847 85.5878 339.343 83.0821 332.372C80.5763 325.401 74.2077 300.855 72.6984 293.016C71.1892 285.178 72.3165 266.86 62.6135 253.91C52.9104 240.961 55.7568 245.628 57.0727 224.175C58.3886 202.722 50.8051 185.249 45.9706 182.472C41.1361 179.694 32.8289 183.523 34.8304 192.458C36.8319 201.394 42.0612 223.286 39.996 228.21C37.9308 233.134 30.5504 236.99 34.8941 241.518C39.2377 246.046 55.8129 287.479 43.4595 285.258Z" fill="#939960"/>
<path d="M121.498 107.379C115.957 111.288 112.796 123.47 111.406 131.741C110.017 140.013 99.8793 151.05 99.8793 151.05C104.694 166.579 98.5393 176.024 99.0519 184.887C99.5645 193.749 102.481 200.183 96.0432 204.479C89.6054 208.775 94.2549 211.824 97.8989 222.344C101.543 232.863 103.409 250.73 102.762 254.585C102.114 258.441 112.727 267.869 115.169 271.39C117.61 274.91 118.413 290.624 121.744 303.071C125.076 315.517 136.788 329.954 137.609 314.873C138.429 299.792 133.768 300.278 133.988 293.523C134.207 286.769 140.917 275.577 137.874 270.391C134.83 265.206 130.169 259.755 128.708 250.595C127.248 241.434 132.442 225.857 130.206 216.067C127.97 206.277 125.147 197.736 124.452 189.131C123.758 180.526 131.879 165.319 132.224 153.063C132.57 140.808 136.516 126.063 140.457 120.76C144.397 115.456 146.514 104.507 146.514 104.507C139.267 105.269 124.737 105.095 121.498 107.379Z" fill="#939960"/>
<path d="M163.326 173.283C163.175 186.364 156.343 197.817 157.664 202.901C158.986 207.985 165.723 216.076 164.356 223.224C162.312 233.921 160.791 252.39 161.874 255.72C162.958 259.05 180.392 259.26 179.266 264.45C178.14 269.64 170.671 268.206 169.955 279.437C169.239 290.667 164.856 304.625 167.896 305.206C170.936 305.787 183.948 303.732 189.113 306.707C194.278 309.681 204.961 322.812 208.257 326.565C211.553 330.318 209.724 344.374 212.899 350.275C216.074 356.176 233.801 363.556 241.05 387.113C248.748 378.348 254.364 364.052 240.282 350.36C230.43 340.745 233.992 323.796 230.022 319.057C226.051 314.318 220.589 314.41 218.767 308.946C216.945 303.482 214.762 295.678 207.631 284.935C200.5 274.192 201.114 266.611 198.041 258.659C194.969 250.707 199.071 251.758 191.617 238.248C184.162 224.738 187.325 209.706 183.105 201.791C178.884 193.876 176.223 182.284 177.609 172.033C179.279 159.716 190.106 141.167 176.266 141.929C172.322 142.149 163.499 160.524 163.326 173.283Z" fill="#939960"/>
<path d="M-19.3573 569.669C-9.68486 571.47 1.29342 568.76 1.29342 568.76C4.46493 592.02 7.83618 610.386 9.72465 619.224C11.6131 628.062 6.04569 635.895 3.84899 643.866C1.65229 651.837 -3.83761 676.145 -4.88016 683.457C-5.92271 690.769 -17.9549 700.801 -24.8478 704.372C-31.7407 707.943 -37.4371 709.818 -40.4254 709.696C-43.4137 709.574 -43.4821 701.861 -39.9972 699.201C-36.5124 696.542 -25.2548 695.972 -23.643 684.098C-22.0313 672.223 -21.3084 653.702 -21.3512 654.751C-31.4463 672.561 -38.6781 676.124 -44.3885 682.901C-50.0988 689.678 -58.9883 705.436 -65.6205 711.469C-72.2527 717.503 -86.6455 717.123 -92.9957 716.514C-84.887 698.568 -83.5553 691.815 -77.611 683.997C-71.6666 676.179 -60.7753 666.078 -57.7401 660.626C-54.705 655.174 -54.4185 639.032 -50.3479 631.137C-46.2774 623.243 -27.4635 612.098 -24.9683 606.065C-22.4731 600.032 -19.023 579.85 -19.3573 569.669Z" fill="#939960"/>
<path d="M236.965 286.852C240.303 295.577 256.517 315.045 258.518 319.358C260.519 323.671 265.636 346.891 268.312 348.813C270.988 350.734 279.772 362.493 283.699 373.851C287.626 385.21 282.46 410.466 282.304 423.018C282.148 435.57 290.584 452.407 294.905 442.81C299.226 433.213 297.022 425.441 299.85 411.362C302.678 397.283 306.682 370.248 301.279 360.798C295.875 351.349 287.489 332.869 281.937 314.489C276.384 296.109 265.001 292.762 259.908 277.318C254.815 261.875 242.384 264.383 232.472 256.621C228.182 253.247 232.309 274.717 236.965 286.852Z" fill="#939960"/>
<path d="M294.606 638.176C287.003 645.952 284.868 651.824 280.968 664.756C277.068 677.688 270.268 673.139 268.662 682.211C267.056 691.283 259.167 690.587 256.056 701.013C252.946 711.439 241.895 729.672 233.373 732.617C224.851 735.563 212.681 738.44 205.245 745.396C201.193 749.191 190.037 755.384 179.302 778.34C176.443 784.461 160.865 787.91 159.741 790.426C157.276 795.954 167.816 795.995 172.87 795.557C186.89 794.334 193.017 780.986 199.551 774.449C206.085 767.913 226.317 766.614 229.763 764.829C233.209 763.044 238.009 756.597 240.096 751.005C242.184 745.414 254.007 745.145 261.912 735.158C269.817 725.171 272.012 721.006 272.668 713.753C273.323 706.499 283.061 702.95 291.229 695.181C299.396 687.412 304.409 678.062 304.97 669.662C305.531 661.261 320.317 639.695 321.436 633.075C322.556 626.454 316.214 628.51 310.984 632.417C305.754 636.324 300.532 638.612 294.606 638.176Z" fill="#939960"/>
<path d="M-85.1689 130.681C-86.5922 141.371 -86.8679 149.072 -80.7453 155.351C-78.6867 157.462 -77.9471 156.215 -74.4448 159.631C-70.9424 163.046 -71.6008 170.642 -67.3015 180.532C-63.0021 190.422 -62.4934 207.587 -54.5828 212.897C-46.6722 218.206 -48.4431 229.912 -46.2445 236.72C-44.0459 243.527 -26.3444 261.295 -22.6533 269.026C-18.9622 276.758 -16.1881 292.943 -14.9226 298.958C-13.6571 304.973 -8.95426 316.447 -6.2482 323.536C-3.54214 330.624 -2.07294 340.838 -2.8408 342.369C9.12191 336.868 13.5273 331.405 8.67969 319.392C3.83209 307.379 2.98134 301.833 3.05377 290.854C3.1262 279.874 0.295997 274.557 -1.31058 268.337C-2.91716 262.116 6.83926 272.867 9.19621 279.741C11.5532 286.614 14.1203 297.669 17.4372 302.64C20.754 307.611 26.5252 301.795 23.1308 293.156C19.7363 284.518 13.5042 259.885 9.12065 254.676C4.73706 249.466 -1.38613 243.272 -3.12597 237.651C-4.8658 232.03 -7.66831 223.453 -9.33067 219.268C-10.993 215.084 -16.1017 213.32 -20.9089 208.22C-25.716 203.12 -28.5359 187.698 -30.1425 181.478C-44.9039 178.373 -44.7609 168.803 -49.9976 159.788C-55.2343 150.772 -57.0622 138.776 -69.1155 130.414C-77.9007 124.32 -84.1289 119.293 -84.1289 119.293C-84.4918 123.442 -84.535 125.898 -85.1689 130.681Z" fill="#939960"/>
<path d="M67.2398 -20.3775C60.6116 -18.9446 52.9413 -8.96674 48.4298 -1.89614C43.9183 5.17446 30.2735 11.3726 30.2735 11.3726C28.6369 27.5483 19.2803 33.8363 16.2886 42.1945C13.2969 50.5527 13.4674 57.6143 5.86249 59.0531C-1.74245 60.4918 1.34589 65.1151 0.588909 76.2223C-0.168071 87.3295 -5.43245 104.505 -7.53528 107.8C-9.63812 111.096 -3.55341 123.922 -2.68206 128.117C-1.81071 132.311 -7.21268 147.09 -9.01039 159.848C-10.8081 172.607 -5.66885 190.473 0.980008 176.912C7.62887 163.35 3.14812 161.977 5.99035 155.845C8.83258 149.713 19.3822 142.033 18.6074 136.071C17.8325 130.109 15.672 123.27 17.9075 114.267C20.1431 105.264 31.0124 92.956 32.7798 83.0707C34.5472 73.1855 35.2865 64.2203 38.01 56.0283C40.7336 47.8363 54.152 37.012 59.2597 25.8661C64.3675 14.7201 73.7621 2.6904 79.4617 -0.651596C85.1613 -3.99359 91.3886 -13.2448 91.3886 -13.2448C84.4203 -15.3756 71.1135 -21.2136 67.2398 -20.3775Z" fill="#939960"/>
<path d="M56.0954 153.46C51.215 151.857 53.9466 142.271 54.0931 139.4C54.6797 127.733 50.3054 108.846 54.6311 101.361C58.9568 93.8765 77.2281 77.9464 82.5976 69.878C87.967 61.8097 100.102 76.3497 100.102 76.3497C96.0239 78.6331 94.5799 91.5113 92.8817 95.3257C91.1835 99.1402 88.8969 97.3303 81.866 98.5693C81.866 98.5693 80.7573 111.212 76.6682 115.53C72.5792 119.847 66.1067 131.221 65.1282 136.602C64.1498 141.983 60.9758 155.064 56.0954 153.46Z" fill="#939960"/>
<path d="M278.519 -83.3294C268.92 -80.4986 253.15 -85.2161 250.736 -80.9711C248.321 -76.7262 232.679 -69.6983 226.571 -69.0326C220.464 -68.367 215.202 -67.9664 204.825 -61.3347C194.448 -54.703 195.518 -48.1331 187.607 -44.7225C179.695 -41.3119 180.62 -51.7946 168.608 -42.2168C156.596 -32.6389 148.91 -22.3661 148.513 -19.6226C148.116 -16.879 149.588 -0.441959 144.507 4.72318C139.427 9.88831 133.267 27.6512 132.957 34.4261C132.648 41.2009 138.373 53.311 133.874 61.3108C129.376 69.3106 126.015 70.4049 123.575 78.0506C121.135 85.6964 124.531 86.2218 132.603 83.0462C140.675 79.8706 140.953 71.4924 146.978 62.1173C153.002 52.7421 165.154 38.4946 165.154 38.4946C160.976 25.8174 161.205 24.2528 168.809 16.6882C176.413 9.12354 180.854 2.63579 182.514 -2.94888C184.175 -8.53355 198.865 -18.7209 206.038 -22.6324C213.211 -26.5439 226.241 -32.5693 229.792 -34.9681C233.343 -37.367 232.303 -40.3323 235 -45.1333C237.697 -49.9343 251.557 -54.3625 256.793 -56.3696C262.028 -58.3768 278.113 -66.3239 283.131 -69.5713C288.149 -72.8188 287.654 -86.0066 278.519 -83.3294Z" fill="#939960"/>
<path d="M191.48 111.691C198.607 102.357 198.167 89.9111 202.479 86.3456C206.791 82.78 213.002 81.3078 213.002 81.3078C215.79 71.1185 217.746 52.1612 225.566 47.6763C233.386 43.1913 239.178 40.013 247.369 27.4601C255.561 14.9072 273.662 -5.84949 281.126 -8.86036C288.59 -11.8712 302.14 -7.80717 308.941 -14.4351C315.742 -21.0631 321.614 -28.2936 328.71 -32.5167C335.807 -36.7398 341.335 -40.5143 345.772 -44.202C349.429 -47.2433 361.622 -53.7198 367.588 -54.9824C373.554 -56.2451 363.26 -66.6656 352.151 -61.8474C341.042 -57.0292 341.266 -56.8489 335.065 -61.1503C321.254 -53.9061 315.002 -47.0911 309.533 -44.386C304.064 -41.6809 304.922 -43.2216 297.557 -42.5903C290.191 -41.959 286.05 -37.7937 278.219 -30.6312C270.388 -23.4687 262.851 -18.4796 252.091 -12.4539C241.33 -6.4282 230.775 4.3668 225.309 12.0411C219.843 19.7155 209.302 25.155 205.545 29.7321C201.789 34.3092 204.117 40.5819 200.391 49.3323C196.665 58.0827 193.182 50.9614 187.046 60.3899C180.909 69.8184 179.88 88.8247 177.261 94.7839C174.642 100.743 168.484 112.733 168.484 112.733C174.899 117.299 186.302 118.458 191.48 111.691Z" fill="#939960"/>
</mask>
<g mask="url(#mask0_412_386)">
<rect y="0.165039" width="439" height="720" fill="#939960"/>
</g>
</svg>
