<?xml version="1.0" encoding="UTF-8"?>
<svg id="Livello_2" data-name="Livello 2" xmlns="http://www.w3.org/2000/svg" viewBox="0 0 168.89 168.89">
  <defs>
    <style>
      .cls-1, .cls-2 {
        fill: #023a2f;
      }

      .cls-3 {
        opacity: .5;
      }

      .cls-2 {
        font-family: Rubik-Medium, Rubik;
        font-size: 48px;
      }
    </style>
  </defs>
  <g id="Livello_1-2" data-name="Livello 1">
    <g>
      <g>
        <g class="cls-3">
          <path class="cls-1" d="M84.45,136.34c-28.66,0-51.89-23.23-51.89-51.89s23.23-51.89,51.89-51.89V.19c46.61,0,84.39,37.76,84.44,84.35,0-.03,0-.06,0-.1C168.89,37.81,131.09,0,84.45,0S0,37.81,0,84.45s37.81,84.45,84.45,84.45c18.29,0,35.21-5.83,49.03-15.71l-18.94-26.47c-8.49,6.06-18.87,9.63-30.1,9.63Z"/>
        </g>
        <path class="cls-1" d="M168.89,84.54C168.84,37.95,131.05,.19,84.45,.19V32.55c28.66,0,51.89,23.23,51.89,51.89,0,17.44-8.61,32.85-21.8,42.26l18.94,26.47c20.33-14.53,33.95-37.82,35.31-64.37v-.03c.07-1.4,.11-2.81,.11-4.23Z"/>
      </g>
      <text class="cls-2" transform="translate(68.94 100.53)"><tspan x="0" y="0">2</tspan></text>
    </g>
  </g>
</svg>