<?xml version="1.0" encoding="UTF-8"?>
<svg id="Livello_2" data-name="Livello 2" xmlns="http://www.w3.org/2000/svg" viewBox="0 0 168.89 168.89">
  <defs>
    <style>
      .cls-1, .cls-2 {
        fill: #023a2f;
      }

      .cls-3 {
        opacity: .5;
      }

      .cls-4 {
        fill: none;
      }

      .cls-2 {
        font-family: Rubik-Medium, Rubik;
        font-size: 48px;
      }
    </style>
  </defs>
  <g id="Livello_1-2" data-name="Livello 1">
    <g>
      <text class="cls-2" transform="translate(68.63 102.21)"><tspan x="0" y="0">3</tspan></text>
      <path class="cls-4" d="M32.55,84.45c0,17.14,8.31,32.33,21.12,41.78l30.47-41.94V32.56c-28.52,.17-51.58,23.33-51.58,51.89Z"/>
      <g class="cls-3">
        <path class="cls-1" d="M76.07,168.48c-.16-.02-.32-.03-.48-.05,.16,.02,.32,.03,.48,.05Z"/>
      </g>
      <g class="cls-3">
        <path class="cls-1" d="M88.03,.09c.71,.03,1.42,.08,2.12,.12-.71-.05-1.41-.09-2.12-.12Z"/>
      </g>
      <g class="cls-3">
        <path class="cls-1" d="M96.24,.84c.43,.06,.87,.11,1.3,.18-.43-.07-.86-.12-1.3-.18Z"/>
      </g>
      <g class="cls-3">
        <path class="cls-1" d="M67.98,167.28c-1.04-.21-2.07-.44-3.1-.69,1.03,.24,2.06,.48,3.1,.69Z"/>
      </g>
      <g class="cls-3">
        <path class="cls-1" d="M71.97,167.97c-.17-.03-.34-.04-.51-.07,.17,.03,.34,.05,.51,.07Z"/>
      </g>
      <g class="cls-3">
        <path class="cls-1" d="M84.45,0s-.09,0-.13,0c.37,0,.73,.02,1.1,.02-.32,0-.64-.02-.97-.02Z"/>
      </g>
      <g class="cls-3">
        <path class="cls-1" d="M91.84,.34c.69,.06,1.39,.12,2.07,.2-.69-.08-1.38-.14-2.07-.2Z"/>
      </g>
      <g class="cls-3">
        <path class="cls-1" d="M84.45,168.89c.38,0,.76-.02,1.14-.03-.42,0-.85,.02-1.27,.03,.05,0,.09,0,.14,0Z"/>
      </g>
      <g class="cls-3">
        <path class="cls-1" d="M80.17,168.79c-.07,0-.13,0-.2-.01,.07,0,.13,0,.2,.01Z"/>
      </g>
      <g class="cls-3">
        <path class="cls-1" d="M53.67,126.22c-12.81-9.45-21.12-24.64-21.12-41.78,0-28.56,23.07-51.72,51.58-51.89V0C37.64,.18,0,37.91,0,84.45c0,39.89,27.67,73.3,64.85,82.14-10.58-2.57-20.84-7.27-30.26-14.11l19.07-26.25Z"/>
      </g>
      <g class="cls-3">
        <path class="cls-1" d="M133.68,152.48c-14.04,10.2-29.97,15.64-46.03,16.34,45.15-1.69,81.24-38.8,81.24-84.37,0-22.31-8.67-42.59-22.8-57.69,8.02,8.75,14.27,19.38,18.21,31.48,11.51,35.42-.49,72.35-30.62,94.24Z"/>
      </g>
      <path class="cls-1" d="M71.46,167.9c-1.17-.18-2.33-.39-3.48-.62,1.16,.23,2.32,.44,3.48,.62Z"/>
      <path class="cls-1" d="M75.59,168.43c-1.21-.13-2.42-.28-3.62-.46,1.2,.18,2.41,.33,3.62,.46Z"/>
      <path class="cls-1" d="M79.97,168.77c-1.31-.07-2.61-.17-3.9-.3,1.3,.13,2.6,.23,3.9,.3Z"/>
      <path class="cls-1" d="M84.31,168.89c-1.39,0-2.77-.04-4.14-.1,1.38,.07,2.76,.11,4.14,.1Z"/>
      <path class="cls-1" d="M85.41,.02c.87,0,1.74,.03,2.61,.07-.87-.04-1.74-.05-2.61-.07Z"/>
      <path class="cls-1" d="M146.09,26.76C133.52,13.03,116.61,3.93,97.53,1.01c19.04,2.96,35.97,12.3,48.56,25.75Z"/>
      <path class="cls-1" d="M85.58,168.86c.69-.01,1.38-.02,2.07-.05-.69,.03-1.38,.04-2.07,.05Z"/>
      <path class="cls-1" d="M84.14,0h0c.06,0,.12,0,.18,0-.06,0-.12,0-.18,0Z"/>
      <path class="cls-1" d="M93.92,.54c.78,.09,1.55,.19,2.32,.29-.77-.11-1.54-.21-2.32-.29Z"/>
      <path class="cls-1" d="M64.88,166.59h0Z"/>
      <path class="cls-1" d="M90.15,.21c.57,.04,1.13,.08,1.69,.13-.56-.05-1.13-.09-1.69-.13Z"/>
      <path class="cls-1" d="M133.68,152.48c30.13-21.89,42.13-58.82,30.62-94.24-3.93-12.1-10.19-22.73-18.21-31.48C133.5,13.31,116.58,3.98,97.53,1.01c-.43-.07-.86-.12-1.3-.18-.77-.11-1.54-.21-2.32-.29-.69-.08-1.38-.14-2.07-.2-.56-.05-1.13-.09-1.69-.13-.71-.05-1.41-.09-2.12-.12-.87-.04-1.74-.06-2.61-.07-.37,0-.73-.02-1.1-.02-.06,0-.12,0-.18,0V32.56c.1,0,.21,0,.31,0,28.66,0,51.89,23.23,51.89,51.89s-23.23,51.89-51.89,51.89c-11.52,0-22.17-3.76-30.78-10.12l-19.07,26.25c9.41,6.84,19.68,11.54,30.26,14.11h.03c1.03,.26,2.06,.48,3.1,.69,1.15,.23,2.31,.44,3.48,.62,.17,.03,.34,.05,.51,.07,1.2,.18,2.4,.33,3.62,.46,.16,.02,.32,.03,.48,.05,1.29,.13,2.59,.23,3.9,.3,.07,0,.13,0,.2,.01,1.37,.07,2.75,.1,4.14,.1,.43,0,.85-.02,1.27-.03,.69,0,1.38-.03,2.07-.05,16.06-.69,31.99-6.14,46.03-16.34Z"/>
    </g>
  </g>
</svg>