<?xml version="1.0" encoding="UTF-8"?>
<svg id="Livello_2" data-name="Livello 2" xmlns="http://www.w3.org/2000/svg" viewBox="0 0 169.8 169.8">
  <defs>
    <style>
      .cls-1 {
        fill: #fff;
      }

      .cls-2, .cls-3 {
        fill: #023a2f;
      }

      .cls-4 {
        opacity: .5;
      }

      .cls-3 {
        font-family: Rubik-Medium, Rubik;
        font-size: 48px;
      }
    </style>
  </defs>
  <g id="Livello_1-2" data-name="Livello 1">
    <g>
      <text class="cls-3" transform="translate(66.91 100.98)"><tspan x="0" y="0">4</tspan></text>
      <g>
        <path class="cls-2" d="M157.33,40.61C143.85,18.02,120.93,3.29,94.18,.52c26.74,2.91,49.75,18.23,63.15,40.09Z"/>
        <path class="cls-2" d="M169.79,85.08c-.03,14.25-3.58,27.66-9.81,39.44,6.49-12.07,9.88-25.55,9.81-39.44Z"/>
        <path class="cls-2" d="M90.9,.23c.6,.04,1.2,.08,1.79,.14-.59-.05-1.19-.1-1.79-.14Z"/>
        <path class="cls-2" d="M9.82,124.53C3.59,112.75,.04,99.33,0,85.09c-.07,13.89,3.32,27.37,9.81,39.44Z"/>
        <g class="cls-4">
          <path class="cls-2" d="M169.79,85.08c0-.06,0-.12,0-.19,0-16.23-4.56-31.4-12.46-44.29,3.3,5.53,6.05,11.53,8.13,17.95,2.87,8.83,4.28,17.76,4.32,26.52Z"/>
        </g>
        <g class="cls-4">
          <path class="cls-2" d="M92.69,.37c.5,.04,1,.09,1.5,.14-.5-.05-1-.1-1.5-.14Z"/>
        </g>
        <g class="cls-4">
          <path class="cls-2" d="M134.69,153.27c-30.28,22-69.31,22-99.59,0-10.86-7.89-19.36-17.73-25.29-28.75,14.24,26.92,42.51,45.27,75.08,45.27s60.84-18.35,75.08-45.27c-5.92,11.01-14.43,20.85-25.29,28.75Z"/>
        </g>
        <g class="cls-4">
          <path class="cls-2" d="M35.3,68.62c6.84-20.86,26.46-35.93,49.6-35.93V.02c2.02,0,4.02,.08,6,.21-1.98-.14-3.98-.23-6-.23C38.01,0,0,38.01,0,84.9c0,.06,0,.12,0,.19,.04-8.77,1.45-17.69,4.32-26.53l30.97,10.06Z"/>
        </g>
        <path class="cls-2" d="M165.47,58.56c-2.09-6.42-4.83-12.42-8.13-17.95C143.94,18.75,120.93,3.43,94.18,.52c-.5-.05-1-.1-1.5-.14-.59-.05-1.19-.09-1.79-.14-1.98-.13-3.98-.21-6-.21V32.7c28.83,0,52.2,23.37,52.2,52.2s-23.37,52.2-52.2,52.2-52.2-23.37-52.2-52.2c0-5.69,.92-11.15,2.6-16.28L4.33,58.56C1.46,67.39,.05,76.32,0,85.09c.03,14.25,3.58,27.66,9.81,39.44,5.92,11.01,14.43,20.86,25.29,28.75,30.28,22,69.31,22,99.59,0,10.86-7.89,19.36-17.73,25.29-28.75,6.23-11.78,9.78-25.2,9.81-39.44-.04-8.77-1.45-17.69-4.32-26.52Z"/>
        <path class="cls-1" d="M84.82,84.89c-.11,0-.22,0-.34,0-.04,0-.09,0-.13,0,.15,0,.31,0,.46,0h0Z"/>
        <path class="cls-1" d="M85.45,84.91c-.16,0-.32,0-.48-.01h-.07c.18,0,.37,0,.55,.01Z"/>
        <path class="cls-1" d="M84.97,84.9h.02c-.06,0-.11,0-.17,0,.05,0,.1,0,.15,0Z"/>
        <path class="cls-1" d="M84.81,84.9s.06,0,.09,0h-.09Z"/>
        <path class="cls-1" d="M84.81,84.89h.16s-.1,0-.15,0h0Z"/>
      </g>
    </g>
  </g>
</svg>