<svg width="250" height="380" viewBox="0 0 250 380" fill="none" xmlns="http://www.w3.org/2000/svg">
<g clip-path="url(#clip0_361_437)">
<path d="M139.52 315.67C138.64 322.27 128.65 329.92 114.18 332.97C98.3373 336.1 82.0394 336.144 66.18 333.1C50.66 329.94 39.51 324.46 39.51 317.36V232.94C39.51 240.04 50.05 246.21 65.57 249.37C73.3671 250.923 81.2998 251.693 89.25 251.67L139.52 232.99V315.67Z" fill="#FFFBF3" stroke="#023A2F" stroke-width="3.5" stroke-linecap="round" stroke-linejoin="round"/>
<path d="M103.67 232.94C103.67 236.6 97.22 239.56 89.25 239.56C81.28 239.56 74.82 236.56 74.82 232.94C74.82 229.32 81.28 226.32 89.25 226.32C97.22 226.32 103.67 229.28 103.67 232.94ZM39.52 232.94C39.52 240.04 50.06 246.21 65.58 249.37C81.4393 252.416 97.7375 252.371 113.58 249.24C128.75 246.04 139 239.94 139 232.94C139 222.62 116.73 214.26 89.27 214.26C61.81 214.26 39.52 222.67 39.52 232.94Z" fill="#FFFBF3" stroke="#023A2F" stroke-width="3.5" stroke-linecap="round" stroke-linejoin="round"/>
<path d="M213.78 332.06C212.9 338.66 202.91 346.31 188.44 349.36C172.597 352.49 156.299 352.534 140.44 349.49C124.92 346.33 113.77 340.85 113.77 333.75V249.29C113.77 256.39 124.31 262.56 139.77 265.72C147.569 267.255 155.502 268.009 163.45 267.97L213.72 249.29L213.78 332.06Z" fill="#FFFBF3" stroke="#023A2F" stroke-width="3.5" stroke-linecap="round" stroke-linejoin="round"/>
<path d="M177.93 249.29C177.93 252.95 171.48 255.91 163.51 255.91C155.54 255.91 149.08 252.91 149.08 249.29C149.08 245.67 155.54 242.67 163.51 242.67C171.48 242.67 177.93 245.67 177.93 249.29ZM113.78 249.29C113.78 256.39 124.32 262.56 139.78 265.72C155.639 268.764 171.937 268.72 187.78 265.59C202.95 262.39 213.2 256.29 213.2 249.29C213.2 238.97 190.93 230.61 163.47 230.61C136.01 230.61 113.78 238.97 113.78 249.29Z" fill="#FFFBF3" stroke="#023A2F" stroke-width="3.5" stroke-linecap="round" stroke-linejoin="round"/>
<path d="M43.95 139.22C43.95 146.32 54.48 152.5 69.95 155.66C77.7463 157.19 85.675 157.944 93.62 157.91C101.787 157.95 109.937 157.149 117.94 155.52C133.1 152.33 143.35 146.22 143.35 139.22C143.35 128.91 121.09 120.54 93.62 120.54C66.15 120.54 43.95 128.91 43.95 139.22ZM108.1 139.22C108.1 142.88 101.64 145.85 93.67 145.85C85.7 145.85 79.25 142.85 79.25 139.22C79.25 135.59 85.71 132.6 93.67 132.6C101.63 132.6 108.1 135.57 108.1 139.22V139.22Z" fill="#FFFBF3" stroke="#023A2F" stroke-width="3.5" stroke-linecap="round" stroke-linejoin="round"/>
<path d="M93.67 132.6C101.67 132.6 108.1 135.6 108.1 139.22C108.1 142.84 101.64 145.85 93.67 145.85C85.7 145.85 79.25 142.85 79.25 139.22C79.25 135.59 85.71 132.6 93.67 132.6Z" stroke="#023A2F" stroke-width="3.5" stroke-linecap="round" stroke-linejoin="round"/>
<path d="M43.95 139.22C43.95 146.32 54.48 152.5 69.95 155.66C77.7463 157.191 85.675 157.944 93.62 157.91H158.21C159.187 157.91 160.124 158.298 160.816 158.987C161.507 159.677 161.897 160.613 161.9 161.59V238.67C161.9 239.649 161.511 240.587 160.819 241.279C160.127 241.971 159.189 242.36 158.21 242.36H93.67C92.67 242.36 91.67 242.36 90.67 242.36C64.62 241.75 43.95 233.67 43.95 223.67V139.22Z" fill="#FFFBF3" stroke="#023A2F" stroke-width="3.5" stroke-linecap="round" stroke-linejoin="round"/>
<path d="M143.4 139.22V157.91H117.99V155.52C133.15 152.33 143.4 146.22 143.4 139.22Z" fill="#FFFBF3" stroke="#023A2F" stroke-width="3.5" stroke-linecap="round" stroke-linejoin="round"/>
<path d="M116.62 155.19C116.62 162.29 127.16 168.46 142.67 171.62C158.529 174.664 174.827 174.62 190.67 171.49C205.84 168.29 216.09 162.19 216.09 155.19C216.09 144.87 193.82 136.51 166.36 136.51C138.9 136.51 116.62 144.87 116.62 155.19ZM180.77 155.19C180.77 158.84 174.31 161.81 166.35 161.81C158.39 161.81 151.92 158.81 151.92 155.19C151.92 151.57 158.38 148.57 166.35 148.57C174.32 148.57 180.77 151.53 180.77 155.19Z" fill="#FFFBF3" stroke="#023A2F" stroke-width="3.5" stroke-linecap="round" stroke-linejoin="round"/>
<path d="M166.35 148.57C174.35 148.57 180.77 151.57 180.77 155.19C180.77 158.81 174.31 161.81 166.35 161.81C158.39 161.81 151.92 158.81 151.92 155.19C151.92 151.57 158.38 148.57 166.35 148.57Z" fill="#FFFBF3" stroke="#023A2F" stroke-width="3.5" stroke-linecap="round" stroke-linejoin="round"/>
<path d="M116.62 155.19C116.62 162.29 127.16 168.46 142.67 171.62C150.469 173.155 158.402 173.909 166.35 173.87H230.93C231.909 173.87 232.847 174.259 233.539 174.951C234.231 175.643 234.62 176.581 234.62 177.56V254.67C234.617 255.647 234.227 256.583 233.536 257.273C232.844 257.963 231.907 258.35 230.93 258.35H166.35C165.35 258.35 164.35 258.35 163.35 258.35C137.29 257.72 116.62 249.59 116.62 239.67V155.19Z" fill="#FFFBF3" stroke="#023A2F" stroke-width="3.5" stroke-linecap="round" stroke-linejoin="round"/>
<path d="M216.08 155.19V173.87H190.62V171.49C205.83 168.29 216.08 162.19 216.08 155.19Z" fill="#FFFBF3" stroke="#023A2F" stroke-width="3.5" stroke-linecap="round" stroke-linejoin="round"/>
<path d="M168.67 183.77V189.77C168.53 190.156 168.274 190.489 167.938 190.725C167.602 190.961 167.201 191.087 166.79 191.087C166.379 191.087 165.978 190.961 165.642 190.725C165.306 190.489 165.05 190.156 164.91 189.77V183.77C165.023 183.358 165.269 182.995 165.608 182.736C165.948 182.478 166.363 182.337 166.79 182.337C167.217 182.337 167.632 182.478 167.972 182.736C168.311 182.995 168.557 183.358 168.67 183.77V183.77ZM168.67 199.31V205.31C168.557 205.721 168.311 206.084 167.972 206.343C167.632 206.602 167.217 206.742 166.79 206.742C166.363 206.742 165.948 206.602 165.608 206.343C165.269 206.084 165.023 205.721 164.91 205.31V199.31C165.05 198.924 165.306 198.59 165.642 198.354C165.978 198.118 166.379 197.992 166.79 197.992C167.201 197.992 167.602 198.118 167.938 198.354C168.274 198.59 168.53 198.924 168.67 199.31ZM168.67 214.85V220.85C168.557 221.261 168.311 221.624 167.972 221.883C167.632 222.142 167.217 222.282 166.79 222.282C166.363 222.282 165.948 222.142 165.608 221.883C165.269 221.624 165.023 221.261 164.91 220.85V214.85C165.05 214.464 165.306 214.13 165.642 213.894C165.978 213.658 166.379 213.532 166.79 213.532C167.201 213.532 167.602 213.658 167.938 213.894C168.274 214.13 168.53 214.464 168.67 214.85ZM168.67 230.4V236.4C168.53 236.786 168.274 237.119 167.938 237.355C167.602 237.591 167.201 237.717 166.79 237.717C166.379 237.717 165.978 237.591 165.642 237.355C165.306 237.119 165.05 236.786 164.91 236.4V230.4C165.023 229.988 165.269 229.625 165.608 229.366C165.948 229.108 166.363 228.967 166.79 228.967C167.217 228.967 167.632 229.108 167.972 229.366C168.311 229.625 168.557 229.988 168.67 230.4V230.4ZM168.67 245.94V251.94C168.53 252.326 168.274 252.659 167.938 252.895C167.602 253.131 167.201 253.257 166.79 253.257C166.379 253.257 165.978 253.131 165.642 252.895C165.306 252.659 165.05 252.326 164.91 251.94V245.94C165.05 245.554 165.306 245.22 165.642 244.984C165.978 244.748 166.379 244.622 166.79 244.622C167.201 244.622 167.602 244.748 167.938 244.984C168.274 245.22 168.53 245.554 168.67 245.94Z" fill="#023A2F"/>
<path d="M69.62 256.1V262.1C69.4798 262.486 69.2242 262.82 68.8879 263.055C68.5515 263.291 68.1507 263.418 67.74 263.418C67.3292 263.418 66.9284 263.291 66.5921 263.055C66.2557 262.82 66.0001 262.486 65.86 262.1V256.1C66.0001 255.714 66.2557 255.38 66.5921 255.144C66.9284 254.909 67.3292 254.782 67.74 254.782C68.1507 254.782 68.5515 254.909 68.8879 255.144C69.2242 255.38 69.4798 255.714 69.62 256.1V256.1ZM69.62 271.67V277.67C69.5066 278.082 69.2613 278.445 68.9217 278.703C68.5821 278.962 68.1669 279.102 67.74 279.102C67.313 279.102 66.8979 278.962 66.5583 278.703C66.2187 278.445 65.9734 278.082 65.86 277.67V271.67C66.0001 271.284 66.2557 270.95 66.5921 270.714C66.9284 270.479 67.3292 270.352 67.74 270.352C68.1507 270.352 68.5515 270.479 68.8879 270.714C69.2242 270.95 69.4798 271.284 69.62 271.67V271.67ZM69.62 287.22V293.22C69.4798 293.606 69.2242 293.94 68.8879 294.175C68.5515 294.411 68.1507 294.538 67.74 294.538C67.3292 294.538 66.9284 294.411 66.5921 294.175C66.2557 293.94 66.0001 293.606 65.86 293.22V287.22C65.9734 286.808 66.2187 286.445 66.5583 286.187C66.8979 285.928 67.313 285.788 67.74 285.788C68.1669 285.788 68.5821 285.928 68.9217 286.187C69.2613 286.445 69.5066 286.808 69.62 287.22V287.22ZM69.62 302.76V308.76C69.4798 309.146 69.2242 309.48 68.8879 309.715C68.5515 309.951 68.1507 310.078 67.74 310.078C67.3292 310.078 66.9284 309.951 66.5921 309.715C66.2557 309.48 66.0001 309.146 65.86 308.76V302.76C66.0001 302.374 66.2557 302.04 66.5921 301.804C66.9284 301.569 67.3292 301.442 67.74 301.442C68.1507 301.442 68.5515 301.569 68.8879 301.804C69.2242 302.04 69.4798 302.374 69.62 302.76V302.76ZM69.62 318.31V324.31C69.5066 324.722 69.2613 325.085 68.9217 325.343C68.5821 325.602 68.1669 325.742 67.74 325.742C67.313 325.742 66.8979 325.602 66.5583 325.343C66.2187 325.085 65.9734 324.722 65.86 324.31V318.31C65.9734 317.898 66.2187 317.535 66.5583 317.277C66.8979 317.018 67.313 316.878 67.74 316.878C68.1669 316.878 68.5821 317.018 68.9217 317.277C69.2613 317.535 69.5066 317.898 69.62 318.31V318.31Z" fill="#023A2F"/>
<path d="M83.02 27.75C55.56 27.75 33.29 36.11 33.29 46.43C33.29 53.43 43.54 59.53 58.71 62.73C66.7102 64.3551 74.8565 65.1526 83.02 65.11C90.9685 65.1489 98.9011 64.3952 106.7 62.86C122.21 59.7 132.7 53.53 132.7 46.43C132.75 36.11 110.49 27.75 83.02 27.75ZM83.02 39.81C91.02 39.81 97.45 42.81 97.45 46.43C97.45 50.05 90.99 53.05 83.02 53.05C75.05 53.05 68.6 50.05 68.6 46.43C68.6 42.81 75.06 39.81 83.02 39.81Z" fill="#FFFBF3" stroke="#023A2F" stroke-width="3.5" stroke-linecap="round" stroke-linejoin="round"/>
<path d="M83.02 39.8101C75.02 39.8101 68.6 42.8101 68.6 46.4301C68.6 50.0501 75.06 53.0501 83.02 53.0501C90.98 53.0501 97.45 50.0501 97.45 46.4301C97.45 42.8101 90.99 39.8101 83.02 39.8101Z" stroke="#023A2F" stroke-width="3.5" stroke-linecap="round" stroke-linejoin="round"/>
<path d="M132.75 46.4302C132.75 53.5302 122.21 59.7002 106.75 62.8602C98.9511 64.3954 91.0185 65.1491 83.07 65.1102H18.44C17.4614 65.1102 16.5228 65.4989 15.8308 66.1909C15.1388 66.883 14.75 67.8215 14.75 68.8002V145.89C14.7526 146.867 15.1426 147.803 15.8343 148.493C16.526 149.183 17.4631 149.57 18.44 149.57H83.02C84.02 149.57 85.02 149.57 86.02 149.57C112.1 148.99 132.77 140.86 132.77 130.92L132.75 46.4302Z" fill="#FFFBF3" stroke="#023A2F" stroke-width="3.5" stroke-linecap="round" stroke-linejoin="round"/>
<path d="M33.29 46.4302V65.1102H58.71V62.7302C43.54 59.5302 33.29 53.4302 33.29 46.4302Z" fill="#FFFBF3" stroke="#023A2F" stroke-width="3.5" stroke-linecap="round" stroke-linejoin="round"/>
<path d="M82.62 73.5701C83.0586 73.5212 83.4992 73.6437 83.8496 73.912C84.2 74.1804 84.433 74.5739 84.5 75.0101V81.0101C84.3599 81.3962 84.1042 81.7298 83.7679 81.9656C83.4315 82.2013 83.0307 82.3278 82.62 82.3278C82.2092 82.3278 81.8085 82.2013 81.4721 81.9656C81.1357 81.7298 80.8801 81.3962 80.74 81.0101V75.0101C80.807 74.5739 81.04 74.1804 81.3904 73.912C81.7408 73.6437 82.1814 73.5212 82.62 73.5701V73.5701ZM82.62 89.1201C83.0571 89.0709 83.4964 89.1921 83.8466 89.4584C84.1967 89.7247 84.4307 90.1157 84.5 90.5501V96.5501C84.3866 96.9618 84.1413 97.3248 83.8017 97.5835C83.4621 97.8422 83.0469 97.9823 82.62 97.9823C82.1931 97.9823 81.7779 97.8422 81.4383 97.5835C81.0987 97.3248 80.8534 96.9618 80.74 96.5501V90.5501C80.8069 90.1146 81.0404 89.7221 81.3911 89.4553C81.7418 89.1885 82.1824 89.0684 82.62 89.1201V89.1201ZM82.62 104.67C83.0571 104.621 83.4964 104.742 83.8466 105.008C84.1967 105.275 84.4307 105.666 84.5 106.1V112.1C84.3866 112.512 84.1413 112.875 83.8017 113.134C83.4621 113.392 83.0469 113.532 82.62 113.532C82.1931 113.532 81.7779 113.392 81.4383 113.134C81.0987 112.875 80.8534 112.512 80.74 112.1V106.1C80.8069 105.665 81.0404 105.272 81.3911 105.005C81.7418 104.739 82.1824 104.618 82.62 104.67ZM82.62 120.22C83.0571 120.171 83.4964 120.292 83.8466 120.558C84.1967 120.825 84.4307 121.216 84.5 121.65V127.65C84.3599 128.036 84.1042 128.37 83.7679 128.606C83.4315 128.841 83.0307 128.968 82.62 128.968C82.2092 128.968 81.8085 128.841 81.4721 128.606C81.1357 128.37 80.8801 128.036 80.74 127.65V121.65C80.8046 121.213 81.037 120.818 81.388 120.549C81.739 120.28 82.1809 120.159 82.62 120.21V120.22ZM82.62 135.76C83.0571 135.711 83.4964 135.832 83.8466 136.098C84.1967 136.365 84.4307 136.756 84.5 137.19V143.19C84.3599 143.576 84.1042 143.91 83.7679 144.146C83.4315 144.381 83.0307 144.508 82.62 144.508C82.2092 144.508 81.8085 144.381 81.4721 144.146C81.1357 143.91 80.8801 143.576 80.74 143.19V137.19C80.8046 136.753 81.037 136.358 81.388 136.089C81.739 135.82 82.1809 135.699 82.62 135.75V135.76Z" fill="#023A2F"/>
<path d="M224.08 144.44C223.19 151.03 213.21 158.68 198.74 161.73C182.897 164.861 166.599 164.905 150.74 161.86C135.22 158.7 124.07 153.22 124.07 146.12V61.6704C124.07 68.7704 134.6 74.9404 150.07 78.1104C157.869 79.6412 165.802 80.3949 173.75 80.3604L224.08 61.6704V144.44Z" fill="#FFFBF3" stroke="#023A2F" stroke-width="3.5" stroke-linecap="round" stroke-linejoin="round"/>
<path d="M188.23 61.6702C188.23 65.3302 181.77 68.2902 173.81 68.2902C165.85 68.2902 159.38 65.2902 159.38 61.6702C159.38 58.0502 165.84 55.0502 173.81 55.0502C181.78 55.0502 188.23 58.0102 188.23 61.6702ZM124.08 61.6702C124.08 68.7702 134.61 74.9402 150.08 78.1102C157.879 79.641 165.812 80.3947 173.76 80.3602C181.924 80.4 190.07 79.5991 198.07 77.9702C213.24 74.7702 223.48 68.6702 223.48 61.6702C223.48 51.3502 201.22 42.9902 173.76 42.9902C146.3 42.9902 124.08 51.3402 124.08 61.6702Z" fill="#FFFBF3" stroke="#023A2F" stroke-width="3.5" stroke-linecap="round" stroke-linejoin="round"/>
</g>
<defs>
<clipPath id="clip0_361_437">
<rect width="223.37" height="327.49" fill="white" transform="translate(13 26)"/>
</clipPath>
</defs>
</svg>
