<svg width="250" height="380" viewBox="0 0 250 380" fill="none" xmlns="http://www.w3.org/2000/svg">
<g clip-path="url(#clip0_361_380)">
<path d="M36.75 139.43C36.75 146.53 47.28 152.7 62.75 155.86C78.6094 158.904 94.9073 158.86 110.75 155.73C125.92 152.53 136.16 146.43 136.16 139.43C136.16 129.11 113.9 120.75 86.44 120.75C58.98 120.75 36.75 129.11 36.75 139.43ZM100.9 139.43C100.9 143.09 94.44 146.05 86.48 146.05C78.52 146.05 72.05 143.05 72.05 139.43C72.05 135.81 78.51 132.81 86.48 132.81C94.45 132.81 100.9 135.74 100.9 139.43V139.43Z" fill="#FFFBF3" stroke="#023A2F" stroke-width="3.5" stroke-linecap="round" stroke-linejoin="round"/>
<path d="M86.51 132.81C94.51 132.81 100.93 135.81 100.93 139.43C100.93 143.05 94.47 146.05 86.51 146.05C78.55 146.05 72.08 143.05 72.08 139.43C72.08 135.81 78.51 132.81 86.51 132.81Z" stroke="#023A2F" stroke-width="3.5" stroke-linecap="round" stroke-linejoin="round"/>
<path d="M36.75 139.43C36.75 146.53 47.28 152.7 62.75 155.86C70.5751 157.401 78.5348 158.155 86.51 158.11H151.09C152.069 158.11 153.007 158.499 153.699 159.191C154.391 159.883 154.78 160.822 154.78 161.8V238.89C154.777 239.867 154.387 240.803 153.696 241.493C153.004 242.183 152.067 242.57 151.09 242.57H86.51C85.51 242.57 84.51 242.57 83.51 242.57C57.43 241.99 36.76 233.86 36.76 223.92L36.75 139.43Z" fill="#FFFBF3" stroke="#023A2F" stroke-width="3.5" stroke-linecap="round" stroke-linejoin="round"/>
<path d="M136.2 139.43V158.11H110.79V155.74C125.96 152.53 136.2 146.43 136.2 139.43Z" fill="#FFFBF3" stroke="#023A2F" stroke-width="3.5" stroke-linecap="round" stroke-linejoin="round"/>
<path d="M88.8 168.01V174.01C88.6599 174.396 88.4043 174.73 88.0679 174.965C87.7315 175.201 87.3308 175.327 86.92 175.327C86.5093 175.327 86.1085 175.201 85.7721 174.965C85.4358 174.73 85.1801 174.396 85.04 174.01V168.01C85.1534 167.598 85.3987 167.235 85.7383 166.976C86.0779 166.718 86.4931 166.578 86.92 166.578C87.3469 166.578 87.7621 166.718 88.1017 166.976C88.4413 167.235 88.6866 167.598 88.8 168.01V168.01ZM88.8 183.55V189.55C88.6866 189.961 88.4413 190.325 88.1017 190.583C87.7621 190.842 87.3469 190.982 86.92 190.982C86.4931 190.982 86.0779 190.842 85.7383 190.583C85.3987 190.325 85.1534 189.961 85.04 189.55V183.55C85.1801 183.164 85.4358 182.83 85.7721 182.594C86.1085 182.359 86.5093 182.232 86.92 182.232C87.3308 182.232 87.7315 182.359 88.0679 182.594C88.4043 182.83 88.6599 183.164 88.8 183.55ZM88.8 199.09V205.09C88.6866 205.501 88.4413 205.864 88.1017 206.123C87.7621 206.382 87.3469 206.522 86.92 206.522C86.4931 206.522 86.0779 206.382 85.7383 206.123C85.3987 205.864 85.1534 205.501 85.04 205.09V199.09C85.1801 198.704 85.4358 198.37 85.7721 198.134C86.1085 197.899 86.5093 197.772 86.92 197.772C87.3308 197.772 87.7315 197.899 88.0679 198.134C88.4043 198.37 88.6599 198.704 88.8 199.09V199.09ZM88.8 214.64V220.64C88.6599 221.026 88.4043 221.36 88.0679 221.595C87.7315 221.831 87.3308 221.958 86.92 221.958C86.5093 221.958 86.1085 221.831 85.7721 221.595C85.4358 221.36 85.1801 221.026 85.04 220.64V214.64C85.1801 214.254 85.4358 213.92 85.7721 213.684C86.1085 213.449 86.5093 213.322 86.92 213.322C87.3308 213.322 87.7315 213.449 88.0679 213.684C88.4043 213.92 88.6599 214.254 88.8 214.64V214.64ZM88.8 230.18V236.18C88.6599 236.566 88.4043 236.9 88.0679 237.135C87.7315 237.371 87.3308 237.498 86.92 237.498C86.5093 237.498 86.1085 237.371 85.7721 237.135C85.4358 236.9 85.1801 236.566 85.04 236.18V230.18C85.1801 229.794 85.4358 229.46 85.7721 229.224C86.1085 228.989 86.5093 228.862 86.92 228.862C87.3308 228.862 87.7315 228.989 88.0679 229.224C88.4043 229.46 88.6599 229.794 88.8 230.18V230.18Z" fill="#023A2F"/>
<path d="M95.75 155.43C95.75 162.53 106.28 168.7 121.8 171.86C137.659 174.904 153.957 174.86 169.8 171.73C184.97 168.53 195.21 162.43 195.21 155.43C195.21 145.11 172.95 136.75 145.49 136.75C118.03 136.75 95.75 145.11 95.75 155.43ZM159.9 155.43C159.9 159.09 153.44 162.05 145.48 162.05C137.52 162.05 131.05 159.05 131.05 155.43C131.05 151.81 137.51 148.81 145.48 148.81C153.45 148.81 159.9 151.74 159.9 155.43Z" fill="#FFFBF3" stroke="#023A2F" stroke-width="3.5" stroke-linecap="round" stroke-linejoin="round"/>
<path d="M145.51 148.81C153.51 148.81 159.93 151.81 159.93 155.43C159.93 159.05 153.47 162.05 145.51 162.05C137.55 162.05 131.08 159.05 131.08 155.43C131.08 151.81 137.51 148.81 145.51 148.81Z" fill="#FFFBF3" stroke="#023A2F" stroke-width="3.5" stroke-linecap="round" stroke-linejoin="round"/>
<path d="M95.75 155.43C95.75 162.53 106.28 168.7 121.8 171.86C129.609 173.397 137.551 174.151 145.51 174.11H210.09C211.069 174.11 212.007 174.499 212.699 175.191C213.391 175.883 213.78 176.822 213.78 177.8V254.89C213.777 255.867 213.387 256.803 212.696 257.493C212.004 258.183 211.067 258.57 210.09 258.57H145.51C144.51 258.57 143.51 258.57 142.51 258.57C116.43 257.99 95.76 249.86 95.76 239.92L95.75 155.43Z" fill="#FFFBF3" stroke="#023A2F" stroke-width="3.5" stroke-linecap="round" stroke-linejoin="round"/>
<path d="M195.2 155.43V174.11H169.79V171.74C184.96 168.53 195.2 162.43 195.2 155.43Z" fill="#FFFBF3" stroke="#023A2F" stroke-width="3.5" stroke-linecap="round" stroke-linejoin="round"/>
<path d="M147.8 184.01V190.01C147.66 190.396 147.404 190.73 147.068 190.965C146.732 191.201 146.331 191.328 145.92 191.328C145.509 191.328 145.108 191.201 144.772 190.965C144.436 190.73 144.18 190.396 144.04 190.01V184.01C144.18 183.624 144.436 183.29 144.772 183.055C145.108 182.819 145.509 182.692 145.92 182.692C146.331 182.692 146.732 182.819 147.068 183.055C147.404 183.29 147.66 183.624 147.8 184.01V184.01ZM147.8 199.55V205.55C147.687 205.962 147.441 206.325 147.102 206.583C146.762 206.842 146.347 206.982 145.92 206.982C145.493 206.982 145.078 206.842 144.738 206.583C144.399 206.325 144.153 205.962 144.04 205.55V199.55C144.18 199.164 144.436 198.83 144.772 198.595C145.108 198.359 145.509 198.232 145.92 198.232C146.331 198.232 146.732 198.359 147.068 198.595C147.404 198.83 147.66 199.164 147.8 199.55ZM147.8 215.1V221.1C147.66 221.486 147.404 221.82 147.068 222.055C146.732 222.291 146.331 222.418 145.92 222.418C145.509 222.418 145.108 222.291 144.772 222.055C144.436 221.82 144.18 221.486 144.04 221.1V215.1C144.153 214.688 144.399 214.325 144.738 214.067C145.078 213.808 145.493 213.668 145.92 213.668C146.347 213.668 146.762 213.808 147.102 214.067C147.441 214.325 147.687 214.688 147.8 215.1V215.1ZM147.8 230.64V236.64C147.66 237.026 147.404 237.36 147.068 237.595C146.732 237.831 146.331 237.958 145.92 237.958C145.509 237.958 145.108 237.831 144.772 237.595C144.436 237.36 144.18 237.026 144.04 236.64V230.64C144.18 230.254 144.436 229.92 144.772 229.685C145.108 229.449 145.509 229.322 145.92 229.322C146.331 229.322 146.732 229.449 147.068 229.685C147.404 229.92 147.66 230.254 147.8 230.64ZM147.8 246.18V252.18C147.687 252.592 147.441 252.955 147.102 253.213C146.762 253.472 146.347 253.612 145.92 253.612C145.493 253.612 145.078 253.472 144.738 253.213C144.399 252.955 144.153 252.592 144.04 252.18V246.18C144.18 245.794 144.436 245.46 144.772 245.225C145.108 244.989 145.509 244.862 145.92 244.862C146.331 244.862 146.732 244.989 147.068 245.225C147.404 245.46 147.66 245.794 147.8 246.18Z" fill="#023A2F"/>
</g>
<defs>
<clipPath id="clip0_361_380">
<rect width="180.5" height="141.33" fill="white" transform="translate(35 119)"/>
</clipPath>
</defs>
</svg>
