<svg width="556" height="556" viewBox="0 0 556 556" fill="none" xmlns="http://www.w3.org/2000/svg">
<path d="M345.16 145.701L320.28 197.501C318.65 200.831 319.53 204.321 322.75 206.151C324.61 207.201 328.31 206.301 331.1 202.681L350.42 173.391L329.51 209.291C328.449 210.793 328.027 212.656 328.338 214.469C328.65 216.283 329.668 217.898 331.17 218.961C334.26 220.961 337.54 219.251 339.72 215.961L364.93 181.771L349.6 207.771C347.32 211.331 345.35 213.911 347.97 216.541C349.245 217.768 350.946 218.454 352.715 218.454C354.485 218.454 356.186 217.768 357.46 216.541L392.64 175.701" fill="#DDDDDD"/>
<path d="M345.16 145.701L320.28 197.501C318.65 200.831 319.53 204.321 322.75 206.151C324.61 207.201 328.31 206.301 331.1 202.681L350.42 173.391L329.51 209.291C328.449 210.793 328.027 212.656 328.338 214.469C328.65 216.283 329.668 217.898 331.17 218.961C334.26 220.961 337.54 219.251 339.72 215.961L364.93 181.771L349.6 207.771C347.32 211.331 345.35 213.911 347.97 216.541C349.245 217.768 350.946 218.454 352.715 218.454C354.485 218.454 356.186 217.768 357.46 216.541L392.64 175.701" stroke="#023A2F" stroke-width="1.51" stroke-miterlimit="10"/>
<path d="M363.24 159.491C367.065 161.207 370.176 164.196 372.045 167.948C373.914 171.7 374.425 175.984 373.49 180.071C372.98 182.079 372.015 183.944 370.67 185.521L355.8 203.771C355.176 204.385 354.679 205.117 354.337 205.924C353.995 206.73 353.816 207.597 353.809 208.473C353.802 209.349 353.968 210.218 354.296 211.03C354.625 211.842 355.111 212.581 355.725 213.206C356.34 213.83 357.072 214.328 357.878 214.669C358.685 215.011 359.551 215.19 360.427 215.197C361.304 215.204 362.172 215.039 362.985 214.71C363.797 214.381 364.536 213.895 365.16 213.281L427.45 163.411C427.82 163.116 428.117 162.742 428.322 162.316C428.526 161.89 428.632 161.423 428.63 160.951V133.771C428.634 132.984 428.342 132.225 427.812 131.644C427.282 131.062 426.554 130.701 425.77 130.631L385.99 127.011C385.461 126.968 384.929 127.054 384.44 127.261L346.73 143.701C346.73 143.701 345.3 145.501 345.27 145.571C345.24 145.641 343.85 148.511 343.5 149.131" fill="#DDDDDD"/>
<path d="M363.24 159.491C367.065 161.207 370.176 164.196 372.045 167.948C373.914 171.7 374.425 175.984 373.49 180.071C372.98 182.079 372.015 183.944 370.67 185.521L355.8 203.771C355.176 204.385 354.679 205.117 354.337 205.924C353.995 206.73 353.816 207.597 353.809 208.473C353.802 209.349 353.968 210.218 354.296 211.03C354.625 211.842 355.111 212.581 355.725 213.206C356.34 213.83 357.072 214.328 357.878 214.669C358.685 215.011 359.551 215.19 360.427 215.197C361.304 215.204 362.172 215.039 362.985 214.71C363.797 214.381 364.536 213.895 365.16 213.281L427.45 163.411C427.82 163.116 428.117 162.742 428.322 162.316C428.526 161.89 428.632 161.423 428.63 160.951V133.771C428.634 132.984 428.342 132.225 427.812 131.644C427.282 131.062 426.554 130.701 425.77 130.631L385.99 127.011C385.461 126.968 384.929 127.054 384.44 127.261L346.73 143.701C346.73 143.701 345.3 145.501 345.27 145.571C345.24 145.641 343.85 148.511 343.5 149.131" stroke="#023A2F" stroke-width="1.51" stroke-miterlimit="10"/>
<path d="M367.99 193.931H362.58L354.58 203.791C353.319 205.039 352.605 206.736 352.596 208.511C352.586 210.285 353.282 211.99 354.53 213.251C355.778 214.512 357.476 215.226 359.25 215.235C361.024 215.245 362.729 214.549 363.99 213.301L370.66 207.951V196.521C370.66 196.174 370.591 195.831 370.456 195.511C370.32 195.191 370.122 194.902 369.873 194.661C369.624 194.419 369.329 194.23 369.006 194.105C368.682 193.979 368.337 193.92 367.99 193.931V193.931Z" fill="#DDDDDD"/>
<path d="M353.38 244.441V252.301C353.38 252.997 353.944 253.561 354.64 253.561H359.99C360.686 253.561 361.25 252.997 361.25 252.301V244.441C361.25 243.745 360.686 243.181 359.99 243.181H354.64C353.944 243.181 353.38 243.745 353.38 244.441Z" fill="#EAE3C2"/>
<path d="M356.12 243.171V246.351C356.122 246.471 356.172 246.586 356.258 246.67C356.344 246.754 356.46 246.801 356.58 246.801H359.75C359.896 246.801 360.036 246.859 360.139 246.962C360.242 247.065 360.3 247.205 360.3 247.351V249.441C360.3 249.513 360.286 249.585 360.258 249.651C360.23 249.718 360.19 249.779 360.139 249.83C360.088 249.881 360.027 249.921 359.96 249.949C359.894 249.977 359.822 249.991 359.75 249.991H354.87C354.723 249.991 354.582 249.933 354.477 249.83C354.373 249.728 354.312 249.588 354.31 249.441V248.621C354.31 248.59 354.304 248.559 354.291 248.531C354.279 248.502 354.261 248.476 354.239 248.455C354.217 248.433 354.19 248.416 354.161 248.405C354.132 248.395 354.101 248.39 354.07 248.391H353.38" stroke="#B8B8B8" stroke-width="0.33" stroke-miterlimit="10"/>
<path d="M360.3 248.401H361.25" stroke="#B8B8B8" stroke-width="0.33" stroke-miterlimit="10"/>
<path d="M358.45 246.801V243.171" stroke="#B8B8B8" stroke-width="0.33" stroke-miterlimit="10"/>
<path d="M358.46 246.471C358.46 246.558 358.425 246.642 358.363 246.704C358.301 246.766 358.217 246.801 358.13 246.801H358.46V246.471Z" stroke="#B8B8B8" stroke-width="0.33" stroke-miterlimit="10"/>
<path d="M358.46 246.471C358.459 246.514 358.466 246.556 358.482 246.596C358.497 246.636 358.52 246.673 358.55 246.703C358.58 246.734 358.616 246.759 358.655 246.775C358.695 246.792 358.737 246.801 358.78 246.801H358.46V246.471Z" stroke="#B8B8B8" stroke-width="0.33" stroke-miterlimit="10"/>
<path d="M356.1 250.321C356.1 250.233 356.134 250.149 356.196 250.087C356.258 250.026 356.342 249.991 356.43 249.991H356.1V250.321Z" stroke="#B8B8B8" stroke-width="0.33" stroke-miterlimit="10"/>
<path d="M356.1 250.321C356.101 250.278 356.094 250.235 356.078 250.195C356.063 250.155 356.04 250.119 356.01 250.088C355.98 250.057 355.944 250.033 355.905 250.016C355.865 249.999 355.823 249.991 355.78 249.991H356.1V250.321Z" stroke="#B8B8B8" stroke-width="0.33" stroke-miterlimit="10"/>
<path d="M356.1 253.551V250.311" stroke="#B8B8B8" stroke-width="0.33" stroke-miterlimit="10"/>
<path d="M358.46 250.321C358.459 250.278 358.466 250.235 358.482 250.195C358.497 250.155 358.52 250.119 358.55 250.088C358.58 250.057 358.616 250.033 358.655 250.016C358.695 249.999 358.737 249.991 358.78 249.991H358.46V250.321Z" stroke="#B8B8B8" stroke-width="0.33" stroke-miterlimit="10"/>
<path d="M358.46 250.321C358.46 250.233 358.425 250.149 358.363 250.087C358.301 250.026 358.217 249.991 358.13 249.991H358.46V250.321Z" stroke="#B8B8B8" stroke-width="0.33" stroke-miterlimit="10"/>
<path d="M358.45 253.551V250.311" stroke="#B8B8B8" stroke-width="0.33" stroke-miterlimit="10"/>
<path d="M363.99 213.281C363.366 213.895 362.626 214.381 361.814 214.71C361.002 215.039 360.133 215.204 359.257 215.197C358.381 215.19 357.515 215.011 356.708 214.669C355.901 214.327 355.17 213.83 354.555 213.206C353.94 212.581 353.455 211.842 353.126 211.03C352.797 210.218 352.631 209.349 352.638 208.473C352.645 207.597 352.825 206.73 353.167 205.924C353.508 205.117 354.006 204.385 354.63 203.771L362.63 193.911H325.83C325.489 193.909 325.151 193.975 324.836 194.105C324.52 194.235 324.234 194.425 323.992 194.666C323.751 194.906 323.559 195.192 323.428 195.507C323.297 195.822 323.23 196.16 323.23 196.501V260.321C323.23 260.662 323.297 260.999 323.428 261.314C323.559 261.629 323.751 261.915 323.992 262.156C324.234 262.396 324.52 262.587 324.836 262.716C325.151 262.846 325.489 262.912 325.83 262.911H367.99C368.677 262.911 369.336 262.638 369.821 262.152C370.307 261.666 370.58 261.008 370.58 260.321V207.931L363.99 213.281ZM361.29 248.411V252.301C361.29 252.635 361.157 252.955 360.921 253.192C360.685 253.428 360.364 253.561 360.03 253.561H354.68C354.346 253.561 354.025 253.428 353.789 253.192C353.553 252.955 353.42 252.635 353.42 252.301V244.431C353.42 244.096 353.553 243.776 353.789 243.54C354.025 243.303 354.346 243.171 354.68 243.171H359.99C360.324 243.171 360.645 243.303 360.881 243.54C361.117 243.776 361.25 244.096 361.25 244.431L361.29 248.411Z" fill="#B8B8B8"/>
<path d="M423.7 302.651H270.79C268.277 302.651 266.24 304.688 266.24 307.201V423.681C266.24 426.194 268.277 428.231 270.79 428.231H423.7C426.213 428.231 428.25 426.194 428.25 423.681V307.201C428.25 304.688 426.213 302.651 423.7 302.651Z" fill="#DDDDDD"/>
<path d="M396.78 336.461H297.7V394.421H396.78V336.461Z" fill="#B8B8B8"/>
<path d="M129.8 343.661H266.24V387.241H129.8C129.432 387.241 129.068 387.168 128.728 387.028C128.389 386.887 128.08 386.681 127.82 386.421C127.56 386.161 127.354 385.852 127.213 385.512C127.072 385.172 127 384.808 127 384.441V346.441C127.005 345.702 127.303 344.994 127.827 344.474C128.352 343.953 129.061 343.661 129.8 343.661Z" fill="#DDDDDD"/>
<path d="M256.73 314.111H136.4C135.941 314.111 135.57 314.482 135.57 314.941V415.951C135.57 416.409 135.941 416.781 136.4 416.781H256.73C257.188 416.781 257.56 416.409 257.56 415.951V314.941C257.56 314.482 257.188 314.111 256.73 314.111Z" fill="#DDDDDD" stroke="#023A2F" stroke-width="1.51" stroke-miterlimit="10"/>
<path d="M347.24 273.971V291.591" stroke="#FFFBF3" stroke-width="2.51" stroke-miterlimit="10" stroke-linecap="round"/>
<path d="M351.12 287.171L347.25 291.591" stroke="#FFFBF3" stroke-width="2.51" stroke-miterlimit="10" stroke-linecap="round"/>
<path d="M347.24 291.591L343.37 287.171" stroke="#FFFBF3" stroke-width="2.51" stroke-miterlimit="10" stroke-linecap="round"/>
</svg>
