<svg width="78" height="78" viewBox="0 0 78 78" fill="none" xmlns="http://www.w3.org/2000/svg">
<circle cx="39" cy="39" r="39" fill="#DDDDDD"/>
<path d="M37.296 56C36.976 56 36.704 55.888 36.48 55.664C36.256 55.44 36.144 55.168 36.144 54.848V29.984L28.848 35.6C28.656 35.76 28.432 35.84 28.176 35.84C27.792 35.84 27.472 35.664 27.216 35.312L25.2 32.72C25.04 32.464 24.96 32.224 24.96 32C24.96 31.616 25.136 31.296 25.488 31.04L36.24 22.736C36.528 22.512 36.928 22.4 37.44 22.4H41.664C42.016 22.4 42.288 22.512 42.48 22.736C42.704 22.928 42.816 23.2 42.816 23.552V54.848C42.816 55.168 42.704 55.44 42.48 55.664C42.288 55.888 42.016 56 41.664 56H37.296Z" fill="#023A2F"/>
</svg>
