<?xml version="1.0" encoding="UTF-8"?>
<svg id="Livello_2" data-name="Livello 2" xmlns="http://www.w3.org/2000/svg" viewBox="0 0 538.58 538.58">
  <defs>
    <style>
      .cls-1, .cls-2 {
        fill: #ddd;
      }

      .cls-3 {
        fill: #023a2f;
      }

      .cls-2, .cls-4 {
        stroke-miterlimit: 10;
      }

      .cls-2, .cls-4, .cls-5, .cls-6 {
        stroke: #023a2f;
        stroke-width: 1.52px;
      }

      .cls-4, .cls-5, .cls-6, .cls-7 {
        fill: none;
      }

      .cls-5 {
        stroke-dasharray: 0 0 14.87 14.87;
      }

      .cls-5, .cls-6 {
        stroke-linecap: round;
        stroke-linejoin: round;
      }

      .cls-8 {
        fill: #b8b8b8;
      }
    </style>
  </defs>
  <g id="Livello_1-2" data-name="Livello 1">
    <g>
      <path class="cls-1" d="M400.1,139.81h-42.17c-1.48,0-2.69,1.2-2.69,2.69v63.83c0,1.48,1.2,2.69,2.69,2.69h42.17c1.48,0,2.69-1.2,2.69-2.69v-63.83c0-1.48-1.2-2.69-2.69-2.69Z"/>
      <path class="cls-8" d="M131.22,307.31l57.72,4.51c3.71,.25,6.31,2.76,6.31,6.48,0,2.14-2.65,4.91-7.21,5.53l-35.17,2.16,41.67-.24c.91-.08,1.83,.01,2.71,.28,.88,.27,1.69,.71,2.39,1.3,.7,.59,1.29,1.31,1.71,2.12,.43,.81,.69,1.7,.77,2.61,.23,3.72-2.94,5.69-6.9,5.93l-42.34,4.83,30.27-.34c4.24-.21,7.47-.63,8.44,2.96,.44,1.72,.19,3.54-.7,5.08-.88,1.54-2.33,2.68-4.03,3.18l-53.04,10.16"/>
      <path class="cls-4" d="M131.22,307.31l57.72,4.51c3.71,.25,6.31,2.76,6.31,6.48,0,2.14-2.65,4.91-7.21,5.53l-35.17,2.16,41.67-.24c.91-.08,1.83,.01,2.71,.28,.88,.27,1.69,.71,2.39,1.3,.7,.59,1.29,1.31,1.71,2.12,.43,.81,.69,1.7,.77,2.61,.23,3.72-2.94,5.69-6.9,5.93l-42.34,4.83,30.27-.34c4.24-.21,7.47-.63,8.44,2.96,.44,1.72,.19,3.54-.7,5.08-.88,1.54-2.33,2.68-4.03,3.18l-53.04,10.16"/>
      <path class="cls-1" d="M455.71,171.29h-153.38c-2.52,0-4.56,2.04-4.56,4.56v116.84c0,2.52,2.04,4.56,4.56,4.56h153.38c2.52,0,4.56-2.04,4.56-4.56v-116.84c0-2.52-2.04-4.56-4.56-4.56Z"/>
      <path class="cls-8" d="M428.71,205.2h-99.38v58.13h99.38v-58.13Z"/>
      <path class="cls-1" d="M160.91,212.42h136.86v43.72H160.91c-.75,0-1.46-.3-1.99-.82-.53-.53-.82-1.24-.82-1.99v-38.1c0-.74,.3-1.46,.83-1.98,.53-.53,1.24-.82,1.99-.82h0Z"/>
      <path class="cls-2" d="M287.86,182.78h-119.96c-.66,0-1.2,.54-1.2,1.2v213.6c0,.66,.54,1.2,1.2,1.2h119.96c.66,0,1.2-.54,1.2-1.2V183.98c0-.66-.54-1.2-1.2-1.2Z"/>
      <path class="cls-6" d="M287.5,276.4h-7.58"/>
      <path class="cls-5" d="M265.05,276.4h-81.77"/>
      <path class="cls-6" d="M175.84,276.4h-7.58"/>
      <path class="cls-8" d="M135.4,338.95c2.89,8.12,11.53,12.63,19.99,11.21l21.26-3.47c.85-.25,1.74-.32,2.62-.22,.88,.1,1.73,.37,2.5,.8,.77,.43,1.45,1.01,2,1.7,.55,.69,.95,1.49,1.19,2.34,.24,.85,.31,1.74,.2,2.62-.11,.88-.39,1.73-.83,2.49-.44,.77-1.02,1.44-1.72,1.98-.7,.54-1.5,.94-2.35,1.17l-73.71,28.93c-.69,.27-1.44,.38-2.18,.33-.74-.05-1.46-.28-2.11-.64l-21.46-12.34c-1.08-.62-1.88-1.62-2.26-2.8-.38-1.18-.3-2.46,.22-3.59l15.85-34.45c.35-.76,.88-1.41,1.55-1.91l32.81-24.35s2.17-1.46,2.25-1.46"/>
      <path class="cls-4" d="M135.4,338.95c2.89,8.12,11.53,12.63,19.99,11.21l21.26-3.47c.85-.25,1.74-.32,2.62-.22,.88,.1,1.73,.37,2.5,.8,.77,.43,1.45,1.01,2,1.7,.55,.69,.95,1.49,1.19,2.34,.24,.85,.31,1.74,.2,2.62-.11,.88-.39,1.73-.83,2.49-.44,.77-1.02,1.44-1.72,1.98-.7,.54-1.5,.94-2.35,1.17l-73.71,28.93c-.69,.27-1.44,.38-2.18,.33-.74-.05-1.46-.28-2.11-.64l-21.46-12.34c-1.08-.62-1.88-1.62-2.26-2.8-.38-1.18-.3-2.46,.22-3.59l15.85-34.45c.35-.76,.88-1.41,1.55-1.91l32.81-24.35s2.17-1.46,2.25-1.46"/>
      <path class="cls-8" d="M133.13,333.08c-.9,8.78,6.31,15.93,14.43,18.4,2,.56,4.1,.65,6.14,.27l23.29-3.81c1.7-.46,3.52-.23,5.05,.65,1.53,.87,2.66,2.31,3.13,4.01,.48,1.7,.26,3.51-.6,5.06-.86,1.54-2.29,2.68-3.98,3.17l-75.05,27.13"/>
      <path class="cls-8" d="M161.94,354.17l2.71-4.71,12.63-2.06c1.7-.46,3.52-.23,5.05,.65,1.53,.87,2.66,2.31,3.13,4.01,.48,1.7,.26,3.52-.6,5.06-.86,1.54-2.29,2.68-3.98,3.17l-7.98,3.13-7.03-4.03-2.92-1.68c-.3-.17-.56-.39-.78-.66-.21-.27-.37-.58-.47-.9-.09-.33-.12-.67-.08-1.01,.04-.34,.15-.67,.31-.97h0Z"/>
      <path class="cls-3" d="M450.25,169.78h-128.93v1.52h128.93v-1.52Z"/>
    </g>
    <rect class="cls-7" width="538.58" height="538.58"/>
  </g>
</svg>