<svg width="556" height="556" viewBox="0 0 556 556" fill="none" xmlns="http://www.w3.org/2000/svg">
<g clip-path="url(#clip0_400_467)">
<path d="M422.814 252H376.054C374.408 252 373.074 253.334 373.074 254.98V325.76C373.074 327.406 374.408 328.74 376.054 328.74H422.814C424.46 328.74 425.794 327.406 425.794 325.76V254.98C425.794 253.334 424.46 252 422.814 252Z" fill="#DDDDDD"/>
<path d="M124.674 437.73L188.674 442.73C192.784 443.01 195.674 445.79 195.674 449.91C195.674 452.28 192.734 455.35 187.674 456.04L148.674 458.43L194.884 458.16C195.896 458.066 196.917 458.173 197.887 458.475C198.858 458.776 199.76 459.266 200.541 459.916C201.322 460.566 201.967 461.364 202.44 462.264C202.912 463.164 203.203 464.148 203.294 465.16C203.544 469.28 200.034 471.47 195.644 471.74L148.694 477.1L182.254 476.72C186.954 476.49 190.534 476.02 191.614 480C192.097 481.908 191.821 483.929 190.843 485.638C189.866 487.346 188.264 488.609 186.374 489.16L127.564 500.43" fill="#B8B8B8"/>
<path d="M124.674 437.73L188.674 442.73C192.784 443.01 195.674 445.79 195.674 449.91C195.674 452.28 192.734 455.35 187.674 456.04L148.674 458.43L194.884 458.16C195.896 458.066 196.917 458.173 197.887 458.475C198.858 458.776 199.76 459.266 200.541 459.916C201.322 460.566 201.967 461.364 202.44 462.264C202.912 463.164 203.203 464.148 203.294 465.16C203.544 469.28 200.034 471.47 195.644 471.74L148.694 477.1L182.254 476.72C186.954 476.49 190.534 476.02 191.614 480C192.097 481.908 191.821 483.929 190.843 485.638C189.866 487.346 188.264 488.609 186.374 489.16L127.564 500.43" stroke="#023A2F" stroke-width="1.68" stroke-miterlimit="10"/>
<path d="M484.474 286.91H314.404C311.61 286.91 309.344 289.176 309.344 291.97V421.52C309.344 424.315 311.61 426.58 314.404 426.58H484.474C487.269 426.58 489.534 424.315 489.534 421.52V291.97C489.534 289.176 487.269 286.91 484.474 286.91Z" fill="#DDDDDD"/>
<path d="M454.534 324.51H344.334V388.97H454.534V324.51Z" fill="#B8B8B8"/>
<path d="M157.595 332.52H309.345V381H157.595C156.767 381 155.974 380.671 155.388 380.086C154.803 379.501 154.475 378.707 154.475 377.88V335.63C154.477 334.804 154.807 334.013 155.392 333.43C155.977 332.847 156.769 332.52 157.595 332.52V332.52Z" fill="#DDDDDD"/>
<path d="M298.354 299.65H165.334C164.6 299.65 164.004 300.245 164.004 300.98V537.82C164.004 538.554 164.6 539.15 165.334 539.15H298.354C299.089 539.15 299.684 538.554 299.684 537.82V300.98C299.684 300.245 299.089 299.65 298.354 299.65Z" fill="#DDDDDD" stroke="#023A2F" stroke-width="1.68" stroke-miterlimit="10"/>
<path d="M231.844 557.19V576.78" stroke="#FFFBF3" stroke-width="2.79" stroke-miterlimit="10" stroke-linecap="round"/>
<path d="M297.954 403.46H289.544" stroke="#023A2F" stroke-width="1.68" stroke-linecap="round" stroke-linejoin="round"/>
<path d="M273.064 403.46H182.394" stroke="#023A2F" stroke-width="1.68" stroke-linecap="round" stroke-linejoin="round" stroke-dasharray="16.49 16.49"/>
<path d="M174.144 403.46H165.744" stroke="#023A2F" stroke-width="1.68" stroke-linecap="round" stroke-linejoin="round"/>
<path d="M129.304 472.81C132.504 481.81 142.084 486.81 151.474 485.24L175.044 481.39C175.986 481.116 176.972 481.032 177.947 481.142C178.921 481.252 179.864 481.554 180.721 482.031C181.578 482.507 182.332 483.149 182.94 483.919C183.547 484.688 183.996 485.571 184.26 486.515C184.525 487.459 184.599 488.447 184.48 489.42C184.36 490.393 184.049 491.333 183.564 492.185C183.079 493.038 182.43 493.785 181.654 494.385C180.878 494.985 179.991 495.425 179.044 495.68L97.3143 527.76C96.5468 528.061 95.7216 528.185 94.8995 528.125C94.0775 528.064 93.2795 527.82 92.5643 527.41L68.7643 513.73C67.572 513.045 66.6791 511.938 66.2609 510.628C65.8428 509.318 65.9296 507.899 66.5043 506.65L84.0743 468.45C84.4622 467.611 85.0534 466.882 85.7943 466.33L122.174 439.33C122.174 439.33 124.584 437.71 124.674 437.71" fill="#B8B8B8"/>
<path d="M129.304 472.81C132.504 481.81 142.084 486.81 151.474 485.24L175.044 481.39C175.986 481.116 176.972 481.032 177.947 481.142C178.921 481.252 179.864 481.554 180.721 482.031C181.578 482.507 182.332 483.149 182.94 483.919C183.547 484.688 183.996 485.571 184.26 486.515C184.525 487.459 184.599 488.447 184.48 489.42C184.36 490.393 184.049 491.333 183.564 492.185C183.079 493.038 182.43 493.785 181.654 494.385C180.878 494.985 179.991 495.425 179.044 495.68L97.3143 527.76C96.5468 528.061 95.7216 528.185 94.8995 528.125C94.0775 528.064 93.2795 527.82 92.5643 527.41L68.7643 513.73C67.572 513.045 66.6791 511.938 66.2609 510.628C65.8428 509.318 65.9296 507.899 66.5043 506.65L84.0743 468.45C84.4622 467.611 85.0534 466.882 85.7943 466.33L122.174 439.33C122.174 439.33 124.584 437.71 124.674 437.71" stroke="#023A2F" stroke-width="1.68" stroke-miterlimit="10"/>
<path d="M126.784 466.31C125.784 476.04 133.784 483.97 142.784 486.71C145.001 487.33 147.331 487.432 149.594 487.01L175.424 482.79C177.312 482.282 179.324 482.539 181.024 483.506C182.723 484.473 183.972 486.072 184.499 487.955C185.026 489.838 184.788 491.852 183.838 493.561C182.888 495.27 181.302 496.534 179.424 497.08L96.2041 527.16" fill="#B8B8B8"/>
<path d="M158.734 489.69L161.734 484.47L175.734 482.19C177.622 481.681 179.635 481.939 181.334 482.906C183.033 483.873 184.282 485.472 184.809 487.354C185.336 489.237 185.099 491.252 184.148 492.961C183.198 494.67 181.612 495.934 179.734 496.48L170.884 499.95L163.094 495.48L159.854 493.62C159.522 493.436 159.229 493.189 158.992 492.891C158.756 492.594 158.581 492.253 158.476 491.888C158.372 491.523 158.342 491.14 158.386 490.763C158.43 490.386 158.548 490.021 158.734 489.69V489.69Z" fill="#B8B8B8"/>
<path d="M478.424 285.23H335.464V286.91H478.424V285.23Z" fill="#023A2F"/>
</g>
<defs>
<clipPath id="clip0_400_467">
<rect width="556" height="556" fill="white"/>
</clipPath>
</defs>
</svg>
