<svg width="78" height="78" viewBox="0 0 78 78" fill="none" xmlns="http://www.w3.org/2000/svg">
<circle cx="39" cy="39" r="39" fill="#DDDDDD"/>
<path d="M28.312 56C27.992 56 27.72 55.888 27.496 55.664C27.272 55.44 27.16 55.168 27.16 54.848V52.4C27.16 51.536 27.56 50.784 28.36 50.144L35.944 42.608C39.24 40.016 41.528 38 42.808 36.56C44.12 35.088 44.776 33.648 44.776 32.24C44.776 30.736 44.36 29.552 43.528 28.688C42.728 27.824 41.512 27.392 39.88 27.392C38.28 27.392 37.016 27.872 36.088 28.832C35.16 29.76 34.584 30.976 34.36 32.48C34.264 32.864 34.088 33.152 33.832 33.344C33.576 33.504 33.288 33.584 32.968 33.584H28.696C28.408 33.584 28.168 33.488 27.976 33.296C27.784 33.104 27.688 32.88 27.688 32.624C27.752 30.736 28.264 28.976 29.224 27.344C30.184 25.68 31.576 24.352 33.4 23.36C35.224 22.336 37.368 21.824 39.832 21.824C42.392 21.824 44.552 22.272 46.312 23.168C48.104 24.032 49.448 25.232 50.344 26.768C51.24 28.304 51.688 30.048 51.688 32C51.688 34.144 51.08 36.08 49.864 37.808C48.68 39.536 46.856 41.392 44.392 43.376L37.576 50.288H51.256C51.608 50.288 51.88 50.4 52.072 50.624C52.296 50.816 52.408 51.088 52.408 51.44V54.848C52.408 55.168 52.296 55.44 52.072 55.664C51.88 55.888 51.608 56 51.256 56H28.312Z" fill="#023A2F"/>
</svg>
