<svg width="78" height="78" viewBox="0 0 78 78" fill="none" xmlns="http://www.w3.org/2000/svg">
<circle cx="39" cy="39" r="39" fill="#DDDDDD"/>
<path d="M39.928 56.48C37.112 56.48 34.712 56.032 32.728 55.136C30.776 54.24 29.304 53.12 28.312 51.776C27.352 50.4 26.84 48.992 26.776 47.552C26.776 47.264 26.872 47.04 27.064 46.88C27.288 46.688 27.544 46.592 27.832 46.592H32.152C32.856 46.592 33.32 46.912 33.544 47.552C34.248 49.856 36.392 51.008 39.976 51.008C41.928 51.008 43.464 50.56 44.584 49.664C45.704 48.736 46.264 47.424 46.264 45.728C46.264 42.528 44.264 40.928 40.264 40.928H35.32C34.968 40.928 34.68 40.816 34.456 40.592C34.232 40.368 34.12 40.096 34.12 39.776V37.76C34.12 37.248 34.344 36.768 34.792 36.32L43.384 27.92H29.656C29.336 27.92 29.064 27.808 28.84 27.584C28.616 27.36 28.504 27.088 28.504 26.768V23.6C28.504 23.248 28.6 22.96 28.792 22.736C29.016 22.512 29.304 22.4 29.656 22.4H50.248C50.6 22.4 50.888 22.512 51.112 22.736C51.336 22.96 51.448 23.248 51.448 23.6V26.48C51.448 26.96 51.24 27.408 50.824 27.824L42.52 36.368L43.096 36.416C46.168 36.672 48.6 37.6 50.392 39.2C52.216 40.8 53.128 43.088 53.128 46.064C53.128 48.176 52.552 50.016 51.4 51.584C50.28 53.152 48.712 54.368 46.696 55.232C44.712 56.064 42.456 56.48 39.928 56.48Z" fill="#023A2F"/>
</svg>
